<mxfile host="app.diagrams.net" agent="Mozilla/5.0 (X11; Linux x86_64) AppleWebKit/537.36 (KHTML, like Gecko) Chrome/132.0.0.0 Safari/537.36" version="26.0.8" pages="7">
  <diagram name="Architecture" id="ohhxC1y3KA2zdkYaaeSZ">
    <mxGraphModel dx="2704" dy="1814" grid="1" gridSize="10" guides="1" tooltips="1" connect="1" arrows="1" fold="1" page="1" pageScale="1" pageWidth="827" pageHeight="1169" math="0" shadow="0">
      <root>
        <mxCell id="0" />
        <mxCell id="1" parent="0" />
        <UserObject label="" plantUmlData="{&#xa;  &quot;data&quot;: &quot;@startuml\nskinparam packageStyle Rectangle\nskinparam backgroundColor white\nskinparam shadowing true\nskinparam arrowColor #4285F4\nskinparam packageTitleAlignment left\nskinparam defaultTextAlignment center\nskinparam fontStyle bold\nskinparam roundCorner 10\nskinparam dpi 150\n\npackage \&quot;Backend\&quot; #FBBC05 {\n  [Module Utilisateurs] --&gt; [Base de données]\n  [Module Annonces] --&gt; [Base de données]\n  [Module Recherche] --&gt; [Base de données]\n  [Module Favoris et Alertes] --&gt; [Base de données]\n  [Module Messagerie] --&gt; [Base de données]\n  [Module Notation et Avis] --&gt; [Base de données]\n  [Module Administration] --&gt; [Base de données]\n}\n\npackage \&quot;Frontend\&quot; #34A853 {\n  [Interface Utilisateur] --&gt; [API Gateway]\n}\n\npackage \&quot;Services Externes\&quot; #EA4335 {\n  [Google Maps API] --&gt; [Module Recherche]\n  [Stripe/PayPal] --&gt; [Module Paiements]\n  [Twilio/SendGrid] --&gt; [Module Notifications]\n}\n\n[API Gateway] --&gt; [Module Utilisateurs]\n[API Gateway] --&gt; [Module Annonces]\n[API Gateway] --&gt; [Module Recherche]\n[API Gateway] --&gt; [Module Favoris et Alertes]\n[API Gateway] --&gt; [Module Messagerie]\n[API Gateway] --&gt; [Module Notation et Avis]\n[API Gateway] --&gt; [Module Administration]\n@enduml\n&quot;,&#xa;  &quot;format&quot;: &quot;svg&quot;&#xa;}" id="geiq835NCSnYt7UoWNzD-1">
          <mxCell style="shape=image;noLabel=1;verticalAlign=top;aspect=fixed;imageAspect=0;image=data:image/svg+xml,PD94bWwgdmVyc2lvbj0iMS4wIiBlbmNvZGluZz0idXMtYXNjaWkiIHN0YW5kYWxvbmU9Im5vIj8+PHN2ZyB4bWxucz0iaHR0cDovL3d3dy53My5vcmcvMjAwMC9zdmciIHhtbG5zOnhsaW5rPSJodHRwOi8vd3d3LnczLm9yZy8xOTk5L3hsaW5rIiBjb250ZW50U3R5bGVUeXBlPSJ0ZXh0L2NzcyIgaGVpZ2h0PSI2ODkuMDYyNXB4IiBwcmVzZXJ2ZUFzcGVjdFJhdGlvPSJub25lIiBzdHlsZT0id2lkdGg6MzE5NnB4O2hlaWdodDo2ODlweDtiYWNrZ3JvdW5kOiNGRkZGRkY7IiB2ZXJzaW9uPSIxLjEiIHZpZXdCb3g9IjAgMCAzMTk2IDY4OSIgd2lkdGg9IjMxOTYuODc1cHgiIHpvb21BbmRQYW49Im1hZ25pZnkiPjxkZWZzPjxmaWx0ZXIgaGVpZ2h0PSIzMDAlIiBpZD0iZjFodHZ5NGI2NWY4dDEiIHdpZHRoPSIzMDAlIiB4PSItMSIgeT0iLTEiPjxmZUdhdXNzaWFuQmx1ciByZXN1bHQ9ImJsdXJPdXQiIHN0ZERldmlhdGlvbj0iMy4xMjUiLz48ZmVDb2xvck1hdHJpeCBpbj0iYmx1ck91dCIgcmVzdWx0PSJibHVyT3V0MiIgdHlwZT0ibWF0cml4IiB2YWx1ZXM9IjAgMCAwIDAgMCAwIDAgMCAwIDAgMCAwIDAgMCAwIDAgMCAwIC40IDAiLz48ZmVPZmZzZXQgZHg9IjYuMjUiIGR5PSI2LjI1IiBpbj0iYmx1ck91dDIiIHJlc3VsdD0iYmx1ck91dDMiLz48ZmVCbGVuZCBpbj0iU291cmNlR3JhcGhpYyIgaW4yPSJibHVyT3V0MyIgbW9kZT0ibm9ybWFsIi8+PC9maWx0ZXI+PC9kZWZzPjxnPjwhLS1jbHVzdGVyIEJhY2tlbmQtLT48ZyBpZD0iY2x1c3Rlcl9CYWNrZW5kIj48cmVjdCBmaWxsPSIjRkJCQzA1IiBmaWx0ZXI9InVybCgjZjFodHZ5NGI2NWY4dDEpIiBoZWlnaHQ9IjMxMC45Mzc1IiByeD0iNy44MTI1IiByeT0iNy44MTI1IiBzdHlsZT0ic3Ryb2tlOiMxODE4MTg7c3Ryb2tlLXdpZHRoOjEuNTYyNTsiIHdpZHRoPSIyMzA3LjgxMjUiIHg9IjEwLjkzNzUiIHk9IjM1OS4zNzUiLz48dGV4dCBmaWxsPSIjMDAwMDAwIiBmb250LWZhbWlseT0ic2Fucy1zZXJpZiIgZm9udC1zaXplPSIyMS44NzUiIGZvbnQtd2VpZ2h0PSJib2xkIiBsZW5ndGhBZGp1c3Q9InNwYWNpbmciIHRleHRMZW5ndGg9Ijc2LjU2MjUiIHg9IjE1LjYyNSIgeT0iMzgzLjE3ODciPkJhY2tlbmQ8L3RleHQ+PC9nPjwhLS1jbHVzdGVyIEZyb250ZW5kLS0+PGcgaWQ9ImNsdXN0ZXJfRnJvbnRlbmQiPjxyZWN0IGZpbGw9IiMzNEE4NTMiIGZpbHRlcj0idXJsKCNmMWh0dnk0YjY1Zjh0MSkiIGhlaWdodD0iMzEwLjkzNzUiIHJ4PSI3LjgxMjUiIHJ5PSI3LjgxMjUiIHN0eWxlPSJzdHJva2U6IzE4MTgxODtzdHJva2Utd2lkdGg6MS41NjI1OyIgd2lkdGg9IjM0MC42MjUiIHg9IjEwNzYuNTYyNSIgeT0iMTAuOTM3NSIvPjx0ZXh0IGZpbGw9IiMwMDAwMDAiIGZvbnQtZmFtaWx5PSJzYW5zLXNlcmlmIiBmb250LXNpemU9IjIxLjg3NSIgZm9udC13ZWlnaHQ9ImJvbGQiIGxlbmd0aEFkanVzdD0ic3BhY2luZyIgdGV4dExlbmd0aD0iODcuNSIgeD0iMTA4MS4yNSIgeT0iMzQuNzQxMiI+RnJvbnRlbmQ8L3RleHQ+PC9nPjwhLS1jbHVzdGVyIFNlcnZpY2VzIEV4dGVybmVzLS0+PGcgaWQ9ImNsdXN0ZXJfU2VydmljZXMgRXh0ZXJuZXMiPjxyZWN0IGZpbGw9IiNFQTQzMzUiIGZpbHRlcj0idXJsKCNmMWh0dnk0YjY1Zjh0MSkiIGhlaWdodD0iMzMxLjI1IiByeD0iNy44MTI1IiByeT0iNy44MTI1IiBzdHlsZT0ic3Ryb2tlOiMxODE4MTg7c3Ryb2tlLXdpZHRoOjEuNTYyNTsiIHdpZHRoPSI4MjEuODc1IiB4PSIyMzU2LjI1IiB5PSIxNzUiLz48dGV4dCBmaWxsPSIjMDAwMDAwIiBmb250LWZhbWlseT0ic2Fucy1zZXJpZiIgZm9udC1zaXplPSIyMS44NzUiIGZvbnQtd2VpZ2h0PSJib2xkIiBsZW5ndGhBZGp1c3Q9InNwYWNpbmciIHRleHRMZW5ndGg9IjE4NS45Mzc1IiB4PSIyMzYwLjkzNzUiIHk9IjE5OC44MDM3Ij5TZXJ2aWNlcyBFeHRlcm5lczwvdGV4dD48L2c+PCEtLWVudGl0eSBNb2R1bGUgVXRpbGlzYXRldXJzLS0+PGcgaWQ9ImVsZW1fTW9kdWxlIFV0aWxpc2F0ZXVycyI+PHJlY3QgZmlsbD0iI0YxRjFGMSIgZmlsdGVyPSJ1cmwoI2YxaHR2eTRiNjVmOHQxKSIgaGVpZ2h0PSI3MC4yODgxIiByeD0iNy44MTI1IiByeT0iNy44MTI1IiBzdHlsZT0ic3Ryb2tlOiMxODE4MTg7c3Ryb2tlLXdpZHRoOjAuNzgxMjU7IiB3aWR0aD0iMjcwLjMxMjUiIHg9IjE3MzAuNDY4OCIgeT0iNDEwLjkzNzUiLz48cmVjdCBmaWxsPSIjRjFGMUYxIiBoZWlnaHQ9IjE1LjYyNSIgc3R5bGU9InN0cm9rZTojMTgxODE4O3N0cm9rZS13aWR0aDowLjc4MTI1OyIgd2lkdGg9IjIzLjQzNzUiIHg9IjE5NjkuNTMxMyIgeT0iNDE4Ljc1Ii8+PHJlY3QgZmlsbD0iI0YxRjFGMSIgaGVpZ2h0PSIzLjEyNSIgc3R5bGU9InN0cm9rZTojMTgxODE4O3N0cm9rZS13aWR0aDowLjc4MTI1OyIgd2lkdGg9IjYuMjUiIHg9IjE5NjYuNDA2MyIgeT0iNDIxLjg3NSIvPjxyZWN0IGZpbGw9IiNGMUYxRjEiIGhlaWdodD0iMy4xMjUiIHN0eWxlPSJzdHJva2U6IzE4MTgxODtzdHJva2Utd2lkdGg6MC43ODEyNTsiIHdpZHRoPSI2LjI1IiB4PSIxOTY2LjQwNjMiIHk9IjQyOC4xMjUiLz48dGV4dCBmaWxsPSIjMDAwMDAwIiBmb250LWZhbWlseT0ic2Fucy1zZXJpZiIgZm9udC1zaXplPSIyMS44NzUiIGxlbmd0aEFkanVzdD0ic3BhY2luZyIgdGV4dExlbmd0aD0iMjA3LjgxMjUiIHg9IjE3NTMuOTA2MyIgeT0iNDYyLjg2NjIiPk1vZHVsZSBVdGlsaXNhdGV1cnM8L3RleHQ+PC9nPjwhLS1lbnRpdHkgQmFzZSBkZSBkb25uP2VzLS0+PGcgaWQ9ImVsZW1fQmFzZSBkZSBkb25uJiMyMzM7ZXMiPjxyZWN0IGZpbGw9IiNGMUYxRjEiIGZpbHRlcj0idXJsKCNmMWh0dnk0YjY1Zjh0MSkiIGhlaWdodD0iNzAuMjg4MSIgcng9IjcuODEyNSIgcnk9IjcuODEyNSIgc3R5bGU9InN0cm9rZTojMTgxODE4O3N0cm9rZS13aWR0aDowLjc4MTI1OyIgd2lkdGg9IjIyNi41NjI1IiB4PSIxMTMzLjU5MzgiIHk9IjU3NSIvPjxyZWN0IGZpbGw9IiNGMUYxRjEiIGhlaWdodD0iMTUuNjI1IiBzdHlsZT0ic3Ryb2tlOiMxODE4MTg7c3Ryb2tlLXdpZHRoOjAuNzgxMjU7IiB3aWR0aD0iMjMuNDM3NSIgeD0iMTMyOC45MDYzIiB5PSI1ODIuODEyNSIvPjxyZWN0IGZpbGw9IiNGMUYxRjEiIGhlaWdodD0iMy4xMjUiIHN0eWxlPSJzdHJva2U6IzE4MTgxODtzdHJva2Utd2lkdGg6MC43ODEyNTsiIHdpZHRoPSI2LjI1IiB4PSIxMzI1Ljc4MTMiIHk9IjU4NS45Mzc1Ii8+PHJlY3QgZmlsbD0iI0YxRjFGMSIgaGVpZ2h0PSIzLjEyNSIgc3R5bGU9InN0cm9rZTojMTgxODE4O3N0cm9rZS13aWR0aDowLjc4MTI1OyIgd2lkdGg9IjYuMjUiIHg9IjEzMjUuNzgxMyIgeT0iNTkyLjE4NzUiLz48dGV4dCBmaWxsPSIjMDAwMDAwIiBmb250LWZhbWlseT0ic2Fucy1zZXJpZiIgZm9udC1zaXplPSIyMS44NzUiIGxlbmd0aEFkanVzdD0ic3BhY2luZyIgdGV4dExlbmd0aD0iMTY0LjA2MjUiIHg9IjExNTcuMDMxMyIgeT0iNjI2LjkyODciPkJhc2UgZGUgZG9ubiYjMjMzO2VzPC90ZXh0PjwvZz48IS0tZW50aXR5IE1vZHVsZSBBbm5vbmNlcy0tPjxnIGlkPSJlbGVtX01vZHVsZSBBbm5vbmNlcyI+PHJlY3QgZmlsbD0iI0YxRjFGMSIgZmlsdGVyPSJ1cmwoI2YxaHR2eTRiNjVmOHQxKSIgaGVpZ2h0PSI3MC4yODgxIiByeD0iNy44MTI1IiByeT0iNy44MTI1IiBzdHlsZT0ic3Ryb2tlOiMxODE4MTg7c3Ryb2tlLXdpZHRoOjAuNzgxMjU7IiB3aWR0aD0iMjI2LjU2MjUiIHg9IjE0NDkuMjE4OCIgeT0iNDEwLjkzNzUiLz48cmVjdCBmaWxsPSIjRjFGMUYxIiBoZWlnaHQ9IjE1LjYyNSIgc3R5bGU9InN0cm9rZTojMTgxODE4O3N0cm9rZS13aWR0aDowLjc4MTI1OyIgd2lkdGg9IjIzLjQzNzUiIHg9IjE2NDQuNTMxMyIgeT0iNDE4Ljc1Ii8+PHJlY3QgZmlsbD0iI0YxRjFGMSIgaGVpZ2h0PSIzLjEyNSIgc3R5bGU9InN0cm9rZTojMTgxODE4O3N0cm9rZS13aWR0aDowLjc4MTI1OyIgd2lkdGg9IjYuMjUiIHg9IjE2NDEuNDA2MyIgeT0iNDIxLjg3NSIvPjxyZWN0IGZpbGw9IiNGMUYxRjEiIGhlaWdodD0iMy4xMjUiIHN0eWxlPSJzdHJva2U6IzE4MTgxODtzdHJva2Utd2lkdGg6MC43ODEyNTsiIHdpZHRoPSI2LjI1IiB4PSIxNjQxLjQwNjMiIHk9IjQyOC4xMjUiLz48dGV4dCBmaWxsPSIjMDAwMDAwIiBmb250LWZhbWlseT0ic2Fucy1zZXJpZiIgZm9udC1zaXplPSIyMS44NzUiIGxlbmd0aEFkanVzdD0ic3BhY2luZyIgdGV4dExlbmd0aD0iMTY0LjA2MjUiIHg9IjE0NzIuNjU2MyIgeT0iNDYyLjg2NjIiPk1vZHVsZSBBbm5vbmNlczwvdGV4dD48L2c+PCEtLWVudGl0eSBNb2R1bGUgUmVjaGVyY2hlLS0+PGcgaWQ9ImVsZW1fTW9kdWxlIFJlY2hlcmNoZSI+PHJlY3QgZmlsbD0iI0YxRjFGMSIgZmlsdGVyPSJ1cmwoI2YxaHR2eTRiNjVmOHQxKSIgaGVpZ2h0PSI3MC4yODgxIiByeD0iNy44MTI1IiByeT0iNy44MTI1IiBzdHlsZT0ic3Ryb2tlOiMxODE4MTg7c3Ryb2tlLXdpZHRoOjAuNzgxMjU7IiB3aWR0aD0iMjM3LjUiIHg9IjIwNTYuMjUiIHk9IjQxMC45Mzc1Ii8+PHJlY3QgZmlsbD0iI0YxRjFGMSIgaGVpZ2h0PSIxNS42MjUiIHN0eWxlPSJzdHJva2U6IzE4MTgxODtzdHJva2Utd2lkdGg6MC43ODEyNTsiIHdpZHRoPSIyMy40Mzc1IiB4PSIyMjYyLjUiIHk9IjQxOC43NSIvPjxyZWN0IGZpbGw9IiNGMUYxRjEiIGhlaWdodD0iMy4xMjUiIHN0eWxlPSJzdHJva2U6IzE4MTgxODtzdHJva2Utd2lkdGg6MC43ODEyNTsiIHdpZHRoPSI2LjI1IiB4PSIyMjU5LjM3NSIgeT0iNDIxLjg3NSIvPjxyZWN0IGZpbGw9IiNGMUYxRjEiIGhlaWdodD0iMy4xMjUiIHN0eWxlPSJzdHJva2U6IzE4MTgxODtzdHJva2Utd2lkdGg6MC43ODEyNTsiIHdpZHRoPSI2LjI1IiB4PSIyMjU5LjM3NSIgeT0iNDI4LjEyNSIvPjx0ZXh0IGZpbGw9IiMwMDAwMDAiIGZvbnQtZmFtaWx5PSJzYW5zLXNlcmlmIiBmb250LXNpemU9IjIxLjg3NSIgbGVuZ3RoQWRqdXN0PSJzcGFjaW5nIiB0ZXh0TGVuZ3RoPSIxNzUiIHg9IjIwNzkuNjg3NSIgeT0iNDYyLjg2NjIiPk1vZHVsZSBSZWNoZXJjaGU8L3RleHQ+PC9nPjwhLS1lbnRpdHkgTW9kdWxlIEZhdm9yaXMgZXQgQWxlcnRlcy0tPjxnIGlkPSJlbGVtX01vZHVsZSBGYXZvcmlzIGV0IEFsZXJ0ZXMiPjxyZWN0IGZpbGw9IiNGMUYxRjEiIGZpbHRlcj0idXJsKCNmMWh0dnk0YjY1Zjh0MSkiIGhlaWdodD0iNzAuMjg4MSIgcng9IjcuODEyNSIgcnk9IjcuODEyNSIgc3R5bGU9InN0cm9rZTojMTgxODE4O3N0cm9rZS13aWR0aDowLjc4MTI1OyIgd2lkdGg9IjMzNS45Mzc1IiB4PSI3MDguNTkzOCIgeT0iNDEwLjkzNzUiLz48cmVjdCBmaWxsPSIjRjFGMUYxIiBoZWlnaHQ9IjE1LjYyNSIgc3R5bGU9InN0cm9rZTojMTgxODE4O3N0cm9rZS13aWR0aDowLjc4MTI1OyIgd2lkdGg9IjIzLjQzNzUiIHg9IjEwMTMuMjgxMyIgeT0iNDE4Ljc1Ii8+PHJlY3QgZmlsbD0iI0YxRjFGMSIgaGVpZ2h0PSIzLjEyNSIgc3R5bGU9InN0cm9rZTojMTgxODE4O3N0cm9rZS13aWR0aDowLjc4MTI1OyIgd2lkdGg9IjYuMjUiIHg9IjEwMTAuMTU2MyIgeT0iNDIxLjg3NSIvPjxyZWN0IGZpbGw9IiNGMUYxRjEiIGhlaWdodD0iMy4xMjUiIHN0eWxlPSJzdHJva2U6IzE4MTgxODtzdHJva2Utd2lkdGg6MC43ODEyNTsiIHdpZHRoPSI2LjI1IiB4PSIxMDEwLjE1NjMiIHk9IjQyOC4xMjUiLz48dGV4dCBmaWxsPSIjMDAwMDAwIiBmb250LWZhbWlseT0ic2Fucy1zZXJpZiIgZm9udC1zaXplPSIyMS44NzUiIGxlbmd0aEFkanVzdD0ic3BhY2luZyIgdGV4dExlbmd0aD0iMjczLjQzNzUiIHg9IjczMi4wMzEzIiB5PSI0NjIuODY2MiI+TW9kdWxlIEZhdm9yaXMgZXQgQWxlcnRlczwvdGV4dD48L2c+PCEtLWVudGl0eSBNb2R1bGUgTWVzc2FnZXJpZS0tPjxnIGlkPSJlbGVtX01vZHVsZSBNZXNzYWdlcmllIj48cmVjdCBmaWxsPSIjRjFGMUYxIiBmaWx0ZXI9InVybCgjZjFodHZ5NGI2NWY4dDEpIiBoZWlnaHQ9IjcwLjI4ODEiIHJ4PSI3LjgxMjUiIHJ5PSI3LjgxMjUiIHN0eWxlPSJzdHJva2U6IzE4MTgxODtzdHJva2Utd2lkdGg6MC43ODEyNTsiIHdpZHRoPSIyNDguNDM3NSIgeD0iNDA1LjQ2ODgiIHk9IjQxMC45Mzc1Ii8+PHJlY3QgZmlsbD0iI0YxRjFGMSIgaGVpZ2h0PSIxNS42MjUiIHN0eWxlPSJzdHJva2U6IzE4MTgxODtzdHJva2Utd2lkdGg6MC43ODEyNTsiIHdpZHRoPSIyMy40Mzc1IiB4PSI2MjIuNjU2MyIgeT0iNDE4Ljc1Ii8+PHJlY3QgZmlsbD0iI0YxRjFGMSIgaGVpZ2h0PSIzLjEyNSIgc3R5bGU9InN0cm9rZTojMTgxODE4O3N0cm9rZS13aWR0aDowLjc4MTI1OyIgd2lkdGg9IjYuMjUiIHg9IjYxOS41MzEzIiB5PSI0MjEuODc1Ii8+PHJlY3QgZmlsbD0iI0YxRjFGMSIgaGVpZ2h0PSIzLjEyNSIgc3R5bGU9InN0cm9rZTojMTgxODE4O3N0cm9rZS13aWR0aDowLjc4MTI1OyIgd2lkdGg9IjYuMjUiIHg9IjYxOS41MzEzIiB5PSI0MjguMTI1Ii8+PHRleHQgZmlsbD0iIzAwMDAwMCIgZm9udC1mYW1pbHk9InNhbnMtc2VyaWYiIGZvbnQtc2l6ZT0iMjEuODc1IiBsZW5ndGhBZGp1c3Q9InNwYWNpbmciIHRleHRMZW5ndGg9IjE4NS45Mzc1IiB4PSI0MjguOTA2MyIgeT0iNDYyLjg2NjIiPk1vZHVsZSBNZXNzYWdlcmllPC90ZXh0PjwvZz48IS0tZW50aXR5IE1vZHVsZSBOb3RhdGlvbiBldCBBdmlzLS0+PGcgaWQ9ImVsZW1fTW9kdWxlIE5vdGF0aW9uIGV0IEF2aXMiPjxyZWN0IGZpbGw9IiNGMUYxRjEiIGZpbHRlcj0idXJsKCNmMWh0dnk0YjY1Zjh0MSkiIGhlaWdodD0iNzAuMjg4MSIgcng9IjcuODEyNSIgcnk9IjcuODEyNSIgc3R5bGU9InN0cm9rZTojMTgxODE4O3N0cm9rZS13aWR0aDowLjc4MTI1OyIgd2lkdGg9IjMxNC4wNjI1IiB4PSIzNi43MTg4IiB5PSI0MTAuOTM3NSIvPjxyZWN0IGZpbGw9IiNGMUYxRjEiIGhlaWdodD0iMTUuNjI1IiBzdHlsZT0ic3Ryb2tlOiMxODE4MTg7c3Ryb2tlLXdpZHRoOjAuNzgxMjU7IiB3aWR0aD0iMjMuNDM3NSIgeD0iMzE5LjUzMTMiIHk9IjQxOC43NSIvPjxyZWN0IGZpbGw9IiNGMUYxRjEiIGhlaWdodD0iMy4xMjUiIHN0eWxlPSJzdHJva2U6IzE4MTgxODtzdHJva2Utd2lkdGg6MC43ODEyNTsiIHdpZHRoPSI2LjI1IiB4PSIzMTYuNDA2MyIgeT0iNDIxLjg3NSIvPjxyZWN0IGZpbGw9IiNGMUYxRjEiIGhlaWdodD0iMy4xMjUiIHN0eWxlPSJzdHJva2U6IzE4MTgxODtzdHJva2Utd2lkdGg6MC43ODEyNTsiIHdpZHRoPSI2LjI1IiB4PSIzMTYuNDA2MyIgeT0iNDI4LjEyNSIvPjx0ZXh0IGZpbGw9IiMwMDAwMDAiIGZvbnQtZmFtaWx5PSJzYW5zLXNlcmlmIiBmb250LXNpemU9IjIxLjg3NSIgbGVuZ3RoQWRqdXN0PSJzcGFjaW5nIiB0ZXh0TGVuZ3RoPSIyNTEuNTYyNSIgeD0iNjAuMTU2MyIgeT0iNDYyLjg2NjIiPk1vZHVsZSBOb3RhdGlvbiBldCBBdmlzPC90ZXh0PjwvZz48IS0tZW50aXR5IE1vZHVsZSBBZG1pbmlzdHJhdGlvbi0tPjxnIGlkPSJlbGVtX01vZHVsZSBBZG1pbmlzdHJhdGlvbiI+PHJlY3QgZmlsbD0iI0YxRjFGMSIgZmlsdGVyPSJ1cmwoI2YxaHR2eTRiNjVmOHQxKSIgaGVpZ2h0PSI3MC4yODgxIiByeD0iNy44MTI1IiByeT0iNy44MTI1IiBzdHlsZT0ic3Ryb2tlOiMxODE4MTg7c3Ryb2tlLXdpZHRoOjAuNzgxMjU7IiB3aWR0aD0iMjkzLjc1IiB4PSIxMTAwIiB5PSI0MTAuOTM3NSIvPjxyZWN0IGZpbGw9IiNGMUYxRjEiIGhlaWdodD0iMTUuNjI1IiBzdHlsZT0ic3Ryb2tlOiMxODE4MTg7c3Ryb2tlLXdpZHRoOjAuNzgxMjU7IiB3aWR0aD0iMjMuNDM3NSIgeD0iMTM2Mi41IiB5PSI0MTguNzUiLz48cmVjdCBmaWxsPSIjRjFGMUYxIiBoZWlnaHQ9IjMuMTI1IiBzdHlsZT0ic3Ryb2tlOiMxODE4MTg7c3Ryb2tlLXdpZHRoOjAuNzgxMjU7IiB3aWR0aD0iNi4yNSIgeD0iMTM1OS4zNzUiIHk9IjQyMS44NzUiLz48cmVjdCBmaWxsPSIjRjFGMUYxIiBoZWlnaHQ9IjMuMTI1IiBzdHlsZT0ic3Ryb2tlOiMxODE4MTg7c3Ryb2tlLXdpZHRoOjAuNzgxMjU7IiB3aWR0aD0iNi4yNSIgeD0iMTM1OS4zNzUiIHk9IjQyOC4xMjUiLz48dGV4dCBmaWxsPSIjMDAwMDAwIiBmb250LWZhbWlseT0ic2Fucy1zZXJpZiIgZm9udC1zaXplPSIyMS44NzUiIGxlbmd0aEFkanVzdD0ic3BhY2luZyIgdGV4dExlbmd0aD0iMjMxLjI1IiB4PSIxMTIzLjQzNzUiIHk9IjQ2Mi44NjYyIj5Nb2R1bGUgQWRtaW5pc3RyYXRpb248L3RleHQ+PC9nPjwhLS1lbnRpdHkgSW50ZXJmYWNlIFV0aWxpc2F0ZXVyLS0+PGcgaWQ9ImVsZW1fSW50ZXJmYWNlIFV0aWxpc2F0ZXVyIj48cmVjdCBmaWxsPSIjRjFGMUYxIiBmaWx0ZXI9InVybCgjZjFodHZ5NGI2NWY4dDEpIiBoZWlnaHQ9IjcwLjI4ODEiIHJ4PSI3LjgxMjUiIHJ5PSI3LjgxMjUiIHN0eWxlPSJzdHJva2U6IzE4MTgxODtzdHJva2Utd2lkdGg6MC43ODEyNTsiIHdpZHRoPSIyOTIuMTg3NSIgeD0iMTEwMC43ODEzIiB5PSI2Mi41Ii8+PHJlY3QgZmlsbD0iI0YxRjFGMSIgaGVpZ2h0PSIxNS42MjUiIHN0eWxlPSJzdHJva2U6IzE4MTgxODtzdHJva2Utd2lkdGg6MC43ODEyNTsiIHdpZHRoPSIyMy40Mzc1IiB4PSIxMzYxLjcxODgiIHk9IjcwLjMxMjUiLz48cmVjdCBmaWxsPSIjRjFGMUYxIiBoZWlnaHQ9IjMuMTI1IiBzdHlsZT0ic3Ryb2tlOiMxODE4MTg7c3Ryb2tlLXdpZHRoOjAuNzgxMjU7IiB3aWR0aD0iNi4yNSIgeD0iMTM1OC41OTM4IiB5PSI3My40Mzc1Ii8+PHJlY3QgZmlsbD0iI0YxRjFGMSIgaGVpZ2h0PSIzLjEyNSIgc3R5bGU9InN0cm9rZTojMTgxODE4O3N0cm9rZS13aWR0aDowLjc4MTI1OyIgd2lkdGg9IjYuMjUiIHg9IjEzNTguNTkzOCIgeT0iNzkuNjg3NSIvPjx0ZXh0IGZpbGw9IiMwMDAwMDAiIGZvbnQtZmFtaWx5PSJzYW5zLXNlcmlmIiBmb250LXNpemU9IjIxLjg3NSIgbGVuZ3RoQWRqdXN0PSJzcGFjaW5nIiB0ZXh0TGVuZ3RoPSIyMjkuNjg3NSIgeD0iMTEyNC4yMTg4IiB5PSIxMTQuNDI4NyI+SW50ZXJmYWNlIFV0aWxpc2F0ZXVyPC90ZXh0PjwvZz48IS0tZW50aXR5IEFQSSBHYXRld2F5LS0+PGcgaWQ9ImVsZW1fQVBJIEdhdGV3YXkiPjxyZWN0IGZpbGw9IiNGMUYxRjEiIGZpbHRlcj0idXJsKCNmMWh0dnk0YjY1Zjh0MSkiIGhlaWdodD0iNzAuMjg4MSIgcng9IjcuODEyNSIgcnk9IjcuODEyNSIgc3R5bGU9InN0cm9rZTojMTgxODE4O3N0cm9rZS13aWR0aDowLjc4MTI1OyIgd2lkdGg9IjE4NC4zNzUiIHg9IjExNTQuNjg3NSIgeT0iMjI2LjU2MjUiLz48cmVjdCBmaWxsPSIjRjFGMUYxIiBoZWlnaHQ9IjE1LjYyNSIgc3R5bGU9InN0cm9rZTojMTgxODE4O3N0cm9rZS13aWR0aDowLjc4MTI1OyIgd2lkdGg9IjIzLjQzNzUiIHg9IjEzMDcuODEyNSIgeT0iMjM0LjM3NSIvPjxyZWN0IGZpbGw9IiNGMUYxRjEiIGhlaWdodD0iMy4xMjUiIHN0eWxlPSJzdHJva2U6IzE4MTgxODtzdHJva2Utd2lkdGg6MC43ODEyNTsiIHdpZHRoPSI2LjI1IiB4PSIxMzA0LjY4NzUiIHk9IjIzNy41Ii8+PHJlY3QgZmlsbD0iI0YxRjFGMSIgaGVpZ2h0PSIzLjEyNSIgc3R5bGU9InN0cm9rZTojMTgxODE4O3N0cm9rZS13aWR0aDowLjc4MTI1OyIgd2lkdGg9IjYuMjUiIHg9IjEzMDQuNjg3NSIgeT0iMjQzLjc1Ii8+PHRleHQgZmlsbD0iIzAwMDAwMCIgZm9udC1mYW1pbHk9InNhbnMtc2VyaWYiIGZvbnQtc2l6ZT0iMjEuODc1IiBsZW5ndGhBZGp1c3Q9InNwYWNpbmciIHRleHRMZW5ndGg9IjEyMS44NzUiIHg9IjExNzguMTI1IiB5PSIyNzguNDkxMiI+QVBJIEdhdGV3YXk8L3RleHQ+PC9nPjwhLS1lbnRpdHkgR29vZ2xlIE1hcHMgQVBJLS0+PGcgaWQ9ImVsZW1fR29vZ2xlIE1hcHMgQVBJIj48cmVjdCBmaWxsPSIjRjFGMUYxIiBmaWx0ZXI9InVybCgjZjFodHZ5NGI2NWY4dDEpIiBoZWlnaHQ9IjcwLjI4ODEiIHJ4PSI3LjgxMjUiIHJ5PSI3LjgxMjUiIHN0eWxlPSJzdHJva2U6IzE4MTgxODtzdHJva2Utd2lkdGg6MC43ODEyNTsiIHdpZHRoPSIyMjYuNTYyNSIgeD0iMjM4Mi4wMzEzIiB5PSIyMjYuNTYyNSIvPjxyZWN0IGZpbGw9IiNGMUYxRjEiIGhlaWdodD0iMTUuNjI1IiBzdHlsZT0ic3Ryb2tlOiMxODE4MTg7c3Ryb2tlLXdpZHRoOjAuNzgxMjU7IiB3aWR0aD0iMjMuNDM3NSIgeD0iMjU3Ny4zNDM4IiB5PSIyMzQuMzc1Ii8+PHJlY3QgZmlsbD0iI0YxRjFGMSIgaGVpZ2h0PSIzLjEyNSIgc3R5bGU9InN0cm9rZTojMTgxODE4O3N0cm9rZS13aWR0aDowLjc4MTI1OyIgd2lkdGg9IjYuMjUiIHg9IjI1NzQuMjE4OCIgeT0iMjM3LjUiLz48cmVjdCBmaWxsPSIjRjFGMUYxIiBoZWlnaHQ9IjMuMTI1IiBzdHlsZT0ic3Ryb2tlOiMxODE4MTg7c3Ryb2tlLXdpZHRoOjAuNzgxMjU7IiB3aWR0aD0iNi4yNSIgeD0iMjU3NC4yMTg4IiB5PSIyNDMuNzUiLz48dGV4dCBmaWxsPSIjMDAwMDAwIiBmb250LWZhbWlseT0ic2Fucy1zZXJpZiIgZm9udC1zaXplPSIyMS44NzUiIGxlbmd0aEFkanVzdD0ic3BhY2luZyIgdGV4dExlbmd0aD0iMTY0LjA2MjUiIHg9IjI0MDUuNDY4OCIgeT0iMjc4LjQ5MTIiPkdvb2dsZSBNYXBzIEFQSTwvdGV4dD48L2c+PCEtLWVudGl0eSBTdHJpcGUvUGF5UGFsLS0+PGcgaWQ9ImVsZW1fU3RyaXBlL1BheVBhbCI+PHJlY3QgZmlsbD0iI0YxRjFGMSIgZmlsdGVyPSJ1cmwoI2YxaHR2eTRiNjVmOHQxKSIgaGVpZ2h0PSI3MC4yODgxIiByeD0iNy44MTI1IiByeT0iNy44MTI1IiBzdHlsZT0ic3Ryb2tlOiMxODE4MTg7c3Ryb2tlLXdpZHRoOjAuNzgxMjU7IiB3aWR0aD0iMjA0LjY4NzUiIHg9IjI5NDcuNjU2MyIgeT0iMjI2LjU2MjUiLz48cmVjdCBmaWxsPSIjRjFGMUYxIiBoZWlnaHQ9IjE1LjYyNSIgc3R5bGU9InN0cm9rZTojMTgxODE4O3N0cm9rZS13aWR0aDowLjc4MTI1OyIgd2lkdGg9IjIzLjQzNzUiIHg9IjMxMjEuMDkzOCIgeT0iMjM0LjM3NSIvPjxyZWN0IGZpbGw9IiNGMUYxRjEiIGhlaWdodD0iMy4xMjUiIHN0eWxlPSJzdHJva2U6IzE4MTgxODtzdHJva2Utd2lkdGg6MC43ODEyNTsiIHdpZHRoPSI2LjI1IiB4PSIzMTE3Ljk2ODgiIHk9IjIzNy41Ii8+PHJlY3QgZmlsbD0iI0YxRjFGMSIgaGVpZ2h0PSIzLjEyNSIgc3R5bGU9InN0cm9rZTojMTgxODE4O3N0cm9rZS13aWR0aDowLjc4MTI1OyIgd2lkdGg9IjYuMjUiIHg9IjMxMTcuOTY4OCIgeT0iMjQzLjc1Ii8+PHRleHQgZmlsbD0iIzAwMDAwMCIgZm9udC1mYW1pbHk9InNhbnMtc2VyaWYiIGZvbnQtc2l6ZT0iMjEuODc1IiBsZW5ndGhBZGp1c3Q9InNwYWNpbmciIHRleHRMZW5ndGg9IjE0Mi4xODc1IiB4PSIyOTcxLjA5MzgiIHk9IjI3OC40OTEyIj5TdHJpcGUvUGF5UGFsPC90ZXh0PjwvZz48IS0tZW50aXR5IE1vZHVsZSBQYWllbWVudHMtLT48ZyBpZD0iZWxlbV9Nb2R1bGUgUGFpZW1lbnRzIj48cmVjdCBmaWxsPSIjRjFGMUYxIiBmaWx0ZXI9InVybCgjZjFodHZ5NGI2NWY4dDEpIiBoZWlnaHQ9IjcwLjI4ODEiIHJ4PSI3LjgxMjUiIHJ5PSI3LjgxMjUiIHN0eWxlPSJzdHJva2U6IzE4MTgxODtzdHJva2Utd2lkdGg6MC43ODEyNTsiIHdpZHRoPSIyMzkuMDYyNSIgeD0iMjkxMy4yODEzIiB5PSI0MTAuOTM3NSIvPjxyZWN0IGZpbGw9IiNGMUYxRjEiIGhlaWdodD0iMTUuNjI1IiBzdHlsZT0ic3Ryb2tlOiMxODE4MTg7c3Ryb2tlLXdpZHRoOjAuNzgxMjU7IiB3aWR0aD0iMjMuNDM3NSIgeD0iMzEyMS4wOTM4IiB5PSI0MTguNzUiLz48cmVjdCBmaWxsPSIjRjFGMUYxIiBoZWlnaHQ9IjMuMTI1IiBzdHlsZT0ic3Ryb2tlOiMxODE4MTg7c3Ryb2tlLXdpZHRoOjAuNzgxMjU7IiB3aWR0aD0iNi4yNSIgeD0iMzExNy45Njg4IiB5PSI0MjEuODc1Ii8+PHJlY3QgZmlsbD0iI0YxRjFGMSIgaGVpZ2h0PSIzLjEyNSIgc3R5bGU9InN0cm9rZTojMTgxODE4O3N0cm9rZS13aWR0aDowLjc4MTI1OyIgd2lkdGg9IjYuMjUiIHg9IjMxMTcuOTY4OCIgeT0iNDI4LjEyNSIvPjx0ZXh0IGZpbGw9IiMwMDAwMDAiIGZvbnQtZmFtaWx5PSJzYW5zLXNlcmlmIiBmb250LXNpemU9IjIxLjg3NSIgbGVuZ3RoQWRqdXN0PSJzcGFjaW5nIiB0ZXh0TGVuZ3RoPSIxNzYuNTYyNSIgeD0iMjkzNi43MTg4IiB5PSI0NjIuODY2MiI+TW9kdWxlIFBhaWVtZW50czwvdGV4dD48L2c+PCEtLWVudGl0eSBUd2lsaW8vU2VuZEdyaWQtLT48ZyBpZD0iZWxlbV9Ud2lsaW8vU2VuZEdyaWQiPjxyZWN0IGZpbGw9IiNGMUYxRjEiIGZpbHRlcj0idXJsKCNmMWh0dnk0YjY1Zjh0MSkiIGhlaWdodD0iNzAuMjg4MSIgcng9IjcuODEyNSIgcnk9IjcuODEyNSIgc3R5bGU9InN0cm9rZTojMTgxODE4O3N0cm9rZS13aWR0aDowLjc4MTI1OyIgd2lkdGg9IjIyOC4xMjUiIHg9IjI2NjQuMDYyNSIgeT0iMjI2LjU2MjUiLz48cmVjdCBmaWxsPSIjRjFGMUYxIiBoZWlnaHQ9IjE1LjYyNSIgc3R5bGU9InN0cm9rZTojMTgxODE4O3N0cm9rZS13aWR0aDowLjc4MTI1OyIgd2lkdGg9IjIzLjQzNzUiIHg9IjI4NjAuOTM3NSIgeT0iMjM0LjM3NSIvPjxyZWN0IGZpbGw9IiNGMUYxRjEiIGhlaWdodD0iMy4xMjUiIHN0eWxlPSJzdHJva2U6IzE4MTgxODtzdHJva2Utd2lkdGg6MC43ODEyNTsiIHdpZHRoPSI2LjI1IiB4PSIyODU3LjgxMjUiIHk9IjIzNy41Ii8+PHJlY3QgZmlsbD0iI0YxRjFGMSIgaGVpZ2h0PSIzLjEyNSIgc3R5bGU9InN0cm9rZTojMTgxODE4O3N0cm9rZS13aWR0aDowLjc4MTI1OyIgd2lkdGg9IjYuMjUiIHg9IjI4NTcuODEyNSIgeT0iMjQzLjc1Ii8+PHRleHQgZmlsbD0iIzAwMDAwMCIgZm9udC1mYW1pbHk9InNhbnMtc2VyaWYiIGZvbnQtc2l6ZT0iMjEuODc1IiBsZW5ndGhBZGp1c3Q9InNwYWNpbmciIHRleHRMZW5ndGg9IjE2NS42MjUiIHg9IjI2ODcuNSIgeT0iMjc4LjQ5MTIiPlR3aWxpby9TZW5kR3JpZDwvdGV4dD48L2c+PCEtLWVudGl0eSBNb2R1bGUgTm90aWZpY2F0aW9ucy0tPjxnIGlkPSJlbGVtX01vZHVsZSBOb3RpZmljYXRpb25zIj48cmVjdCBmaWxsPSIjRjFGMUYxIiBmaWx0ZXI9InVybCgjZjFodHZ5NGI2NWY4dDEpIiBoZWlnaHQ9IjcwLjI4ODEiIHJ4PSI3LjgxMjUiIHJ5PSI3LjgxMjUiIHN0eWxlPSJzdHJva2U6IzE4MTgxODtzdHJva2Utd2lkdGg6MC43ODEyNTsiIHdpZHRoPSIyODEuMjUiIHg9IjI1NzYuNTYyNSIgeT0iNDEwLjkzNzUiLz48cmVjdCBmaWxsPSIjRjFGMUYxIiBoZWlnaHQ9IjE1LjYyNSIgc3R5bGU9InN0cm9rZTojMTgxODE4O3N0cm9rZS13aWR0aDowLjc4MTI1OyIgd2lkdGg9IjIzLjQzNzUiIHg9IjI4MjYuNTYyNSIgeT0iNDE4Ljc1Ii8+PHJlY3QgZmlsbD0iI0YxRjFGMSIgaGVpZ2h0PSIzLjEyNSIgc3R5bGU9InN0cm9rZTojMTgxODE4O3N0cm9rZS13aWR0aDowLjc4MTI1OyIgd2lkdGg9IjYuMjUiIHg9IjI4MjMuNDM3NSIgeT0iNDIxLjg3NSIvPjxyZWN0IGZpbGw9IiNGMUYxRjEiIGhlaWdodD0iMy4xMjUiIHN0eWxlPSJzdHJva2U6IzE4MTgxODtzdHJva2Utd2lkdGg6MC43ODEyNTsiIHdpZHRoPSI2LjI1IiB4PSIyODIzLjQzNzUiIHk9IjQyOC4xMjUiLz48dGV4dCBmaWxsPSIjMDAwMDAwIiBmb250LWZhbWlseT0ic2Fucy1zZXJpZiIgZm9udC1zaXplPSIyMS44NzUiIGxlbmd0aEFkanVzdD0ic3BhY2luZyIgdGV4dExlbmd0aD0iMjE4Ljc1IiB4PSIyNjAwIiB5PSI0NjIuODY2MiI+TW9kdWxlIE5vdGlmaWNhdGlvbnM8L3RleHQ+PC9nPjwhLS1saW5rIE1vZHVsZSBVdGlsaXNhdGV1cnMgdG8gQmFzZSBkZSBkb25uP2VzLS0+PGcgaWQ9ImxpbmtfTW9kdWxlIFV0aWxpc2F0ZXVyc19CYXNlIGRlIGRvbm4mIzIzMztlcyI+PHBhdGggZD0iTTE3OTcuNzAzMSw0ODEuMzI4MSBDMTc2OS4wNjI1LDQ5NC40Njg4IDE3MzUuMDE1Niw1MDguNzY1NiAxNzAzLjEyNSw1MTguNzUgQzE1ODguOTA2Myw1NTQuNTE1NiAxNDYzLjIzNjIsNTc3LjU2ODMgMTM2OS44NzY4LDU5MS44MzM5ICIgZmlsbD0ibm9uZSIgaWQ9Ik1vZHVsZSBVdGlsaXNhdGV1cnMtdG8tQmFzZSBkZSBkb25uJiMyMzM7ZXMiIHN0eWxlPSJzdHJva2U6IzQyODVGNDtzdHJva2Utd2lkdGg6MS41NjI1OyIvPjxwb2x5Z29uIGZpbGw9IiM0Mjg1RjQiIHBvaW50cz0iMTM2MC42MDk0LDU5My4yNSwxMzc1LjQ1NDYsNTk3LjMwNDEsMTM2OC4zMzIyLDU5Mi4wNjk5LDEzNzMuNTY2NSw1ODQuOTQ3NiwxMzYwLjYwOTQsNTkzLjI1IiBzdHlsZT0ic3Ryb2tlOiM0Mjg1RjQ7c3Ryb2tlLXdpZHRoOjEuNTYyNTsiLz48L2c+PCEtLWxpbmsgTW9kdWxlIEFubm9uY2VzIHRvIEJhc2UgZGUgZG9ubj9lcy0tPjxnIGlkPSJsaW5rX01vZHVsZSBBbm5vbmNlc19CYXNlIGRlIGRvbm4mIzIzMztlcyI+PHBhdGggZD0iTTE0OTYuMzI4MSw0ODEuMzkwNiBDMTQ0Mi40Njg4LDUwOC44NTk0IDEzNzUuMTQ3OSw1NDMuMTc3MiAxMzIxLjMwNDIsNTcwLjY0NTkgIiBmaWxsPSJub25lIiBpZD0iTW9kdWxlIEFubm9uY2VzLXRvLUJhc2UgZGUgZG9ubiYjMjMzO2VzIiBzdHlsZT0ic3Ryb2tlOiM0Mjg1RjQ7c3Ryb2tlLXdpZHRoOjEuNTYyNTsiLz48cG9seWdvbiBmaWxsPSIjNDI4NUY0IiBwb2ludHM9IjEzMTIuOTUzMSw1NzQuOTA2MywxMzI4LjMxOTksNTc0LjA4MzEsMTMxOS45MTIzLDU3MS4zNTYsMTMyMi42Mzk1LDU2Mi45NDg0LDEzMTIuOTUzMSw1NzQuOTA2MyIgc3R5bGU9InN0cm9rZTojNDI4NUY0O3N0cm9rZS13aWR0aDoxLjU2MjU7Ii8+PC9nPjwhLS1saW5rIE1vZHVsZSBSZWNoZXJjaGUgdG8gQmFzZSBkZSBkb25uP2VzLS0+PGcgaWQ9ImxpbmtfTW9kdWxlIFJlY2hlcmNoZV9CYXNlIGRlIGRvbm4mIzIzMztlcyI+PHBhdGggZD0iTTIxMTYuNzgxMyw0ODEuNDM3NSBDMjA5MC41MTU2LDQ5NS4xODc1IDIwNTguNTkzOCw1MDkuOTA2MyAyMDI4LjEyNSw1MTguNzUgQzE3OTcuMzc1LDU4NS43NjU2IDE1MjQuMDEyLDYwMi44MzI2IDEzNjkuODQwMSw2MDcuMTI5NCAiIGZpbGw9Im5vbmUiIGlkPSJNb2R1bGUgUmVjaGVyY2hlLXRvLUJhc2UgZGUgZG9ubiYjMjMzO2VzIiBzdHlsZT0ic3Ryb2tlOiM0Mjg1RjQ7c3Ryb2tlLXdpZHRoOjEuNTYyNTsiLz48cG9seWdvbiBmaWxsPSIjNDI4NUY0IiBwb2ludHM9IjEzNjAuNDY4OCw2MDcuMzkwNiwxMzc0LjY5OTksNjEzLjI0NjQsMTM2OC4yNzgyLDYwNy4xNzMsMTM3NC4zNTE3LDYwMC43NTEzLDEzNjAuNDY4OCw2MDcuMzkwNiIgc3R5bGU9InN0cm9rZTojNDI4NUY0O3N0cm9rZS13aWR0aDoxLjU2MjU7Ii8+PC9nPjwhLS1saW5rIE1vZHVsZSBGYXZvcmlzIGV0IEFsZXJ0ZXMgdG8gQmFzZSBkZSBkb25uP2VzLS0+PGcgaWQ9ImxpbmtfTW9kdWxlIEZhdm9yaXMgZXQgQWxlcnRlc19CYXNlIGRlIGRvbm4mIzIzMztlcyI+PHBhdGggZD0iTTk1NC4xODc1LDQ4MS4zOTA2IEMxMDE3LjM5MDYsNTA4Ljg1OTQgMTA5Ny41NzQ1LDU0My42OTkxIDExNjAuNzQ2NCw1NzEuMTY3OSAiIGZpbGw9Im5vbmUiIGlkPSJNb2R1bGUgRmF2b3JpcyBldCBBbGVydGVzLXRvLUJhc2UgZGUgZG9ubiYjMjMzO2VzIiBzdHlsZT0ic3Ryb2tlOiM0Mjg1RjQ7c3Ryb2tlLXdpZHRoOjEuNTYyNTsiLz48cG9seWdvbiBmaWxsPSIjNDI4NUY0IiBwb2ludHM9IjExNjkuMzQzOCw1NzQuOTA2MywxMTU4LjkzOTksNTYzLjU2NzEsMTE2Mi4xNzkzLDU3MS43OTA5LDExNTMuOTU1NCw1NzUuMDMwMywxMTY5LjM0MzgsNTc0LjkwNjMiIHN0eWxlPSJzdHJva2U6IzQyODVGNDtzdHJva2Utd2lkdGg6MS41NjI1OyIvPjwvZz48IS0tbGluayBNb2R1bGUgTWVzc2FnZXJpZSB0byBCYXNlIGRlIGRvbm4/ZXMtLT48ZyBpZD0ibGlua19Nb2R1bGUgTWVzc2FnZXJpZV9CYXNlIGRlIGRvbm4mIzIzMztlcyI+PHBhdGggZD0iTTU5MS41MzEzLDQ4MS40ODQ0IEM2MTguNDA2Myw0OTQuOTIxOSA2NTAuNjg3NSw1MDkuMzU5NCA2ODEuMjUsNTE4Ljc1IEM4MzMuNzk2OSw1NjUuNjA5NCAxMDA4LjA1NzMsNTg4LjE0ODEgMTEyMy44MDczLDU5OS4xMDEyICIgZmlsbD0ibm9uZSIgaWQ9Ik1vZHVsZSBNZXNzYWdlcmllLXRvLUJhc2UgZGUgZG9ubiYjMjMzO2VzIiBzdHlsZT0ic3Ryb2tlOiM0Mjg1RjQ7c3Ryb2tlLXdpZHRoOjEuNTYyNTsiLz48cG9seWdvbiBmaWxsPSIjNDI4NUY0IiBwb2ludHM9IjExMzMuMTQwNiw1OTkuOTg0NCwxMTE5LjcyOTUsNTkyLjQzNzQsMTEyNS4zNjI5LDU5OS4yNDg0LDExMTguNTUxOSw2MDQuODgxOCwxMTMzLjE0MDYsNTk5Ljk4NDQiIHN0eWxlPSJzdHJva2U6IzQyODVGNDtzdHJva2Utd2lkdGg6MS41NjI1OyIvPjwvZz48IS0tbGluayBNb2R1bGUgTm90YXRpb24gZXQgQXZpcyB0byBCYXNlIGRlIGRvbm4/ZXMtLT48ZyBpZD0ibGlua19Nb2R1bGUgTm90YXRpb24gZXQgQXZpc19CYXNlIGRlIGRvbm4mIzIzMztlcyI+PHBhdGggZD0iTTI2Ny42NzE5LDQ4MS4zMjgxIEMzMDAuNzk2OSw0OTUuMDQ2OSAzNDAuNzY1Niw1MDkuNzgxMyAzNzguMTI1LDUxOC43NSBDNjQzLjg5MDYsNTgyLjUzMTMgOTU2LjcyMzYsNjAwLjczMDQgMTEyNC4xMjk4LDYwNi4xMDU0ICIgZmlsbD0ibm9uZSIgaWQ9Ik1vZHVsZSBOb3RhdGlvbiBldCBBdmlzLXRvLUJhc2UgZGUgZG9ubiYjMjMzO2VzIiBzdHlsZT0ic3Ryb2tlOiM0Mjg1RjQ7c3Ryb2tlLXdpZHRoOjEuNTYyNTsiLz48cG9seWdvbiBmaWxsPSIjNDI4NUY0IiBwb2ludHM9IjExMzMuNSw2MDYuNDA2MywxMTE5LjY0NTMsNTk5LjcwODIsMTEyNS42OTE1LDYwNi4xNTU1LDExMTkuMjQ0Miw2MTIuMjAxOCwxMTMzLjUsNjA2LjQwNjMiIHN0eWxlPSJzdHJva2U6IzQyODVGNDtzdHJva2Utd2lkdGg6MS41NjI1OyIvPjwvZz48IS0tbGluayBNb2R1bGUgQWRtaW5pc3RyYXRpb24gdG8gQmFzZSBkZSBkb25uP2VzLS0+PGcgaWQ9ImxpbmtfTW9kdWxlIEFkbWluaXN0cmF0aW9uX0Jhc2UgZGUgZG9ubiYjMjMzO2VzIj48cGF0aCBkPSJNMTI0Ni44NzUsNDgxLjc4MTMgQzEyNDYuODc1LDUwOS4wOTM4IDEyNDYuODc1LDUzNy44NDM4IDEyNDYuODc1LDU2NS4xNDA2ICIgZmlsbD0ibm9uZSIgaWQ9Ik1vZHVsZSBBZG1pbmlzdHJhdGlvbi10by1CYXNlIGRlIGRvbm4mIzIzMztlcyIgc3R5bGU9InN0cm9rZTojNDI4NUY0O3N0cm9rZS13aWR0aDoxLjU2MjU7Ii8+PHBvbHlnb24gZmlsbD0iIzQyODVGNCIgcG9pbnRzPSIxMjQ2Ljg3NSw1NzQuNTE1NiwxMjUzLjEyNSw1NjAuNDUzMSwxMjQ2Ljg3NSw1NjYuNzAzMSwxMjQwLjYyNSw1NjAuNDUzMSwxMjQ2Ljg3NSw1NzQuNTE1NiIgc3R5bGU9InN0cm9rZTojNDI4NUY0O3N0cm9rZS13aWR0aDoxLjU2MjU7Ii8+PC9nPjwhLS1saW5rIEludGVyZmFjZSBVdGlsaXNhdGV1ciB0byBBUEkgR2F0ZXdheS0tPjxnIGlkPSJsaW5rX0ludGVyZmFjZSBVdGlsaXNhdGV1cl9BUEkgR2F0ZXdheSI+PHBhdGggZD0iTTEyNDYuODc1LDEzMy4zNDM3IEMxMjQ2Ljg3NSwxNjAuNjU2MyAxMjQ2Ljg3NSwxODkuNDA2MyAxMjQ2Ljg3NSwyMTYuNzAzMSAiIGZpbGw9Im5vbmUiIGlkPSJJbnRlcmZhY2UgVXRpbGlzYXRldXItdG8tQVBJIEdhdGV3YXkiIHN0eWxlPSJzdHJva2U6IzQyODVGNDtzdHJva2Utd2lkdGg6MS41NjI1OyIvPjxwb2x5Z29uIGZpbGw9IiM0Mjg1RjQiIHBvaW50cz0iMTI0Ni44NzUsMjI2LjA3ODEsMTI1My4xMjUsMjEyLjAxNTYsMTI0Ni44NzUsMjE4LjI2NTYsMTI0MC42MjUsMjEyLjAxNTYsMTI0Ni44NzUsMjI2LjA3ODEiIHN0eWxlPSJzdHJva2U6IzQyODVGNDtzdHJva2Utd2lkdGg6MS41NjI1OyIvPjwvZz48IS0tbGluayBHb29nbGUgTWFwcyBBUEkgdG8gTW9kdWxlIFJlY2hlcmNoZS0tPjxnIGlkPSJsaW5rX0dvb2dsZSBNYXBzIEFQSV9Nb2R1bGUgUmVjaGVyY2hlIj48cGF0aCBkPSJNMjQzNS44MTI1LDI5Ni45NTMxIEMyMzc4LjQ2ODgsMzI5LjQwNjMgMjMwMC4zMTU2LDM3My42MTc1IDIyNDIuODc4MSw0MDYuMTE3NSAiIGZpbGw9Im5vbmUiIGlkPSJHb29nbGUgTWFwcyBBUEktdG8tTW9kdWxlIFJlY2hlcmNoZSIgc3R5bGU9InN0cm9rZTojNDI4NUY0O3N0cm9rZS13aWR0aDoxLjU2MjU7Ii8+PHBvbHlnb24gZmlsbD0iIzQyODVGNCIgcG9pbnRzPSIyMjM0LjcxODgsNDEwLjczNDQsMjI1MC4wMzU3LDQwOS4yNDg3LDIyNDEuNTE4Miw0MDYuODg3LDIyNDMuODc5OSwzOTguMzY5NSwyMjM0LjcxODgsNDEwLjczNDQiIHN0eWxlPSJzdHJva2U6IzQyODVGNDtzdHJva2Utd2lkdGg6MS41NjI1OyIvPjwvZz48IS0tbGluayBTdHJpcGUvUGF5UGFsIHRvIE1vZHVsZSBQYWllbWVudHMtLT48ZyBpZD0ibGlua19TdHJpcGUvUGF5UGFsX01vZHVsZSBQYWllbWVudHMiPjxwYXRoIGQ9Ik0zMDQ2LjgxMjUsMjk2Ljk1MzEgQzMwNDMuNzM0NCwzMjkuMjk2OSAzMDQwLjAwOTQsMzY4LjYwNDMgMzAzNi45MzEzLDQwMS4wODg3ICIgZmlsbD0ibm9uZSIgaWQ9IlN0cmlwZS9QYXlQYWwtdG8tTW9kdWxlIFBhaWVtZW50cyIgc3R5bGU9InN0cm9rZTojNDI4NUY0O3N0cm9rZS13aWR0aDoxLjU2MjU7Ii8+PHBvbHlnb24gZmlsbD0iIzQyODVGNCIgcG9pbnRzPSIzMDM2LjA0NjksNDEwLjQyMTksMzA0My41OTU2LDM5Ny4wMTE3LDMwMzYuNzgzOSw0MDIuNjQ0MiwzMDMxLjE1MTMsMzk1LjgzMjUsMzAzNi4wNDY5LDQxMC40MjE5IiBzdHlsZT0ic3Ryb2tlOiM0Mjg1RjQ7c3Ryb2tlLXdpZHRoOjEuNTYyNTsiLz48L2c+PCEtLWxpbmsgVHdpbGlvL1NlbmRHcmlkIHRvIE1vZHVsZSBOb3RpZmljYXRpb25zLS0+PGcgaWQ9ImxpbmtfVHdpbGlvL1NlbmRHcmlkX01vZHVsZSBOb3RpZmljYXRpb25zIj48cGF0aCBkPSJNMjc2Ni44MTI1LDI5Ni45NTMxIEMyNzU1LjkyMTksMzI5LjI5NjkgMjc0Mi41NjU4LDM2OS4wNTEzIDI3MzEuNjQ0LDQwMS41MzU3ICIgZmlsbD0ibm9uZSIgaWQ9IlR3aWxpby9TZW5kR3JpZC10by1Nb2R1bGUgTm90aWZpY2F0aW9ucyIgc3R5bGU9InN0cm9rZTojNDI4NUY0O3N0cm9rZS13aWR0aDoxLjU2MjU7Ii8+PHBvbHlnb24gZmlsbD0iIzQyODVGNCIgcG9pbnRzPSIyNzI4LjY1NjMsNDEwLjQyMTksMjczOS4wNjE5LDM5OS4wODQ0LDI3MzEuMTQ2LDQwMy4wMTY3LDI3MjcuMjEzNywzOTUuMTAwOCwyNzI4LjY1NjMsNDEwLjQyMTkiIHN0eWxlPSJzdHJva2U6IzQyODVGNDtzdHJva2Utd2lkdGg6MS41NjI1OyIvPjwvZz48IS0tbGluayBBUEkgR2F0ZXdheSB0byBNb2R1bGUgVXRpbGlzYXRldXJzLS0+PGcgaWQ9ImxpbmtfQVBJIEdhdGV3YXlfTW9kdWxlIFV0aWxpc2F0ZXVycyI+PHBhdGggZD0iTTEzMzkuMDYyNSwyNzAuMzkwNiBDMTQzMy4xMDk0LDI3OS44NzUgMTU4Mi4wMzEzLDMwMS4xMjUgMTcwMy4xMjUsMzQ2Ljg3NSBDMTc0NSwzNjIuNjg3NSAxNzgwLjUxMywzODMuOTcxMyAxODExLjg0MTIsNDA1LjQwODggIiBmaWxsPSJub25lIiBpZD0iQVBJIEdhdGV3YXktdG8tTW9kdWxlIFV0aWxpc2F0ZXVycyIgc3R5bGU9InN0cm9rZTojNDI4NUY0O3N0cm9rZS13aWR0aDoxLjU2MjU7Ii8+PHBvbHlnb24gZmlsbD0iIzQyODVGNCIgcG9pbnRzPSIxODE5LjU3ODEsNDEwLjcwMzEsMTgxMS41MDIyLDM5Ny42MDM3LDE4MTMuMTMwNiw0MDYuMjkxMiwxODA0LjQ0MzEsNDA3LjkxOTYsMTgxOS41NzgxLDQxMC43MDMxIiBzdHlsZT0ic3Ryb2tlOiM0Mjg1RjQ7c3Ryb2tlLXdpZHRoOjEuNTYyNTsiLz48L2c+PCEtLWxpbmsgQVBJIEdhdGV3YXkgdG8gTW9kdWxlIEFubm9uY2VzLS0+PGcgaWQ9ImxpbmtfQVBJIEdhdGV3YXlfTW9kdWxlIEFubm9uY2VzIj48cGF0aCBkPSJNMTMyNC4wNjI1LDI5Ni44NzUgQzEzNTUuMDQ2OSwzMTEuMjAzMSAxMzkwLjcxODgsMzI4Ljc4MTMgMTQyMS44NzUsMzQ2Ljg3NSBDMTQ1NS4wMzEzLDM2Ni4xNDA2IDE0ODIuOTEzNSwzODUuMjUyIDE1MDkuOTEzNSw0MDQuOTcwOCAiIGZpbGw9Im5vbmUiIGlkPSJBUEkgR2F0ZXdheS10by1Nb2R1bGUgQW5ub25jZXMiIHN0eWxlPSJzdHJva2U6IzQyODVGNDtzdHJva2Utd2lkdGg6MS41NjI1OyIvPjxwb2x5Z29uIGZpbGw9IiM0Mjg1RjQiIHBvaW50cz0iMTUxNy40ODQ0LDQxMC41LDE1MDkuODE0MiwzOTcuMTU4OSwxNTExLjE3NTMsNDA1Ljg5MjMsMTUwMi40NDE5LDQwNy4yNTM1LDE1MTcuNDg0NCw0MTAuNSIgc3R5bGU9InN0cm9rZTojNDI4NUY0O3N0cm9rZS13aWR0aDoxLjU2MjU7Ii8+PC9nPjwhLS1saW5rIEFQSSBHYXRld2F5IHRvIE1vZHVsZSBSZWNoZXJjaGUtLT48ZyBpZD0ibGlua19BUEkgR2F0ZXdheV9Nb2R1bGUgUmVjaGVyY2hlIj48cGF0aCBkPSJNMTMzOS41NjI1LDI2Ny42NzE5IEMxNTE4LjIwMzEsMjc3LjAzMTMgMTkwMy41MTU2LDMwMS44NTk0IDIwMjguMTI1LDM0Ni44NzUgQzIwNjcuODc1LDM2MS4yMzQ0IDIxMDAuMDcxLDM4Mi42ODU2IDIxMjguMTE3OSw0MDQuNzYzNyAiIGZpbGw9Im5vbmUiIGlkPSJBUEkgR2F0ZXdheS10by1Nb2R1bGUgUmVjaGVyY2hlIiBzdHlsZT0ic3Ryb2tlOiM0Mjg1RjQ7c3Ryb2tlLXdpZHRoOjEuNTYyNTsiLz48cG9seWdvbiBmaWxsPSIjNDI4NUY0IiBwb2ludHM9IjIxMzUuNDg0NCw0MTAuNTYyNSwyMTI4LjMwMDUsMzk2Ljk1MzQsMjEyOS4zNDU3LDQwNS43MzAyLDIxMjAuNTY4OCw0MDYuNzc1MywyMTM1LjQ4NDQsNDEwLjU2MjUiIHN0eWxlPSJzdHJva2U6IzQyODVGNDtzdHJva2Utd2lkdGg6MS41NjI1OyIvPjwvZz48IS0tbGluayBBUEkgR2F0ZXdheSB0byBNb2R1bGUgRmF2b3JpcyBldCBBbGVydGVzLS0+PGcgaWQ9ImxpbmtfQVBJIEdhdGV3YXlfTW9kdWxlIEZhdm9yaXMgZXQgQWxlcnRlcyI+PHBhdGggZD0iTTExNzYuMzI4MSwyOTcuMDYyNSBDMTE0NC43OTY5LDMxMi4yMTg4IDExMDcuMjE4OCwzMzAuMzU5NCAxMDczLjQzNzUsMzQ2Ljg3NSBDMTAzMC4yNSwzNjggOTkwLjI4NDEsMzg3LjgwODMgOTUyLjI4NDEsNDA2LjcxNDYgIiBmaWxsPSJub25lIiBpZD0iQVBJIEdhdGV3YXktdG8tTW9kdWxlIEZhdm9yaXMgZXQgQWxlcnRlcyIgc3R5bGU9InN0cm9rZTojNDI4NUY0O3N0cm9rZS13aWR0aDoxLjU2MjU7Ii8+PHBvbHlnb24gZmlsbD0iIzQyODVGNCIgcG9pbnRzPSI5NDMuODkwNiw0MTAuODkwNiw5NTkuMjY0OSw0MTAuMjIyMiw5NTAuODg1Miw0MDcuNDEwNiw5NTMuNjk2OSwzOTkuMDMwOSw5NDMuODkwNiw0MTAuODkwNiIgc3R5bGU9InN0cm9rZTojNDI4NUY0O3N0cm9rZS13aWR0aDoxLjU2MjU7Ii8+PC9nPjwhLS1saW5rIEFQSSBHYXRld2F5IHRvIE1vZHVsZSBNZXNzYWdlcmllLS0+PGcgaWQ9ImxpbmtfQVBJIEdhdGV3YXlfTW9kdWxlIE1lc3NhZ2VyaWUiPjxwYXRoIGQ9Ik0xMTU0LjI2NTYsMjY1LjAzMTMgQzEwMzkuNzE4OCwyNjkuODU5NCA4NDAuMzc1LDI4Ny4wNjI1IDY4MS4yNSwzNDYuODc1IEM2NDEuMTA5NCwzNjEuOTY4OCA2MDguMDM3MSwzODMuMjU3OCA1NzguOTc0Niw0MDUuMDA3OCAiIGZpbGw9Im5vbmUiIGlkPSJBUEkgR2F0ZXdheS10by1Nb2R1bGUgTWVzc2FnZXJpZSIgc3R5bGU9InN0cm9rZTojNDI4NUY0O3N0cm9rZS13aWR0aDoxLjU2MjU7Ii8+PHBvbHlnb24gZmlsbD0iIzQyODVGNCIgcG9pbnRzPSI1NzEuNDY4OCw0MTAuNjI1LDU4Ni40NzIzLDQwNy4yMDMsNTc3LjcyMzYsNDA1Ljk0NCw1NzguOTgyNiwzOTcuMTk1Myw1NzEuNDY4OCw0MTAuNjI1IiBzdHlsZT0ic3Ryb2tlOiM0Mjg1RjQ7c3Ryb2tlLXdpZHRoOjEuNTYyNTsiLz48L2c+PCEtLWxpbmsgQVBJIEdhdGV3YXkgdG8gTW9kdWxlIE5vdGF0aW9uIGV0IEF2aXMtLT48ZyBpZD0ibGlua19BUEkgR2F0ZXdheV9Nb2R1bGUgTm90YXRpb24gZXQgQXZpcyI+PHBhdGggZD0iTTExNTMuOTY4OCwyNjcuNjQwNiBDOTYwLjY4NzUsMjc3LjQ2ODggNTIxLjQzNzUsMzAzLjg3NSAzNzguMTI1LDM0Ni44NzUgQzMzMC4yNSwzNjEuMjM0NCAyODguMzgzNywzODMuNTc1NSAyNTIuNjE4MSw0MDUuNjUzNiAiIGZpbGw9Im5vbmUiIGlkPSJBUEkgR2F0ZXdheS10by1Nb2R1bGUgTm90YXRpb24gZXQgQXZpcyIgc3R5bGU9InN0cm9rZTojNDI4NUY0O3N0cm9rZS13aWR0aDoxLjU2MjU7Ii8+PHBvbHlnb24gZmlsbD0iIzQyODVGNCIgcG9pbnRzPSIyNDQuNjQwNiw0MTAuNTc4MSwyNTkuODg5OCw0MDguNTA5NywyNTEuMjg4NSw0MDYuNDc0NCwyNTMuMzIzOCwzOTcuODczMSwyNDQuNjQwNiw0MTAuNTc4MSIgc3R5bGU9InN0cm9rZTojNDI4NUY0O3N0cm9rZS13aWR0aDoxLjU2MjU7Ii8+PC9nPjwhLS1saW5rIEFQSSBHYXRld2F5IHRvIE1vZHVsZSBBZG1pbmlzdHJhdGlvbi0tPjxnIGlkPSJsaW5rX0FQSSBHYXRld2F5X01vZHVsZSBBZG1pbmlzdHJhdGlvbiI+PHBhdGggZD0iTTEyNDYuODc1LDI5Ni45NTMxIEMxMjQ2Ljg3NSwzMjkuMjk2OSAxMjQ2Ljg3NSwzNjguNTYyNSAxMjQ2Ljg3NSw0MDEuMDQ2OSAiIGZpbGw9Im5vbmUiIGlkPSJBUEkgR2F0ZXdheS10by1Nb2R1bGUgQWRtaW5pc3RyYXRpb24iIHN0eWxlPSJzdHJva2U6IzQyODVGNDtzdHJva2Utd2lkdGg6MS41NjI1OyIvPjxwb2x5Z29uIGZpbGw9IiM0Mjg1RjQiIHBvaW50cz0iMTI0Ni44NzUsNDEwLjQyMTksMTI1My4xMjUsMzk2LjM1OTQsMTI0Ni44NzUsNDAyLjYwOTQsMTI0MC42MjUsMzk2LjM1OTQsMTI0Ni44NzUsNDEwLjQyMTkiIHN0eWxlPSJzdHJva2U6IzQyODVGNDtzdHJva2Utd2lkdGg6MS41NjI1OyIvPjwvZz48IS0tU1JDPVtaUEIxSmtEMDM4UmxWR2VCcGVZb1JJTEVBd004TFhuT0xSSHhHWG5DdWdHTXF2ZDh1cEhLUTF6ZWRzRFZSQVREMTFDMUtHdzllbFpwUl9rdF9HbFI0V0x0SzZCd1dXTWp6TTA4N1lYTGo4TVhhTnk3ZFdER1lBamlUa0VDNHdZdGg3N1NScDVwRFRpMkxBZXVXMkFrUmRCRWZwLWtQdWpmNTZwQlJiV0Q5T09Ca29FaE8yWk4yQ2VlbnloZVhieHJXcWQzWW9JWVNjVXJRVl9QY0ltQWo0c0I5TzZoU1FuUkNicERuZ0RIc21NU3BTQzdzVW1DcFhWcC1TcnUxY3laV0NUeGJyTDF6aFVvT096QWJWV2RrQlp1Mk96cHoxSlFXeW5QLSAteWwtUVM4SnduckRnS1hRRjF4SW5BVTBVbTJ6cXhPMG9hYVhhRzc1UldkeHlFMG1hQ2dfN0FBb2l3VUlrbnZxQXBQWllyeGJMRllqbWJfOGdpTjRsUkxVM3NQOWpVcElVRnJ0TjZoRVFPVGtybDFQN0s3b18yWm5hRE5RcXNvdnMwcnRCdzZSNGktWUR1Y3F5Y2FOVTNJa1VCZTBmT1VXYVdoenlkeTh4Zk11UDhrTHRYT2VVYzJBc0d3ZGJ1cC1RT0V4UmRCVEhYWEFQbnJxTTBYdnZvVXQ2WmN4WkpWT0pqZHJTRXp0ckNGNHl0b0ZWSjUxVk5HcVVkcUs5emtmYy1HeGg3eTFtMDBdLS0+PC9nPjwvc3ZnPg==;" vertex="1" parent="1">
            <mxGeometry x="-1190" y="-10" width="3197" height="689" as="geometry" />
          </mxCell>
        </UserObject>
      </root>
    </mxGraphModel>
  </diagram>
  <diagram id="eHIJwE5t8SPsv_FgNSCw" name="Diagramme de classe">
    <mxGraphModel dx="1050" dy="1814" grid="1" gridSize="10" guides="1" tooltips="1" connect="1" arrows="1" fold="1" page="1" pageScale="1" pageWidth="827" pageHeight="1169" math="0" shadow="0">
      <root>
        <mxCell id="0" />
        <mxCell id="1" parent="0" />
        <UserObject label="" plantUmlData="{&#xa;  &quot;data&quot;: &quot;@startuml\nclass Users {\n  +id: UUID\n  +email: String\n  +password_hash: String\n  +role: String\n  +created_at: DateTime\n  +updated_at: DateTime\n}\n\nclass Listings {\n  +id: UUID\n  +title: String\n  +description: Text\n  +price: Float\n  +surface: Float\n  +location: String\n  +user_id: UUID\n  +created_at: DateTime\n  +updated_at: DateTime\n}\n\nclass Media {\n  +id: UUID\n  +listing_id: UUID\n  +url: String\n  +type: String\n}\n\nclass Favorites {\n  +id: UUID\n  +user_id: UUID\n  +listing_id: UUID\n}\n\nclass Messages {\n  +id: UUID\n  +sender_id: UUID\n  +receiver_id: UUID\n  +content: Text\n  +created_at: DateTime\n}\n\nclass Reviews {\n  +id: UUID\n  +listing_id: UUID\n  +user_id: UUID\n  +rating: Int\n  +comment: Text\n  +created_at: DateTime\n}\n\nclass Alerts {\n  +id: UUID\n  +user_id: UUID\n  +criteria: JSON\n  +created_at: DateTime\n}\n\nUsers \&quot;1\&quot; --&gt; \&quot;0..*\&quot; Listings : Possède\nListings \&quot;1\&quot; --&gt; \&quot;0..*\&quot; Media : Contient\nUsers \&quot;1\&quot; --&gt; \&quot;0..*\&quot; Favorites : Ajoute\nUsers \&quot;1\&quot; --&gt; \&quot;0..*\&quot; Messages : Envoie\nListings \&quot;1\&quot; --&gt; \&quot;0..*\&quot; Reviews : Reçoit\nUsers \&quot;1\&quot; --&gt; \&quot;0..*\&quot; Alerts : Crée\n@enduml&quot;,&#xa;  &quot;format&quot;: &quot;svg&quot;&#xa;}" id="8Yq783VkKdWvpjzi-59x-2">
          <mxCell style="shape=image;noLabel=1;verticalAlign=top;aspect=fixed;imageAspect=0;image=data:image/svg+xml,PD94bWwgdmVyc2lvbj0iMS4wIiBlbmNvZGluZz0idXMtYXNjaWkiIHN0YW5kYWxvbmU9Im5vIj8+PHN2ZyB4bWxucz0iaHR0cDovL3d3dy53My5vcmcvMjAwMC9zdmciIHhtbG5zOnhsaW5rPSJodHRwOi8vd3d3LnczLm9yZy8xOTk5L3hsaW5rIiBjb250ZW50U3R5bGVUeXBlPSJ0ZXh0L2NzcyIgaGVpZ2h0PSI2MjJweCIgcHJlc2VydmVBc3BlY3RSYXRpbz0ibm9uZSIgc3R5bGU9IndpZHRoOjgzOHB4O2hlaWdodDo2MjJweDtiYWNrZ3JvdW5kOiNGRkZGRkY7IiB2ZXJzaW9uPSIxLjEiIHZpZXdCb3g9IjAgMCA4MzggNjIyIiB3aWR0aD0iODM4cHgiIHpvb21BbmRQYW49Im1hZ25pZnkiPjxkZWZzLz48Zz48IS0tY2xhc3MgVXNlcnMtLT48ZyBpZD0iZWxlbV9Vc2VycyI+PHJlY3QgY29kZUxpbmU9IjEiIGZpbGw9IiNGMUYxRjEiIGhlaWdodD0iMTM3LjkwNjMiIGlkPSJVc2VycyIgcng9IjIuNSIgcnk9IjIuNSIgc3R5bGU9InN0cm9rZTojMTgxODE4O3N0cm9rZS13aWR0aDowLjU7IiB3aWR0aD0iMTc0IiB4PSIzNjUiIHk9IjciLz48ZWxsaXBzZSBjeD0iNDMwLjI1IiBjeT0iMjMiIGZpbGw9IiNBREQxQjIiIHJ4PSIxMSIgcnk9IjExIiBzdHlsZT0ic3Ryb2tlOiMxODE4MTg7c3Ryb2tlLXdpZHRoOjEuMDsiLz48cGF0aCBkPSJNNDI3Ljg3NSwyNy4yNSBMNDI3Ljg3NSwyOSBMNDMyLjgxMjUsMjkgTDQzMi44MTI1LDI3LjI1IEw0MjcuODc1LDI3LjI1IFogTTQyOC41NjI1LDI3LjkzNzUgUTQyOC41NjI1LDI3LjkzNzUgNDI4LjU2MjUsMTguNzUgTDQyNi44MTI1LDE4Ljc1IFE0MjYuODEyNSwxOC43NSA0MjYuODEyNSwyNy45Mzc1IEw0MjguNTYyNSwyNy45Mzc1IFogTTQzMi4xMjUsMjcuOTM3NSBMNDMzLjg3NSwyNy45Mzc1IFE0MzMuODc1LDI3LjkzNzUgNDMzLjg3NSwyNS4xMjUgTDQzMi4xMjUsMjUuMTI1IFE0MzIuMTI1LDI1LjEyNSA0MzIuMTI1LDI3LjkzNzUgWiBNNDMyLjEyNSwxOC43NSBRNDMyLjEyNSwxOC43NSA0MzIuMTI1LDIxLjU2MjUgTDQzMy44NzUsMjEuNTYyNSBRNDMzLjg3NSwyMS41NjI1IDQzMy44NzUsMTguNzUgTDQzMi4xMjUsMTguNzUgWiBNNDI3Ljg3NSwxOS40Mzc1IEw0MzIuODEyNSwxOS40Mzc1IEw0MzIuODEyNSwxNy42ODc1IEw0MjcuODc1LDE3LjY4NzUgTDQyNy44NzUsMTkuNDM3NSBaICIgZmlsbD0iIzAwMDAwMCIvPjx0ZXh0IGZpbGw9IiMwMDAwMDAiIGZvbnQtZmFtaWx5PSJzYW5zLXNlcmlmIiBmb250LXNpemU9IjE0IiBsZW5ndGhBZGp1c3Q9InNwYWNpbmciIHRleHRMZW5ndGg9IjM1IiB4PSI0NTAuNzUiIHk9IjI4Ljc0MjIiPlVzZXJzPC90ZXh0PjxsaW5lIHN0eWxlPSJzdHJva2U6IzE4MTgxODtzdHJva2Utd2lkdGg6MC41OyIgeDE9IjM2NiIgeDI9IjUzOCIgeTE9IjM5IiB5Mj0iMzkiLz48ZWxsaXBzZSBjeD0iMzc2IiBjeT0iNTEuOTkyMiIgZmlsbD0ibm9uZSIgcng9IjMiIHJ5PSIzIiBzdHlsZT0ic3Ryb2tlOiMwMzgwNDg7c3Ryb2tlLXdpZHRoOjEuMDsiLz48dGV4dCBmaWxsPSIjMDAwMDAwIiBmb250LWZhbWlseT0ic2Fucy1zZXJpZiIgZm9udC1zaXplPSIxNCIgbGVuZ3RoQWRqdXN0PSJzcGFjaW5nIiB0ZXh0TGVuZ3RoPSI1NiIgeD0iMzg1IiB5PSI1Ni4yMzQ0Ij5pZDogVVVJRDwvdGV4dD48ZWxsaXBzZSBjeD0iMzc2IiBjeT0iNjYuOTc2NiIgZmlsbD0ibm9uZSIgcng9IjMiIHJ5PSIzIiBzdHlsZT0ic3Ryb2tlOiMwMzgwNDg7c3Ryb2tlLXdpZHRoOjEuMDsiLz48dGV4dCBmaWxsPSIjMDAwMDAwIiBmb250LWZhbWlseT0ic2Fucy1zZXJpZiIgZm9udC1zaXplPSIxNCIgbGVuZ3RoQWRqdXN0PSJzcGFjaW5nIiB0ZXh0TGVuZ3RoPSI5MiIgeD0iMzg1IiB5PSI3MS4yMTg4Ij5lbWFpbDogU3RyaW5nPC90ZXh0PjxlbGxpcHNlIGN4PSIzNzYiIGN5PSI4MS45NjA5IiBmaWxsPSJub25lIiByeD0iMyIgcnk9IjMiIHN0eWxlPSJzdHJva2U6IzAzODA0ODtzdHJva2Utd2lkdGg6MS4wOyIvPjx0ZXh0IGZpbGw9IiMwMDAwMDAiIGZvbnQtZmFtaWx5PSJzYW5zLXNlcmlmIiBmb250LXNpemU9IjE0IiBsZW5ndGhBZGp1c3Q9InNwYWNpbmciIHRleHRMZW5ndGg9IjE0OCIgeD0iMzg1IiB5PSI4Ni4yMDMxIj5wYXNzd29yZF9oYXNoOiBTdHJpbmc8L3RleHQ+PGVsbGlwc2UgY3g9IjM3NiIgY3k9Ijk2Ljk0NTMiIGZpbGw9Im5vbmUiIHJ4PSIzIiByeT0iMyIgc3R5bGU9InN0cm9rZTojMDM4MDQ4O3N0cm9rZS13aWR0aDoxLjA7Ii8+PHRleHQgZmlsbD0iIzAwMDAwMCIgZm9udC1mYW1pbHk9InNhbnMtc2VyaWYiIGZvbnQtc2l6ZT0iMTQiIGxlbmd0aEFkanVzdD0ic3BhY2luZyIgdGV4dExlbmd0aD0iODQiIHg9IjM4NSIgeT0iMTAxLjE4NzUiPnJvbGU6IFN0cmluZzwvdGV4dD48ZWxsaXBzZSBjeD0iMzc2IiBjeT0iMTExLjkyOTciIGZpbGw9Im5vbmUiIHJ4PSIzIiByeT0iMyIgc3R5bGU9InN0cm9rZTojMDM4MDQ4O3N0cm9rZS13aWR0aDoxLjA7Ii8+PHRleHQgZmlsbD0iIzAwMDAwMCIgZm9udC1mYW1pbHk9InNhbnMtc2VyaWYiIGZvbnQtc2l6ZT0iMTQiIGxlbmd0aEFkanVzdD0ic3BhY2luZyIgdGV4dExlbmd0aD0iMTQxIiB4PSIzODUiIHk9IjExNi4xNzE5Ij5jcmVhdGVkX2F0OiBEYXRlVGltZTwvdGV4dD48ZWxsaXBzZSBjeD0iMzc2IiBjeT0iMTI2LjkxNDEiIGZpbGw9Im5vbmUiIHJ4PSIzIiByeT0iMyIgc3R5bGU9InN0cm9rZTojMDM4MDQ4O3N0cm9rZS13aWR0aDoxLjA7Ii8+PHRleHQgZmlsbD0iIzAwMDAwMCIgZm9udC1mYW1pbHk9InNhbnMtc2VyaWYiIGZvbnQtc2l6ZT0iMTQiIGxlbmd0aEFkanVzdD0ic3BhY2luZyIgdGV4dExlbmd0aD0iMTQxIiB4PSIzODUiIHk9IjEzMS4xNTYzIj51cGRhdGVkX2F0OiBEYXRlVGltZTwvdGV4dD48bGluZSBzdHlsZT0ic3Ryb2tlOiMxODE4MTg7c3Ryb2tlLXdpZHRoOjAuNTsiIHgxPSIzNjYiIHgyPSI1MzgiIHkxPSIxMzYuOTA2MyIgeTI9IjEzNi45MDYzIi8+PC9nPjwhLS1jbGFzcyBMaXN0aW5ncy0tPjxnIGlkPSJlbGVtX0xpc3RpbmdzIj48cmVjdCBjb2RlTGluZT0iMTAiIGZpbGw9IiNGMUYxRjEiIGhlaWdodD0iMTgyLjg1OTQiIGlkPSJMaXN0aW5ncyIgcng9IjIuNSIgcnk9IjIuNSIgc3R5bGU9InN0cm9rZTojMTgxODE4O3N0cm9rZS13aWR0aDowLjU7IiB3aWR0aD0iMTY3IiB4PSI4Ni41IiB5PSIyMjAiLz48ZWxsaXBzZSBjeD0iMTM3Ljc1IiBjeT0iMjM2IiBmaWxsPSIjQUREMUIyIiByeD0iMTEiIHJ5PSIxMSIgc3R5bGU9InN0cm9rZTojMTgxODE4O3N0cm9rZS13aWR0aDoxLjA7Ii8+PHBhdGggZD0iTTEzNS4zNzUsMjQwLjI1IEwxMzUuMzc1LDI0MiBMMTQwLjMxMjUsMjQyIEwxNDAuMzEyNSwyNDAuMjUgTDEzNS4zNzUsMjQwLjI1IFogTTEzNi4wNjI1LDI0MC45Mzc1IFExMzYuMDYyNSwyNDAuOTM3NSAxMzYuMDYyNSwyMzEuNzUgTDEzNC4zMTI1LDIzMS43NSBRMTM0LjMxMjUsMjMxLjc1IDEzNC4zMTI1LDI0MC45Mzc1IEwxMzYuMDYyNSwyNDAuOTM3NSBaIE0xMzkuNjI1LDI0MC45Mzc1IEwxNDEuMzc1LDI0MC45Mzc1IFExNDEuMzc1LDI0MC45Mzc1IDE0MS4zNzUsMjM4LjEyNSBMMTM5LjYyNSwyMzguMTI1IFExMzkuNjI1LDIzOC4xMjUgMTM5LjYyNSwyNDAuOTM3NSBaIE0xMzkuNjI1LDIzMS43NSBRMTM5LjYyNSwyMzEuNzUgMTM5LjYyNSwyMzQuNTYyNSBMMTQxLjM3NSwyMzQuNTYyNSBRMTQxLjM3NSwyMzQuNTYyNSAxNDEuMzc1LDIzMS43NSBMMTM5LjYyNSwyMzEuNzUgWiBNMTM1LjM3NSwyMzIuNDM3NSBMMTQwLjMxMjUsMjMyLjQzNzUgTDE0MC4zMTI1LDIzMC42ODc1IEwxMzUuMzc1LDIzMC42ODc1IEwxMzUuMzc1LDIzMi40Mzc1IFogIiBmaWxsPSIjMDAwMDAwIi8+PHRleHQgZmlsbD0iIzAwMDAwMCIgZm9udC1mYW1pbHk9InNhbnMtc2VyaWYiIGZvbnQtc2l6ZT0iMTQiIGxlbmd0aEFkanVzdD0ic3BhY2luZyIgdGV4dExlbmd0aD0iNTYiIHg9IjE1OC4yNSIgeT0iMjQxLjc0MjIiPkxpc3RpbmdzPC90ZXh0PjxsaW5lIHN0eWxlPSJzdHJva2U6IzE4MTgxODtzdHJva2Utd2lkdGg6MC41OyIgeDE9Ijg3LjUiIHgyPSIyNTIuNSIgeTE9IjI1MiIgeTI9IjI1MiIvPjxlbGxpcHNlIGN4PSI5Ny41IiBjeT0iMjY0Ljk5MjIiIGZpbGw9Im5vbmUiIHJ4PSIzIiByeT0iMyIgc3R5bGU9InN0cm9rZTojMDM4MDQ4O3N0cm9rZS13aWR0aDoxLjA7Ii8+PHRleHQgZmlsbD0iIzAwMDAwMCIgZm9udC1mYW1pbHk9InNhbnMtc2VyaWYiIGZvbnQtc2l6ZT0iMTQiIGxlbmd0aEFkanVzdD0ic3BhY2luZyIgdGV4dExlbmd0aD0iNTYiIHg9IjEwNi41IiB5PSIyNjkuMjM0NCI+aWQ6IFVVSUQ8L3RleHQ+PGVsbGlwc2UgY3g9Ijk3LjUiIGN5PSIyNzkuOTc2NiIgZmlsbD0ibm9uZSIgcng9IjMiIHJ5PSIzIiBzdHlsZT0ic3Ryb2tlOiMwMzgwNDg7c3Ryb2tlLXdpZHRoOjEuMDsiLz48dGV4dCBmaWxsPSIjMDAwMDAwIiBmb250LWZhbWlseT0ic2Fucy1zZXJpZiIgZm9udC1zaXplPSIxNCIgbGVuZ3RoQWRqdXN0PSJzcGFjaW5nIiB0ZXh0TGVuZ3RoPSI5MSIgeD0iMTA2LjUiIHk9IjI4NC4yMTg4Ij50aXRsZTogU3RyaW5nPC90ZXh0PjxlbGxpcHNlIGN4PSI5Ny41IiBjeT0iMjk0Ljk2MDkiIGZpbGw9Im5vbmUiIHJ4PSIzIiByeT0iMyIgc3R5bGU9InN0cm9rZTojMDM4MDQ4O3N0cm9rZS13aWR0aDoxLjA7Ii8+PHRleHQgZmlsbD0iIzAwMDAwMCIgZm9udC1mYW1pbHk9InNhbnMtc2VyaWYiIGZvbnQtc2l6ZT0iMTQiIGxlbmd0aEFkanVzdD0ic3BhY2luZyIgdGV4dExlbmd0aD0iMTE5IiB4PSIxMDYuNSIgeT0iMjk5LjIwMzEiPmRlc2NyaXB0aW9uOiBUZXh0PC90ZXh0PjxlbGxpcHNlIGN4PSI5Ny41IiBjeT0iMzA5Ljk0NTMiIGZpbGw9Im5vbmUiIHJ4PSIzIiByeT0iMyIgc3R5bGU9InN0cm9rZTojMDM4MDQ4O3N0cm9rZS13aWR0aDoxLjA7Ii8+PHRleHQgZmlsbD0iIzAwMDAwMCIgZm9udC1mYW1pbHk9InNhbnMtc2VyaWYiIGZvbnQtc2l6ZT0iMTQiIGxlbmd0aEFkanVzdD0ic3BhY2luZyIgdGV4dExlbmd0aD0iODQiIHg9IjEwNi41IiB5PSIzMTQuMTg3NSI+cHJpY2U6IEZsb2F0PC90ZXh0PjxlbGxpcHNlIGN4PSI5Ny41IiBjeT0iMzI0LjkyOTciIGZpbGw9Im5vbmUiIHJ4PSIzIiByeT0iMyIgc3R5bGU9InN0cm9rZTojMDM4MDQ4O3N0cm9rZS13aWR0aDoxLjA7Ii8+PHRleHQgZmlsbD0iIzAwMDAwMCIgZm9udC1mYW1pbHk9InNhbnMtc2VyaWYiIGZvbnQtc2l6ZT0iMTQiIGxlbmd0aEFkanVzdD0ic3BhY2luZyIgdGV4dExlbmd0aD0iOTgiIHg9IjEwNi41IiB5PSIzMjkuMTcxOSI+c3VyZmFjZTogRmxvYXQ8L3RleHQ+PGVsbGlwc2UgY3g9Ijk3LjUiIGN5PSIzMzkuOTE0MSIgZmlsbD0ibm9uZSIgcng9IjMiIHJ5PSIzIiBzdHlsZT0ic3Ryb2tlOiMwMzgwNDg7c3Ryb2tlLXdpZHRoOjEuMDsiLz48dGV4dCBmaWxsPSIjMDAwMDAwIiBmb250LWZhbWlseT0ic2Fucy1zZXJpZiIgZm9udC1zaXplPSIxNCIgbGVuZ3RoQWRqdXN0PSJzcGFjaW5nIiB0ZXh0TGVuZ3RoPSIxMTIiIHg9IjEwNi41IiB5PSIzNDQuMTU2MyI+bG9jYXRpb246IFN0cmluZzwvdGV4dD48ZWxsaXBzZSBjeD0iOTcuNSIgY3k9IjM1NC44OTg0IiBmaWxsPSJub25lIiByeD0iMyIgcnk9IjMiIHN0eWxlPSJzdHJva2U6IzAzODA0ODtzdHJva2Utd2lkdGg6MS4wOyIvPjx0ZXh0IGZpbGw9IiMwMDAwMDAiIGZvbnQtZmFtaWx5PSJzYW5zLXNlcmlmIiBmb250LXNpemU9IjE0IiBsZW5ndGhBZGp1c3Q9InNwYWNpbmciIHRleHRMZW5ndGg9IjkxIiB4PSIxMDYuNSIgeT0iMzU5LjE0MDYiPnVzZXJfaWQ6IFVVSUQ8L3RleHQ+PGVsbGlwc2UgY3g9Ijk3LjUiIGN5PSIzNjkuODgyOCIgZmlsbD0ibm9uZSIgcng9IjMiIHJ5PSIzIiBzdHlsZT0ic3Ryb2tlOiMwMzgwNDg7c3Ryb2tlLXdpZHRoOjEuMDsiLz48dGV4dCBmaWxsPSIjMDAwMDAwIiBmb250LWZhbWlseT0ic2Fucy1zZXJpZiIgZm9udC1zaXplPSIxNCIgbGVuZ3RoQWRqdXN0PSJzcGFjaW5nIiB0ZXh0TGVuZ3RoPSIxNDEiIHg9IjEwNi41IiB5PSIzNzQuMTI1Ij5jcmVhdGVkX2F0OiBEYXRlVGltZTwvdGV4dD48ZWxsaXBzZSBjeD0iOTcuNSIgY3k9IjM4NC44NjcyIiBmaWxsPSJub25lIiByeD0iMyIgcnk9IjMiIHN0eWxlPSJzdHJva2U6IzAzODA0ODtzdHJva2Utd2lkdGg6MS4wOyIvPjx0ZXh0IGZpbGw9IiMwMDAwMDAiIGZvbnQtZmFtaWx5PSJzYW5zLXNlcmlmIiBmb250LXNpemU9IjE0IiBsZW5ndGhBZGp1c3Q9InNwYWNpbmciIHRleHRMZW5ndGg9IjE0MSIgeD0iMTA2LjUiIHk9IjM4OS4xMDk0Ij51cGRhdGVkX2F0OiBEYXRlVGltZTwvdGV4dD48bGluZSBzdHlsZT0ic3Ryb2tlOiMxODE4MTg7c3Ryb2tlLXdpZHRoOjAuNTsiIHgxPSI4Ny41IiB4Mj0iMjUyLjUiIHkxPSIzOTQuODU5NCIgeTI9IjM5NC44NTk0Ii8+PC9nPjwhLS1jbGFzcyBNZWRpYS0tPjxnIGlkPSJlbGVtX01lZGlhIj48cmVjdCBjb2RlTGluZT0iMjIiIGZpbGw9IiNGMUYxRjEiIGhlaWdodD0iMTA3LjkzNzUiIGlkPSJNZWRpYSIgcng9IjIuNSIgcnk9IjIuNSIgc3R5bGU9InN0cm9rZTojMTgxODE4O3N0cm9rZS13aWR0aDowLjU7IiB3aWR0aD0iMTM4IiB4PSI3IiB5PSI0OTMiLz48ZWxsaXBzZSBjeD0iNTQuMjUiIGN5PSI1MDkiIGZpbGw9IiNBREQxQjIiIHJ4PSIxMSIgcnk9IjExIiBzdHlsZT0ic3Ryb2tlOiMxODE4MTg7c3Ryb2tlLXdpZHRoOjEuMDsiLz48cGF0aCBkPSJNNTEuODc1LDUxMy4yNSBMNTEuODc1LDUxNSBMNTYuODEyNSw1MTUgTDU2LjgxMjUsNTEzLjI1IEw1MS44NzUsNTEzLjI1IFogTTUyLjU2MjUsNTEzLjkzNzUgUTUyLjU2MjUsNTEzLjkzNzUgNTIuNTYyNSw1MDQuNzUgTDUwLjgxMjUsNTA0Ljc1IFE1MC44MTI1LDUwNC43NSA1MC44MTI1LDUxMy45Mzc1IEw1Mi41NjI1LDUxMy45Mzc1IFogTTU2LjEyNSw1MTMuOTM3NSBMNTcuODc1LDUxMy45Mzc1IFE1Ny44NzUsNTEzLjkzNzUgNTcuODc1LDUxMS4xMjUgTDU2LjEyNSw1MTEuMTI1IFE1Ni4xMjUsNTExLjEyNSA1Ni4xMjUsNTEzLjkzNzUgWiBNNTYuMTI1LDUwNC43NSBRNTYuMTI1LDUwNC43NSA1Ni4xMjUsNTA3LjU2MjUgTDU3Ljg3NSw1MDcuNTYyNSBRNTcuODc1LDUwNy41NjI1IDU3Ljg3NSw1MDQuNzUgTDU2LjEyNSw1MDQuNzUgWiBNNTEuODc1LDUwNS40Mzc1IEw1Ni44MTI1LDUwNS40Mzc1IEw1Ni44MTI1LDUwMy42ODc1IEw1MS44NzUsNTAzLjY4NzUgTDUxLjg3NSw1MDUuNDM3NSBaICIgZmlsbD0iIzAwMDAwMCIvPjx0ZXh0IGZpbGw9IiMwMDAwMDAiIGZvbnQtZmFtaWx5PSJzYW5zLXNlcmlmIiBmb250LXNpemU9IjE0IiBsZW5ndGhBZGp1c3Q9InNwYWNpbmciIHRleHRMZW5ndGg9IjM1IiB4PSI3NC43NSIgeT0iNTE0Ljc0MjIiPk1lZGlhPC90ZXh0PjxsaW5lIHN0eWxlPSJzdHJva2U6IzE4MTgxODtzdHJva2Utd2lkdGg6MC41OyIgeDE9IjgiIHgyPSIxNDQiIHkxPSI1MjUiIHkyPSI1MjUiLz48ZWxsaXBzZSBjeD0iMTgiIGN5PSI1MzcuOTkyMiIgZmlsbD0ibm9uZSIgcng9IjMiIHJ5PSIzIiBzdHlsZT0ic3Ryb2tlOiMwMzgwNDg7c3Ryb2tlLXdpZHRoOjEuMDsiLz48dGV4dCBmaWxsPSIjMDAwMDAwIiBmb250LWZhbWlseT0ic2Fucy1zZXJpZiIgZm9udC1zaXplPSIxNCIgbGVuZ3RoQWRqdXN0PSJzcGFjaW5nIiB0ZXh0TGVuZ3RoPSI1NiIgeD0iMjciIHk9IjU0Mi4yMzQ0Ij5pZDogVVVJRDwvdGV4dD48ZWxsaXBzZSBjeD0iMTgiIGN5PSI1NTIuOTc2NiIgZmlsbD0ibm9uZSIgcng9IjMiIHJ5PSIzIiBzdHlsZT0ic3Ryb2tlOiMwMzgwNDg7c3Ryb2tlLXdpZHRoOjEuMDsiLz48dGV4dCBmaWxsPSIjMDAwMDAwIiBmb250LWZhbWlseT0ic2Fucy1zZXJpZiIgZm9udC1zaXplPSIxNCIgbGVuZ3RoQWRqdXN0PSJzcGFjaW5nIiB0ZXh0TGVuZ3RoPSIxMTIiIHg9IjI3IiB5PSI1NTcuMjE4OCI+bGlzdGluZ19pZDogVVVJRDwvdGV4dD48ZWxsaXBzZSBjeD0iMTgiIGN5PSI1NjcuOTYwOSIgZmlsbD0ibm9uZSIgcng9IjMiIHJ5PSIzIiBzdHlsZT0ic3Ryb2tlOiMwMzgwNDg7c3Ryb2tlLXdpZHRoOjEuMDsiLz48dGV4dCBmaWxsPSIjMDAwMDAwIiBmb250LWZhbWlseT0ic2Fucy1zZXJpZiIgZm9udC1zaXplPSIxNCIgbGVuZ3RoQWRqdXN0PSJzcGFjaW5nIiB0ZXh0TGVuZ3RoPSI3NyIgeD0iMjciIHk9IjU3Mi4yMDMxIj51cmw6IFN0cmluZzwvdGV4dD48ZWxsaXBzZSBjeD0iMTgiIGN5PSI1ODIuOTQ1MyIgZmlsbD0ibm9uZSIgcng9IjMiIHJ5PSIzIiBzdHlsZT0ic3Ryb2tlOiMwMzgwNDg7c3Ryb2tlLXdpZHRoOjEuMDsiLz48dGV4dCBmaWxsPSIjMDAwMDAwIiBmb250LWZhbWlseT0ic2Fucy1zZXJpZiIgZm9udC1zaXplPSIxNCIgbGVuZ3RoQWRqdXN0PSJzcGFjaW5nIiB0ZXh0TGVuZ3RoPSI4NCIgeD0iMjciIHk9IjU4Ny4xODc1Ij50eXBlOiBTdHJpbmc8L3RleHQ+PGxpbmUgc3R5bGU9InN0cm9rZTojMTgxODE4O3N0cm9rZS13aWR0aDowLjU7IiB4MT0iOCIgeDI9IjE0NCIgeTE9IjU5Mi45Mzc1IiB5Mj0iNTkyLjkzNzUiLz48L2c+PCEtLWNsYXNzIEZhdm9yaXRlcy0tPjxnIGlkPSJlbGVtX0Zhdm9yaXRlcyI+PHJlY3QgY29kZUxpbmU9IjI5IiBmaWxsPSIjRjFGMUYxIiBoZWlnaHQ9IjkyLjk1MzEiIGlkPSJGYXZvcml0ZXMiIHJ4PSIyLjUiIHJ5PSIyLjUiIHN0eWxlPSJzdHJva2U6IzE4MTgxODtzdHJva2Utd2lkdGg6MC41OyIgd2lkdGg9IjEzOCIgeD0iMjg5IiB5PSIyNjUiLz48ZWxsaXBzZSBjeD0iMzIzLjM1IiBjeT0iMjgxIiBmaWxsPSIjQUREMUIyIiByeD0iMTEiIHJ5PSIxMSIgc3R5bGU9InN0cm9rZTojMTgxODE4O3N0cm9rZS13aWR0aDoxLjA7Ii8+PHBhdGggZD0iTTMyMC45NzUsMjg1LjI1IEwzMjAuOTc1LDI4NyBMMzI1LjkxMjUsMjg3IEwzMjUuOTEyNSwyODUuMjUgTDMyMC45NzUsMjg1LjI1IFogTTMyMS42NjI1LDI4NS45Mzc1IFEzMjEuNjYyNSwyODUuOTM3NSAzMjEuNjYyNSwyNzYuNzUgTDMxOS45MTI1LDI3Ni43NSBRMzE5LjkxMjUsMjc2Ljc1IDMxOS45MTI1LDI4NS45Mzc1IEwzMjEuNjYyNSwyODUuOTM3NSBaIE0zMjUuMjI1LDI4NS45Mzc1IEwzMjYuOTc1LDI4NS45Mzc1IFEzMjYuOTc1LDI4NS45Mzc1IDMyNi45NzUsMjgzLjEyNSBMMzI1LjIyNSwyODMuMTI1IFEzMjUuMjI1LDI4My4xMjUgMzI1LjIyNSwyODUuOTM3NSBaIE0zMjUuMjI1LDI3Ni43NSBRMzI1LjIyNSwyNzYuNzUgMzI1LjIyNSwyNzkuNTYyNSBMMzI2Ljk3NSwyNzkuNTYyNSBRMzI2Ljk3NSwyNzkuNTYyNSAzMjYuOTc1LDI3Ni43NSBMMzI1LjIyNSwyNzYuNzUgWiBNMzIwLjk3NSwyNzcuNDM3NSBMMzI1LjkxMjUsMjc3LjQzNzUgTDMyNS45MTI1LDI3NS42ODc1IEwzMjAuOTc1LDI3NS42ODc1IEwzMjAuOTc1LDI3Ny40Mzc1IFogIiBmaWxsPSIjMDAwMDAwIi8+PHRleHQgZmlsbD0iIzAwMDAwMCIgZm9udC1mYW1pbHk9InNhbnMtc2VyaWYiIGZvbnQtc2l6ZT0iMTQiIGxlbmd0aEFkanVzdD0ic3BhY2luZyIgdGV4dExlbmd0aD0iNjMiIHg9IjM0MS42NSIgeT0iMjg2Ljc0MjIiPkZhdm9yaXRlczwvdGV4dD48bGluZSBzdHlsZT0ic3Ryb2tlOiMxODE4MTg7c3Ryb2tlLXdpZHRoOjAuNTsiIHgxPSIyOTAiIHgyPSI0MjYiIHkxPSIyOTciIHkyPSIyOTciLz48ZWxsaXBzZSBjeD0iMzAwIiBjeT0iMzA5Ljk5MjIiIGZpbGw9Im5vbmUiIHJ4PSIzIiByeT0iMyIgc3R5bGU9InN0cm9rZTojMDM4MDQ4O3N0cm9rZS13aWR0aDoxLjA7Ii8+PHRleHQgZmlsbD0iIzAwMDAwMCIgZm9udC1mYW1pbHk9InNhbnMtc2VyaWYiIGZvbnQtc2l6ZT0iMTQiIGxlbmd0aEFkanVzdD0ic3BhY2luZyIgdGV4dExlbmd0aD0iNTYiIHg9IjMwOSIgeT0iMzE0LjIzNDQiPmlkOiBVVUlEPC90ZXh0PjxlbGxpcHNlIGN4PSIzMDAiIGN5PSIzMjQuOTc2NiIgZmlsbD0ibm9uZSIgcng9IjMiIHJ5PSIzIiBzdHlsZT0ic3Ryb2tlOiMwMzgwNDg7c3Ryb2tlLXdpZHRoOjEuMDsiLz48dGV4dCBmaWxsPSIjMDAwMDAwIiBmb250LWZhbWlseT0ic2Fucy1zZXJpZiIgZm9udC1zaXplPSIxNCIgbGVuZ3RoQWRqdXN0PSJzcGFjaW5nIiB0ZXh0TGVuZ3RoPSI5MSIgeD0iMzA5IiB5PSIzMjkuMjE4OCI+dXNlcl9pZDogVVVJRDwvdGV4dD48ZWxsaXBzZSBjeD0iMzAwIiBjeT0iMzM5Ljk2MDkiIGZpbGw9Im5vbmUiIHJ4PSIzIiByeT0iMyIgc3R5bGU9InN0cm9rZTojMDM4MDQ4O3N0cm9rZS13aWR0aDoxLjA7Ii8+PHRleHQgZmlsbD0iIzAwMDAwMCIgZm9udC1mYW1pbHk9InNhbnMtc2VyaWYiIGZvbnQtc2l6ZT0iMTQiIGxlbmd0aEFkanVzdD0ic3BhY2luZyIgdGV4dExlbmd0aD0iMTEyIiB4PSIzMDkiIHk9IjM0NC4yMDMxIj5saXN0aW5nX2lkOiBVVUlEPC90ZXh0PjxsaW5lIHN0eWxlPSJzdHJva2U6IzE4MTgxODtzdHJva2Utd2lkdGg6MC41OyIgeDE9IjI5MCIgeDI9IjQyNiIgeTE9IjM0OS45NTMxIiB5Mj0iMzQ5Ljk1MzEiLz48L2c+PCEtLWNsYXNzIE1lc3NhZ2VzLS0+PGcgaWQ9ImVsZW1fTWVzc2FnZXMiPjxyZWN0IGNvZGVMaW5lPSIzNSIgZmlsbD0iI0YxRjFGMSIgaGVpZ2h0PSIxMjIuOTIxOSIgaWQ9Ik1lc3NhZ2VzIiByeD0iMi41IiByeT0iMi41IiBzdHlsZT0ic3Ryb2tlOiMxODE4MTg7c3Ryb2tlLXdpZHRoOjAuNTsiIHdpZHRoPSIxNjciIHg9IjQ2Mi41IiB5PSIyNTAiLz48ZWxsaXBzZSBjeD0iNTEzLjc1IiBjeT0iMjY2IiBmaWxsPSIjQUREMUIyIiByeD0iMTEiIHJ5PSIxMSIgc3R5bGU9InN0cm9rZTojMTgxODE4O3N0cm9rZS13aWR0aDoxLjA7Ii8+PHBhdGggZD0iTTUxMS4zNzUsMjcwLjI1IEw1MTEuMzc1LDI3MiBMNTE2LjMxMjUsMjcyIEw1MTYuMzEyNSwyNzAuMjUgTDUxMS4zNzUsMjcwLjI1IFogTTUxMi4wNjI1LDI3MC45Mzc1IFE1MTIuMDYyNSwyNzAuOTM3NSA1MTIuMDYyNSwyNjEuNzUgTDUxMC4zMTI1LDI2MS43NSBRNTEwLjMxMjUsMjYxLjc1IDUxMC4zMTI1LDI3MC45Mzc1IEw1MTIuMDYyNSwyNzAuOTM3NSBaIE01MTUuNjI1LDI3MC45Mzc1IEw1MTcuMzc1LDI3MC45Mzc1IFE1MTcuMzc1LDI3MC45Mzc1IDUxNy4zNzUsMjY4LjEyNSBMNTE1LjYyNSwyNjguMTI1IFE1MTUuNjI1LDI2OC4xMjUgNTE1LjYyNSwyNzAuOTM3NSBaIE01MTUuNjI1LDI2MS43NSBRNTE1LjYyNSwyNjEuNzUgNTE1LjYyNSwyNjQuNTYyNSBMNTE3LjM3NSwyNjQuNTYyNSBRNTE3LjM3NSwyNjQuNTYyNSA1MTcuMzc1LDI2MS43NSBMNTE1LjYyNSwyNjEuNzUgWiBNNTExLjM3NSwyNjIuNDM3NSBMNTE2LjMxMjUsMjYyLjQzNzUgTDUxNi4zMTI1LDI2MC42ODc1IEw1MTEuMzc1LDI2MC42ODc1IEw1MTEuMzc1LDI2Mi40Mzc1IFogIiBmaWxsPSIjMDAwMDAwIi8+PHRleHQgZmlsbD0iIzAwMDAwMCIgZm9udC1mYW1pbHk9InNhbnMtc2VyaWYiIGZvbnQtc2l6ZT0iMTQiIGxlbmd0aEFkanVzdD0ic3BhY2luZyIgdGV4dExlbmd0aD0iNTYiIHg9IjUzNC4yNSIgeT0iMjcxLjc0MjIiPk1lc3NhZ2VzPC90ZXh0PjxsaW5lIHN0eWxlPSJzdHJva2U6IzE4MTgxODtzdHJva2Utd2lkdGg6MC41OyIgeDE9IjQ2My41IiB4Mj0iNjI4LjUiIHkxPSIyODIiIHkyPSIyODIiLz48ZWxsaXBzZSBjeD0iNDczLjUiIGN5PSIyOTQuOTkyMiIgZmlsbD0ibm9uZSIgcng9IjMiIHJ5PSIzIiBzdHlsZT0ic3Ryb2tlOiMwMzgwNDg7c3Ryb2tlLXdpZHRoOjEuMDsiLz48dGV4dCBmaWxsPSIjMDAwMDAwIiBmb250LWZhbWlseT0ic2Fucy1zZXJpZiIgZm9udC1zaXplPSIxNCIgbGVuZ3RoQWRqdXN0PSJzcGFjaW5nIiB0ZXh0TGVuZ3RoPSI1NiIgeD0iNDgyLjUiIHk9IjI5OS4yMzQ0Ij5pZDogVVVJRDwvdGV4dD48ZWxsaXBzZSBjeD0iNDczLjUiIGN5PSIzMDkuOTc2NiIgZmlsbD0ibm9uZSIgcng9IjMiIHJ5PSIzIiBzdHlsZT0ic3Ryb2tlOiMwMzgwNDg7c3Ryb2tlLXdpZHRoOjEuMDsiLz48dGV4dCBmaWxsPSIjMDAwMDAwIiBmb250LWZhbWlseT0ic2Fucy1zZXJpZiIgZm9udC1zaXplPSIxNCIgbGVuZ3RoQWRqdXN0PSJzcGFjaW5nIiB0ZXh0TGVuZ3RoPSIxMDUiIHg9IjQ4Mi41IiB5PSIzMTQuMjE4OCI+c2VuZGVyX2lkOiBVVUlEPC90ZXh0PjxlbGxpcHNlIGN4PSI0NzMuNSIgY3k9IjMyNC45NjA5IiBmaWxsPSJub25lIiByeD0iMyIgcnk9IjMiIHN0eWxlPSJzdHJva2U6IzAzODA0ODtzdHJva2Utd2lkdGg6MS4wOyIvPjx0ZXh0IGZpbGw9IiMwMDAwMDAiIGZvbnQtZmFtaWx5PSJzYW5zLXNlcmlmIiBmb250LXNpemU9IjE0IiBsZW5ndGhBZGp1c3Q9InNwYWNpbmciIHRleHRMZW5ndGg9IjExOSIgeD0iNDgyLjUiIHk9IjMyOS4yMDMxIj5yZWNlaXZlcl9pZDogVVVJRDwvdGV4dD48ZWxsaXBzZSBjeD0iNDczLjUiIGN5PSIzMzkuOTQ1MyIgZmlsbD0ibm9uZSIgcng9IjMiIHJ5PSIzIiBzdHlsZT0ic3Ryb2tlOiMwMzgwNDg7c3Ryb2tlLXdpZHRoOjEuMDsiLz48dGV4dCBmaWxsPSIjMDAwMDAwIiBmb250LWZhbWlseT0ic2Fucy1zZXJpZiIgZm9udC1zaXplPSIxNCIgbGVuZ3RoQWRqdXN0PSJzcGFjaW5nIiB0ZXh0TGVuZ3RoPSI5MSIgeD0iNDgyLjUiIHk9IjM0NC4xODc1Ij5jb250ZW50OiBUZXh0PC90ZXh0PjxlbGxpcHNlIGN4PSI0NzMuNSIgY3k9IjM1NC45Mjk3IiBmaWxsPSJub25lIiByeD0iMyIgcnk9IjMiIHN0eWxlPSJzdHJva2U6IzAzODA0ODtzdHJva2Utd2lkdGg6MS4wOyIvPjx0ZXh0IGZpbGw9IiMwMDAwMDAiIGZvbnQtZmFtaWx5PSJzYW5zLXNlcmlmIiBmb250LXNpemU9IjE0IiBsZW5ndGhBZGp1c3Q9InNwYWNpbmciIHRleHRMZW5ndGg9IjE0MSIgeD0iNDgyLjUiIHk9IjM1OS4xNzE5Ij5jcmVhdGVkX2F0OiBEYXRlVGltZTwvdGV4dD48bGluZSBzdHlsZT0ic3Ryb2tlOiMxODE4MTg7c3Ryb2tlLXdpZHRoOjAuNTsiIHgxPSI0NjMuNSIgeDI9IjYyOC41IiB5MT0iMzY0LjkyMTkiIHkyPSIzNjQuOTIxOSIvPjwvZz48IS0tY2xhc3MgUmV2aWV3cy0tPjxnIGlkPSJlbGVtX1Jldmlld3MiPjxyZWN0IGNvZGVMaW5lPSI0MyIgZmlsbD0iI0YxRjFGMSIgaGVpZ2h0PSIxMzcuOTA2MyIgaWQ9IlJldmlld3MiIHJ4PSIyLjUiIHJ5PSIyLjUiIHN0eWxlPSJzdHJva2U6IzE4MTgxODtzdHJva2Utd2lkdGg6MC41OyIgd2lkdGg9IjE2NyIgeD0iMTgwLjUiIHk9IjQ3OCIvPjxlbGxpcHNlIGN4PSIyMzQuNzUiIGN5PSI0OTQiIGZpbGw9IiNBREQxQjIiIHJ4PSIxMSIgcnk9IjExIiBzdHlsZT0ic3Ryb2tlOiMxODE4MTg7c3Ryb2tlLXdpZHRoOjEuMDsiLz48cGF0aCBkPSJNMjMyLjM3NSw0OTguMjUgTDIzMi4zNzUsNTAwIEwyMzcuMzEyNSw1MDAgTDIzNy4zMTI1LDQ5OC4yNSBMMjMyLjM3NSw0OTguMjUgWiBNMjMzLjA2MjUsNDk4LjkzNzUgUTIzMy4wNjI1LDQ5OC45Mzc1IDIzMy4wNjI1LDQ4OS43NSBMMjMxLjMxMjUsNDg5Ljc1IFEyMzEuMzEyNSw0ODkuNzUgMjMxLjMxMjUsNDk4LjkzNzUgTDIzMy4wNjI1LDQ5OC45Mzc1IFogTTIzNi42MjUsNDk4LjkzNzUgTDIzOC4zNzUsNDk4LjkzNzUgUTIzOC4zNzUsNDk4LjkzNzUgMjM4LjM3NSw0OTYuMTI1IEwyMzYuNjI1LDQ5Ni4xMjUgUTIzNi42MjUsNDk2LjEyNSAyMzYuNjI1LDQ5OC45Mzc1IFogTTIzNi42MjUsNDg5Ljc1IFEyMzYuNjI1LDQ4OS43NSAyMzYuNjI1LDQ5Mi41NjI1IEwyMzguMzc1LDQ5Mi41NjI1IFEyMzguMzc1LDQ5Mi41NjI1IDIzOC4zNzUsNDg5Ljc1IEwyMzYuNjI1LDQ4OS43NSBaIE0yMzIuMzc1LDQ5MC40Mzc1IEwyMzcuMzEyNSw0OTAuNDM3NSBMMjM3LjMxMjUsNDg4LjY4NzUgTDIzMi4zNzUsNDg4LjY4NzUgTDIzMi4zNzUsNDkwLjQzNzUgWiAiIGZpbGw9IiMwMDAwMDAiLz48dGV4dCBmaWxsPSIjMDAwMDAwIiBmb250LWZhbWlseT0ic2Fucy1zZXJpZiIgZm9udC1zaXplPSIxNCIgbGVuZ3RoQWRqdXN0PSJzcGFjaW5nIiB0ZXh0TGVuZ3RoPSI1MCIgeD0iMjU1LjI1IiB5PSI0OTkuNzQyMiI+UmV2aWV3czwvdGV4dD48bGluZSBzdHlsZT0ic3Ryb2tlOiMxODE4MTg7c3Ryb2tlLXdpZHRoOjAuNTsiIHgxPSIxODEuNSIgeDI9IjM0Ni41IiB5MT0iNTEwIiB5Mj0iNTEwIi8+PGVsbGlwc2UgY3g9IjE5MS41IiBjeT0iNTIyLjk5MjIiIGZpbGw9Im5vbmUiIHJ4PSIzIiByeT0iMyIgc3R5bGU9InN0cm9rZTojMDM4MDQ4O3N0cm9rZS13aWR0aDoxLjA7Ii8+PHRleHQgZmlsbD0iIzAwMDAwMCIgZm9udC1mYW1pbHk9InNhbnMtc2VyaWYiIGZvbnQtc2l6ZT0iMTQiIGxlbmd0aEFkanVzdD0ic3BhY2luZyIgdGV4dExlbmd0aD0iNTYiIHg9IjIwMC41IiB5PSI1MjcuMjM0NCI+aWQ6IFVVSUQ8L3RleHQ+PGVsbGlwc2UgY3g9IjE5MS41IiBjeT0iNTM3Ljk3NjYiIGZpbGw9Im5vbmUiIHJ4PSIzIiByeT0iMyIgc3R5bGU9InN0cm9rZTojMDM4MDQ4O3N0cm9rZS13aWR0aDoxLjA7Ii8+PHRleHQgZmlsbD0iIzAwMDAwMCIgZm9udC1mYW1pbHk9InNhbnMtc2VyaWYiIGZvbnQtc2l6ZT0iMTQiIGxlbmd0aEFkanVzdD0ic3BhY2luZyIgdGV4dExlbmd0aD0iMTEyIiB4PSIyMDAuNSIgeT0iNTQyLjIxODgiPmxpc3RpbmdfaWQ6IFVVSUQ8L3RleHQ+PGVsbGlwc2UgY3g9IjE5MS41IiBjeT0iNTUyLjk2MDkiIGZpbGw9Im5vbmUiIHJ4PSIzIiByeT0iMyIgc3R5bGU9InN0cm9rZTojMDM4MDQ4O3N0cm9rZS13aWR0aDoxLjA7Ii8+PHRleHQgZmlsbD0iIzAwMDAwMCIgZm9udC1mYW1pbHk9InNhbnMtc2VyaWYiIGZvbnQtc2l6ZT0iMTQiIGxlbmd0aEFkanVzdD0ic3BhY2luZyIgdGV4dExlbmd0aD0iOTEiIHg9IjIwMC41IiB5PSI1NTcuMjAzMSI+dXNlcl9pZDogVVVJRDwvdGV4dD48ZWxsaXBzZSBjeD0iMTkxLjUiIGN5PSI1NjcuOTQ1MyIgZmlsbD0ibm9uZSIgcng9IjMiIHJ5PSIzIiBzdHlsZT0ic3Ryb2tlOiMwMzgwNDg7c3Ryb2tlLXdpZHRoOjEuMDsiLz48dGV4dCBmaWxsPSIjMDAwMDAwIiBmb250LWZhbWlseT0ic2Fucy1zZXJpZiIgZm9udC1zaXplPSIxNCIgbGVuZ3RoQWRqdXN0PSJzcGFjaW5nIiB0ZXh0TGVuZ3RoPSI3NyIgeD0iMjAwLjUiIHk9IjU3Mi4xODc1Ij5yYXRpbmc6IEludDwvdGV4dD48ZWxsaXBzZSBjeD0iMTkxLjUiIGN5PSI1ODIuOTI5NyIgZmlsbD0ibm9uZSIgcng9IjMiIHJ5PSIzIiBzdHlsZT0ic3Ryb2tlOiMwMzgwNDg7c3Ryb2tlLXdpZHRoOjEuMDsiLz48dGV4dCBmaWxsPSIjMDAwMDAwIiBmb250LWZhbWlseT0ic2Fucy1zZXJpZiIgZm9udC1zaXplPSIxNCIgbGVuZ3RoQWRqdXN0PSJzcGFjaW5nIiB0ZXh0TGVuZ3RoPSI5MyIgeD0iMjAwLjUiIHk9IjU4Ny4xNzE5Ij5jb21tZW50OiBUZXh0PC90ZXh0PjxlbGxpcHNlIGN4PSIxOTEuNSIgY3k9IjU5Ny45MTQxIiBmaWxsPSJub25lIiByeD0iMyIgcnk9IjMiIHN0eWxlPSJzdHJva2U6IzAzODA0ODtzdHJva2Utd2lkdGg6MS4wOyIvPjx0ZXh0IGZpbGw9IiMwMDAwMDAiIGZvbnQtZmFtaWx5PSJzYW5zLXNlcmlmIiBmb250LXNpemU9IjE0IiBsZW5ndGhBZGp1c3Q9InNwYWNpbmciIHRleHRMZW5ndGg9IjE0MSIgeD0iMjAwLjUiIHk9IjYwMi4xNTYzIj5jcmVhdGVkX2F0OiBEYXRlVGltZTwvdGV4dD48bGluZSBzdHlsZT0ic3Ryb2tlOiMxODE4MTg7c3Ryb2tlLXdpZHRoOjAuNTsiIHgxPSIxODEuNSIgeDI9IjM0Ni41IiB5MT0iNjA3LjkwNjMiIHkyPSI2MDcuOTA2MyIvPjwvZz48IS0tY2xhc3MgQWxlcnRzLS0+PGcgaWQ9ImVsZW1fQWxlcnRzIj48cmVjdCBjb2RlTGluZT0iNTIiIGZpbGw9IiNGMUYxRjEiIGhlaWdodD0iMTA3LjkzNzUiIGlkPSJBbGVydHMiIHJ4PSIyLjUiIHJ5PSIyLjUiIHN0eWxlPSJzdHJva2U6IzE4MTgxODtzdHJva2Utd2lkdGg6MC41OyIgd2lkdGg9IjE2NyIgeD0iNjY0LjUiIHk9IjI1Ny41Ii8+PGVsbGlwc2UgY3g9IjcyMi43NSIgY3k9IjI3My41IiBmaWxsPSIjQUREMUIyIiByeD0iMTEiIHJ5PSIxMSIgc3R5bGU9InN0cm9rZTojMTgxODE4O3N0cm9rZS13aWR0aDoxLjA7Ii8+PHBhdGggZD0iTTcyMC4zNzUsMjc3Ljc1IEw3MjAuMzc1LDI3OS41IEw3MjUuMzEyNSwyNzkuNSBMNzI1LjMxMjUsMjc3Ljc1IEw3MjAuMzc1LDI3Ny43NSBaIE03MjEuMDYyNSwyNzguNDM3NSBRNzIxLjA2MjUsMjc4LjQzNzUgNzIxLjA2MjUsMjY5LjI1IEw3MTkuMzEyNSwyNjkuMjUgUTcxOS4zMTI1LDI2OS4yNSA3MTkuMzEyNSwyNzguNDM3NSBMNzIxLjA2MjUsMjc4LjQzNzUgWiBNNzI0LjYyNSwyNzguNDM3NSBMNzI2LjM3NSwyNzguNDM3NSBRNzI2LjM3NSwyNzguNDM3NSA3MjYuMzc1LDI3NS42MjUgTDcyNC42MjUsMjc1LjYyNSBRNzI0LjYyNSwyNzUuNjI1IDcyNC42MjUsMjc4LjQzNzUgWiBNNzI0LjYyNSwyNjkuMjUgUTcyNC42MjUsMjY5LjI1IDcyNC42MjUsMjcyLjA2MjUgTDcyNi4zNzUsMjcyLjA2MjUgUTcyNi4zNzUsMjcyLjA2MjUgNzI2LjM3NSwyNjkuMjUgTDcyNC42MjUsMjY5LjI1IFogTTcyMC4zNzUsMjY5LjkzNzUgTDcyNS4zMTI1LDI2OS45Mzc1IEw3MjUuMzEyNSwyNjguMTg3NSBMNzIwLjM3NSwyNjguMTg3NSBMNzIwLjM3NSwyNjkuOTM3NSBaICIgZmlsbD0iIzAwMDAwMCIvPjx0ZXh0IGZpbGw9IiMwMDAwMDAiIGZvbnQtZmFtaWx5PSJzYW5zLXNlcmlmIiBmb250LXNpemU9IjE0IiBsZW5ndGhBZGp1c3Q9InNwYWNpbmciIHRleHRMZW5ndGg9IjQyIiB4PSI3NDMuMjUiIHk9IjI3OS4yNDIyIj5BbGVydHM8L3RleHQ+PGxpbmUgc3R5bGU9InN0cm9rZTojMTgxODE4O3N0cm9rZS13aWR0aDowLjU7IiB4MT0iNjY1LjUiIHgyPSI4MzAuNSIgeTE9IjI4OS41IiB5Mj0iMjg5LjUiLz48ZWxsaXBzZSBjeD0iNjc1LjUiIGN5PSIzMDIuNDkyMiIgZmlsbD0ibm9uZSIgcng9IjMiIHJ5PSIzIiBzdHlsZT0ic3Ryb2tlOiMwMzgwNDg7c3Ryb2tlLXdpZHRoOjEuMDsiLz48dGV4dCBmaWxsPSIjMDAwMDAwIiBmb250LWZhbWlseT0ic2Fucy1zZXJpZiIgZm9udC1zaXplPSIxNCIgbGVuZ3RoQWRqdXN0PSJzcGFjaW5nIiB0ZXh0TGVuZ3RoPSI1NiIgeD0iNjg0LjUiIHk9IjMwNi43MzQ0Ij5pZDogVVVJRDwvdGV4dD48ZWxsaXBzZSBjeD0iNjc1LjUiIGN5PSIzMTcuNDc2NiIgZmlsbD0ibm9uZSIgcng9IjMiIHJ5PSIzIiBzdHlsZT0ic3Ryb2tlOiMwMzgwNDg7c3Ryb2tlLXdpZHRoOjEuMDsiLz48dGV4dCBmaWxsPSIjMDAwMDAwIiBmb250LWZhbWlseT0ic2Fucy1zZXJpZiIgZm9udC1zaXplPSIxNCIgbGVuZ3RoQWRqdXN0PSJzcGFjaW5nIiB0ZXh0TGVuZ3RoPSI5MSIgeD0iNjg0LjUiIHk9IjMyMS43MTg4Ij51c2VyX2lkOiBVVUlEPC90ZXh0PjxlbGxpcHNlIGN4PSI2NzUuNSIgY3k9IjMzMi40NjA5IiBmaWxsPSJub25lIiByeD0iMyIgcnk9IjMiIHN0eWxlPSJzdHJva2U6IzAzODA0ODtzdHJva2Utd2lkdGg6MS4wOyIvPjx0ZXh0IGZpbGw9IiMwMDAwMDAiIGZvbnQtZmFtaWx5PSJzYW5zLXNlcmlmIiBmb250LXNpemU9IjE0IiBsZW5ndGhBZGp1c3Q9InNwYWNpbmciIHRleHRMZW5ndGg9Ijk5IiB4PSI2ODQuNSIgeT0iMzM2LjcwMzEiPmNyaXRlcmlhOiBKU09OPC90ZXh0PjxlbGxpcHNlIGN4PSI2NzUuNSIgY3k9IjM0Ny40NDUzIiBmaWxsPSJub25lIiByeD0iMyIgcnk9IjMiIHN0eWxlPSJzdHJva2U6IzAzODA0ODtzdHJva2Utd2lkdGg6MS4wOyIvPjx0ZXh0IGZpbGw9IiMwMDAwMDAiIGZvbnQtZmFtaWx5PSJzYW5zLXNlcmlmIiBmb250LXNpemU9IjE0IiBsZW5ndGhBZGp1c3Q9InNwYWNpbmciIHRleHRMZW5ndGg9IjE0MSIgeD0iNjg0LjUiIHk9IjM1MS42ODc1Ij5jcmVhdGVkX2F0OiBEYXRlVGltZTwvdGV4dD48bGluZSBzdHlsZT0ic3Ryb2tlOiMxODE4MTg7c3Ryb2tlLXdpZHRoOjAuNTsiIHgxPSI2NjUuNSIgeDI9IjgzMC41IiB5MT0iMzU3LjQzNzUiIHkyPSIzNTcuNDM3NSIvPjwvZz48IS0tbGluayBVc2VycyB0byBMaXN0aW5ncy0tPjxnIGlkPSJsaW5rX1VzZXJzX0xpc3RpbmdzIj48cGF0aCBjb2RlTGluZT0iNTkiIGQ9Ik0zNjQuNTgsMTQ0LjMgQzMzNC41OSwxNjcuODUgMzAxLjAzLDE5NC43MyAyNzEsMjIwIEMyNjUuMzMsMjI0Ljc4IDI2NC4wNTU3LDIyNS44MjIyIDI1OC4yMzU3LDIzMC44NjIyICIgZmlsbD0ibm9uZSIgaWQ9IlVzZXJzLXRvLUxpc3RpbmdzIiBzdHlsZT0ic3Ryb2tlOiMxODE4MTg7c3Ryb2tlLXdpZHRoOjEuMDsiLz48cG9seWdvbiBmaWxsPSIjMTgxODE4IiBwb2ludHM9IjI1My43LDIzNC43OSwyNjMuMTIyMSwyMzEuOTIyMSwyNTcuNDc5NywyMzEuNTE2OCwyNTcuODg1LDIyNS44NzQ1LDI1My43LDIzNC43OSIgc3R5bGU9InN0cm9rZTojMTgxODE4O3N0cm9rZS13aWR0aDoxLjA7Ii8+PHRleHQgZmlsbD0iIzAwMDAwMCIgZm9udC1mYW1pbHk9InNhbnMtc2VyaWYiIGZvbnQtc2l6ZT0iMTMiIGxlbmd0aEFkanVzdD0ic3BhY2luZyIgdGV4dExlbmd0aD0iNDkiIHg9IjMyNiIgeT0iMTg4LjI4OTEiPlBvc3MmIzIzMjtkZTwvdGV4dD48dGV4dCBmaWxsPSIjMDAwMDAwIiBmb250LWZhbWlseT0ic2Fucy1zZXJpZiIgZm9udC1zaXplPSIxMyIgbGVuZ3RoQWRqdXN0PSJzcGFjaW5nIiB0ZXh0TGVuZ3RoPSI3IiB4PSIzNTAuMDUwNyIgeT0iMTQ4Ljc0ODYiPjE8L3RleHQ+PHRleHQgZmlsbD0iIzAwMDAwMCIgZm9udC1mYW1pbHk9InNhbnMtc2VyaWYiIGZvbnQtc2l6ZT0iMTMiIGxlbmd0aEFkanVzdD0ic3BhY2luZyIgdGV4dExlbmd0aD0iMjUiIHg9IjI2MS4zNjU5IiB5PSIyMjcuNDkwMyI+MC4uKjwvdGV4dD48L2c+PCEtLWxpbmsgTGlzdGluZ3MgdG8gTWVkaWEtLT48ZyBpZD0ibGlua19MaXN0aW5nc19NZWRpYSI+PHBhdGggY29kZUxpbmU9IjYwIiBkPSJNMTMzLjUyLDQwMy4xMSBDMTIxLjI5LDQzMy40OSAxMTAuMzAxLDQ2MC43OTQyIDk5LjYxMSw0ODcuMzQ0MiAiIGZpbGw9Im5vbmUiIGlkPSJMaXN0aW5ncy10by1NZWRpYSIgc3R5bGU9InN0cm9rZTojMTgxODE4O3N0cm9rZS13aWR0aDoxLjA7Ii8+PHBvbHlnb24gZmlsbD0iIzE4MTgxOCIgcG9pbnRzPSI5Ny4zNyw0OTIuOTEsMTA0LjQ0Miw0ODYuMDU1Myw5OS4yMzc1LDQ4OC4yNzE4LDk3LjAyMSw0ODMuMDY3Myw5Ny4zNyw0OTIuOTEiIHN0eWxlPSJzdHJva2U6IzE4MTgxODtzdHJva2Utd2lkdGg6MS4wOyIvPjx0ZXh0IGZpbGw9IiMwMDAwMDAiIGZvbnQtZmFtaWx5PSJzYW5zLXNlcmlmIiBmb250LXNpemU9IjEzIiBsZW5ndGhBZGp1c3Q9InNwYWNpbmciIHRleHRMZW5ndGg9IjUzIiB4PSIxMjIiIHk9IjQ0Ni4yODkxIj5Db250aWVudDwvdGV4dD48dGV4dCBmaWxsPSIjMDAwMDAwIiBmb250LWZhbWlseT0ic2Fucy1zZXJpZiIgZm9udC1zaXplPSIxMyIgbGVuZ3RoQWRqdXN0PSJzcGFjaW5nIiB0ZXh0TGVuZ3RoPSI3IiB4PSIxMjMuMzM0MSIgeT0iNDIzLjI1OTIiPjE8L3RleHQ+PHRleHQgZmlsbD0iIzAwMDAwMCIgZm9udC1mYW1pbHk9InNhbnMtc2VyaWYiIGZvbnQtc2l6ZT0iMTMiIGxlbmd0aEFkanVzdD0ic3BhY2luZyIgdGV4dExlbmd0aD0iMjUiIHg9IjczLjY3MjgiIHk9IjQ4My4zNzE2Ij4wLi4qPC90ZXh0PjwvZz48IS0tbGluayBVc2VycyB0byBGYXZvcml0ZXMtLT48ZyBpZD0ibGlua19Vc2Vyc19GYXZvcml0ZXMiPjxwYXRoIGNvZGVMaW5lPSI2MSIgZD0iTTQyNC41NiwxNDUuMTcgQzQwOS4wNiwxODMuNjYgMzkyLjM1MDUsMjI1LjE3NCAzNzguNjQwNSwyNTkuMjM0ICIgZmlsbD0ibm9uZSIgaWQ9IlVzZXJzLXRvLUZhdm9yaXRlcyIgc3R5bGU9InN0cm9rZTojMTgxODE4O3N0cm9rZS13aWR0aDoxLjA7Ii8+PHBvbHlnb24gZmlsbD0iIzE4MTgxOCIgcG9pbnRzPSIzNzYuNCwyNjQuOCwzODMuNDcxMywyNTcuOTQ0NiwzNzguMjY3LDI2MC4xNjE3LDM3Ni4wNSwyNTQuOTU3NCwzNzYuNCwyNjQuOCIgc3R5bGU9InN0cm9rZTojMTgxODE4O3N0cm9rZS13aWR0aDoxLjA7Ii8+PHRleHQgZmlsbD0iIzAwMDAwMCIgZm9udC1mYW1pbHk9InNhbnMtc2VyaWYiIGZvbnQtc2l6ZT0iMTMiIGxlbmd0aEFkanVzdD0ic3BhY2luZyIgdGV4dExlbmd0aD0iNDEiIHg9IjQxMiIgeT0iMTg4LjI4OTEiPkFqb3V0ZTwvdGV4dD48dGV4dCBmaWxsPSIjMDAwMDAwIiBmb250LWZhbWlseT0ic2Fucy1zZXJpZiIgZm9udC1zaXplPSIxMyIgbGVuZ3RoQWRqdXN0PSJzcGFjaW5nIiB0ZXh0TGVuZ3RoPSI3IiB4PSI0MTQuMzY5MyIgeT0iMTY1LjMxNDUiPjE8L3RleHQ+PHRleHQgZmlsbD0iIzAwMDAwMCIgZm9udC1mYW1pbHk9InNhbnMtc2VyaWYiIGZvbnQtc2l6ZT0iMTMiIGxlbmd0aEFkanVzdD0ic3BhY2luZyIgdGV4dExlbmd0aD0iMjUiIHg9IjM1Mi4zNzcyIiB5PSIyNTUuMzU3NCI+MC4uKjwvdGV4dD48L2c+PCEtLWxpbmsgVXNlcnMgdG8gTWVzc2FnZXMtLT48ZyBpZD0ibGlua19Vc2Vyc19NZXNzYWdlcyI+PHBhdGggY29kZUxpbmU9IjYyIiBkPSJNNDc5LjQ0LDE0NS4xNyBDNDkyLjc3LDE3OC4yOCA1MDYuNDE5NCwyMTIuMTc0MSA1MTkuMzI5NCwyNDQuMjQ0MSAiIGZpbGw9Im5vbmUiIGlkPSJVc2Vycy10by1NZXNzYWdlcyIgc3R5bGU9InN0cm9rZTojMTgxODE4O3N0cm9rZS13aWR0aDoxLjA7Ii8+PHBvbHlnb24gZmlsbD0iIzE4MTgxOCIgcG9pbnRzPSI1MjEuNTcsMjQ5LjgxLDUyMS45MTk3LDIzOS45Njc0LDUxOS43MDI4LDI0NS4xNzE3LDUxNC40OTg1LDI0Mi45NTQ4LDUyMS41NywyNDkuODEiIHN0eWxlPSJzdHJva2U6IzE4MTgxODtzdHJva2Utd2lkdGg6MS4wOyIvPjx0ZXh0IGZpbGw9IiMwMDAwMDAiIGZvbnQtZmFtaWx5PSJzYW5zLXNlcmlmIiBmb250LXNpemU9IjEzIiBsZW5ndGhBZGp1c3Q9InNwYWNpbmciIHRleHRMZW5ndGg9IjQxIiB4PSI0OTgiIHk9IjE4OC4yODkxIj5FbnZvaWU8L3RleHQ+PHRleHQgZmlsbD0iIzAwMDAwMCIgZm9udC1mYW1pbHk9InNhbnMtc2VyaWYiIGZvbnQtc2l6ZT0iMTMiIGxlbmd0aEFkanVzdD0ic3BhY2luZyIgdGV4dExlbmd0aD0iNyIgeD0iNDc0LjkwODgiIHk9IjE2NS4zMTQ1Ij4xPC90ZXh0Pjx0ZXh0IGZpbGw9IiMwMDAwMDAiIGZvbnQtZmFtaWx5PSJzYW5zLXNlcmlmIiBmb250LXNpemU9IjEzIiBsZW5ndGhBZGp1c3Q9InNwYWNpbmciIHRleHRMZW5ndGg9IjI1IiB4PSI0OTEuODM4MyIgeT0iMjQwLjQyNTgiPjAuLio8L3RleHQ+PC9nPjwhLS1saW5rIExpc3RpbmdzIHRvIFJldmlld3MtLT48ZyBpZD0ibGlua19MaXN0aW5nc19SZXZpZXdzIj48cGF0aCBjb2RlTGluZT0iNjMiIGQ9Ik0yMDYuNDgsNDAzLjExIEMyMTYuNDksNDI3Ljk4IDIyNC45Mjg5LDQ0OC45NTQyIDIzNC4zMzg5LDQ3Mi4zMjQyICIgZmlsbD0ibm9uZSIgaWQ9Ikxpc3RpbmdzLXRvLVJldmlld3MiIHN0eWxlPSJzdHJva2U6IzE4MTgxODtzdHJva2Utd2lkdGg6MS4wOyIvPjxwb2x5Z29uIGZpbGw9IiMxODE4MTgiIHBvaW50cz0iMjM2LjU4LDQ3Ny44OSwyMzYuOTI4OSw0NjguMDQ3MywyMzQuNzEyNCw0NzMuMjUxOSwyMjkuNTA3OSw0NzEuMDM1NCwyMzYuNTgsNDc3Ljg5IiBzdHlsZT0ic3Ryb2tlOiMxODE4MTg7c3Ryb2tlLXdpZHRoOjEuMDsiLz48dGV4dCBmaWxsPSIjMDAwMDAwIiBmb250LWZhbWlseT0ic2Fucy1zZXJpZiIgZm9udC1zaXplPSIxMyIgbGVuZ3RoQWRqdXN0PSJzcGFjaW5nIiB0ZXh0TGVuZ3RoPSI0MCIgeD0iMjI0IiB5PSI0NDYuMjg5MSI+UmUmIzIzMTtvaXQ8L3RleHQ+PHRleHQgZmlsbD0iIzAwMDAwMCIgZm9udC1mYW1pbHk9InNhbnMtc2VyaWYiIGZvbnQtc2l6ZT0iMTMiIGxlbmd0aEFkanVzdD0ic3BhY2luZyIgdGV4dExlbmd0aD0iNyIgeD0iMjAyLjEwODEiIHk9IjQyMy4yNTkyIj4xPC90ZXh0Pjx0ZXh0IGZpbGw9IiMwMDAwMDAiIGZvbnQtZmFtaWx5PSJzYW5zLXNlcmlmIiBmb250LXNpemU9IjEzIiBsZW5ndGhBZGp1c3Q9InNwYWNpbmciIHRleHRMZW5ndGg9IjI1IiB4PSIyMDYuOTY0MyIgeT0iNDY4LjQ5NDkiPjAuLio8L3RleHQ+PC9nPjwhLS1saW5rIFVzZXJzIHRvIEFsZXJ0cy0tPjxnIGlkPSJsaW5rX1VzZXJzX0FsZXJ0cyI+PHBhdGggY29kZUxpbmU9IjY0IiBkPSJNNTM5LjI4LDEzOC4yMiBDNTczLjQ0LDE2Mi45IDYxMi42MSwxOTIuMDkgNjQ3LDIyMCBDNjYxLjQ0LDIzMS43MiA2NzIuMTExOSwyNDAuODI2NyA2ODYuMTUxOSwyNTMuMzQ2NyAiIGZpbGw9Im5vbmUiIGlkPSJVc2Vycy10by1BbGVydHMiIHN0eWxlPSJzdHJva2U6IzE4MTgxODtzdHJva2Utd2lkdGg6MS4wOyIvPjxwb2x5Z29uIGZpbGw9IiMxODE4MTgiIHBvaW50cz0iNjkwLjYzLDI1Ny4zNCw2ODYuNTc1LDI0OC4zNjQ2LDY4Ni44OTgyLDI1NC4wMTIyLDY4MS4yNTA2LDI1NC4zMzU1LDY5MC42MywyNTcuMzQiIHN0eWxlPSJzdHJva2U6IzE4MTgxODtzdHJva2Utd2lkdGg6MS4wOyIvPjx0ZXh0IGZpbGw9IiMwMDAwMDAiIGZvbnQtZmFtaWx5PSJzYW5zLXNlcmlmIiBmb250LXNpemU9IjEzIiBsZW5ndGhBZGp1c3Q9InNwYWNpbmciIHRleHRMZW5ndGg9IjI4IiB4PSI2MDciIHk9IjE4OC4yODkxIj5DciYjMjMzO2U8L3RleHQ+PHRleHQgZmlsbD0iIzAwMDAwMCIgZm9udC1mYW1pbHk9InNhbnMtc2VyaWYiIGZvbnQtc2l6ZT0iMTMiIGxlbmd0aEFkanVzdD0ic3BhY2luZyIgdGV4dExlbmd0aD0iNyIgeD0iNTQ3LjA4MTQiIHk9IjE0Mi4zNDA4Ij4xPC90ZXh0Pjx0ZXh0IGZpbGw9IiMwMDAwMDAiIGZvbnQtZmFtaWx5PSJzYW5zLXNlcmlmIiBmb250LXNpemU9IjEzIiBsZW5ndGhBZGp1c3Q9InNwYWNpbmciIHRleHRMZW5ndGg9IjI1IiB4PSI2NTUuMzY3OCIgeT0iMjQ3Ljc5MTMiPjAuLio8L3RleHQ+PC9nPjwhLS1TUkM9W2RMREJKaUNtNER0ZDVBQ2lHS01tekdBZmViR2d1WVZRaFlsQjdqZjFJSG9EZEhJNEUwem1aYnVDZnU3eWNnQjJSWm9VbER5dUFmQk1tam1ZTXRXRDA4djkydlpGOXdFWW5iWEk5NjNnYzk5YnFLWnp5RGdtTmdvYU5KS2xzNEpPRjJqNndMMGxmMUNteWpNQ09ZcHdNUWZ0LXN6MWVCT29oaWF3M3oyWm45NWg0c1lxWVliclAxODFDdG5zTXRiQ29hLUQ4b0V0UHZsbmVzbnI4Z0RhLUtxRGJOZHBZb1JQX3lKVmUyUXZncG1nRlJLOENjd2J3YnhJc2JrNUR2UXZPTkJPYXlRRXVYc0lYWWZodlI4Rm42QVlFcDJDMllkbGZjNElYdWNoSy13RGZvOXltOW5tUkd5Q2VjazRQSjRaTzlBS0wyUUVfeTB6WjkzVDhOY2Y4YldjQVUxZ1VkVng2dDN2UHVIZDhHbTZ2bjJVZGZtU1hWS3g1TjFsaERyeVEwb2dOY1VzVjFPMkJkb0N2QnRxOHpSQjVaMXlDZmQzX2hiZ2RHOGthenBHVmp3VkZHWFZSVHVEeEk3LVppcGh1eXFkVlc0MF0tLT48L2c+PC9zdmc+;" vertex="1" parent="1">
            <mxGeometry x="70" y="-110" width="838" height="622" as="geometry" />
          </mxCell>
        </UserObject>
      </root>
    </mxGraphModel>
  </diagram>
  <diagram id="lnls1PyphDuOCrmq1R36" name="diagramme de sequence recherche">
    <mxGraphModel dx="1877" dy="645" grid="1" gridSize="10" guides="1" tooltips="1" connect="1" arrows="1" fold="1" page="1" pageScale="1" pageWidth="827" pageHeight="1169" math="0" shadow="0">
      <root>
        <mxCell id="0" />
        <mxCell id="1" parent="0" />
        <UserObject label="" plantUmlData="{&#xa;  &quot;data&quot;: &quot;@startuml\nactor Utilisateur\nparticipant \&quot;Frontend\&quot; as FE\nparticipant \&quot;API Gateway\&quot; as API\nparticipant \&quot;Module Recherche\&quot; as Recherche\nparticipant \&quot;Base de Données\&quot; as DB\n\nUtilisateur -&gt; FE : Soumet une recherche avec filtres\nFE -&gt; API : Envoie la requête de recherche\nAPI -&gt; Recherche : Traite la requête\nRecherche -&gt; DB : Récupère les annonces correspondantes\nDB --&gt; Recherche : Retourne les résultats\nRecherche --&gt; API : Retourne les résultats\nAPI --&gt; FE : Affiche les résultats\nFE --&gt; Utilisateur : Affiche les annonces\n@enduml&quot;,&#xa;  &quot;format&quot;: &quot;svg&quot;&#xa;}" id="1f94mbC82fRDQ_COboDT-1">
          <mxCell style="shape=image;noLabel=1;verticalAlign=top;aspect=fixed;imageAspect=0;image=data:image/svg+xml,PD94bWwgdmVyc2lvbj0iMS4wIiBlbmNvZGluZz0idXMtYXNjaWkiIHN0YW5kYWxvbmU9Im5vIj8+PHN2ZyB4bWxucz0iaHR0cDovL3d3dy53My5vcmcvMjAwMC9zdmciIHhtbG5zOnhsaW5rPSJodHRwOi8vd3d3LnczLm9yZy8xOTk5L3hsaW5rIiBjb250ZW50U3R5bGVUeXBlPSJ0ZXh0L2NzcyIgaGVpZ2h0PSI0MDJweCIgcHJlc2VydmVBc3BlY3RSYXRpbz0ibm9uZSIgc3R5bGU9IndpZHRoOjEwNDZweDtoZWlnaHQ6NDAycHg7YmFja2dyb3VuZDojRkZGRkZGOyIgdmVyc2lvbj0iMS4xIiB2aWV3Qm94PSIwIDAgMTA0NiA0MDIiIHdpZHRoPSIxMDQ2cHgiIHpvb21BbmRQYW49Im1hZ25pZnkiPjxkZWZzLz48Zz48bGluZSBzdHlsZT0ic3Ryb2tlOiMxODE4MTg7c3Ryb2tlLXdpZHRoOjAuNTtzdHJva2UtZGFzaGFycmF5OjUuMCw1LjA7IiB4MT0iNDYiIHgyPSI0NiIgeTE9Ijc5Ljk4NDQiIHkyPSIzMjMuMjk2OSIvPjxsaW5lIHN0eWxlPSJzdHJva2U6IzE4MTgxODtzdHJva2Utd2lkdGg6MC41O3N0cm9rZS1kYXNoYXJyYXk6NS4wLDUuMDsiIHgxPSIyOTUuNSIgeDI9IjI5NS41IiB5MT0iNzkuOTg0NCIgeTI9IjMyMy4yOTY5Ii8+PGxpbmUgc3R5bGU9InN0cm9rZTojMTgxODE4O3N0cm9rZS13aWR0aDowLjU7c3Ryb2tlLWRhc2hhcnJheTo1LjAsNS4wOyIgeDE9IjUyNi41IiB4Mj0iNTI2LjUiIHkxPSI3OS45ODQ0IiB5Mj0iMzIzLjI5NjkiLz48bGluZSBzdHlsZT0ic3Ryb2tlOiMxODE4MTg7c3Ryb2tlLXdpZHRoOjAuNTtzdHJva2UtZGFzaGFycmF5OjUuMCw1LjA7IiB4MT0iNjk5LjUiIHgyPSI2OTkuNSIgeTE9Ijc5Ljk4NDQiIHkyPSIzMjMuMjk2OSIvPjxsaW5lIHN0eWxlPSJzdHJva2U6IzE4MTgxODtzdHJva2Utd2lkdGg6MC41O3N0cm9rZS1kYXNoYXJyYXk6NS4wLDUuMDsiIHgxPSI5ODAiIHgyPSI5ODAiIHkxPSI3OS45ODQ0IiB5Mj0iMzIzLjI5NjkiLz48dGV4dCBmaWxsPSIjMDAwMDAwIiBmb250LWZhbWlseT0ic2Fucy1zZXJpZiIgZm9udC1zaXplPSIxNCIgbGVuZ3RoQWRqdXN0PSJzcGFjaW5nIiB0ZXh0TGVuZ3RoPSI3NyIgeD0iNSIgeT0iNzguMjM0NCI+VXRpbGlzYXRldXI8L3RleHQ+PGVsbGlwc2UgY3g9IjQ2LjUiIGN5PSIxMy41IiBmaWxsPSIjRTJFMkYwIiByeD0iOCIgcnk9IjgiIHN0eWxlPSJzdHJva2U6IzE4MTgxODtzdHJva2Utd2lkdGg6MC41OyIvPjxwYXRoIGQ9Ik00Ni41LDIxLjUgTDQ2LjUsNDguNSBNMzMuNSwyOS41IEw1OS41LDI5LjUgTTQ2LjUsNDguNSBMMzMuNSw2My41IE00Ni41LDQ4LjUgTDU5LjUsNjMuNSAiIGZpbGw9Im5vbmUiIHN0eWxlPSJzdHJva2U6IzE4MTgxODtzdHJva2Utd2lkdGg6MC41OyIvPjx0ZXh0IGZpbGw9IiMwMDAwMDAiIGZvbnQtZmFtaWx5PSJzYW5zLXNlcmlmIiBmb250LXNpemU9IjE0IiBsZW5ndGhBZGp1c3Q9InNwYWNpbmciIHRleHRMZW5ndGg9Ijc3IiB4PSI1IiB5PSIzMzUuNTMxMyI+VXRpbGlzYXRldXI8L3RleHQ+PGVsbGlwc2UgY3g9IjQ2LjUiIGN5PSIzNDUuNzgxMyIgZmlsbD0iI0UyRTJGMCIgcng9IjgiIHJ5PSI4IiBzdHlsZT0ic3Ryb2tlOiMxODE4MTg7c3Ryb2tlLXdpZHRoOjAuNTsiLz48cGF0aCBkPSJNNDYuNSwzNTMuNzgxMyBMNDYuNSwzODAuNzgxMyBNMzMuNSwzNjEuNzgxMyBMNTkuNSwzNjEuNzgxMyBNNDYuNSwzODAuNzgxMyBMMzMuNSwzOTUuNzgxMyBNNDYuNSwzODAuNzgxMyBMNTkuNSwzOTUuNzgxMyAiIGZpbGw9Im5vbmUiIHN0eWxlPSJzdHJva2U6IzE4MTgxODtzdHJva2Utd2lkdGg6MC41OyIvPjxyZWN0IGZpbGw9IiNFMkUyRjAiIGhlaWdodD0iMjguOTg0NCIgcng9IjIuNSIgcnk9IjIuNSIgc3R5bGU9InN0cm9rZTojMTgxODE4O3N0cm9rZS13aWR0aDowLjU7IiB3aWR0aD0iNzAiIHg9IjI2MC41IiB5PSI1MCIvPjx0ZXh0IGZpbGw9IiMwMDAwMDAiIGZvbnQtZmFtaWx5PSJzYW5zLXNlcmlmIiBmb250LXNpemU9IjE0IiBsZW5ndGhBZGp1c3Q9InNwYWNpbmciIHRleHRMZW5ndGg9IjU2IiB4PSIyNjcuNSIgeT0iNzAuMjM0NCI+RnJvbnRlbmQ8L3RleHQ+PHJlY3QgZmlsbD0iI0UyRTJGMCIgaGVpZ2h0PSIyOC45ODQ0IiByeD0iMi41IiByeT0iMi41IiBzdHlsZT0ic3Ryb2tlOiMxODE4MTg7c3Ryb2tlLXdpZHRoOjAuNTsiIHdpZHRoPSI3MCIgeD0iMjYwLjUiIHk9IjMyMi4yOTY5Ii8+PHRleHQgZmlsbD0iIzAwMDAwMCIgZm9udC1mYW1pbHk9InNhbnMtc2VyaWYiIGZvbnQtc2l6ZT0iMTQiIGxlbmd0aEFkanVzdD0ic3BhY2luZyIgdGV4dExlbmd0aD0iNTYiIHg9IjI2Ny41IiB5PSIzNDIuNTMxMyI+RnJvbnRlbmQ8L3RleHQ+PHJlY3QgZmlsbD0iI0UyRTJGMCIgaGVpZ2h0PSIyOC45ODQ0IiByeD0iMi41IiByeT0iMi41IiBzdHlsZT0ic3Ryb2tlOiMxODE4MTg7c3Ryb2tlLXdpZHRoOjAuNTsiIHdpZHRoPSI5MiIgeD0iNDgwLjUiIHk9IjUwIi8+PHRleHQgZmlsbD0iIzAwMDAwMCIgZm9udC1mYW1pbHk9InNhbnMtc2VyaWYiIGZvbnQtc2l6ZT0iMTQiIGxlbmd0aEFkanVzdD0ic3BhY2luZyIgdGV4dExlbmd0aD0iNzgiIHg9IjQ4Ny41IiB5PSI3MC4yMzQ0Ij5BUEkgR2F0ZXdheTwvdGV4dD48cmVjdCBmaWxsPSIjRTJFMkYwIiBoZWlnaHQ9IjI4Ljk4NDQiIHJ4PSIyLjUiIHJ5PSIyLjUiIHN0eWxlPSJzdHJva2U6IzE4MTgxODtzdHJva2Utd2lkdGg6MC41OyIgd2lkdGg9IjkyIiB4PSI0ODAuNSIgeT0iMzIyLjI5NjkiLz48dGV4dCBmaWxsPSIjMDAwMDAwIiBmb250LWZhbWlseT0ic2Fucy1zZXJpZiIgZm9udC1zaXplPSIxNCIgbGVuZ3RoQWRqdXN0PSJzcGFjaW5nIiB0ZXh0TGVuZ3RoPSI3OCIgeD0iNDg3LjUiIHk9IjM0Mi41MzEzIj5BUEkgR2F0ZXdheTwvdGV4dD48cmVjdCBmaWxsPSIjRTJFMkYwIiBoZWlnaHQ9IjI4Ljk4NDQiIHJ4PSIyLjUiIHJ5PSIyLjUiIHN0eWxlPSJzdHJva2U6IzE4MTgxODtzdHJva2Utd2lkdGg6MC41OyIgd2lkdGg9IjEyNiIgeD0iNjM2LjUiIHk9IjUwIi8+PHRleHQgZmlsbD0iIzAwMDAwMCIgZm9udC1mYW1pbHk9InNhbnMtc2VyaWYiIGZvbnQtc2l6ZT0iMTQiIGxlbmd0aEFkanVzdD0ic3BhY2luZyIgdGV4dExlbmd0aD0iMTEyIiB4PSI2NDMuNSIgeT0iNzAuMjM0NCI+TW9kdWxlIFJlY2hlcmNoZTwvdGV4dD48cmVjdCBmaWxsPSIjRTJFMkYwIiBoZWlnaHQ9IjI4Ljk4NDQiIHJ4PSIyLjUiIHJ5PSIyLjUiIHN0eWxlPSJzdHJva2U6IzE4MTgxODtzdHJva2Utd2lkdGg6MC41OyIgd2lkdGg9IjEyNiIgeD0iNjM2LjUiIHk9IjMyMi4yOTY5Ii8+PHRleHQgZmlsbD0iIzAwMDAwMCIgZm9udC1mYW1pbHk9InNhbnMtc2VyaWYiIGZvbnQtc2l6ZT0iMTQiIGxlbmd0aEFkanVzdD0ic3BhY2luZyIgdGV4dExlbmd0aD0iMTEyIiB4PSI2NDMuNSIgeT0iMzQyLjUzMTMiPk1vZHVsZSBSZWNoZXJjaGU8L3RleHQ+PHJlY3QgZmlsbD0iI0UyRTJGMCIgaGVpZ2h0PSIyOC45ODQ0IiByeD0iMi41IiByeT0iMi41IiBzdHlsZT0ic3Ryb2tlOiMxODE4MTg7c3Ryb2tlLXdpZHRoOjAuNTsiIHdpZHRoPSIxMTkiIHg9IjkyMSIgeT0iNTAiLz48dGV4dCBmaWxsPSIjMDAwMDAwIiBmb250LWZhbWlseT0ic2Fucy1zZXJpZiIgZm9udC1zaXplPSIxNCIgbGVuZ3RoQWRqdXN0PSJzcGFjaW5nIiB0ZXh0TGVuZ3RoPSIxMDUiIHg9IjkyOCIgeT0iNzAuMjM0NCI+QmFzZSBkZSBEb25uJiMyMzM7ZXM8L3RleHQ+PHJlY3QgZmlsbD0iI0UyRTJGMCIgaGVpZ2h0PSIyOC45ODQ0IiByeD0iMi41IiByeT0iMi41IiBzdHlsZT0ic3Ryb2tlOiMxODE4MTg7c3Ryb2tlLXdpZHRoOjAuNTsiIHdpZHRoPSIxMTkiIHg9IjkyMSIgeT0iMzIyLjI5NjkiLz48dGV4dCBmaWxsPSIjMDAwMDAwIiBmb250LWZhbWlseT0ic2Fucy1zZXJpZiIgZm9udC1zaXplPSIxNCIgbGVuZ3RoQWRqdXN0PSJzcGFjaW5nIiB0ZXh0TGVuZ3RoPSIxMDUiIHg9IjkyOCIgeT0iMzQyLjUzMTMiPkJhc2UgZGUgRG9ubiYjMjMzO2VzPC90ZXh0Pjxwb2x5Z29uIGZpbGw9IiMxODE4MTgiIHBvaW50cz0iMjgzLjUsMTA1Ljg5ODQsMjkzLjUsMTA5Ljg5ODQsMjgzLjUsMTEzLjg5ODQsMjg3LjUsMTA5Ljg5ODQiIHN0eWxlPSJzdHJva2U6IzE4MTgxODtzdHJva2Utd2lkdGg6MS4wOyIvPjxsaW5lIHN0eWxlPSJzdHJva2U6IzE4MTgxODtzdHJva2Utd2lkdGg6MS4wOyIgeDE9IjQ2LjUiIHgyPSIyODkuNSIgeTE9IjEwOS44OTg0IiB5Mj0iMTA5Ljg5ODQiLz48dGV4dCBmaWxsPSIjMDAwMDAwIiBmb250LWZhbWlseT0ic2Fucy1zZXJpZiIgZm9udC1zaXplPSIxMyIgbGVuZ3RoQWRqdXN0PSJzcGFjaW5nIiB0ZXh0TGVuZ3RoPSIyMjUiIHg9IjUzLjUiIHk9IjEwNi4yNzM0Ij5Tb3VtZXQgdW5lIHJlY2hlcmNoZSBhdmVjIGZpbHRyZXM8L3RleHQ+PHBvbHlnb24gZmlsbD0iIzE4MTgxOCIgcG9pbnRzPSI1MTQuNSwxMzMuODEyNSw1MjQuNSwxMzcuODEyNSw1MTQuNSwxNDEuODEyNSw1MTguNSwxMzcuODEyNSIgc3R5bGU9InN0cm9rZTojMTgxODE4O3N0cm9rZS13aWR0aDoxLjA7Ii8+PGxpbmUgc3R5bGU9InN0cm9rZTojMTgxODE4O3N0cm9rZS13aWR0aDoxLjA7IiB4MT0iMjk1LjUiIHgyPSI1MjAuNSIgeTE9IjEzNy44MTI1IiB5Mj0iMTM3LjgxMjUiLz48dGV4dCBmaWxsPSIjMDAwMDAwIiBmb250LWZhbWlseT0ic2Fucy1zZXJpZiIgZm9udC1zaXplPSIxMyIgbGVuZ3RoQWRqdXN0PSJzcGFjaW5nIiB0ZXh0TGVuZ3RoPSIyMDciIHg9IjMwMi41IiB5PSIxMzQuMTg3NSI+RW52b2llIGxhIHJlcXUmIzIzNDt0ZSBkZSByZWNoZXJjaGU8L3RleHQ+PHBvbHlnb24gZmlsbD0iIzE4MTgxOCIgcG9pbnRzPSI2ODcuNSwxNjEuNzI2Niw2OTcuNSwxNjUuNzI2Niw2ODcuNSwxNjkuNzI2Niw2OTEuNSwxNjUuNzI2NiIgc3R5bGU9InN0cm9rZTojMTgxODE4O3N0cm9rZS13aWR0aDoxLjA7Ii8+PGxpbmUgc3R5bGU9InN0cm9rZTojMTgxODE4O3N0cm9rZS13aWR0aDoxLjA7IiB4MT0iNTI2LjUiIHgyPSI2OTMuNSIgeTE9IjE2NS43MjY2IiB5Mj0iMTY1LjcyNjYiLz48dGV4dCBmaWxsPSIjMDAwMDAwIiBmb250LWZhbWlseT0ic2Fucy1zZXJpZiIgZm9udC1zaXplPSIxMyIgbGVuZ3RoQWRqdXN0PSJzcGFjaW5nIiB0ZXh0TGVuZ3RoPSIxMTQiIHg9IjUzMy41IiB5PSIxNjIuMTAxNiI+VHJhaXRlIGxhIHJlcXUmIzIzNDt0ZTwvdGV4dD48cG9seWdvbiBmaWxsPSIjMTgxODE4IiBwb2ludHM9Ijk2OC41LDE4OS42NDA2LDk3OC41LDE5My42NDA2LDk2OC41LDE5Ny42NDA2LDk3Mi41LDE5My42NDA2IiBzdHlsZT0ic3Ryb2tlOiMxODE4MTg7c3Ryb2tlLXdpZHRoOjEuMDsiLz48bGluZSBzdHlsZT0ic3Ryb2tlOiMxODE4MTg7c3Ryb2tlLXdpZHRoOjEuMDsiIHgxPSI2OTkuNSIgeDI9Ijk3NC41IiB5MT0iMTkzLjY0MDYiIHkyPSIxOTMuNjQwNiIvPjx0ZXh0IGZpbGw9IiMwMDAwMDAiIGZvbnQtZmFtaWx5PSJzYW5zLXNlcmlmIiBmb250LXNpemU9IjEzIiBsZW5ndGhBZGp1c3Q9InNwYWNpbmciIHRleHRMZW5ndGg9IjI1NyIgeD0iNzA2LjUiIHk9IjE5MC4wMTU2Ij5SJiMyMzM7Y3VwJiMyMzI7cmUgbGVzIGFubm9uY2VzIGNvcnJlc3BvbmRhbnRlczwvdGV4dD48cG9seWdvbiBmaWxsPSIjMTgxODE4IiBwb2ludHM9IjcxMC41LDIxNy41NTQ3LDcwMC41LDIyMS41NTQ3LDcxMC41LDIyNS41NTQ3LDcwNi41LDIyMS41NTQ3IiBzdHlsZT0ic3Ryb2tlOiMxODE4MTg7c3Ryb2tlLXdpZHRoOjEuMDsiLz48bGluZSBzdHlsZT0ic3Ryb2tlOiMxODE4MTg7c3Ryb2tlLXdpZHRoOjEuMDtzdHJva2UtZGFzaGFycmF5OjIuMCwyLjA7IiB4MT0iNzA0LjUiIHgyPSI5NzkuNSIgeTE9IjIyMS41NTQ3IiB5Mj0iMjIxLjU1NDciLz48dGV4dCBmaWxsPSIjMDAwMDAwIiBmb250LWZhbWlseT0ic2Fucy1zZXJpZiIgZm9udC1zaXplPSIxMyIgbGVuZ3RoQWRqdXN0PSJzcGFjaW5nIiB0ZXh0TGVuZ3RoPSIxNDkiIHg9IjcxNi41IiB5PSIyMTcuOTI5NyI+UmV0b3VybmUgbGVzIHImIzIzMztzdWx0YXRzPC90ZXh0Pjxwb2x5Z29uIGZpbGw9IiMxODE4MTgiIHBvaW50cz0iNTM3LjUsMjQ1LjQ2ODgsNTI3LjUsMjQ5LjQ2ODgsNTM3LjUsMjUzLjQ2ODgsNTMzLjUsMjQ5LjQ2ODgiIHN0eWxlPSJzdHJva2U6IzE4MTgxODtzdHJva2Utd2lkdGg6MS4wOyIvPjxsaW5lIHN0eWxlPSJzdHJva2U6IzE4MTgxODtzdHJva2Utd2lkdGg6MS4wO3N0cm9rZS1kYXNoYXJyYXk6Mi4wLDIuMDsiIHgxPSI1MzEuNSIgeDI9IjY5OC41IiB5MT0iMjQ5LjQ2ODgiIHkyPSIyNDkuNDY4OCIvPjx0ZXh0IGZpbGw9IiMwMDAwMDAiIGZvbnQtZmFtaWx5PSJzYW5zLXNlcmlmIiBmb250LXNpemU9IjEzIiBsZW5ndGhBZGp1c3Q9InNwYWNpbmciIHRleHRMZW5ndGg9IjE0OSIgeD0iNTQzLjUiIHk9IjI0NS44NDM4Ij5SZXRvdXJuZSBsZXMgciYjMjMzO3N1bHRhdHM8L3RleHQ+PHBvbHlnb24gZmlsbD0iIzE4MTgxOCIgcG9pbnRzPSIzMDYuNSwyNzMuMzgyOCwyOTYuNSwyNzcuMzgyOCwzMDYuNSwyODEuMzgyOCwzMDIuNSwyNzcuMzgyOCIgc3R5bGU9InN0cm9rZTojMTgxODE4O3N0cm9rZS13aWR0aDoxLjA7Ii8+PGxpbmUgc3R5bGU9InN0cm9rZTojMTgxODE4O3N0cm9rZS13aWR0aDoxLjA7c3Ryb2tlLWRhc2hhcnJheToyLjAsMi4wOyIgeDE9IjMwMC41IiB4Mj0iNTI1LjUiIHkxPSIyNzcuMzgyOCIgeTI9IjI3Ny4zODI4Ii8+PHRleHQgZmlsbD0iIzAwMDAwMCIgZm9udC1mYW1pbHk9InNhbnMtc2VyaWYiIGZvbnQtc2l6ZT0iMTMiIGxlbmd0aEFkanVzdD0ic3BhY2luZyIgdGV4dExlbmd0aD0iMTQwIiB4PSIzMTIuNSIgeT0iMjczLjc1NzgiPkFmZmljaGUgbGVzIHImIzIzMztzdWx0YXRzPC90ZXh0Pjxwb2x5Z29uIGZpbGw9IiMxODE4MTgiIHBvaW50cz0iNTcuNSwzMDEuMjk2OSw0Ny41LDMwNS4yOTY5LDU3LjUsMzA5LjI5NjksNTMuNSwzMDUuMjk2OSIgc3R5bGU9InN0cm9rZTojMTgxODE4O3N0cm9rZS13aWR0aDoxLjA7Ii8+PGxpbmUgc3R5bGU9InN0cm9rZTojMTgxODE4O3N0cm9rZS13aWR0aDoxLjA7c3Ryb2tlLWRhc2hhcnJheToyLjAsMi4wOyIgeDE9IjUxLjUiIHgyPSIyOTQuNSIgeTE9IjMwNS4yOTY5IiB5Mj0iMzA1LjI5NjkiLz48dGV4dCBmaWxsPSIjMDAwMDAwIiBmb250LWZhbWlseT0ic2Fucy1zZXJpZiIgZm9udC1zaXplPSIxMyIgbGVuZ3RoQWRqdXN0PSJzcGFjaW5nIiB0ZXh0TGVuZ3RoPSIxMzYiIHg9IjYzLjUiIHk9IjMwMS42NzE5Ij5BZmZpY2hlIGxlcyBhbm5vbmNlczwvdGV4dD48IS0tU1JDPVtUUDFIUWlDbTM4UlZWR2hIenJ3VzN1RTZqNkNGV3Y1ajFuMkVtV29QZENmb25zd3F4MWd2czlJQ1A0YlgzbU9SVlJfcU1VV3IyaG5nUTREMmZJb2tHejdXR3VVaWkzakJQMk1rVHUwOXBnVGp5VlpxMEZTTS1pM0ZnTXhsQlYwT3d6bUlMRUpWSUVuQ3JGQlFpV0tjV2ZnV1pDbjNKc2JZb3lBdmJIbGl4cW0yM2wwU3lwaWZQMlFHa0h0V2JKbXFlTE1YdjBtcFUzR3ltOGNsQ0gycVFGMGIzenl3M0xnMlJnR0NOaUdpeVk4T1QxRG5Wc0xab3lBV1FrWHp4ZU9sQ1AwSTg3RGFSblNWbkhJd29CTnpwNW1DdGpfcWhxWFo1bHVEb2oyZHQyZmdNV3pQekZ6WjktcnY4eVVjMk1GaVhYZE5PQ1h3WHJqc2JsdTFdLS0+PC9nPjwvc3ZnPg==;" vertex="1" parent="1">
            <mxGeometry x="-110" y="130" width="1046" height="402" as="geometry" />
          </mxCell>
        </UserObject>
      </root>
    </mxGraphModel>
  </diagram>
  <diagram id="vZQQ4e56m4DoSopfDF3b" name="diagramme de composant">
    <mxGraphModel dx="1877" dy="645" grid="1" gridSize="10" guides="1" tooltips="1" connect="1" arrows="1" fold="1" page="1" pageScale="1" pageWidth="827" pageHeight="1169" math="0" shadow="0">
      <root>
        <mxCell id="0" />
        <mxCell id="1" parent="0" />
        <UserObject label="" plantUmlData="{&#xa;  &quot;data&quot;: &quot;@startuml\npackage \&quot;Backend\&quot; {\n  [Module Utilisateurs] as Users\n  [Module Annonces] as Listings\n  [Module Recherche] as Search\n  [Module Favoris et Alertes] as Favorites\n  [Module Messagerie] as Messaging\n  [Module Notation et Avis] as Reviews\n  [Module Administration] as Admin\n}\n\npackage \&quot;Base de Données\&quot; {\n  [PostgreSQL] as DB\n}\n\npackage \&quot;Services Externes\&quot; {\n  [Google Maps API] as Maps\n  [Stripe/PayPal] as Payments\n  [Twilio/SendGrid] as Notifications\n}\n\nUsers --&gt; DB\nListings --&gt; DB\nSearch --&gt; DB\nFavorites --&gt; DB\nMessaging --&gt; DB\nReviews --&gt; DB\nAdmin --&gt; DB\n\nSearch --&gt; Maps\nPayments --&gt; Listings\nNotifications --&gt; Messaging\n@enduml&quot;,&#xa;  &quot;format&quot;: &quot;svg&quot;&#xa;}" id="iknkKmoOdna6dGpbh0xJ-1">
          <mxCell style="shape=image;noLabel=1;verticalAlign=top;aspect=fixed;imageAspect=0;image=data:image/svg+xml,PD94bWwgdmVyc2lvbj0iMS4wIiBlbmNvZGluZz0idXMtYXNjaWkiIHN0YW5kYWxvbmU9Im5vIj8+PHN2ZyB4bWxucz0iaHR0cDovL3d3dy53My5vcmcvMjAwMC9zdmciIHhtbG5zOnhsaW5rPSJodHRwOi8vd3d3LnczLm9yZy8xOTk5L3hsaW5rIiBjb250ZW50U3R5bGVUeXBlPSJ0ZXh0L2NzcyIgaGVpZ2h0PSIzNDNweCIgcHJlc2VydmVBc3BlY3RSYXRpbz0ibm9uZSIgc3R5bGU9IndpZHRoOjE0OTBweDtoZWlnaHQ6MzQzcHg7YmFja2dyb3VuZDojRkZGRkZGOyIgdmVyc2lvbj0iMS4xIiB2aWV3Qm94PSIwIDAgMTQ5MCAzNDMiIHdpZHRoPSIxNDkwcHgiIHpvb21BbmRQYW49Im1hZ25pZnkiPjxkZWZzLz48Zz48IS0tY2x1c3RlciBCYWNrZW5kLS0+PGcgaWQ9ImNsdXN0ZXJfQmFja2VuZCI+PHBhdGggZD0iTTguNSwxMjQgTDU4LjUsMTI0IEEzLjc1LDMuNzUgMCAwIDEgNjEsMTI2LjUgTDY4LDE0NC45ODQ0IEwxNDgwLjUsMTQ0Ljk4NDQgQTIuNSwyLjUgMCAwIDEgMTQ4MywxNDcuNDg0NCBMMTQ4MywyMTUuNSBBMi41LDIuNSAwIDAgMSAxNDgwLjUsMjE4IEw4LjUsMjE4IEEyLjUsMi41IDAgMCAxIDYsMjE1LjUgTDYsMTI2LjUgQTIuNSwyLjUgMCAwIDEgOC41LDEyNCAiIGZpbGw9Im5vbmUiIHN0eWxlPSJzdHJva2U6IzAwMDAwMDtzdHJva2Utd2lkdGg6MS41OyIvPjxsaW5lIHN0eWxlPSJzdHJva2U6IzAwMDAwMDtzdHJva2Utd2lkdGg6MS41OyIgeDE9IjYiIHgyPSI2OCIgeTE9IjE0NC45ODQ0IiB5Mj0iMTQ0Ljk4NDQiLz48dGV4dCBmaWxsPSIjMDAwMDAwIiBmb250LWZhbWlseT0ic2Fucy1zZXJpZiIgZm9udC1zaXplPSIxNCIgZm9udC13ZWlnaHQ9ImJvbGQiIGxlbmd0aEFkanVzdD0ic3BhY2luZyIgdGV4dExlbmd0aD0iNDkiIHg9IjEwIiB5PSIxMzkuMjM0NCI+QmFja2VuZDwvdGV4dD48L2c+PCEtLWNsdXN0ZXIgQmFzZSBkZSBEb25uP2VzLS0+PGcgaWQ9ImNsdXN0ZXJfQmFzZSBkZSBEb25uJiMyMzM7ZXMiPjxwYXRoIGQ9Ik03MTQuNSwyNDIgTDgyMC41LDI0MiBBMy43NSwzLjc1IDAgMCAxIDgyMywyNDQuNSBMODMwLDI2Mi45ODQ0IEw4NTEuNSwyNjIuOTg0NCBBMi41LDIuNSAwIDAgMSA4NTQsMjY1LjQ4NDQgTDg1NCwzMzMuNSBBMi41LDIuNSAwIDAgMSA4NTEuNSwzMzYgTDcxNC41LDMzNiBBMi41LDIuNSAwIDAgMSA3MTIsMzMzLjUgTDcxMiwyNDQuNSBBMi41LDIuNSAwIDAgMSA3MTQuNSwyNDIgIiBmaWxsPSJub25lIiBzdHlsZT0ic3Ryb2tlOiMwMDAwMDA7c3Ryb2tlLXdpZHRoOjEuNTsiLz48bGluZSBzdHlsZT0ic3Ryb2tlOiMwMDAwMDA7c3Ryb2tlLXdpZHRoOjEuNTsiIHgxPSI3MTIiIHgyPSI4MzAiIHkxPSIyNjIuOTg0NCIgeTI9IjI2Mi45ODQ0Ii8+PHRleHQgZmlsbD0iIzAwMDAwMCIgZm9udC1mYW1pbHk9InNhbnMtc2VyaWYiIGZvbnQtc2l6ZT0iMTQiIGZvbnQtd2VpZ2h0PSJib2xkIiBsZW5ndGhBZGp1c3Q9InNwYWNpbmciIHRleHRMZW5ndGg9IjEwNSIgeD0iNzE2IiB5PSIyNTcuMjM0NCI+QmFzZSBkZSBEb25uJiMyMzM7ZXM8L3RleHQ+PC9nPjwhLS1jbHVzdGVyIFNlcnZpY2VzIEV4dGVybmVzLS0+PGcgaWQ9ImNsdXN0ZXJfU2VydmljZXMgRXh0ZXJuZXMiPjxwYXRoIGQ9Ik03MzQuNSw2IEw4NTQuNSw2IEEzLjc1LDMuNzUgMCAwIDEgODU3LDguNSBMODY0LDI2Ljk4NDQgTDEyNTQuNSwyNi45ODQ0IEEyLjUsMi41IDAgMCAxIDEyNTcsMjkuNDg0NCBMMTI1Nyw5Ny41IEEyLjUsMi41IDAgMCAxIDEyNTQuNSwxMDAgTDczNC41LDEwMCBBMi41LDIuNSAwIDAgMSA3MzIsOTcuNSBMNzMyLDguNSBBMi41LDIuNSAwIDAgMSA3MzQuNSw2ICIgZmlsbD0ibm9uZSIgc3R5bGU9InN0cm9rZTojMDAwMDAwO3N0cm9rZS13aWR0aDoxLjU7Ii8+PGxpbmUgc3R5bGU9InN0cm9rZTojMDAwMDAwO3N0cm9rZS13aWR0aDoxLjU7IiB4MT0iNzMyIiB4Mj0iODY0IiB5MT0iMjYuOTg0NCIgeTI9IjI2Ljk4NDQiLz48dGV4dCBmaWxsPSIjMDAwMDAwIiBmb250LWZhbWlseT0ic2Fucy1zZXJpZiIgZm9udC1zaXplPSIxNCIgZm9udC13ZWlnaHQ9ImJvbGQiIGxlbmd0aEFkanVzdD0ic3BhY2luZyIgdGV4dExlbmd0aD0iMTE5IiB4PSI3MzYiIHk9IjIxLjIzNDQiPlNlcnZpY2VzIEV4dGVybmVzPC90ZXh0PjwvZz48IS0tZW50aXR5IFVzZXJzLS0+PGcgaWQ9ImVsZW1fVXNlcnMiPjxyZWN0IGZpbGw9IiNGMUYxRjEiIGhlaWdodD0iNDQuOTg0NCIgcng9IjIuNSIgcnk9IjIuNSIgc3R5bGU9InN0cm9rZTojMTgxODE4O3N0cm9rZS13aWR0aDowLjU7IiB3aWR0aD0iMTczIiB4PSIxMjkzLjUiIHk9IjE1NyIvPjxyZWN0IGZpbGw9IiNGMUYxRjEiIGhlaWdodD0iMTAiIHN0eWxlPSJzdHJva2U6IzE4MTgxODtzdHJva2Utd2lkdGg6MC41OyIgd2lkdGg9IjE1IiB4PSIxNDQ2LjUiIHk9IjE2MiIvPjxyZWN0IGZpbGw9IiNGMUYxRjEiIGhlaWdodD0iMiIgc3R5bGU9InN0cm9rZTojMTgxODE4O3N0cm9rZS13aWR0aDowLjU7IiB3aWR0aD0iNCIgeD0iMTQ0NC41IiB5PSIxNjQiLz48cmVjdCBmaWxsPSIjRjFGMUYxIiBoZWlnaHQ9IjIiIHN0eWxlPSJzdHJva2U6IzE4MTgxODtzdHJva2Utd2lkdGg6MC41OyIgd2lkdGg9IjQiIHg9IjE0NDQuNSIgeT0iMTY4Ii8+PHRleHQgZmlsbD0iIzAwMDAwMCIgZm9udC1mYW1pbHk9InNhbnMtc2VyaWYiIGZvbnQtc2l6ZT0iMTQiIGxlbmd0aEFkanVzdD0ic3BhY2luZyIgdGV4dExlbmd0aD0iMTMzIiB4PSIxMzA4LjUiIHk9IjE5MC4yMzQ0Ij5Nb2R1bGUgVXRpbGlzYXRldXJzPC90ZXh0PjwvZz48IS0tZW50aXR5IExpc3RpbmdzLS0+PGcgaWQ9ImVsZW1fTGlzdGluZ3MiPjxyZWN0IGZpbGw9IiNGMUYxRjEiIGhlaWdodD0iNDQuOTg0NCIgcng9IjIuNSIgcnk9IjIuNSIgc3R5bGU9InN0cm9rZTojMTgxODE4O3N0cm9rZS13aWR0aDowLjU7IiB3aWR0aD0iMTQ1IiB4PSIxMTEzLjUiIHk9IjE1NyIvPjxyZWN0IGZpbGw9IiNGMUYxRjEiIGhlaWdodD0iMTAiIHN0eWxlPSJzdHJva2U6IzE4MTgxODtzdHJva2Utd2lkdGg6MC41OyIgd2lkdGg9IjE1IiB4PSIxMjM4LjUiIHk9IjE2MiIvPjxyZWN0IGZpbGw9IiNGMUYxRjEiIGhlaWdodD0iMiIgc3R5bGU9InN0cm9rZTojMTgxODE4O3N0cm9rZS13aWR0aDowLjU7IiB3aWR0aD0iNCIgeD0iMTIzNi41IiB5PSIxNjQiLz48cmVjdCBmaWxsPSIjRjFGMUYxIiBoZWlnaHQ9IjIiIHN0eWxlPSJzdHJva2U6IzE4MTgxODtzdHJva2Utd2lkdGg6MC41OyIgd2lkdGg9IjQiIHg9IjEyMzYuNSIgeT0iMTY4Ii8+PHRleHQgZmlsbD0iIzAwMDAwMCIgZm9udC1mYW1pbHk9InNhbnMtc2VyaWYiIGZvbnQtc2l6ZT0iMTQiIGxlbmd0aEFkanVzdD0ic3BhY2luZyIgdGV4dExlbmd0aD0iMTA1IiB4PSIxMTI4LjUiIHk9IjE5MC4yMzQ0Ij5Nb2R1bGUgQW5ub25jZXM8L3RleHQ+PC9nPjwhLS1lbnRpdHkgU2VhcmNoLS0+PGcgaWQ9ImVsZW1fU2VhcmNoIj48cmVjdCBmaWxsPSIjRjFGMUYxIiBoZWlnaHQ9IjQ0Ljk4NDQiIHJ4PSIyLjUiIHJ5PSIyLjUiIHN0eWxlPSJzdHJva2U6IzE4MTgxODtzdHJva2Utd2lkdGg6MC41OyIgd2lkdGg9IjE1MiIgeD0iOTI2IiB5PSIxNTciLz48cmVjdCBmaWxsPSIjRjFGMUYxIiBoZWlnaHQ9IjEwIiBzdHlsZT0ic3Ryb2tlOiMxODE4MTg7c3Ryb2tlLXdpZHRoOjAuNTsiIHdpZHRoPSIxNSIgeD0iMTA1OCIgeT0iMTYyIi8+PHJlY3QgZmlsbD0iI0YxRjFGMSIgaGVpZ2h0PSIyIiBzdHlsZT0ic3Ryb2tlOiMxODE4MTg7c3Ryb2tlLXdpZHRoOjAuNTsiIHdpZHRoPSI0IiB4PSIxMDU2IiB5PSIxNjQiLz48cmVjdCBmaWxsPSIjRjFGMUYxIiBoZWlnaHQ9IjIiIHN0eWxlPSJzdHJva2U6IzE4MTgxODtzdHJva2Utd2lkdGg6MC41OyIgd2lkdGg9IjQiIHg9IjEwNTYiIHk9IjE2OCIvPjx0ZXh0IGZpbGw9IiMwMDAwMDAiIGZvbnQtZmFtaWx5PSJzYW5zLXNlcmlmIiBmb250LXNpemU9IjE0IiBsZW5ndGhBZGp1c3Q9InNwYWNpbmciIHRleHRMZW5ndGg9IjExMiIgeD0iOTQxIiB5PSIxOTAuMjM0NCI+TW9kdWxlIFJlY2hlcmNoZTwvdGV4dD48L2c+PCEtLWVudGl0eSBGYXZvcml0ZXMtLT48ZyBpZD0iZWxlbV9GYXZvcml0ZXMiPjxyZWN0IGZpbGw9IiNGMUYxRjEiIGhlaWdodD0iNDQuOTg0NCIgcng9IjIuNSIgcnk9IjIuNSIgc3R5bGU9InN0cm9rZTojMTgxODE4O3N0cm9rZS13aWR0aDowLjU7IiB3aWR0aD0iMjE1IiB4PSI2NzUuNSIgeT0iMTU3Ii8+PHJlY3QgZmlsbD0iI0YxRjFGMSIgaGVpZ2h0PSIxMCIgc3R5bGU9InN0cm9rZTojMTgxODE4O3N0cm9rZS13aWR0aDowLjU7IiB3aWR0aD0iMTUiIHg9Ijg3MC41IiB5PSIxNjIiLz48cmVjdCBmaWxsPSIjRjFGMUYxIiBoZWlnaHQ9IjIiIHN0eWxlPSJzdHJva2U6IzE4MTgxODtzdHJva2Utd2lkdGg6MC41OyIgd2lkdGg9IjQiIHg9Ijg2OC41IiB5PSIxNjQiLz48cmVjdCBmaWxsPSIjRjFGMUYxIiBoZWlnaHQ9IjIiIHN0eWxlPSJzdHJva2U6IzE4MTgxODtzdHJva2Utd2lkdGg6MC41OyIgd2lkdGg9IjQiIHg9Ijg2OC41IiB5PSIxNjgiLz48dGV4dCBmaWxsPSIjMDAwMDAwIiBmb250LWZhbWlseT0ic2Fucy1zZXJpZiIgZm9udC1zaXplPSIxNCIgbGVuZ3RoQWRqdXN0PSJzcGFjaW5nIiB0ZXh0TGVuZ3RoPSIxNzUiIHg9IjY5MC41IiB5PSIxOTAuMjM0NCI+TW9kdWxlIEZhdm9yaXMgZXQgQWxlcnRlczwvdGV4dD48L2c+PCEtLWVudGl0eSBNZXNzYWdpbmctLT48ZyBpZD0iZWxlbV9NZXNzYWdpbmciPjxyZWN0IGZpbGw9IiNGMUYxRjEiIGhlaWdodD0iNDQuOTg0NCIgcng9IjIuNSIgcnk9IjIuNSIgc3R5bGU9InN0cm9rZTojMTgxODE4O3N0cm9rZS13aWR0aDowLjU7IiB3aWR0aD0iMTU5IiB4PSI0ODEuNSIgeT0iMTU3Ii8+PHJlY3QgZmlsbD0iI0YxRjFGMSIgaGVpZ2h0PSIxMCIgc3R5bGU9InN0cm9rZTojMTgxODE4O3N0cm9rZS13aWR0aDowLjU7IiB3aWR0aD0iMTUiIHg9IjYyMC41IiB5PSIxNjIiLz48cmVjdCBmaWxsPSIjRjFGMUYxIiBoZWlnaHQ9IjIiIHN0eWxlPSJzdHJva2U6IzE4MTgxODtzdHJva2Utd2lkdGg6MC41OyIgd2lkdGg9IjQiIHg9IjYxOC41IiB5PSIxNjQiLz48cmVjdCBmaWxsPSIjRjFGMUYxIiBoZWlnaHQ9IjIiIHN0eWxlPSJzdHJva2U6IzE4MTgxODtzdHJva2Utd2lkdGg6MC41OyIgd2lkdGg9IjQiIHg9IjYxOC41IiB5PSIxNjgiLz48dGV4dCBmaWxsPSIjMDAwMDAwIiBmb250LWZhbWlseT0ic2Fucy1zZXJpZiIgZm9udC1zaXplPSIxNCIgbGVuZ3RoQWRqdXN0PSJzcGFjaW5nIiB0ZXh0TGVuZ3RoPSIxMTkiIHg9IjQ5Ni41IiB5PSIxOTAuMjM0NCI+TW9kdWxlIE1lc3NhZ2VyaWU8L3RleHQ+PC9nPjwhLS1lbnRpdHkgUmV2aWV3cy0tPjxnIGlkPSJlbGVtX1Jldmlld3MiPjxyZWN0IGZpbGw9IiNGMUYxRjEiIGhlaWdodD0iNDQuOTg0NCIgcng9IjIuNSIgcnk9IjIuNSIgc3R5bGU9InN0cm9rZTojMTgxODE4O3N0cm9rZS13aWR0aDowLjU7IiB3aWR0aD0iMjAxIiB4PSIyNDUuNSIgeT0iMTU3Ii8+PHJlY3QgZmlsbD0iI0YxRjFGMSIgaGVpZ2h0PSIxMCIgc3R5bGU9InN0cm9rZTojMTgxODE4O3N0cm9rZS13aWR0aDowLjU7IiB3aWR0aD0iMTUiIHg9IjQyNi41IiB5PSIxNjIiLz48cmVjdCBmaWxsPSIjRjFGMUYxIiBoZWlnaHQ9IjIiIHN0eWxlPSJzdHJva2U6IzE4MTgxODtzdHJva2Utd2lkdGg6MC41OyIgd2lkdGg9IjQiIHg9IjQyNC41IiB5PSIxNjQiLz48cmVjdCBmaWxsPSIjRjFGMUYxIiBoZWlnaHQ9IjIiIHN0eWxlPSJzdHJva2U6IzE4MTgxODtzdHJva2Utd2lkdGg6MC41OyIgd2lkdGg9IjQiIHg9IjQyNC41IiB5PSIxNjgiLz48dGV4dCBmaWxsPSIjMDAwMDAwIiBmb250LWZhbWlseT0ic2Fucy1zZXJpZiIgZm9udC1zaXplPSIxNCIgbGVuZ3RoQWRqdXN0PSJzcGFjaW5nIiB0ZXh0TGVuZ3RoPSIxNjEiIHg9IjI2MC41IiB5PSIxOTAuMjM0NCI+TW9kdWxlIE5vdGF0aW9uIGV0IEF2aXM8L3RleHQ+PC9nPjwhLS1lbnRpdHkgQWRtaW4tLT48ZyBpZD0iZWxlbV9BZG1pbiI+PHJlY3QgZmlsbD0iI0YxRjFGMSIgaGVpZ2h0PSI0NC45ODQ0IiByeD0iMi41IiByeT0iMi41IiBzdHlsZT0ic3Ryb2tlOiMxODE4MTg7c3Ryb2tlLXdpZHRoOjAuNTsiIHdpZHRoPSIxODgiIHg9IjIyIiB5PSIxNTciLz48cmVjdCBmaWxsPSIjRjFGMUYxIiBoZWlnaHQ9IjEwIiBzdHlsZT0ic3Ryb2tlOiMxODE4MTg7c3Ryb2tlLXdpZHRoOjAuNTsiIHdpZHRoPSIxNSIgeD0iMTkwIiB5PSIxNjIiLz48cmVjdCBmaWxsPSIjRjFGMUYxIiBoZWlnaHQ9IjIiIHN0eWxlPSJzdHJva2U6IzE4MTgxODtzdHJva2Utd2lkdGg6MC41OyIgd2lkdGg9IjQiIHg9IjE4OCIgeT0iMTY0Ii8+PHJlY3QgZmlsbD0iI0YxRjFGMSIgaGVpZ2h0PSIyIiBzdHlsZT0ic3Ryb2tlOiMxODE4MTg7c3Ryb2tlLXdpZHRoOjAuNTsiIHdpZHRoPSI0IiB4PSIxODgiIHk9IjE2OCIvPjx0ZXh0IGZpbGw9IiMwMDAwMDAiIGZvbnQtZmFtaWx5PSJzYW5zLXNlcmlmIiBmb250LXNpemU9IjE0IiBsZW5ndGhBZGp1c3Q9InNwYWNpbmciIHRleHRMZW5ndGg9IjE0OCIgeD0iMzciIHk9IjE5MC4yMzQ0Ij5Nb2R1bGUgQWRtaW5pc3RyYXRpb248L3RleHQ+PC9nPjwhLS1lbnRpdHkgREItLT48ZyBpZD0iZWxlbV9EQiI+PHJlY3QgZmlsbD0iI0YxRjFGMSIgaGVpZ2h0PSI0NC45ODQ0IiByeD0iMi41IiByeT0iMi41IiBzdHlsZT0ic3Ryb2tlOiMxODE4MTg7c3Ryb2tlLXdpZHRoOjAuNTsiIHdpZHRoPSIxMTAiIHg9IjcyOCIgeT0iMjc1Ii8+PHJlY3QgZmlsbD0iI0YxRjFGMSIgaGVpZ2h0PSIxMCIgc3R5bGU9InN0cm9rZTojMTgxODE4O3N0cm9rZS13aWR0aDowLjU7IiB3aWR0aD0iMTUiIHg9IjgxOCIgeT0iMjgwIi8+PHJlY3QgZmlsbD0iI0YxRjFGMSIgaGVpZ2h0PSIyIiBzdHlsZT0ic3Ryb2tlOiMxODE4MTg7c3Ryb2tlLXdpZHRoOjAuNTsiIHdpZHRoPSI0IiB4PSI4MTYiIHk9IjI4MiIvPjxyZWN0IGZpbGw9IiNGMUYxRjEiIGhlaWdodD0iMiIgc3R5bGU9InN0cm9rZTojMTgxODE4O3N0cm9rZS13aWR0aDowLjU7IiB3aWR0aD0iNCIgeD0iODE2IiB5PSIyODYiLz48dGV4dCBmaWxsPSIjMDAwMDAwIiBmb250LWZhbWlseT0ic2Fucy1zZXJpZiIgZm9udC1zaXplPSIxNCIgbGVuZ3RoQWRqdXN0PSJzcGFjaW5nIiB0ZXh0TGVuZ3RoPSI3MCIgeD0iNzQzIiB5PSIzMDguMjM0NCI+UG9zdGdyZVNRTDwvdGV4dD48L2c+PCEtLWVudGl0eSBNYXBzLS0+PGcgaWQ9ImVsZW1fTWFwcyI+PHJlY3QgZmlsbD0iI0YxRjFGMSIgaGVpZ2h0PSI0NC45ODQ0IiByeD0iMi41IiByeT0iMi41IiBzdHlsZT0ic3Ryb2tlOiMxODE4MTg7c3Ryb2tlLXdpZHRoOjAuNTsiIHdpZHRoPSIxNDUiIHg9IjkyOS41IiB5PSIzOSIvPjxyZWN0IGZpbGw9IiNGMUYxRjEiIGhlaWdodD0iMTAiIHN0eWxlPSJzdHJva2U6IzE4MTgxODtzdHJva2Utd2lkdGg6MC41OyIgd2lkdGg9IjE1IiB4PSIxMDU0LjUiIHk9IjQ0Ii8+PHJlY3QgZmlsbD0iI0YxRjFGMSIgaGVpZ2h0PSIyIiBzdHlsZT0ic3Ryb2tlOiMxODE4MTg7c3Ryb2tlLXdpZHRoOjAuNTsiIHdpZHRoPSI0IiB4PSIxMDUyLjUiIHk9IjQ2Ii8+PHJlY3QgZmlsbD0iI0YxRjFGMSIgaGVpZ2h0PSIyIiBzdHlsZT0ic3Ryb2tlOiMxODE4MTg7c3Ryb2tlLXdpZHRoOjAuNTsiIHdpZHRoPSI0IiB4PSIxMDUyLjUiIHk9IjUwIi8+PHRleHQgZmlsbD0iIzAwMDAwMCIgZm9udC1mYW1pbHk9InNhbnMtc2VyaWYiIGZvbnQtc2l6ZT0iMTQiIGxlbmd0aEFkanVzdD0ic3BhY2luZyIgdGV4dExlbmd0aD0iMTA1IiB4PSI5NDQuNSIgeT0iNzIuMjM0NCI+R29vZ2xlIE1hcHMgQVBJPC90ZXh0PjwvZz48IS0tZW50aXR5IFBheW1lbnRzLS0+PGcgaWQ9ImVsZW1fUGF5bWVudHMiPjxyZWN0IGZpbGw9IiNGMUYxRjEiIGhlaWdodD0iNDQuOTg0NCIgcng9IjIuNSIgcnk9IjIuNSIgc3R5bGU9InN0cm9rZTojMTgxODE4O3N0cm9rZS13aWR0aDowLjU7IiB3aWR0aD0iMTMxIiB4PSIxMTA5LjUiIHk9IjM5Ii8+PHJlY3QgZmlsbD0iI0YxRjFGMSIgaGVpZ2h0PSIxMCIgc3R5bGU9InN0cm9rZTojMTgxODE4O3N0cm9rZS13aWR0aDowLjU7IiB3aWR0aD0iMTUiIHg9IjEyMjAuNSIgeT0iNDQiLz48cmVjdCBmaWxsPSIjRjFGMUYxIiBoZWlnaHQ9IjIiIHN0eWxlPSJzdHJva2U6IzE4MTgxODtzdHJva2Utd2lkdGg6MC41OyIgd2lkdGg9IjQiIHg9IjEyMTguNSIgeT0iNDYiLz48cmVjdCBmaWxsPSIjRjFGMUYxIiBoZWlnaHQ9IjIiIHN0eWxlPSJzdHJva2U6IzE4MTgxODtzdHJva2Utd2lkdGg6MC41OyIgd2lkdGg9IjQiIHg9IjEyMTguNSIgeT0iNTAiLz48dGV4dCBmaWxsPSIjMDAwMDAwIiBmb250LWZhbWlseT0ic2Fucy1zZXJpZiIgZm9udC1zaXplPSIxNCIgbGVuZ3RoQWRqdXN0PSJzcGFjaW5nIiB0ZXh0TGVuZ3RoPSI5MSIgeD0iMTEyNC41IiB5PSI3Mi4yMzQ0Ij5TdHJpcGUvUGF5UGFsPC90ZXh0PjwvZz48IS0tZW50aXR5IE5vdGlmaWNhdGlvbnMtLT48ZyBpZD0iZWxlbV9Ob3RpZmljYXRpb25zIj48cmVjdCBmaWxsPSIjRjFGMUYxIiBoZWlnaHQ9IjQ0Ljk4NDQiIHJ4PSIyLjUiIHJ5PSIyLjUiIHN0eWxlPSJzdHJva2U6IzE4MTgxODtzdHJva2Utd2lkdGg6MC41OyIgd2lkdGg9IjE0NiIgeD0iNzQ4IiB5PSIzOSIvPjxyZWN0IGZpbGw9IiNGMUYxRjEiIGhlaWdodD0iMTAiIHN0eWxlPSJzdHJva2U6IzE4MTgxODtzdHJva2Utd2lkdGg6MC41OyIgd2lkdGg9IjE1IiB4PSI4NzQiIHk9IjQ0Ii8+PHJlY3QgZmlsbD0iI0YxRjFGMSIgaGVpZ2h0PSIyIiBzdHlsZT0ic3Ryb2tlOiMxODE4MTg7c3Ryb2tlLXdpZHRoOjAuNTsiIHdpZHRoPSI0IiB4PSI4NzIiIHk9IjQ2Ii8+PHJlY3QgZmlsbD0iI0YxRjFGMSIgaGVpZ2h0PSIyIiBzdHlsZT0ic3Ryb2tlOiMxODE4MTg7c3Ryb2tlLXdpZHRoOjAuNTsiIHdpZHRoPSI0IiB4PSI4NzIiIHk9IjUwIi8+PHRleHQgZmlsbD0iIzAwMDAwMCIgZm9udC1mYW1pbHk9InNhbnMtc2VyaWYiIGZvbnQtc2l6ZT0iMTQiIGxlbmd0aEFkanVzdD0ic3BhY2luZyIgdGV4dExlbmd0aD0iMTA2IiB4PSI3NjMiIHk9IjcyLjIzNDQiPlR3aWxpby9TZW5kR3JpZDwvdGV4dD48L2c+PCEtLWxpbmsgVXNlcnMgdG8gREItLT48ZyBpZD0ibGlua19Vc2Vyc19EQiI+PHBhdGggZD0iTTEzMzcuNywyMDIuMTEgQzEzMTkuMTksMjEwLjc1IDEyOTYuOTUsMjIwLjA0IDEyNzYsMjI2IEMxMTIxLjExLDI3MC4wNyA5MzYuNjM2OCwyODYuOTMxNyA4NDQuMzQ2OCwyOTMuMDcxNyAiIGZpbGw9Im5vbmUiIGlkPSJVc2Vycy10by1EQiIgc3R5bGU9InN0cm9rZTojMTgxODE4O3N0cm9rZS13aWR0aDoxLjA7Ii8+PHBvbHlnb24gZmlsbD0iIzE4MTgxOCIgcG9pbnRzPSI4MzguMzYsMjkzLjQ3LDg0Ny42MDU3LDI5Ni44NjM3LDg0My4zNDksMjkzLjEzODEsODQ3LjA3NDYsMjg4Ljg4MTQsODM4LjM2LDI5My40NyIgc3R5bGU9InN0cm9rZTojMTgxODE4O3N0cm9rZS13aWR0aDoxLjA7Ii8+PC9nPjwhLS1saW5rIExpc3RpbmdzIHRvIERCLS0+PGcgaWQ9ImxpbmtfTGlzdGluZ3NfREIiPjxwYXRoIGQ9Ik0xMTQ4LjM4LDIwMi4xMyBDMTEzMi41OSwyMTAuNTEgMTExMy44LDIxOS42MSAxMDk2LDIyNiBDMTAwOC4zMiwyNTcuNDkgOTA3LjUzMTMsMjc2Ljk2MTMgODQ0LjA4MTMsMjg3LjM0MTMgIiBmaWxsPSJub25lIiBpZD0iTGlzdGluZ3MtdG8tREIiIHN0eWxlPSJzdHJva2U6IzE4MTgxODtzdHJva2Utd2lkdGg6MS4wOyIvPjxwb2x5Z29uIGZpbGw9IiMxODE4MTgiIHBvaW50cz0iODM4LjE2LDI4OC4zMSw4NDcuNjg3NywyOTAuODA0NSw4NDMuMDk0NCwyODcuNTAyOCw4NDYuMzk2MSwyODIuOTA5NCw4MzguMTYsMjg4LjMxIiBzdHlsZT0ic3Ryb2tlOiMxODE4MTg7c3Ryb2tlLXdpZHRoOjEuMDsiLz48L2c+PCEtLWxpbmsgU2VhcmNoIHRvIERCLS0+PGcgaWQ9ImxpbmtfU2VhcmNoX0RCIj48cGF0aCBkPSJNOTYxLjMyLDIwMi4wNSBDOTIyLjExLDIyMi44MiA4NjguNDAyMiwyNTEuMjYxNiA4MjkuMTMyMiwyNzIuMDYxNiAiIGZpbGw9Im5vbmUiIGlkPSJTZWFyY2gtdG8tREIiIHN0eWxlPSJzdHJva2U6IzE4MTgxODtzdHJva2Utd2lkdGg6MS4wOyIvPjxwb2x5Z29uIGZpbGw9IiMxODE4MTgiIHBvaW50cz0iODIzLjgzLDI3NC44Nyw4MzMuNjU1NSwyNzQuMTkyMiw4MjguMjQ4NSwyNzIuNTI5Nyw4MjkuOTExLDI2Ny4xMjI2LDgyMy44MywyNzQuODciIHN0eWxlPSJzdHJva2U6IzE4MTgxODtzdHJva2Utd2lkdGg6MS4wOyIvPjwvZz48IS0tbGluayBGYXZvcml0ZXMgdG8gREItLT48ZyBpZD0ibGlua19GYXZvcml0ZXNfREIiPjxwYXRoIGQ9Ik03ODMsMjAyLjA1IEM3ODMsMjIyLjc1IDc4MywyNDcuODggNzgzLDI2OC42NyAiIGZpbGw9Im5vbmUiIGlkPSJGYXZvcml0ZXMtdG8tREIiIHN0eWxlPSJzdHJva2U6IzE4MTgxODtzdHJva2Utd2lkdGg6MS4wOyIvPjxwb2x5Z29uIGZpbGw9IiMxODE4MTgiIHBvaW50cz0iNzgzLDI3NC42Nyw3ODcsMjY1LjY3LDc4MywyNjkuNjcsNzc5LDI2NS42Nyw3ODMsMjc0LjY3IiBzdHlsZT0ic3Ryb2tlOiMxODE4MTg7c3Ryb2tlLXdpZHRoOjEuMDsiLz48L2c+PCEtLWxpbmsgTWVzc2FnaW5nIHRvIERCLS0+PGcgaWQ9ImxpbmtfTWVzc2FnaW5nX0RCIj48cGF0aCBkPSJNNjAyLjI0LDIwMi4wNSBDNjQxLjk5LDIyMi44MiA2OTYuNDkyNCwyNTEuMjkxIDczNi4yOTI0LDI3Mi4wOTEgIiBmaWxsPSJub25lIiBpZD0iTWVzc2FnaW5nLXRvLURCIiBzdHlsZT0ic3Ryb2tlOiMxODE4MTg7c3Ryb2tlLXdpZHRoOjEuMDsiLz48cG9seWdvbiBmaWxsPSIjMTgxODE4IiBwb2ludHM9Ijc0MS42MSwyNzQuODcsNzM1LjQ4NjMsMjY3LjE1NjQsNzM3LjE3ODcsMjcyLjU1NDEsNzMxLjc4MDksMjc0LjI0NjUsNzQxLjYxLDI3NC44NyIgc3R5bGU9InN0cm9rZTojMTgxODE4O3N0cm9rZS13aWR0aDoxLjA7Ii8+PC9nPjwhLS1saW5rIFJldmlld3MgdG8gREItLT48ZyBpZD0ibGlua19SZXZpZXdzX0RCIj48cGF0aCBkPSJNMzk2LjgyLDIwMi4wMiBDNDE3LjQzLDIxMC4yNCA0NDEuNjEsMjE5LjI1IDQ2NCwyMjYgQzU1NS4xLDI1My40NiA2NTcuODc4LDI3NC4xMjAxIDcyMS45ODgsMjg1Ljg1MDEgIiBmaWxsPSJub25lIiBpZD0iUmV2aWV3cy10by1EQiIgc3R5bGU9InN0cm9rZTojMTgxODE4O3N0cm9rZS13aWR0aDoxLjA7Ii8+PHBvbHlnb24gZmlsbD0iIzE4MTgxOCIgcG9pbnRzPSI3MjcuODksMjg2LjkzLDcxOS43NTY5LDI4MS4zNzU1LDcyMi45NzE2LDI4Ni4wMzAxLDcxOC4zMTcsMjg5LjI0NDksNzI3Ljg5LDI4Ni45MyIgc3R5bGU9InN0cm9rZTojMTgxODE4O3N0cm9rZS13aWR0aDoxLjA7Ii8+PC9nPjwhLS1saW5rIEFkbWluIHRvIERCLS0+PGcgaWQ9ImxpbmtfQWRtaW5fREIiPjxwYXRoIGQ9Ik0xNjEuNCwyMDIuMDggQzE4MS40MSwyMTAuNzYgMjA1LjQ2LDIyMC4xIDIyOCwyMjYgQzQwNi45OSwyNzIuODcgNjIwLjkyOCwyODguNzExIDcyMS43NTgsMjkzLjkxMSAiIGZpbGw9Im5vbmUiIGlkPSJBZG1pbi10by1EQiIgc3R5bGU9InN0cm9rZTojMTgxODE4O3N0cm9rZS13aWR0aDoxLjA7Ii8+PHBvbHlnb24gZmlsbD0iIzE4MTgxOCIgcG9pbnRzPSI3MjcuNzUsMjk0LjIyLDcxOC45NjgsMjg5Ljc2MTgsNzIyLjc1NjYsMjkzLjk2MjUsNzE4LjU1NTksMjk3Ljc1MTIsNzI3Ljc1LDI5NC4yMiIgc3R5bGU9InN0cm9rZTojMTgxODE4O3N0cm9rZS13aWR0aDoxLjA7Ii8+PC9nPjwhLS1saW5rIFNlYXJjaCB0byBNYXBzLS0+PGcgaWQ9ImxpbmtfU2VhcmNoX01hcHMiPjxwYXRoIGQ9Ik0xMDAyLDE1Ni42NyBDMTAwMiwxMzUuODggMTAwMiwxMTAuNzUgMTAwMiw5MC4wNSAiIGZpbGw9Im5vbmUiIGlkPSJTZWFyY2gtdG8tTWFwcyIgc3R5bGU9InN0cm9rZTojMTgxODE4O3N0cm9rZS13aWR0aDoxLjA7Ii8+PHBvbHlnb24gZmlsbD0iIzE4MTgxOCIgcG9pbnRzPSIxMDAyLDg0LjA1LDk5OCw5My4wNSwxMDAyLDg5LjA1LDEwMDYsOTMuMDUsMTAwMiw4NC4wNSIgc3R5bGU9InN0cm9rZTojMTgxODE4O3N0cm9rZS13aWR0aDoxLjA7Ii8+PC9nPjwhLS1saW5rIFBheW1lbnRzIHRvIExpc3RpbmdzLS0+PGcgaWQ9ImxpbmtfUGF5bWVudHNfTGlzdGluZ3MiPjxwYXRoIGQ9Ik0xMTc3LjA0LDg0LjA1IEMxMTc5LjAxLDEwNC43NSAxMTgxLjM5NCwxMjkuOTA2OCAxMTgzLjM2NCwxNTAuNjk2OCAiIGZpbGw9Im5vbmUiIGlkPSJQYXltZW50cy10by1MaXN0aW5ncyIgc3R5bGU9InN0cm9rZTojMTgxODE4O3N0cm9rZS13aWR0aDoxLjA7Ii8+PHBvbHlnb24gZmlsbD0iIzE4MTgxOCIgcG9pbnRzPSIxMTgzLjkzLDE1Ni42NywxMTg3LjA2MzIsMTQ3LjMzMjgsMTE4My40NTgzLDE1MS42OTIzLDExNzkuMDk4OCwxNDguMDg3NSwxMTgzLjkzLDE1Ni42NyIgc3R5bGU9InN0cm9rZTojMTgxODE4O3N0cm9rZS13aWR0aDoxLjA7Ii8+PC9nPjwhLS1saW5rIE5vdGlmaWNhdGlvbnMgdG8gTWVzc2FnaW5nLS0+PGcgaWQ9ImxpbmtfTm90aWZpY2F0aW9uc19NZXNzYWdpbmciPjxwYXRoIGQ9Ik03NDcuNjQsODIuMjEgQzcxOS4wMyw5MS4wMiA2ODYuMzcsMTAyLjQ4IDY1OCwxMTYgQzYzNC4xMywxMjcuMzggNjE0LjAwMzIsMTQwLjE5NiA1OTUuMzQzMiwxNTMuMjc2ICIgZmlsbD0ibm9uZSIgaWQ9Ik5vdGlmaWNhdGlvbnMtdG8tTWVzc2FnaW5nIiBzdHlsZT0ic3Ryb2tlOiMxODE4MTg7c3Ryb2tlLXdpZHRoOjEuMDsiLz48cG9seWdvbiBmaWxsPSIjMTgxODE4IiBwb2ludHM9IjU5MC40MywxNTYuNzIsNjAwLjA5NTcsMTU0LjgyOTUsNTk0LjUyNDMsMTUzLjg1LDU5NS41MDM4LDE0OC4yNzg2LDU5MC40MywxNTYuNzIiIHN0eWxlPSJzdHJva2U6IzE4MTgxODtzdHJva2Utd2lkdGg6MS4wOyIvPjwvZz48IS0tU1JDPVtMTDUxSmlDbTRCcGQ1UWxVZ191MGdMTVhHY2ZIUUVXOVNSMkk5UW44eFNaaGZZMzRXdFc3N3NFcFphRG9pRUpQNlUtRVByakpsZmlRT1I2SDJ6ZmcwTHlQbUZGMUxQUzZ1SEllOEpPMUJ2dlZtMzJTNjNyRjE2amhkSXFuYWRsWUdCUVV5YVNpdHozQktLNjFIa3VKLWl2cXBYQzMxYld0d0NGR0E5TzVKUUc3UDFRWmRjQWgyNk5RSEZCV1dXZGFoQlJoQUZPd09hVHVkTmNrcGNKNWdiVW5ZaElLVk1UUC1ueTc4ckc4TXNWanhtX29hNGxrRURHVVl5VXpsamprUGV5QXoxcjk2ZDN4NFQzUnlUTkVrUmhfV2NiYkw3dVZGbzJXdnVoV2dTTExSWnZwcW9XWnJwRlFlRXBKTEhSV0xlTGlQa1VmS2J3LUlRektnZGxrdi1qSU9CY3l3VnNhOUlHU0NxemVKM09MblhuSk9TV2hHS3FjV01hcHpQLWlRY0xTX3luVzVBU2ZWbTAwXS0tPjwvZz48L3N2Zz4=;" vertex="1" parent="1">
            <mxGeometry x="-310" y="140" width="1490" height="343" as="geometry" />
          </mxCell>
        </UserObject>
      </root>
    </mxGraphModel>
  </diagram>
  <diagram id="3Lrq7aHETzvea0Hc_9ZH" name="deploiement">
    <mxGraphModel dx="1050" dy="645" grid="1" gridSize="10" guides="1" tooltips="1" connect="1" arrows="1" fold="1" page="1" pageScale="1" pageWidth="827" pageHeight="1169" math="0" shadow="0">
      <root>
        <mxCell id="0" />
        <mxCell id="1" parent="0" />
        <UserObject label="" plantUmlData="{&#xa;  &quot;data&quot;: &quot;@startuml\nnode \&quot;Serveur Cloud (AWS/GCP/Azure)\&quot; {\n  component \&quot;API Gateway\&quot; as API\n  component \&quot;Module Utilisateurs\&quot; as Users\n  component \&quot;Module Annonces\&quot; as Listings\n  component \&quot;Module Recherche\&quot; as Search\n  component \&quot;Base de Données\&quot; as DB\n  component \&quot;Stockage Fichiers\&quot; as Storage\n}\n\nnode \&quot;Client\&quot; {\n  component \&quot;Navigateur Web\&quot; as Browser\n  component \&quot;Application Mobile\&quot; as Mobile\n}\n\nBrowser --&gt; API\nMobile --&gt; API\nAPI --&gt; Users\nAPI --&gt; Listings\nAPI --&gt; Search\nUsers --&gt; DB\nListings --&gt; DB\nSearch --&gt; DB\nListings --&gt; Storage\n@enduml&quot;,&#xa;  &quot;format&quot;: &quot;svg&quot;&#xa;}" id="8H2fB2tB8kX-gPVpE-DL-1">
          <mxCell style="shape=image;noLabel=1;verticalAlign=top;aspect=fixed;imageAspect=0;image=data:image/svg+xml,PD94bWwgdmVyc2lvbj0iMS4wIiBlbmNvZGluZz0idXMtYXNjaWkiIHN0YW5kYWxvbmU9Im5vIj8+PHN2ZyB4bWxucz0iaHR0cDovL3d3dy53My5vcmcvMjAwMC9zdmciIHhtbG5zOnhsaW5rPSJodHRwOi8vd3d3LnczLm9yZy8xOTk5L3hsaW5rIiBjb250ZW50U3R5bGVUeXBlPSJ0ZXh0L2NzcyIgaGVpZ2h0PSI0NTVweCIgcHJlc2VydmVBc3BlY3RSYXRpbz0ibm9uZSIgc3R5bGU9IndpZHRoOjYwN3B4O2hlaWdodDo0NTVweDtiYWNrZ3JvdW5kOiNGRkZGRkY7IiB2ZXJzaW9uPSIxLjEiIHZpZXdCb3g9IjAgMCA2MDcgNDU1IiB3aWR0aD0iNjA3cHgiIHpvb21BbmRQYW49Im1hZ25pZnkiPjxkZWZzLz48Zz48IS0tY2x1c3RlciBTZXJ2ZXVyIENsb3VkIChBV1MvR0NQL0F6dXJlKS0tPjxnIGlkPSJjbHVzdGVyX1NlcnZldXIgQ2xvdWQgKEFXUy9HQ1AvQXp1cmUpIj48cG9seWdvbiBmaWxsPSJub25lIiBwb2ludHM9IjE2LDEzOSwyNiwxMjksNTkwLDEyOSw1OTAsNDI4LDU4MCw0MzgsMTYsNDM4LDE2LDEzOSIgc3R5bGU9InN0cm9rZTojMTgxODE4O3N0cm9rZS13aWR0aDoxLjA7Ii8+PGxpbmUgc3R5bGU9InN0cm9rZTojMTgxODE4O3N0cm9rZS13aWR0aDoxLjA7IiB4MT0iNTgwIiB4Mj0iNTkwIiB5MT0iMTM5IiB5Mj0iMTI5Ii8+PGxpbmUgc3R5bGU9InN0cm9rZTojMTgxODE4O3N0cm9rZS13aWR0aDoxLjA7IiB4MT0iMTYiIHgyPSI1ODAiIHkxPSIxMzkiIHkyPSIxMzkiLz48bGluZSBzdHlsZT0ic3Ryb2tlOiMxODE4MTg7c3Ryb2tlLXdpZHRoOjEuMDsiIHgxPSI1ODAiIHgyPSI1ODAiIHkxPSIxMzkiIHkyPSI0MzgiLz48dGV4dCBmaWxsPSIjMDAwMDAwIiBmb250LWZhbWlseT0ic2Fucy1zZXJpZiIgZm9udC1zaXplPSIxNCIgZm9udC13ZWlnaHQ9ImJvbGQiIGxlbmd0aEFkanVzdD0ic3BhY2luZyIgdGV4dExlbmd0aD0iMjA1IiB4PSIxOTYuNSIgeT0iMTU1LjIzNDQiPlNlcnZldXIgQ2xvdWQgKEFXUy9HQ1AvQXp1cmUpPC90ZXh0PjwvZz48IS0tY2x1c3RlciBDbGllbnQtLT48ZyBpZD0iY2x1c3Rlcl9DbGllbnQiPjxwb2x5Z29uIGZpbGw9Im5vbmUiIHBvaW50cz0iMTI1LDE2LDEzNSw2LDQ5Niw2LDQ5Niw5NSw0ODYsMTA1LDEyNSwxMDUsMTI1LDE2IiBzdHlsZT0ic3Ryb2tlOiMxODE4MTg7c3Ryb2tlLXdpZHRoOjEuMDsiLz48bGluZSBzdHlsZT0ic3Ryb2tlOiMxODE4MTg7c3Ryb2tlLXdpZHRoOjEuMDsiIHgxPSI0ODYiIHgyPSI0OTYiIHkxPSIxNiIgeTI9IjYiLz48bGluZSBzdHlsZT0ic3Ryb2tlOiMxODE4MTg7c3Ryb2tlLXdpZHRoOjEuMDsiIHgxPSIxMjUiIHgyPSI0ODYiIHkxPSIxNiIgeTI9IjE2Ii8+PGxpbmUgc3R5bGU9InN0cm9rZTojMTgxODE4O3N0cm9rZS13aWR0aDoxLjA7IiB4MT0iNDg2IiB4Mj0iNDg2IiB5MT0iMTYiIHkyPSIxMDUiLz48dGV4dCBmaWxsPSIjMDAwMDAwIiBmb250LWZhbWlseT0ic2Fucy1zZXJpZiIgZm9udC1zaXplPSIxNCIgZm9udC13ZWlnaHQ9ImJvbGQiIGxlbmd0aEFkanVzdD0ic3BhY2luZyIgdGV4dExlbmd0aD0iNDIiIHg9IjI4NS41IiB5PSIzMi4yMzQ0Ij5DbGllbnQ8L3RleHQ+PC9nPjwhLS1lbnRpdHkgQVBJLS0+PGcgaWQ9ImVsZW1fQVBJIj48cmVjdCBmaWxsPSIjRjFGMUYxIiBoZWlnaHQ9IjQ0Ljk4NDQiIHJ4PSIyLjUiIHJ5PSIyLjUiIHN0eWxlPSJzdHJva2U6IzE4MTgxODtzdHJva2Utd2lkdGg6MC41OyIgd2lkdGg9IjExOCIgeD0iMjU4IiB5PSIxNjciLz48cmVjdCBmaWxsPSIjRjFGMUYxIiBoZWlnaHQ9IjEwIiBzdHlsZT0ic3Ryb2tlOiMxODE4MTg7c3Ryb2tlLXdpZHRoOjAuNTsiIHdpZHRoPSIxNSIgeD0iMzU2IiB5PSIxNzIiLz48cmVjdCBmaWxsPSIjRjFGMUYxIiBoZWlnaHQ9IjIiIHN0eWxlPSJzdHJva2U6IzE4MTgxODtzdHJva2Utd2lkdGg6MC41OyIgd2lkdGg9IjQiIHg9IjM1NCIgeT0iMTc0Ii8+PHJlY3QgZmlsbD0iI0YxRjFGMSIgaGVpZ2h0PSIyIiBzdHlsZT0ic3Ryb2tlOiMxODE4MTg7c3Ryb2tlLXdpZHRoOjAuNTsiIHdpZHRoPSI0IiB4PSIzNTQiIHk9IjE3OCIvPjx0ZXh0IGZpbGw9IiMwMDAwMDAiIGZvbnQtZmFtaWx5PSJzYW5zLXNlcmlmIiBmb250LXNpemU9IjE0IiBsZW5ndGhBZGp1c3Q9InNwYWNpbmciIHRleHRMZW5ndGg9Ijc4IiB4PSIyNzMiIHk9IjIwMC4yMzQ0Ij5BUEkgR2F0ZXdheTwvdGV4dD48L2c+PCEtLWVudGl0eSBVc2Vycy0tPjxnIGlkPSJlbGVtX1VzZXJzIj48cmVjdCBmaWxsPSIjRjFGMUYxIiBoZWlnaHQ9IjQ0Ljk4NDQiIHJ4PSIyLjUiIHJ5PSIyLjUiIHN0eWxlPSJzdHJva2U6IzE4MTgxODtzdHJva2Utd2lkdGg6MC41OyIgd2lkdGg9IjE3MyIgeD0iMzIuNSIgeT0iMjcyIi8+PHJlY3QgZmlsbD0iI0YxRjFGMSIgaGVpZ2h0PSIxMCIgc3R5bGU9InN0cm9rZTojMTgxODE4O3N0cm9rZS13aWR0aDowLjU7IiB3aWR0aD0iMTUiIHg9IjE4NS41IiB5PSIyNzciLz48cmVjdCBmaWxsPSIjRjFGMUYxIiBoZWlnaHQ9IjIiIHN0eWxlPSJzdHJva2U6IzE4MTgxODtzdHJva2Utd2lkdGg6MC41OyIgd2lkdGg9IjQiIHg9IjE4My41IiB5PSIyNzkiLz48cmVjdCBmaWxsPSIjRjFGMUYxIiBoZWlnaHQ9IjIiIHN0eWxlPSJzdHJva2U6IzE4MTgxODtzdHJva2Utd2lkdGg6MC41OyIgd2lkdGg9IjQiIHg9IjE4My41IiB5PSIyODMiLz48dGV4dCBmaWxsPSIjMDAwMDAwIiBmb250LWZhbWlseT0ic2Fucy1zZXJpZiIgZm9udC1zaXplPSIxNCIgbGVuZ3RoQWRqdXN0PSJzcGFjaW5nIiB0ZXh0TGVuZ3RoPSIxMzMiIHg9IjQ3LjUiIHk9IjMwNS4yMzQ0Ij5Nb2R1bGUgVXRpbGlzYXRldXJzPC90ZXh0PjwvZz48IS0tZW50aXR5IExpc3RpbmdzLS0+PGcgaWQ9ImVsZW1fTGlzdGluZ3MiPjxyZWN0IGZpbGw9IiNGMUYxRjEiIGhlaWdodD0iNDQuOTg0NCIgcng9IjIuNSIgcnk9IjIuNSIgc3R5bGU9InN0cm9rZTojMTgxODE4O3N0cm9rZS13aWR0aDowLjU7IiB3aWR0aD0iMTQ1IiB4PSI0MjguNSIgeT0iMjcyIi8+PHJlY3QgZmlsbD0iI0YxRjFGMSIgaGVpZ2h0PSIxMCIgc3R5bGU9InN0cm9rZTojMTgxODE4O3N0cm9rZS13aWR0aDowLjU7IiB3aWR0aD0iMTUiIHg9IjU1My41IiB5PSIyNzciLz48cmVjdCBmaWxsPSIjRjFGMUYxIiBoZWlnaHQ9IjIiIHN0eWxlPSJzdHJva2U6IzE4MTgxODtzdHJva2Utd2lkdGg6MC41OyIgd2lkdGg9IjQiIHg9IjU1MS41IiB5PSIyNzkiLz48cmVjdCBmaWxsPSIjRjFGMUYxIiBoZWlnaHQ9IjIiIHN0eWxlPSJzdHJva2U6IzE4MTgxODtzdHJva2Utd2lkdGg6MC41OyIgd2lkdGg9IjQiIHg9IjU1MS41IiB5PSIyODMiLz48dGV4dCBmaWxsPSIjMDAwMDAwIiBmb250LWZhbWlseT0ic2Fucy1zZXJpZiIgZm9udC1zaXplPSIxNCIgbGVuZ3RoQWRqdXN0PSJzcGFjaW5nIiB0ZXh0TGVuZ3RoPSIxMDUiIHg9IjQ0My41IiB5PSIzMDUuMjM0NCI+TW9kdWxlIEFubm9uY2VzPC90ZXh0PjwvZz48IS0tZW50aXR5IFNlYXJjaC0tPjxnIGlkPSJlbGVtX1NlYXJjaCI+PHJlY3QgZmlsbD0iI0YxRjFGMSIgaGVpZ2h0PSI0NC45ODQ0IiByeD0iMi41IiByeT0iMi41IiBzdHlsZT0ic3Ryb2tlOiMxODE4MTg7c3Ryb2tlLXdpZHRoOjAuNTsiIHdpZHRoPSIxNTIiIHg9IjI0MSIgeT0iMjcyIi8+PHJlY3QgZmlsbD0iI0YxRjFGMSIgaGVpZ2h0PSIxMCIgc3R5bGU9InN0cm9rZTojMTgxODE4O3N0cm9rZS13aWR0aDowLjU7IiB3aWR0aD0iMTUiIHg9IjM3MyIgeT0iMjc3Ii8+PHJlY3QgZmlsbD0iI0YxRjFGMSIgaGVpZ2h0PSIyIiBzdHlsZT0ic3Ryb2tlOiMxODE4MTg7c3Ryb2tlLXdpZHRoOjAuNTsiIHdpZHRoPSI0IiB4PSIzNzEiIHk9IjI3OSIvPjxyZWN0IGZpbGw9IiNGMUYxRjEiIGhlaWdodD0iMiIgc3R5bGU9InN0cm9rZTojMTgxODE4O3N0cm9rZS13aWR0aDowLjU7IiB3aWR0aD0iNCIgeD0iMzcxIiB5PSIyODMiLz48dGV4dCBmaWxsPSIjMDAwMDAwIiBmb250LWZhbWlseT0ic2Fucy1zZXJpZiIgZm9udC1zaXplPSIxNCIgbGVuZ3RoQWRqdXN0PSJzcGFjaW5nIiB0ZXh0TGVuZ3RoPSIxMTIiIHg9IjI1NiIgeT0iMzA1LjIzNDQiPk1vZHVsZSBSZWNoZXJjaGU8L3RleHQ+PC9nPjwhLS1lbnRpdHkgREItLT48ZyBpZD0iZWxlbV9EQiI+PHJlY3QgZmlsbD0iI0YxRjFGMSIgaGVpZ2h0PSI0NC45ODQ0IiByeD0iMi41IiByeT0iMi41IiBzdHlsZT0ic3Ryb2tlOiMxODE4MTg7c3Ryb2tlLXdpZHRoOjAuNTsiIHdpZHRoPSIxNDUiIHg9IjIzNS41IiB5PSIzNzciLz48cmVjdCBmaWxsPSIjRjFGMUYxIiBoZWlnaHQ9IjEwIiBzdHlsZT0ic3Ryb2tlOiMxODE4MTg7c3Ryb2tlLXdpZHRoOjAuNTsiIHdpZHRoPSIxNSIgeD0iMzYwLjUiIHk9IjM4MiIvPjxyZWN0IGZpbGw9IiNGMUYxRjEiIGhlaWdodD0iMiIgc3R5bGU9InN0cm9rZTojMTgxODE4O3N0cm9rZS13aWR0aDowLjU7IiB3aWR0aD0iNCIgeD0iMzU4LjUiIHk9IjM4NCIvPjxyZWN0IGZpbGw9IiNGMUYxRjEiIGhlaWdodD0iMiIgc3R5bGU9InN0cm9rZTojMTgxODE4O3N0cm9rZS13aWR0aDowLjU7IiB3aWR0aD0iNCIgeD0iMzU4LjUiIHk9IjM4OCIvPjx0ZXh0IGZpbGw9IiMwMDAwMDAiIGZvbnQtZmFtaWx5PSJzYW5zLXNlcmlmIiBmb250LXNpemU9IjE0IiBsZW5ndGhBZGp1c3Q9InNwYWNpbmciIHRleHRMZW5ndGg9IjEwNSIgeD0iMjUwLjUiIHk9IjQxMC4yMzQ0Ij5CYXNlIGRlIERvbm4mIzIzMztlczwvdGV4dD48L2c+PCEtLWVudGl0eSBTdG9yYWdlLS0+PGcgaWQ9ImVsZW1fU3RvcmFnZSI+PHJlY3QgZmlsbD0iI0YxRjFGMSIgaGVpZ2h0PSI0NC45ODQ0IiByeD0iMi41IiByeT0iMi41IiBzdHlsZT0ic3Ryb2tlOiMxODE4MTg7c3Ryb2tlLXdpZHRoOjAuNTsiIHdpZHRoPSIxNTkiIHg9IjQxNS41IiB5PSIzNzciLz48cmVjdCBmaWxsPSIjRjFGMUYxIiBoZWlnaHQ9IjEwIiBzdHlsZT0ic3Ryb2tlOiMxODE4MTg7c3Ryb2tlLXdpZHRoOjAuNTsiIHdpZHRoPSIxNSIgeD0iNTU0LjUiIHk9IjM4MiIvPjxyZWN0IGZpbGw9IiNGMUYxRjEiIGhlaWdodD0iMiIgc3R5bGU9InN0cm9rZTojMTgxODE4O3N0cm9rZS13aWR0aDowLjU7IiB3aWR0aD0iNCIgeD0iNTUyLjUiIHk9IjM4NCIvPjxyZWN0IGZpbGw9IiNGMUYxRjEiIGhlaWdodD0iMiIgc3R5bGU9InN0cm9rZTojMTgxODE4O3N0cm9rZS13aWR0aDowLjU7IiB3aWR0aD0iNCIgeD0iNTUyLjUiIHk9IjM4OCIvPjx0ZXh0IGZpbGw9IiMwMDAwMDAiIGZvbnQtZmFtaWx5PSJzYW5zLXNlcmlmIiBmb250LXNpemU9IjE0IiBsZW5ndGhBZGp1c3Q9InNwYWNpbmciIHRleHRMZW5ndGg9IjExOSIgeD0iNDMwLjUiIHk9IjQxMC4yMzQ0Ij5TdG9ja2FnZSBGaWNoaWVyczwvdGV4dD48L2c+PCEtLWVudGl0eSBCcm93c2VyLS0+PGcgaWQ9ImVsZW1fQnJvd3NlciI+PHJlY3QgZmlsbD0iI0YxRjFGMSIgaGVpZ2h0PSI0NC45ODQ0IiByeD0iMi41IiByeT0iMi41IiBzdHlsZT0ic3Ryb2tlOiMxODE4MTg7c3Ryb2tlLXdpZHRoOjAuNTsiIHdpZHRoPSIxMzgiIHg9IjM0MiIgeT0iNDQiLz48cmVjdCBmaWxsPSIjRjFGMUYxIiBoZWlnaHQ9IjEwIiBzdHlsZT0ic3Ryb2tlOiMxODE4MTg7c3Ryb2tlLXdpZHRoOjAuNTsiIHdpZHRoPSIxNSIgeD0iNDYwIiB5PSI0OSIvPjxyZWN0IGZpbGw9IiNGMUYxRjEiIGhlaWdodD0iMiIgc3R5bGU9InN0cm9rZTojMTgxODE4O3N0cm9rZS13aWR0aDowLjU7IiB3aWR0aD0iNCIgeD0iNDU4IiB5PSI1MSIvPjxyZWN0IGZpbGw9IiNGMUYxRjEiIGhlaWdodD0iMiIgc3R5bGU9InN0cm9rZTojMTgxODE4O3N0cm9rZS13aWR0aDowLjU7IiB3aWR0aD0iNCIgeD0iNDU4IiB5PSI1NSIvPjx0ZXh0IGZpbGw9IiMwMDAwMDAiIGZvbnQtZmFtaWx5PSJzYW5zLXNlcmlmIiBmb250LXNpemU9IjE0IiBsZW5ndGhBZGp1c3Q9InNwYWNpbmciIHRleHRMZW5ndGg9Ijk4IiB4PSIzNTciIHk9Ijc3LjIzNDQiPk5hdmlnYXRldXIgV2ViPC90ZXh0PjwvZz48IS0tZW50aXR5IE1vYmlsZS0tPjxnIGlkPSJlbGVtX01vYmlsZSI+PHJlY3QgZmlsbD0iI0YxRjFGMSIgaGVpZ2h0PSI0NC45ODQ0IiByeD0iMi41IiByeT0iMi41IiBzdHlsZT0ic3Ryb2tlOiMxODE4MTg7c3Ryb2tlLXdpZHRoOjAuNTsiIHdpZHRoPSIxNjYiIHg9IjE0MSIgeT0iNDQiLz48cmVjdCBmaWxsPSIjRjFGMUYxIiBoZWlnaHQ9IjEwIiBzdHlsZT0ic3Ryb2tlOiMxODE4MTg7c3Ryb2tlLXdpZHRoOjAuNTsiIHdpZHRoPSIxNSIgeD0iMjg3IiB5PSI0OSIvPjxyZWN0IGZpbGw9IiNGMUYxRjEiIGhlaWdodD0iMiIgc3R5bGU9InN0cm9rZTojMTgxODE4O3N0cm9rZS13aWR0aDowLjU7IiB3aWR0aD0iNCIgeD0iMjg1IiB5PSI1MSIvPjxyZWN0IGZpbGw9IiNGMUYxRjEiIGhlaWdodD0iMiIgc3R5bGU9InN0cm9rZTojMTgxODE4O3N0cm9rZS13aWR0aDowLjU7IiB3aWR0aD0iNCIgeD0iMjg1IiB5PSI1NSIvPjx0ZXh0IGZpbGw9IiMwMDAwMDAiIGZvbnQtZmFtaWx5PSJzYW5zLXNlcmlmIiBmb250LXNpemU9IjE0IiBsZW5ndGhBZGp1c3Q9InNwYWNpbmciIHRleHRMZW5ndGg9IjEyNiIgeD0iMTU2IiB5PSI3Ny4yMzQ0Ij5BcHBsaWNhdGlvbiBNb2JpbGU8L3RleHQ+PC9nPjwhLS1saW5rIEJyb3dzZXIgdG8gQVBJLS0+PGcgaWQ9ImxpbmtfQnJvd3Nlcl9BUEkiPjxwYXRoIGQ9Ik0zOTQuMTksODkuMTMgQzM3Ny4xOSwxMTEuMDIgMzU0LjcxOTksMTM5Ljk0MSAzMzcuNjU5OSwxNjEuOTExICIgZmlsbD0ibm9uZSIgaWQ9IkJyb3dzZXItdG8tQVBJIiBzdHlsZT0ic3Ryb2tlOiMxODE4MTg7c3Ryb2tlLXdpZHRoOjEuMDsiLz48cG9seWdvbiBmaWxsPSIjMTgxODE4IiBwb2ludHM9IjMzMy45OCwxNjYuNjUsMzQyLjY1OTIsMTYxLjk5NDcsMzM3LjA0NjYsMTYyLjcwMDgsMzM2LjM0MDUsMTU3LjA4ODIsMzMzLjk4LDE2Ni42NSIgc3R5bGU9InN0cm9rZTojMTgxODE4O3N0cm9rZS13aWR0aDoxLjA7Ii8+PC9nPjwhLS1saW5rIE1vYmlsZSB0byBBUEktLT48ZyBpZD0ibGlua19Nb2JpbGVfQVBJIj48cGF0aCBkPSJNMjQwLjYzLDg5LjEzIEMyNTcuNDUsMTExLjAyIDI3OS42NjQ1LDEzOS45MjIyIDI5Ni41NDQ1LDE2MS44OTIyICIgZmlsbD0ibm9uZSIgaWQ9Ik1vYmlsZS10by1BUEkiIHN0eWxlPSJzdHJva2U6IzE4MTgxODtzdHJva2Utd2lkdGg6MS4wOyIvPjxwb2x5Z29uIGZpbGw9IiMxODE4MTgiIHBvaW50cz0iMzAwLjIsMTY2LjY1LDI5Ny44ODg2LDE1Ny4wNzYyLDI5Ny4xNTM3LDE2Mi42ODUxLDI5MS41NDQ4LDE2MS45NTAzLDMwMC4yLDE2Ni42NSIgc3R5bGU9InN0cm9rZTojMTgxODE4O3N0cm9rZS13aWR0aDoxLjA7Ii8+PC9nPjwhLS1saW5rIEFQSSB0byBVc2Vycy0tPjxnIGlkPSJsaW5rX0FQSV9Vc2VycyI+PHBhdGggZD0iTTI3NS40OSwyMTIuMDkgQzI0MS43LDIyOS42NyAxOTkuNTUyNCwyNTEuNTkwMSAxNjUuNzcyNCwyNjkuMTcwMSAiIGZpbGw9Im5vbmUiIGlkPSJBUEktdG8tVXNlcnMiIHN0eWxlPSJzdHJva2U6IzE4MTgxODtzdHJva2Utd2lkdGg6MS4wOyIvPjxwb2x5Z29uIGZpbGw9IiMxODE4MTgiIHBvaW50cz0iMTYwLjQ1LDI3MS45NCwxNzAuMjgwMiwyNzEuMzMzNCwxNjQuODg1MywyNjkuNjMxNywxNjYuNTg3LDI2NC4yMzY5LDE2MC40NSwyNzEuOTQiIHN0eWxlPSJzdHJva2U6IzE4MTgxODtzdHJva2Utd2lkdGg6MS4wOyIvPjwvZz48IS0tbGluayBBUEkgdG8gTGlzdGluZ3MtLT48ZyBpZD0ibGlua19BUElfTGlzdGluZ3MiPjxwYXRoIGQ9Ik0zNTUuNTcsMjEyLjA5IEMzODYuOTgsMjI5LjY3IDQyNS44NTUxLDI1MS40MjgyIDQ1Ny4yNDUxLDI2OS4wMDgyICIgZmlsbD0ibm9uZSIgaWQ9IkFQSS10by1MaXN0aW5ncyIgc3R5bGU9InN0cm9rZTojMTgxODE4O3N0cm9rZS13aWR0aDoxLjA7Ii8+PHBvbHlnb24gZmlsbD0iIzE4MTgxOCIgcG9pbnRzPSI0NjIuNDgsMjcxLjk0LDQ1Ni41ODIyLDI2NC4wNTIzLDQ1OC4xMTc2LDI2OS40OTY4LDQ1Mi42NzMxLDI3MS4wMzIyLDQ2Mi40OCwyNzEuOTQiIHN0eWxlPSJzdHJva2U6IzE4MTgxODtzdHJva2Utd2lkdGg6MS4wOyIvPjwvZz48IS0tbGluayBBUEkgdG8gU2VhcmNoLS0+PGcgaWQ9ImxpbmtfQVBJX1NlYXJjaCI+PHBhdGggZD0iTTMxNywyMTIuMzQgQzMxNywyMjkuODIgMzE3LDI0OC4yMiAzMTcsMjY1LjY5ICIgZmlsbD0ibm9uZSIgaWQ9IkFQSS10by1TZWFyY2giIHN0eWxlPSJzdHJva2U6IzE4MTgxODtzdHJva2Utd2lkdGg6MS4wOyIvPjxwb2x5Z29uIGZpbGw9IiMxODE4MTgiIHBvaW50cz0iMzE3LDI3MS42OSwzMjEsMjYyLjY5LDMxNywyNjYuNjksMzEzLDI2Mi42OSwzMTcsMjcxLjY5IiBzdHlsZT0ic3Ryb2tlOiMxODE4MTg7c3Ryb2tlLXdpZHRoOjEuMDsiLz48L2c+PCEtLWxpbmsgVXNlcnMgdG8gREItLT48ZyBpZD0ibGlua19Vc2Vyc19EQiI+PHBhdGggZD0iTTE1OC42MiwzMTcuMDkgQzE5MC44OCwzMzQuNjcgMjMwLjkyMjMsMzU2LjQ4NzYgMjYzLjE2MjMsMzc0LjA2NzYgIiBmaWxsPSJub25lIiBpZD0iVXNlcnMtdG8tREIiIHN0eWxlPSJzdHJva2U6IzE4MTgxODtzdHJva2Utd2lkdGg6MS4wOyIvPjxwb2x5Z29uIGZpbGw9IiMxODE4MTgiIHBvaW50cz0iMjY4LjQzLDM3Ni45NCwyNjIuNDQzMywzNjkuMTE5NSwyNjQuMDQwMiwzNzQuNTQ2MywyNTguNjEzNCwzNzYuMTQzMiwyNjguNDMsMzc2Ljk0IiBzdHlsZT0ic3Ryb2tlOiMxODE4MTg7c3Ryb2tlLXdpZHRoOjEuMDsiLz48L2c+PCEtLWxpbmsgTGlzdGluZ3MgdG8gREItLT48ZyBpZD0ibGlua19MaXN0aW5nc19EQiI+PHBhdGggZD0iTTQ2MC41NCwzMTcuMDkgQzQyNy42LDMzNC42NyAzODYuNjIyNiwzNTYuNTMzNiAzNTMuNzAyNiwzNzQuMTEzNiAiIGZpbGw9Im5vbmUiIGlkPSJMaXN0aW5ncy10by1EQiIgc3R5bGU9InN0cm9rZTojMTgxODE4O3N0cm9rZS13aWR0aDoxLjA7Ii8+PHBvbHlnb24gZmlsbD0iIzE4MTgxOCIgcG9pbnRzPSIzNDguNDEsMzc2Ljk0LDM1OC4yMzMxLDM3Ni4yMjg5LDM1Mi44MjA1LDM3NC41ODQ3LDM1NC40NjQ3LDM2OS4xNzIsMzQ4LjQxLDM3Ni45NCIgc3R5bGU9InN0cm9rZTojMTgxODE4O3N0cm9rZS13aWR0aDoxLjA7Ii8+PC9nPjwhLS1saW5rIFNlYXJjaCB0byBEQi0tPjxnIGlkPSJsaW5rX1NlYXJjaF9EQiI+PHBhdGggZD0iTTMxNS4wOSwzMTcuMzQgQzMxMy41NiwzMzQuODIgMzExLjk1MDEsMzUzLjI0MjYgMzEwLjQzMDEsMzcwLjcxMjYgIiBmaWxsPSJub25lIiBpZD0iU2VhcmNoLXRvLURCIiBzdHlsZT0ic3Ryb2tlOiMxODE4MTg7c3Ryb2tlLXdpZHRoOjEuMDsiLz48cG9seWdvbiBmaWxsPSIjMTgxODE4IiBwb2ludHM9IjMwOS45MSwzNzYuNjksMzE0LjY3NTEsMzY4LjA3MDYsMzEwLjM0MzQsMzcxLjcwODgsMzA2LjcwNTIsMzY3LjM3NzIsMzA5LjkxLDM3Ni42OSIgc3R5bGU9InN0cm9rZTojMTgxODE4O3N0cm9rZS13aWR0aDoxLjA7Ii8+PC9nPjwhLS1saW5rIExpc3RpbmdzIHRvIFN0b3JhZ2UtLT48ZyBpZD0ibGlua19MaXN0aW5nc19TdG9yYWdlIj48cGF0aCBkPSJNNDk5LjczLDMxNy4zNCBDNDk4LjcxLDMzNC44MiA0OTcuNjM5NywzNTMuMjMwMiA0OTYuNjE5NywzNzAuNzAwMiAiIGZpbGw9Im5vbmUiIGlkPSJMaXN0aW5ncy10by1TdG9yYWdlIiBzdHlsZT0ic3Ryb2tlOiMxODE4MTg7c3Ryb2tlLXdpZHRoOjEuMDsiLz48cG9seWdvbiBmaWxsPSIjMTgxODE4IiBwb2ludHM9IjQ5Ni4yNywzNzYuNjksNTAwLjc4NzgsMzY3LjkzODQsNDk2LjU2MTQsMzcxLjY5ODUsNDkyLjgwMTQsMzY3LjQ3MjIsNDk2LjI3LDM3Ni42OSIgc3R5bGU9InN0cm9rZTojMTgxODE4O3N0cm9rZS13aWR0aDoxLjA7Ii8+PC9nPjwhLS1TUkM9W1JQMTFRaUNtNDROdEZpTldMUmk4a0s3MVRjV2VEMk5LWEFtTFVOMjZnM0Q2YVhGUXFXRnI3QnJPUFNhRWtDcjJDRkZkSVBoX01IZzRsNFB4bmp2MlBRSGx1QXhPcnlqcmpMcU03eHQ1LW5tLUNtMGpSdnFtaWVVeXMzeDFNZGN5Z0ZTU2I4RkdwdTZEREJyMXM3YW92MEJPTW5WMWRLRmhSZzg1aXgzNlgzc0p5eUpqUlY4THpINWpFMTZqS09MdzNmUkE4R0hOQXM3LSAtSHhWTjlMcGdGUVlKd2Y1VTJIejkxbU4zQWVET2xRTFBIbzNnR201XzV5MkItZkNSSkc2VXBwNGd3TUxJeDN0OXdja0N3SUw5czdPbzg1Q3NaZ0xtb19aQkxXaTdjQUNRTjlqWHdJN0VXS3RUVFR5OWM1QzhMOUgyNnVkUUVlSlN0Q3drbHU1XS0tPjwvZz48L3N2Zz4=;" vertex="1" parent="1">
            <mxGeometry x="110" y="110" width="607" height="455" as="geometry" />
          </mxCell>
        </UserObject>
      </root>
    </mxGraphModel>
  </diagram>
  <diagram id="7y0qguF9G8QwGTtjFV9T" name="use case">
    <mxGraphModel dx="1877" dy="645" grid="1" gridSize="10" guides="1" tooltips="1" connect="1" arrows="1" fold="1" page="1" pageScale="1" pageWidth="827" pageHeight="1169" math="0" shadow="0">
      <root>
        <mxCell id="0" />
        <mxCell id="1" parent="0" />
        <UserObject label="" plantUmlData="{&#xa;  &quot;data&quot;: &quot;@startuml\nactor Utilisateur\nactor Propriétaire\nactor Admin\n\nrectangle \&quot;Backend\&quot; {\n  usecase \&quot;Rechercher des annonces\&quot; as UC1\n  usecase \&quot;Créer une annonce\&quot; as UC2\n  usecase \&quot;Gérer les favoris\&quot; as UC3\n  usecase \&quot;Envoyer un message\&quot; as UC4\n  usecase \&quot;Noter un bien\&quot; as UC5\n  usecase \&quot;Gérer les utilisateurs\&quot; as UC6\n}\n\nUtilisateur --&gt; UC1\nPropriétaire --&gt; UC2\nUtilisateur --&gt; UC3\nUtilisateur --&gt; UC4\nUtilisateur --&gt; UC5\nAdmin --&gt; UC6\n@enduml&quot;,&#xa;  &quot;format&quot;: &quot;svg&quot;&#xa;}" id="hwDdcSWVFxx2gtzrwN_0-1">
          <mxCell style="shape=image;noLabel=1;verticalAlign=top;aspect=fixed;imageAspect=0;image=data:image/svg+xml,PD94bWwgdmVyc2lvbj0iMS4wIiBlbmNvZGluZz0idXMtYXNjaWkiIHN0YW5kYWxvbmU9Im5vIj8+PHN2ZyB4bWxucz0iaHR0cDovL3d3dy53My5vcmcvMjAwMC9zdmciIHhtbG5zOnhsaW5rPSJodHRwOi8vd3d3LnczLm9yZy8xOTk5L3hsaW5rIiBjb250ZW50U3R5bGVUeXBlPSJ0ZXh0L2NzcyIgaGVpZ2h0PSIyMDZweCIgcHJlc2VydmVBc3BlY3RSYXRpbz0ibm9uZSIgc3R5bGU9IndpZHRoOjEyMTVweDtoZWlnaHQ6MjA2cHg7YmFja2dyb3VuZDojRkZGRkZGOyIgdmVyc2lvbj0iMS4xIiB2aWV3Qm94PSIwIDAgMTIxNSAyMDYiIHdpZHRoPSIxMjE1cHgiIHpvb21BbmRQYW49Im1hZ25pZnkiPjxkZWZzLz48Zz48IS0tY2x1c3RlciBCYWNrZW5kLS0+PGcgaWQ9ImNsdXN0ZXJfQmFja2VuZCI+PHJlY3QgZmlsbD0ibm9uZSIgaGVpZ2h0PSI5MyIgcng9IjIuNSIgcnk9IjIuNSIgc3R5bGU9InN0cm9rZTojMTgxODE4O3N0cm9rZS13aWR0aDoxLjA7IiB3aWR0aD0iMTIwMiIgeD0iNyIgeT0iMTA3LjUiLz48dGV4dCBmaWxsPSIjMDAwMDAwIiBmb250LWZhbWlseT0ic2Fucy1zZXJpZiIgZm9udC1zaXplPSIxNCIgZm9udC13ZWlnaHQ9ImJvbGQiIGxlbmd0aEFkanVzdD0ic3BhY2luZyIgdGV4dExlbmd0aD0iNDkiIHg9IjU4My41IiB5PSIxMjIuNzM0NCI+QmFja2VuZDwvdGV4dD48L2c+PGcgaWQ9ImVsZW1fVUMxIj48ZWxsaXBzZSBjeD0iNjc5Ljc2MzMiIGN5PSIxNjIuMzUyNyIgZmlsbD0iI0YxRjFGMSIgcng9Ijk3LjI2MzMiIHJ5PSIyMS44NTI3IiBzdHlsZT0ic3Ryb2tlOiMxODE4MTg7c3Ryb2tlLXdpZHRoOjAuNTsiLz48dGV4dCBmaWxsPSIjMDAwMDAwIiBmb250LWZhbWlseT0ic2Fucy1zZXJpZiIgZm9udC1zaXplPSIxNCIgbGVuZ3RoQWRqdXN0PSJzcGFjaW5nIiB0ZXh0TGVuZ3RoPSIxNjEiIHg9IjU5OS4yNjMzIiB5PSIxNjYuMDk0OCI+UmVjaGVyY2hlciBkZXMgYW5ub25jZXM8L3RleHQ+PC9nPjxnIGlkPSJlbGVtX1VDMiI+PGVsbGlwc2UgY3g9Ijg5MC45NTU4IiBjeT0iMTYyLjU5MTIiIGZpbGw9IiNGMUYxRjEiIHJ4PSI3OC40NTU4IiByeT0iMTguMDkxMiIgc3R5bGU9InN0cm9rZTojMTgxODE4O3N0cm9rZS13aWR0aDowLjU7Ii8+PHRleHQgZmlsbD0iIzAwMDAwMCIgZm9udC1mYW1pbHk9InNhbnMtc2VyaWYiIGZvbnQtc2l6ZT0iMTQiIGxlbmd0aEFkanVzdD0ic3BhY2luZyIgdGV4dExlbmd0aD0iMTE5IiB4PSI4MzEuNDU1OCIgeT0iMTY2LjMzMzMiPkNyJiMyMzM7ZXIgdW5lIGFubm9uY2U8L3RleHQ+PC9nPjxnIGlkPSJlbGVtX1VDMyI+PGVsbGlwc2UgY3g9IjMwMC45NTU4IiBjeT0iMTYyLjU5MTIiIGZpbGw9IiNGMUYxRjEiIHJ4PSI3OC40NTU4IiByeT0iMTguMDkxMiIgc3R5bGU9InN0cm9rZTojMTgxODE4O3N0cm9rZS13aWR0aDowLjU7Ii8+PHRleHQgZmlsbD0iIzAwMDAwMCIgZm9udC1mYW1pbHk9InNhbnMtc2VyaWYiIGZvbnQtc2l6ZT0iMTQiIGxlbmd0aEFkanVzdD0ic3BhY2luZyIgdGV4dExlbmd0aD0iMTE5IiB4PSIyNDEuNDU1OCIgeT0iMTY2LjMzMzMiPkcmIzIzMztyZXIgbGVzIGZhdm9yaXM8L3RleHQ+PC9nPjxnIGlkPSJlbGVtX1VDNCI+PGVsbGlwc2UgY3g9IjEwNC45NTMiIGN5PSIxNjIuMjkwNiIgZmlsbD0iI0YxRjFGMSIgcng9IjgxLjk1MyIgcnk9IjE4Ljc5MDYiIHN0eWxlPSJzdHJva2U6IzE4MTgxODtzdHJva2Utd2lkdGg6MC41OyIvPjx0ZXh0IGZpbGw9IiMwMDAwMDAiIGZvbnQtZmFtaWx5PSJzYW5zLXNlcmlmIiBmb250LXNpemU9IjE0IiBsZW5ndGhBZGp1c3Q9InNwYWNpbmciIHRleHRMZW5ndGg9IjEyNyIgeD0iNDEuNDUzIiB5PSIxNjYuMDMyOCI+RW52b3llciB1biBtZXNzYWdlPC90ZXh0PjwvZz48ZyBpZD0iZWxlbV9VQzUiPjxlbGxpcHNlIGN4PSI0ODEuMTgzNCIgY3k9IjE2Mi43MzY3IiBmaWxsPSIjRjFGMUYxIiByeD0iNjYuNjgzNCIgcnk9IjE1LjczNjciIHN0eWxlPSJzdHJva2U6IzE4MTgxODtzdHJva2Utd2lkdGg6MC41OyIvPjx0ZXh0IGZpbGw9IiMwMDAwMDAiIGZvbnQtZmFtaWx5PSJzYW5zLXNlcmlmIiBmb250LXNpemU9IjE0IiBsZW5ndGhBZGp1c3Q9InNwYWNpbmciIHRleHRMZW5ndGg9IjkxIiB4PSI0MzUuNjgzNCIgeT0iMTY2LjQ3ODkiPk5vdGVyIHVuIGJpZW48L3RleHQ+PC9nPjxnIGlkPSJlbGVtX1VDNiI+PGVsbGlwc2UgY3g9IjEwOTkuMDYyMiIgY3k9IjE2Mi43MTI0IiBmaWxsPSIjRjFGMUYxIiByeD0iOTQuMDYyMiIgcnk9IjIxLjIxMjQiIHN0eWxlPSJzdHJva2U6IzE4MTgxODtzdHJva2Utd2lkdGg6MC41OyIvPjx0ZXh0IGZpbGw9IiMwMDAwMDAiIGZvbnQtZmFtaWx5PSJzYW5zLXNlcmlmIiBmb250LXNpemU9IjE0IiBsZW5ndGhBZGp1c3Q9InNwYWNpbmciIHRleHRMZW5ndGg9IjE1NCIgeD0iMTAyMi4wNjIyIiB5PSIxNjYuNDU0NiI+RyYjMjMzO3JlciBsZXMgdXRpbGlzYXRldXJzPC90ZXh0PjwvZz48IS0tZW50aXR5IFV0aWxpc2F0ZXVyLS0+PGcgaWQ9ImVsZW1fVXRpbGlzYXRldXIiPjxlbGxpcHNlIGN4PSIzOTEiIGN5PSIxNCIgZmlsbD0iI0YxRjFGMSIgcng9IjgiIHJ5PSI4IiBzdHlsZT0ic3Ryb2tlOiMxODE4MTg7c3Ryb2tlLXdpZHRoOjAuNTsiLz48cGF0aCBkPSJNMzkxLDIyIEwzOTEsNDkgTTM3OCwzMCBMNDA0LDMwIE0zOTEsNDkgTDM3OCw2NCBNMzkxLDQ5IEw0MDQsNjQgIiBmaWxsPSJub25lIiBzdHlsZT0ic3Ryb2tlOiMxODE4MTg7c3Ryb2tlLXdpZHRoOjAuNTsiLz48dGV4dCBmaWxsPSIjMDAwMDAwIiBmb250LWZhbWlseT0ic2Fucy1zZXJpZiIgZm9udC1zaXplPSIxNCIgbGVuZ3RoQWRqdXN0PSJzcGFjaW5nIiB0ZXh0TGVuZ3RoPSI3NyIgeD0iMzUyLjUiIHk9Ijc4LjczNDQiPlV0aWxpc2F0ZXVyPC90ZXh0PjwvZz48IS0tZW50aXR5IFByb3ByaT90YWlyZS0tPjxnIGlkPSJlbGVtX1Byb3ByaSYjMjMzO3RhaXJlIj48ZWxsaXBzZSBjeD0iODkxIiBjeT0iMTQiIGZpbGw9IiNGMUYxRjEiIHJ4PSI4IiByeT0iOCIgc3R5bGU9InN0cm9rZTojMTgxODE4O3N0cm9rZS13aWR0aDowLjU7Ii8+PHBhdGggZD0iTTg5MSwyMiBMODkxLDQ5IE04NzgsMzAgTDkwNCwzMCBNODkxLDQ5IEw4NzgsNjQgTTg5MSw0OSBMOTA0LDY0ICIgZmlsbD0ibm9uZSIgc3R5bGU9InN0cm9rZTojMTgxODE4O3N0cm9rZS13aWR0aDowLjU7Ii8+PHRleHQgZmlsbD0iIzAwMDAwMCIgZm9udC1mYW1pbHk9InNhbnMtc2VyaWYiIGZvbnQtc2l6ZT0iMTQiIGxlbmd0aEFkanVzdD0ic3BhY2luZyIgdGV4dExlbmd0aD0iODQiIHg9Ijg0OSIgeT0iNzguNzM0NCI+UHJvcHJpJiMyMzM7dGFpcmU8L3RleHQ+PC9nPjwhLS1lbnRpdHkgQWRtaW4tLT48ZyBpZD0iZWxlbV9BZG1pbiI+PGVsbGlwc2UgY3g9IjEwOTkiIGN5PSIxNCIgZmlsbD0iI0YxRjFGMSIgcng9IjgiIHJ5PSI4IiBzdHlsZT0ic3Ryb2tlOiMxODE4MTg7c3Ryb2tlLXdpZHRoOjAuNTsiLz48cGF0aCBkPSJNMTA5OSwyMiBMMTA5OSw0OSBNMTA4NiwzMCBMMTExMiwzMCBNMTA5OSw0OSBMMTA4Niw2NCBNMTA5OSw0OSBMMTExMiw2NCAiIGZpbGw9Im5vbmUiIHN0eWxlPSJzdHJva2U6IzE4MTgxODtzdHJva2Utd2lkdGg6MC41OyIvPjx0ZXh0IGZpbGw9IiMwMDAwMDAiIGZvbnQtZmFtaWx5PSJzYW5zLXNlcmlmIiBmb250LXNpemU9IjE0IiBsZW5ndGhBZGp1c3Q9InNwYWNpbmciIHRleHRMZW5ndGg9IjM2IiB4PSIxMDgxIiB5PSI3OC43MzQ0Ij5BZG1pbjwvdGV4dD48L2c+PCEtLWxpbmsgVXRpbGlzYXRldXIgdG8gVUMxLS0+PGcgaWQ9ImxpbmtfVXRpbGlzYXRldXJfVUMxIj48cGF0aCBkPSJNNDI5Ljc2LDU0LjEzIEM0NjUuNTIsNjMuOTkgNTE5Ljc2LDgwLjI5IDU2NSw5OS41IEM1OTMuNiwxMTEuNjUgNjE5LjMzOTgsMTI1LjUzOTggNjQxLjkwOTgsMTM4LjYyOTggIiBmaWxsPSJub25lIiBpZD0iVXRpbGlzYXRldXItdG8tVUMxIiBzdHlsZT0ic3Ryb2tlOiMxODE4MTg7c3Ryb2tlLXdpZHRoOjEuMDsiLz48cG9seWdvbiBmaWxsPSIjMTgxODE4IiBwb2ludHM9IjY0Ny4xLDE0MS42NCw2NDEuMzIxNCwxMzMuNjY0NSw2NDIuNzc0OCwxMzkuMTMxNSw2MzcuMzA3OCwxNDAuNTg0OSw2NDcuMSwxNDEuNjQiIHN0eWxlPSJzdHJva2U6IzE4MTgxODtzdHJva2Utd2lkdGg6MS4wOyIvPjwvZz48IS0tbGluayBQcm9wcmk/dGFpcmUgdG8gVUMyLS0+PGcgaWQ9ImxpbmtfUHJvcHJpJiMyMzM7dGFpcmVfVUMyIj48cGF0aCBkPSJNODkxLDgwLjUzIEM4OTEsMTAxLjgyIDg5MSwxMjEuNjcgODkxLDEzOC4zNSAiIGZpbGw9Im5vbmUiIGlkPSJQcm9wcmkmIzIzMzt0YWlyZS10by1VQzIiIHN0eWxlPSJzdHJva2U6IzE4MTgxODtzdHJva2Utd2lkdGg6MS4wOyIvPjxwb2x5Z29uIGZpbGw9IiMxODE4MTgiIHBvaW50cz0iODkxLDE0NC4zNSw4OTUsMTM1LjM1LDg5MSwxMzkuMzUsODg3LDEzNS4zNSw4OTEsMTQ0LjM1IiBzdHlsZT0ic3Ryb2tlOiMxODE4MTg7c3Ryb2tlLXdpZHRoOjEuMDsiLz48L2c+PCEtLWxpbmsgVXRpbGlzYXRldXIgdG8gVUMzLS0+PGcgaWQ9ImxpbmtfVXRpbGlzYXRldXJfVUMzIj48cGF0aCBkPSJNMzYzLjAyLDgwLjUzIEMzNDYuNjEsMTAxLjk2IDMzMC4zMDgzLDEyMy4yMzY2IDMxNy41NDgzLDEzOS44OTY2ICIgZmlsbD0ibm9uZSIgaWQ9IlV0aWxpc2F0ZXVyLXRvLVVDMyIgc3R5bGU9InN0cm9rZTojMTgxODE4O3N0cm9rZS13aWR0aDoxLjA7Ii8+PHBvbHlnb24gZmlsbD0iIzE4MTgxOCIgcG9pbnRzPSIzMTMuOSwxNDQuNjYsMzIyLjU0ODEsMTM5Ljk0NzEsMzE2Ljk0MDMsMTQwLjY5MDUsMzE2LjE5NjksMTM1LjA4MjcsMzEzLjksMTQ0LjY2IiBzdHlsZT0ic3Ryb2tlOiMxODE4MTg7c3Ryb2tlLXdpZHRoOjEuMDsiLz48L2c+PCEtLWxpbmsgVXRpbGlzYXRldXIgdG8gVUM0LS0+PGcgaWQ9ImxpbmtfVXRpbGlzYXRldXJfVUM0Ij48cGF0aCBkPSJNMzUyLjE3LDUyLjQgQzMxMy43OCw2MS40NCAyNTMuODcsNzcuNTMgMjA1LDk5LjUgQzE3Ny42MSwxMTEuODEgMTUzLjYzMTMsMTI3LjAxMiAxMzMuOTgxMywxNDAuNjMyICIgZmlsbD0ibm9uZSIgaWQ9IlV0aWxpc2F0ZXVyLXRvLVVDNCIgc3R5bGU9InN0cm9rZTojMTgxODE4O3N0cm9rZS13aWR0aDoxLjA7Ii8+PHBvbHlnb24gZmlsbD0iIzE4MTgxOCIgcG9pbnRzPSIxMjkuMDUsMTQ0LjA1LDEzOC43MjU1LDE0Mi4yMTA1LDEzMy4xNTk0LDE0MS4yMDE3LDEzNC4xNjgyLDEzNS42MzU1LDEyOS4wNSwxNDQuMDUiIHN0eWxlPSJzdHJva2U6IzE4MTgxODtzdHJva2Utd2lkdGg6MS4wOyIvPjwvZz48IS0tbGluayBVdGlsaXNhdGV1ciB0byBVQzUtLT48ZyBpZD0ibGlua19VdGlsaXNhdGV1cl9VQzUiPjxwYXRoIGQ9Ik00MTguOTgsODAuNTMgQzQzNi4yMiwxMDMuMDMgNDUzLjcxMzksMTI1Ljg2NDkgNDY2LjMyMzksMTQyLjM0NDkgIiBmaWxsPSJub25lIiBpZD0iVXRpbGlzYXRldXItdG8tVUM1IiBzdHlsZT0ic3Ryb2tlOiMxODE4MTg7c3Ryb2tlLXdpZHRoOjEuMDsiLz48cG9seWdvbiBmaWxsPSIjMTgxODE4IiBwb2ludHM9IjQ2OS45NywxNDcuMTEsNDY3LjY3NzYsMTM3LjUzMTYsNDY2LjkzMTYsMTQzLjEzOTEsNDYxLjMyNDEsMTQyLjM5MzEsNDY5Ljk3LDE0Ny4xMSIgc3R5bGU9InN0cm9rZTojMTgxODE4O3N0cm9rZS13aWR0aDoxLjA7Ii8+PC9nPjwhLS1saW5rIEFkbWluIHRvIFVDNi0tPjxnIGlkPSJsaW5rX0FkbWluX1VDNiI+PHBhdGggZD0iTTEwOTksODAuNTMgQzEwOTksMTAwLjYxIDEwOTksMTE4Ljc0IDEwOTksMTM1LjQxICIgZmlsbD0ibm9uZSIgaWQ9IkFkbWluLXRvLVVDNiIgc3R5bGU9InN0cm9rZTojMTgxODE4O3N0cm9rZS13aWR0aDoxLjA7Ii8+PHBvbHlnb24gZmlsbD0iIzE4MTgxOCIgcG9pbnRzPSIxMDk5LDE0MS40MSwxMTAzLDEzMi40MSwxMDk5LDEzNi40MSwxMDk1LDEzMi40MSwxMDk5LDE0MS40MSIgc3R5bGU9InN0cm9rZTojMTgxODE4O3N0cm9rZS13aWR0aDoxLjA7Ii8+PC9nPjwhLS1TUkM9W1RQMUQyaTkwMzRSdFN1aEdsR2pfYnVBQWsxQ0hVZTB1WkpmT0N2QVA1YUd5S0NfSFlyZGg1NFVlWW9wb1U3bVg3c2ZsMUw5bFNrRkdLbzRBTXg4SlVuREpMbndESzYyQng2Zk9BSTdqYUt5dkdSOTRWSTdFNGRXZVdDQUhIalZHRlVhcG9OaVc4bVY4UjVjSkltMFRmQWpYaEF3YWhYZ2pPRWdxTzhyWVFyRE5xYlh2NHRSNHFlaGZpaVFualVSSXRqaW1rOTlwVUVnbzloNnJqVnhaNzBubjRBUF9aWE5WTWhnQkNfTEtBZ2VCMWVEdi16SEZPTzZFVWlubjN2bHFpQWJnd214UngwSzBdLS0+PC9nPjwvc3ZnPg==;" vertex="1" parent="1">
            <mxGeometry x="-200" y="230" width="1215" height="206" as="geometry" />
          </mxCell>
        </UserObject>
      </root>
    </mxGraphModel>
  </diagram>
  <diagram id="swjLAKseaNHhWfthiJuh" name="User">
    <mxGraphModel dx="1877" dy="645" grid="1" gridSize="10" guides="1" tooltips="1" connect="1" arrows="1" fold="1" page="1" pageScale="1" pageWidth="827" pageHeight="1169" math="0" shadow="0">
      <root>
        <mxCell id="0" />
        <mxCell id="1" parent="0" />
        <UserObject label="" plantUmlData="{&#xa;  &quot;data&quot;: &quot;@startuml\nactor Utilisateur\nparticipant \&quot;Frontend\&quot; as FE\nparticipant \&quot;API Gateway\&quot; as API\nparticipant \&quot;Module Utilisateurs\&quot; as Users\nparticipant \&quot;Base de Données\&quot; as DB\nparticipant \&quot;Service d&#39;Email\&quot; as Email\n\nUtilisateur -&gt; FE : Remplit le formulaire d&#39;inscription\nFE -&gt; API : Envoie les données d&#39;inscription\nAPI -&gt; Users : Valide les données\nUsers -&gt; DB : Vérifie si l&#39;email existe déjà\nDB --&gt; Users : Retourne le résultat\nUsers -&gt; DB : Crée un nouvel utilisateur\nDB --&gt; Users : Retourne l&#39;utilisateur créé\nUsers -&gt; Email : Envoie un email de validation\nEmail --&gt; Utilisateur : Reçoit l&#39;email de validation\nUsers --&gt; API : Retourne une réponse de succès\nAPI --&gt; FE : Affiche un message de succès\nFE --&gt; Utilisateur : Affiche un message de succès\n@enduml&quot;,&#xa;  &quot;format&quot;: &quot;svg&quot;&#xa;}" id="FsvDCoTqgSAetUVpVhgL-2">
          <mxCell style="shape=image;noLabel=1;verticalAlign=top;aspect=fixed;imageAspect=0;image=data:image/svg+xml,PD94bWwgdmVyc2lvbj0iMS4wIiBlbmNvZGluZz0idXMtYXNjaWkiIHN0YW5kYWxvbmU9Im5vIj8+PHN2ZyB4bWxucz0iaHR0cDovL3d3dy53My5vcmcvMjAwMC9zdmciIHhtbG5zOnhsaW5rPSJodHRwOi8vd3d3LnczLm9yZy8xOTk5L3hsaW5rIiBjb250ZW50U3R5bGVUeXBlPSJ0ZXh0L2NzcyIgaGVpZ2h0PSI1MTRweCIgcHJlc2VydmVBc3BlY3RSYXRpbz0ibm9uZSIgc3R5bGU9IndpZHRoOjExOTRweDtoZWlnaHQ6NTE0cHg7YmFja2dyb3VuZDojRkZGRkZGOyIgdmVyc2lvbj0iMS4xIiB2aWV3Qm94PSIwIDAgMTE5NCA1MTQiIHdpZHRoPSIxMTk0cHgiIHpvb21BbmRQYW49Im1hZ25pZnkiPjxkZWZzLz48Zz48bGluZSBzdHlsZT0ic3Ryb2tlOiMxODE4MTg7c3Ryb2tlLXdpZHRoOjAuNTtzdHJva2UtZGFzaGFycmF5OjUuMCw1LjA7IiB4MT0iNDYiIHgyPSI0NiIgeTE9Ijc5Ljk4NDQiIHkyPSI0MzQuOTUzMSIvPjxsaW5lIHN0eWxlPSJzdHJva2U6IzE4MTgxODtzdHJva2Utd2lkdGg6MC41O3N0cm9rZS1kYXNoYXJyYXk6NS4wLDUuMDsiIHgxPSIzMDEuNSIgeDI9IjMwMS41IiB5MT0iNzkuOTg0NCIgeTI9IjQzNC45NTMxIi8+PGxpbmUgc3R5bGU9InN0cm9rZTojMTgxODE4O3N0cm9rZS13aWR0aDowLjU7c3Ryb2tlLWRhc2hhcnJheTo1LjAsNS4wOyIgeDE9IjU0Mi41IiB4Mj0iNTQyLjUiIHkxPSI3OS45ODQ0IiB5Mj0iNDM0Ljk1MzEiLz48bGluZSBzdHlsZT0ic3Ryb2tlOiMxODE4MTg7c3Ryb2tlLXdpZHRoOjAuNTtzdHJva2UtZGFzaGFycmF5OjUuMCw1LjA7IiB4MT0iNzc1IiB4Mj0iNzc1IiB5MT0iNzkuOTg0NCIgeTI9IjQzNC45NTMxIi8+PGxpbmUgc3R5bGU9InN0cm9rZTojMTgxODE4O3N0cm9rZS13aWR0aDowLjU7c3Ryb2tlLWRhc2hhcnJheTo1LjAsNS4wOyIgeDE9Ijk5OCIgeDI9Ijk5OCIgeTE9Ijc5Ljk4NDQiIHkyPSI0MzQuOTUzMSIvPjxsaW5lIHN0eWxlPSJzdHJva2U6IzE4MTgxODtzdHJva2Utd2lkdGg6MC41O3N0cm9rZS1kYXNoYXJyYXk6NS4wLDUuMDsiIHgxPSIxMTI4IiB4Mj0iMTEyOCIgeTE9Ijc5Ljk4NDQiIHkyPSI0MzQuOTUzMSIvPjx0ZXh0IGZpbGw9IiMwMDAwMDAiIGZvbnQtZmFtaWx5PSJzYW5zLXNlcmlmIiBmb250LXNpemU9IjE0IiBsZW5ndGhBZGp1c3Q9InNwYWNpbmciIHRleHRMZW5ndGg9Ijc3IiB4PSI1IiB5PSI3OC4yMzQ0Ij5VdGlsaXNhdGV1cjwvdGV4dD48ZWxsaXBzZSBjeD0iNDYuNSIgY3k9IjEzLjUiIGZpbGw9IiNFMkUyRjAiIHJ4PSI4IiByeT0iOCIgc3R5bGU9InN0cm9rZTojMTgxODE4O3N0cm9rZS13aWR0aDowLjU7Ii8+PHBhdGggZD0iTTQ2LjUsMjEuNSBMNDYuNSw0OC41IE0zMy41LDI5LjUgTDU5LjUsMjkuNSBNNDYuNSw0OC41IEwzMy41LDYzLjUgTTQ2LjUsNDguNSBMNTkuNSw2My41ICIgZmlsbD0ibm9uZSIgc3R5bGU9InN0cm9rZTojMTgxODE4O3N0cm9rZS13aWR0aDowLjU7Ii8+PHRleHQgZmlsbD0iIzAwMDAwMCIgZm9udC1mYW1pbHk9InNhbnMtc2VyaWYiIGZvbnQtc2l6ZT0iMTQiIGxlbmd0aEFkanVzdD0ic3BhY2luZyIgdGV4dExlbmd0aD0iNzciIHg9IjUiIHk9IjQ0Ny4xODc1Ij5VdGlsaXNhdGV1cjwvdGV4dD48ZWxsaXBzZSBjeD0iNDYuNSIgY3k9IjQ1Ny40Mzc1IiBmaWxsPSIjRTJFMkYwIiByeD0iOCIgcnk9IjgiIHN0eWxlPSJzdHJva2U6IzE4MTgxODtzdHJva2Utd2lkdGg6MC41OyIvPjxwYXRoIGQ9Ik00Ni41LDQ2NS40Mzc1IEw0Ni41LDQ5Mi40Mzc1IE0zMy41LDQ3My40Mzc1IEw1OS41LDQ3My40Mzc1IE00Ni41LDQ5Mi40Mzc1IEwzMy41LDUwNy40Mzc1IE00Ni41LDQ5Mi40Mzc1IEw1OS41LDUwNy40Mzc1ICIgZmlsbD0ibm9uZSIgc3R5bGU9InN0cm9rZTojMTgxODE4O3N0cm9rZS13aWR0aDowLjU7Ii8+PHJlY3QgZmlsbD0iI0UyRTJGMCIgaGVpZ2h0PSIyOC45ODQ0IiByeD0iMi41IiByeT0iMi41IiBzdHlsZT0ic3Ryb2tlOiMxODE4MTg7c3Ryb2tlLXdpZHRoOjAuNTsiIHdpZHRoPSI3MCIgeD0iMjY2LjUiIHk9IjUwIi8+PHRleHQgZmlsbD0iIzAwMDAwMCIgZm9udC1mYW1pbHk9InNhbnMtc2VyaWYiIGZvbnQtc2l6ZT0iMTQiIGxlbmd0aEFkanVzdD0ic3BhY2luZyIgdGV4dExlbmd0aD0iNTYiIHg9IjI3My41IiB5PSI3MC4yMzQ0Ij5Gcm9udGVuZDwvdGV4dD48cmVjdCBmaWxsPSIjRTJFMkYwIiBoZWlnaHQ9IjI4Ljk4NDQiIHJ4PSIyLjUiIHJ5PSIyLjUiIHN0eWxlPSJzdHJva2U6IzE4MTgxODtzdHJva2Utd2lkdGg6MC41OyIgd2lkdGg9IjcwIiB4PSIyNjYuNSIgeT0iNDMzLjk1MzEiLz48dGV4dCBmaWxsPSIjMDAwMDAwIiBmb250LWZhbWlseT0ic2Fucy1zZXJpZiIgZm9udC1zaXplPSIxNCIgbGVuZ3RoQWRqdXN0PSJzcGFjaW5nIiB0ZXh0TGVuZ3RoPSI1NiIgeD0iMjczLjUiIHk9IjQ1NC4xODc1Ij5Gcm9udGVuZDwvdGV4dD48cmVjdCBmaWxsPSIjRTJFMkYwIiBoZWlnaHQ9IjI4Ljk4NDQiIHJ4PSIyLjUiIHJ5PSIyLjUiIHN0eWxlPSJzdHJva2U6IzE4MTgxODtzdHJva2Utd2lkdGg6MC41OyIgd2lkdGg9IjkyIiB4PSI0OTYuNSIgeT0iNTAiLz48dGV4dCBmaWxsPSIjMDAwMDAwIiBmb250LWZhbWlseT0ic2Fucy1zZXJpZiIgZm9udC1zaXplPSIxNCIgbGVuZ3RoQWRqdXN0PSJzcGFjaW5nIiB0ZXh0TGVuZ3RoPSI3OCIgeD0iNTAzLjUiIHk9IjcwLjIzNDQiPkFQSSBHYXRld2F5PC90ZXh0PjxyZWN0IGZpbGw9IiNFMkUyRjAiIGhlaWdodD0iMjguOTg0NCIgcng9IjIuNSIgcnk9IjIuNSIgc3R5bGU9InN0cm9rZTojMTgxODE4O3N0cm9rZS13aWR0aDowLjU7IiB3aWR0aD0iOTIiIHg9IjQ5Ni41IiB5PSI0MzMuOTUzMSIvPjx0ZXh0IGZpbGw9IiMwMDAwMDAiIGZvbnQtZmFtaWx5PSJzYW5zLXNlcmlmIiBmb250LXNpemU9IjE0IiBsZW5ndGhBZGp1c3Q9InNwYWNpbmciIHRleHRMZW5ndGg9Ijc4IiB4PSI1MDMuNSIgeT0iNDU0LjE4NzUiPkFQSSBHYXRld2F5PC90ZXh0PjxyZWN0IGZpbGw9IiNFMkUyRjAiIGhlaWdodD0iMjguOTg0NCIgcng9IjIuNSIgcnk9IjIuNSIgc3R5bGU9InN0cm9rZTojMTgxODE4O3N0cm9rZS13aWR0aDowLjU7IiB3aWR0aD0iMTQ3IiB4PSI3MDIiIHk9IjUwIi8+PHRleHQgZmlsbD0iIzAwMDAwMCIgZm9udC1mYW1pbHk9InNhbnMtc2VyaWYiIGZvbnQtc2l6ZT0iMTQiIGxlbmd0aEFkanVzdD0ic3BhY2luZyIgdGV4dExlbmd0aD0iMTMzIiB4PSI3MDkiIHk9IjcwLjIzNDQiPk1vZHVsZSBVdGlsaXNhdGV1cnM8L3RleHQ+PHJlY3QgZmlsbD0iI0UyRTJGMCIgaGVpZ2h0PSIyOC45ODQ0IiByeD0iMi41IiByeT0iMi41IiBzdHlsZT0ic3Ryb2tlOiMxODE4MTg7c3Ryb2tlLXdpZHRoOjAuNTsiIHdpZHRoPSIxNDciIHg9IjcwMiIgeT0iNDMzLjk1MzEiLz48dGV4dCBmaWxsPSIjMDAwMDAwIiBmb250LWZhbWlseT0ic2Fucy1zZXJpZiIgZm9udC1zaXplPSIxNCIgbGVuZ3RoQWRqdXN0PSJzcGFjaW5nIiB0ZXh0TGVuZ3RoPSIxMzMiIHg9IjcwOSIgeT0iNDU0LjE4NzUiPk1vZHVsZSBVdGlsaXNhdGV1cnM8L3RleHQ+PHJlY3QgZmlsbD0iI0UyRTJGMCIgaGVpZ2h0PSIyOC45ODQ0IiByeD0iMi41IiByeT0iMi41IiBzdHlsZT0ic3Ryb2tlOiMxODE4MTg7c3Ryb2tlLXdpZHRoOjAuNTsiIHdpZHRoPSIxMTkiIHg9IjkzOSIgeT0iNTAiLz48dGV4dCBmaWxsPSIjMDAwMDAwIiBmb250LWZhbWlseT0ic2Fucy1zZXJpZiIgZm9udC1zaXplPSIxNCIgbGVuZ3RoQWRqdXN0PSJzcGFjaW5nIiB0ZXh0TGVuZ3RoPSIxMDUiIHg9Ijk0NiIgeT0iNzAuMjM0NCI+QmFzZSBkZSBEb25uJiMyMzM7ZXM8L3RleHQ+PHJlY3QgZmlsbD0iI0UyRTJGMCIgaGVpZ2h0PSIyOC45ODQ0IiByeD0iMi41IiByeT0iMi41IiBzdHlsZT0ic3Ryb2tlOiMxODE4MTg7c3Ryb2tlLXdpZHRoOjAuNTsiIHdpZHRoPSIxMTkiIHg9IjkzOSIgeT0iNDMzLjk1MzEiLz48dGV4dCBmaWxsPSIjMDAwMDAwIiBmb250LWZhbWlseT0ic2Fucy1zZXJpZiIgZm9udC1zaXplPSIxNCIgbGVuZ3RoQWRqdXN0PSJzcGFjaW5nIiB0ZXh0TGVuZ3RoPSIxMDUiIHg9Ijk0NiIgeT0iNDU0LjE4NzUiPkJhc2UgZGUgRG9ubiYjMjMzO2VzPC90ZXh0PjxyZWN0IGZpbGw9IiNFMkUyRjAiIGhlaWdodD0iMjguOTg0NCIgcng9IjIuNSIgcnk9IjIuNSIgc3R5bGU9InN0cm9rZTojMTgxODE4O3N0cm9rZS13aWR0aDowLjU7IiB3aWR0aD0iMTIwIiB4PSIxMDY4IiB5PSI1MCIvPjx0ZXh0IGZpbGw9IiMwMDAwMDAiIGZvbnQtZmFtaWx5PSJzYW5zLXNlcmlmIiBmb250LXNpemU9IjE0IiBsZW5ndGhBZGp1c3Q9InNwYWNpbmciIHRleHRMZW5ndGg9IjEwNiIgeD0iMTA3NSIgeT0iNzAuMjM0NCI+U2VydmljZSBkJ0VtYWlsPC90ZXh0PjxyZWN0IGZpbGw9IiNFMkUyRjAiIGhlaWdodD0iMjguOTg0NCIgcng9IjIuNSIgcnk9IjIuNSIgc3R5bGU9InN0cm9rZTojMTgxODE4O3N0cm9rZS13aWR0aDowLjU7IiB3aWR0aD0iMTIwIiB4PSIxMDY4IiB5PSI0MzMuOTUzMSIvPjx0ZXh0IGZpbGw9IiMwMDAwMDAiIGZvbnQtZmFtaWx5PSJzYW5zLXNlcmlmIiBmb250LXNpemU9IjE0IiBsZW5ndGhBZGp1c3Q9InNwYWNpbmciIHRleHRMZW5ndGg9IjEwNiIgeD0iMTA3NSIgeT0iNDU0LjE4NzUiPlNlcnZpY2UgZCdFbWFpbDwvdGV4dD48cG9seWdvbiBmaWxsPSIjMTgxODE4IiBwb2ludHM9IjI4OS41LDEwNS44OTg0LDI5OS41LDEwOS44OTg0LDI4OS41LDExMy44OTg0LDI5My41LDEwOS44OTg0IiBzdHlsZT0ic3Ryb2tlOiMxODE4MTg7c3Ryb2tlLXdpZHRoOjEuMDsiLz48bGluZSBzdHlsZT0ic3Ryb2tlOiMxODE4MTg7c3Ryb2tlLXdpZHRoOjEuMDsiIHgxPSI0Ni41IiB4Mj0iMjk1LjUiIHkxPSIxMDkuODk4NCIgeTI9IjEwOS44OTg0Ii8+PHRleHQgZmlsbD0iIzAwMDAwMCIgZm9udC1mYW1pbHk9InNhbnMtc2VyaWYiIGZvbnQtc2l6ZT0iMTMiIGxlbmd0aEFkanVzdD0ic3BhY2luZyIgdGV4dExlbmd0aD0iMjMxIiB4PSI1My41IiB5PSIxMDYuMjczNCI+UmVtcGxpdCBsZSBmb3JtdWxhaXJlIGQnaW5zY3JpcHRpb248L3RleHQ+PHBvbHlnb24gZmlsbD0iIzE4MTgxOCIgcG9pbnRzPSI1MzAuNSwxMzMuODEyNSw1NDAuNSwxMzcuODEyNSw1MzAuNSwxNDEuODEyNSw1MzQuNSwxMzcuODEyNSIgc3R5bGU9InN0cm9rZTojMTgxODE4O3N0cm9rZS13aWR0aDoxLjA7Ii8+PGxpbmUgc3R5bGU9InN0cm9rZTojMTgxODE4O3N0cm9rZS13aWR0aDoxLjA7IiB4MT0iMzAxLjUiIHgyPSI1MzYuNSIgeTE9IjEzNy44MTI1IiB5Mj0iMTM3LjgxMjUiLz48dGV4dCBmaWxsPSIjMDAwMDAwIiBmb250LWZhbWlseT0ic2Fucy1zZXJpZiIgZm9udC1zaXplPSIxMyIgbGVuZ3RoQWRqdXN0PSJzcGFjaW5nIiB0ZXh0TGVuZ3RoPSIyMTciIHg9IjMwOC41IiB5PSIxMzQuMTg3NSI+RW52b2llIGxlcyBkb25uJiMyMzM7ZXMgZCdpbnNjcmlwdGlvbjwvdGV4dD48cG9seWdvbiBmaWxsPSIjMTgxODE4IiBwb2ludHM9Ijc2My41LDE2MS43MjY2LDc3My41LDE2NS43MjY2LDc2My41LDE2OS43MjY2LDc2Ny41LDE2NS43MjY2IiBzdHlsZT0ic3Ryb2tlOiMxODE4MTg7c3Ryb2tlLXdpZHRoOjEuMDsiLz48bGluZSBzdHlsZT0ic3Ryb2tlOiMxODE4MTg7c3Ryb2tlLXdpZHRoOjEuMDsiIHgxPSI1NDIuNSIgeDI9Ijc2OS41IiB5MT0iMTY1LjcyNjYiIHkyPSIxNjUuNzI2NiIvPjx0ZXh0IGZpbGw9IiMwMDAwMDAiIGZvbnQtZmFtaWx5PSJzYW5zLXNlcmlmIiBmb250LXNpemU9IjEzIiBsZW5ndGhBZGp1c3Q9InNwYWNpbmciIHRleHRMZW5ndGg9IjEyMyIgeD0iNTQ5LjUiIHk9IjE2Mi4xMDE2Ij5WYWxpZGUgbGVzIGRvbm4mIzIzMztlczwvdGV4dD48cG9seWdvbiBmaWxsPSIjMTgxODE4IiBwb2ludHM9Ijk4Ni41LDE4OS42NDA2LDk5Ni41LDE5My42NDA2LDk4Ni41LDE5Ny42NDA2LDk5MC41LDE5My42NDA2IiBzdHlsZT0ic3Ryb2tlOiMxODE4MTg7c3Ryb2tlLXdpZHRoOjEuMDsiLz48bGluZSBzdHlsZT0ic3Ryb2tlOiMxODE4MTg7c3Ryb2tlLXdpZHRoOjEuMDsiIHgxPSI3NzUuNSIgeDI9Ijk5Mi41IiB5MT0iMTkzLjY0MDYiIHkyPSIxOTMuNjQwNiIvPjx0ZXh0IGZpbGw9IiMwMDAwMDAiIGZvbnQtZmFtaWx5PSJzYW5zLXNlcmlmIiBmb250LXNpemU9IjEzIiBsZW5ndGhBZGp1c3Q9InNwYWNpbmciIHRleHRMZW5ndGg9IjE5OSIgeD0iNzgyLjUiIHk9IjE5MC4wMTU2Ij5WJiMyMzM7cmlmaWUgc2kgbCdlbWFpbCBleGlzdGUgZCYjMjMzO2omIzIyNDs8L3RleHQ+PHBvbHlnb24gZmlsbD0iIzE4MTgxOCIgcG9pbnRzPSI3ODYuNSwyMTcuNTU0Nyw3NzYuNSwyMjEuNTU0Nyw3ODYuNSwyMjUuNTU0Nyw3ODIuNSwyMjEuNTU0NyIgc3R5bGU9InN0cm9rZTojMTgxODE4O3N0cm9rZS13aWR0aDoxLjA7Ii8+PGxpbmUgc3R5bGU9InN0cm9rZTojMTgxODE4O3N0cm9rZS13aWR0aDoxLjA7c3Ryb2tlLWRhc2hhcnJheToyLjAsMi4wOyIgeDE9Ijc4MC41IiB4Mj0iOTk3LjUiIHkxPSIyMjEuNTU0NyIgeTI9IjIyMS41NTQ3Ii8+PHRleHQgZmlsbD0iIzAwMDAwMCIgZm9udC1mYW1pbHk9InNhbnMtc2VyaWYiIGZvbnQtc2l6ZT0iMTMiIGxlbmd0aEFkanVzdD0ic3BhY2luZyIgdGV4dExlbmd0aD0iMTM1IiB4PSI3OTIuNSIgeT0iMjE3LjkyOTciPlJldG91cm5lIGxlIHImIzIzMztzdWx0YXQ8L3RleHQ+PHBvbHlnb24gZmlsbD0iIzE4MTgxOCIgcG9pbnRzPSI5ODYuNSwyNDUuNDY4OCw5OTYuNSwyNDkuNDY4OCw5ODYuNSwyNTMuNDY4OCw5OTAuNSwyNDkuNDY4OCIgc3R5bGU9InN0cm9rZTojMTgxODE4O3N0cm9rZS13aWR0aDoxLjA7Ii8+PGxpbmUgc3R5bGU9InN0cm9rZTojMTgxODE4O3N0cm9rZS13aWR0aDoxLjA7IiB4MT0iNzc1LjUiIHgyPSI5OTIuNSIgeTE9IjI0OS40Njg4IiB5Mj0iMjQ5LjQ2ODgiLz48dGV4dCBmaWxsPSIjMDAwMDAwIiBmb250LWZhbWlseT0ic2Fucy1zZXJpZiIgZm9udC1zaXplPSIxMyIgbGVuZ3RoQWRqdXN0PSJzcGFjaW5nIiB0ZXh0TGVuZ3RoPSIxNzYiIHg9Ijc4Mi41IiB5PSIyNDUuODQzOCI+Q3ImIzIzMztlIHVuIG5vdXZlbCB1dGlsaXNhdGV1cjwvdGV4dD48cG9seWdvbiBmaWxsPSIjMTgxODE4IiBwb2ludHM9Ijc4Ni41LDI3My4zODI4LDc3Ni41LDI3Ny4zODI4LDc4Ni41LDI4MS4zODI4LDc4Mi41LDI3Ny4zODI4IiBzdHlsZT0ic3Ryb2tlOiMxODE4MTg7c3Ryb2tlLXdpZHRoOjEuMDsiLz48bGluZSBzdHlsZT0ic3Ryb2tlOiMxODE4MTg7c3Ryb2tlLXdpZHRoOjEuMDtzdHJva2UtZGFzaGFycmF5OjIuMCwyLjA7IiB4MT0iNzgwLjUiIHgyPSI5OTcuNSIgeTE9IjI3Ny4zODI4IiB5Mj0iMjc3LjM4MjgiLz48dGV4dCBmaWxsPSIjMDAwMDAwIiBmb250LWZhbWlseT0ic2Fucy1zZXJpZiIgZm9udC1zaXplPSIxMyIgbGVuZ3RoQWRqdXN0PSJzcGFjaW5nIiB0ZXh0TGVuZ3RoPSIxODEiIHg9Ijc5Mi41IiB5PSIyNzMuNzU3OCI+UmV0b3VybmUgbCd1dGlsaXNhdGV1ciBjciYjMjMzOyYjMjMzOzwvdGV4dD48cG9seWdvbiBmaWxsPSIjMTgxODE4IiBwb2ludHM9IjExMTYsMzAxLjI5NjksMTEyNiwzMDUuMjk2OSwxMTE2LDMwOS4yOTY5LDExMjAsMzA1LjI5NjkiIHN0eWxlPSJzdHJva2U6IzE4MTgxODtzdHJva2Utd2lkdGg6MS4wOyIvPjxsaW5lIHN0eWxlPSJzdHJva2U6IzE4MTgxODtzdHJva2Utd2lkdGg6MS4wOyIgeDE9Ijc3NS41IiB4Mj0iMTEyMiIgeTE9IjMwNS4yOTY5IiB5Mj0iMzA1LjI5NjkiLz48dGV4dCBmaWxsPSIjMDAwMDAwIiBmb250LWZhbWlseT0ic2Fucy1zZXJpZiIgZm9udC1zaXplPSIxMyIgbGVuZ3RoQWRqdXN0PSJzcGFjaW5nIiB0ZXh0TGVuZ3RoPSIxOTUiIHg9Ijc4Mi41IiB5PSIzMDEuNjcxOSI+RW52b2llIHVuIGVtYWlsIGRlIHZhbGlkYXRpb248L3RleHQ+PHBvbHlnb24gZmlsbD0iIzE4MTgxOCIgcG9pbnRzPSI1Ny41LDMyOS4yMTA5LDQ3LjUsMzMzLjIxMDksNTcuNSwzMzcuMjEwOSw1My41LDMzMy4yMTA5IiBzdHlsZT0ic3Ryb2tlOiMxODE4MTg7c3Ryb2tlLXdpZHRoOjEuMDsiLz48bGluZSBzdHlsZT0ic3Ryb2tlOiMxODE4MTg7c3Ryb2tlLXdpZHRoOjEuMDtzdHJva2UtZGFzaGFycmF5OjIuMCwyLjA7IiB4MT0iNTEuNSIgeDI9IjExMjciIHkxPSIzMzMuMjEwOSIgeTI9IjMzMy4yMTA5Ii8+PHRleHQgZmlsbD0iIzAwMDAwMCIgZm9udC1mYW1pbHk9InNhbnMtc2VyaWYiIGZvbnQtc2l6ZT0iMTMiIGxlbmd0aEFkanVzdD0ic3BhY2luZyIgdGV4dExlbmd0aD0iMTg1IiB4PSI2My41IiB5PSIzMjkuNTg1OSI+UmUmIzIzMTtvaXQgbCdlbWFpbCBkZSB2YWxpZGF0aW9uPC90ZXh0Pjxwb2x5Z29uIGZpbGw9IiMxODE4MTgiIHBvaW50cz0iNTUzLjUsMzU3LjEyNSw1NDMuNSwzNjEuMTI1LDU1My41LDM2NS4xMjUsNTQ5LjUsMzYxLjEyNSIgc3R5bGU9InN0cm9rZTojMTgxODE4O3N0cm9rZS13aWR0aDoxLjA7Ii8+PGxpbmUgc3R5bGU9InN0cm9rZTojMTgxODE4O3N0cm9rZS13aWR0aDoxLjA7c3Ryb2tlLWRhc2hhcnJheToyLjAsMi4wOyIgeDE9IjU0Ny41IiB4Mj0iNzc0LjUiIHkxPSIzNjEuMTI1IiB5Mj0iMzYxLjEyNSIvPjx0ZXh0IGZpbGw9IiMwMDAwMDAiIGZvbnQtZmFtaWx5PSJzYW5zLXNlcmlmIiBmb250LXNpemU9IjEzIiBsZW5ndGhBZGp1c3Q9InNwYWNpbmciIHRleHRMZW5ndGg9IjIwOSIgeD0iNTU5LjUiIHk9IjM1Ny41Ij5SZXRvdXJuZSB1bmUgciYjMjMzO3BvbnNlIGRlIHN1Y2MmIzIzMjtzPC90ZXh0Pjxwb2x5Z29uIGZpbGw9IiMxODE4MTgiIHBvaW50cz0iMzEyLjUsMzg1LjAzOTEsMzAyLjUsMzg5LjAzOTEsMzEyLjUsMzkzLjAzOTEsMzA4LjUsMzg5LjAzOTEiIHN0eWxlPSJzdHJva2U6IzE4MTgxODtzdHJva2Utd2lkdGg6MS4wOyIvPjxsaW5lIHN0eWxlPSJzdHJva2U6IzE4MTgxODtzdHJva2Utd2lkdGg6MS4wO3N0cm9rZS1kYXNoYXJyYXk6Mi4wLDIuMDsiIHgxPSIzMDYuNSIgeDI9IjU0MS41IiB5MT0iMzg5LjAzOTEiIHkyPSIzODkuMDM5MSIvPjx0ZXh0IGZpbGw9IiMwMDAwMDAiIGZvbnQtZmFtaWx5PSJzYW5zLXNlcmlmIiBmb250LXNpemU9IjEzIiBsZW5ndGhBZGp1c3Q9InNwYWNpbmciIHRleHRMZW5ndGg9IjE5MiIgeD0iMzE4LjUiIHk9IjM4NS40MTQxIj5BZmZpY2hlIHVuIG1lc3NhZ2UgZGUgc3VjYyYjMjMyO3M8L3RleHQ+PHBvbHlnb24gZmlsbD0iIzE4MTgxOCIgcG9pbnRzPSI1Ny41LDQxMi45NTMxLDQ3LjUsNDE2Ljk1MzEsNTcuNSw0MjAuOTUzMSw1My41LDQxNi45NTMxIiBzdHlsZT0ic3Ryb2tlOiMxODE4MTg7c3Ryb2tlLXdpZHRoOjEuMDsiLz48bGluZSBzdHlsZT0ic3Ryb2tlOiMxODE4MTg7c3Ryb2tlLXdpZHRoOjEuMDtzdHJva2UtZGFzaGFycmF5OjIuMCwyLjA7IiB4MT0iNTEuNSIgeDI9IjMwMC41IiB5MT0iNDE2Ljk1MzEiIHkyPSI0MTYuOTUzMSIvPjx0ZXh0IGZpbGw9IiMwMDAwMDAiIGZvbnQtZmFtaWx5PSJzYW5zLXNlcmlmIiBmb250LXNpemU9IjEzIiBsZW5ndGhBZGp1c3Q9InNwYWNpbmciIHRleHRMZW5ndGg9IjE5MiIgeD0iNjMuNSIgeT0iNDEzLjMyODEiPkFmZmljaGUgdW4gbWVzc2FnZSBkZSBzdWNjJiMyMzI7czwvdGV4dD48IS0tU1JDPVtWUDVESmlDbTQ4TnRFU01lY3dud1dJd0dNamVZNWFZZWdFbWpQbUEzNzNsb0p1M1JpOEVTbW5UWng5R3NBVDJUaFZkVWNwU3BHZGZaT1V6OWFIQ1VXb3JRT0pyOVFlTnNDRGpRZXB0Z1FXUjJtTk9wQkl4bFItNjZIUV9ZRlRWdkZtTmtKMUtLWmpyVDFsU0VoUGtZQS00R0FlSXJxSmhzRTczaHJISHdHRGtIUEF4U0Q4OUtQbEFoQTRPek83eDVLTTQxRXNuUUhIdXVHY3JpNHZHV2N5SWFkUkpLVVpBd085M25EQ2EyRGhlcFg4bXhnMHVucGtaNENQeHBpLTFIQUFnY1djQWVDUkhVOUlCc2JjZXNUR0lnbjlHTHk4c1N2bm9uVnVhVjFNRnBhVUtFbEdiTTlyRW1pTlQxVVU3RkpBLXZXMTBxUTFDd0wxMTZyX2xOaFhuSDhEYVh6WVZSbENKSjFqWHdZQ2gzVE1iNmFRU1ZnNm1feWFmRHVnVDlVb3hfS1hzUTdCVHlaMUhxN2g0clVaWXoyckI2QnBTaS1VVTZveGVjLVBtWkRVWVNVOWdXd05nX3Vib0tWMEMwXS0tPjwvZz48L3N2Zz4=;" vertex="1" parent="1">
            <mxGeometry x="-180" y="80" width="1194" height="514" as="geometry" />
          </mxCell>
        </UserObject>
        <UserObject label="" plantUmlData="{&#xa;  &quot;data&quot;: &quot;@startuml\nclass Users {\n  +id: UUID\n  +email: String\n  +password_hash: String\n  +role: String\n  +first_name: String\n  +last_name: String\n  +phone_number: String\n  +profile_picture_url: String\n  +created_at: DateTime\n  +updated_at: DateTime\n  +is_verified: Boolean\n}\n\nclass Tokens {\n  +id: UUID\n  +user_id: UUID\n  +token: String\n  +expires_at: DateTime\n}\n\nclass PasswordResets {\n  +id: UUID\n  +user_id: UUID\n  +token: String\n  +expires_at: DateTime\n}\n\nUsers \&quot;1\&quot; --&gt; \&quot;0..*\&quot; Tokens : Possède\nUsers \&quot;1\&quot; --&gt; \&quot;0..*\&quot; PasswordResets : Possède\n@enduml&quot;,&#xa;  &quot;format&quot;: &quot;svg&quot;&#xa;}" id="FsvDCoTqgSAetUVpVhgL-3">
          <mxCell style="shape=image;noLabel=1;verticalAlign=top;aspect=fixed;imageAspect=0;image=data:image/svg+xml,PD94bWwgdmVyc2lvbj0iMS4wIiBlbmNvZGluZz0idXMtYXNjaWkiIHN0YW5kYWxvbmU9Im5vIj8+PHN2ZyB4bWxucz0iaHR0cDovL3d3dy53My5vcmcvMjAwMC9zdmciIHhtbG5zOnhsaW5rPSJodHRwOi8vd3d3LnczLm9yZy8xOTk5L3hsaW5rIiBjb250ZW50U3R5bGVUeXBlPSJ0ZXh0L2NzcyIgaGVpZ2h0PSI0MDlweCIgcHJlc2VydmVBc3BlY3RSYXRpbz0ibm9uZSIgc3R5bGU9IndpZHRoOjM4M3B4O2hlaWdodDo0MDlweDtiYWNrZ3JvdW5kOiNGRkZGRkY7IiB2ZXJzaW9uPSIxLjEiIHZpZXdCb3g9IjAgMCAzODMgNDA5IiB3aWR0aD0iMzgzcHgiIHpvb21BbmRQYW49Im1hZ25pZnkiPjxkZWZzLz48Zz48IS0tY2xhc3MgVXNlcnMtLT48ZyBpZD0iZWxlbV9Vc2VycyI+PHJlY3QgY29kZUxpbmU9IjEiIGZpbGw9IiNGMUYxRjEiIGhlaWdodD0iMjEyLjgyODEiIGlkPSJVc2VycyIgcng9IjIuNSIgcnk9IjIuNSIgc3R5bGU9InN0cm9rZTojMTgxODE4O3N0cm9rZS13aWR0aDowLjU7IiB3aWR0aD0iMjE1IiB4PSI4NCIgeT0iNyIvPjxlbGxpcHNlIGN4PSIxNjkuNzUiIGN5PSIyMyIgZmlsbD0iI0FERDFCMiIgcng9IjExIiByeT0iMTEiIHN0eWxlPSJzdHJva2U6IzE4MTgxODtzdHJva2Utd2lkdGg6MS4wOyIvPjxwYXRoIGQ9Ik0xNjcuMzc1LDI3LjI1IEwxNjcuMzc1LDI5IEwxNzIuMzEyNSwyOSBMMTcyLjMxMjUsMjcuMjUgTDE2Ny4zNzUsMjcuMjUgWiBNMTY4LjA2MjUsMjcuOTM3NSBRMTY4LjA2MjUsMjcuOTM3NSAxNjguMDYyNSwxOC43NSBMMTY2LjMxMjUsMTguNzUgUTE2Ni4zMTI1LDE4Ljc1IDE2Ni4zMTI1LDI3LjkzNzUgTDE2OC4wNjI1LDI3LjkzNzUgWiBNMTcxLjYyNSwyNy45Mzc1IEwxNzMuMzc1LDI3LjkzNzUgUTE3My4zNzUsMjcuOTM3NSAxNzMuMzc1LDI1LjEyNSBMMTcxLjYyNSwyNS4xMjUgUTE3MS42MjUsMjUuMTI1IDE3MS42MjUsMjcuOTM3NSBaIE0xNzEuNjI1LDE4Ljc1IFExNzEuNjI1LDE4Ljc1IDE3MS42MjUsMjEuNTYyNSBMMTczLjM3NSwyMS41NjI1IFExNzMuMzc1LDIxLjU2MjUgMTczLjM3NSwxOC43NSBMMTcxLjYyNSwxOC43NSBaIE0xNjcuMzc1LDE5LjQzNzUgTDE3Mi4zMTI1LDE5LjQzNzUgTDE3Mi4zMTI1LDE3LjY4NzUgTDE2Ny4zNzUsMTcuNjg3NSBMMTY3LjM3NSwxOS40Mzc1IFogIiBmaWxsPSIjMDAwMDAwIi8+PHRleHQgZmlsbD0iIzAwMDAwMCIgZm9udC1mYW1pbHk9InNhbnMtc2VyaWYiIGZvbnQtc2l6ZT0iMTQiIGxlbmd0aEFkanVzdD0ic3BhY2luZyIgdGV4dExlbmd0aD0iMzUiIHg9IjE5MC4yNSIgeT0iMjguNzQyMiI+VXNlcnM8L3RleHQ+PGxpbmUgc3R5bGU9InN0cm9rZTojMTgxODE4O3N0cm9rZS13aWR0aDowLjU7IiB4MT0iODUiIHgyPSIyOTgiIHkxPSIzOSIgeTI9IjM5Ii8+PGVsbGlwc2UgY3g9Ijk1IiBjeT0iNTEuOTkyMiIgZmlsbD0ibm9uZSIgcng9IjMiIHJ5PSIzIiBzdHlsZT0ic3Ryb2tlOiMwMzgwNDg7c3Ryb2tlLXdpZHRoOjEuMDsiLz48dGV4dCBmaWxsPSIjMDAwMDAwIiBmb250LWZhbWlseT0ic2Fucy1zZXJpZiIgZm9udC1zaXplPSIxNCIgbGVuZ3RoQWRqdXN0PSJzcGFjaW5nIiB0ZXh0TGVuZ3RoPSI1NiIgeD0iMTA0IiB5PSI1Ni4yMzQ0Ij5pZDogVVVJRDwvdGV4dD48ZWxsaXBzZSBjeD0iOTUiIGN5PSI2Ni45NzY2IiBmaWxsPSJub25lIiByeD0iMyIgcnk9IjMiIHN0eWxlPSJzdHJva2U6IzAzODA0ODtzdHJva2Utd2lkdGg6MS4wOyIvPjx0ZXh0IGZpbGw9IiMwMDAwMDAiIGZvbnQtZmFtaWx5PSJzYW5zLXNlcmlmIiBmb250LXNpemU9IjE0IiBsZW5ndGhBZGp1c3Q9InNwYWNpbmciIHRleHRMZW5ndGg9IjkyIiB4PSIxMDQiIHk9IjcxLjIxODgiPmVtYWlsOiBTdHJpbmc8L3RleHQ+PGVsbGlwc2UgY3g9Ijk1IiBjeT0iODEuOTYwOSIgZmlsbD0ibm9uZSIgcng9IjMiIHJ5PSIzIiBzdHlsZT0ic3Ryb2tlOiMwMzgwNDg7c3Ryb2tlLXdpZHRoOjEuMDsiLz48dGV4dCBmaWxsPSIjMDAwMDAwIiBmb250LWZhbWlseT0ic2Fucy1zZXJpZiIgZm9udC1zaXplPSIxNCIgbGVuZ3RoQWRqdXN0PSJzcGFjaW5nIiB0ZXh0TGVuZ3RoPSIxNDgiIHg9IjEwNCIgeT0iODYuMjAzMSI+cGFzc3dvcmRfaGFzaDogU3RyaW5nPC90ZXh0PjxlbGxpcHNlIGN4PSI5NSIgY3k9Ijk2Ljk0NTMiIGZpbGw9Im5vbmUiIHJ4PSIzIiByeT0iMyIgc3R5bGU9InN0cm9rZTojMDM4MDQ4O3N0cm9rZS13aWR0aDoxLjA7Ii8+PHRleHQgZmlsbD0iIzAwMDAwMCIgZm9udC1mYW1pbHk9InNhbnMtc2VyaWYiIGZvbnQtc2l6ZT0iMTQiIGxlbmd0aEFkanVzdD0ic3BhY2luZyIgdGV4dExlbmd0aD0iODQiIHg9IjEwNCIgeT0iMTAxLjE4NzUiPnJvbGU6IFN0cmluZzwvdGV4dD48ZWxsaXBzZSBjeD0iOTUiIGN5PSIxMTEuOTI5NyIgZmlsbD0ibm9uZSIgcng9IjMiIHJ5PSIzIiBzdHlsZT0ic3Ryb2tlOiMwMzgwNDg7c3Ryb2tlLXdpZHRoOjEuMDsiLz48dGV4dCBmaWxsPSIjMDAwMDAwIiBmb250LWZhbWlseT0ic2Fucy1zZXJpZiIgZm9udC1zaXplPSIxNCIgbGVuZ3RoQWRqdXN0PSJzcGFjaW5nIiB0ZXh0TGVuZ3RoPSIxMjciIHg9IjEwNCIgeT0iMTE2LjE3MTkiPmZpcnN0X25hbWU6IFN0cmluZzwvdGV4dD48ZWxsaXBzZSBjeD0iOTUiIGN5PSIxMjYuOTE0MSIgZmlsbD0ibm9uZSIgcng9IjMiIHJ5PSIzIiBzdHlsZT0ic3Ryb2tlOiMwMzgwNDg7c3Ryb2tlLXdpZHRoOjEuMDsiLz48dGV4dCBmaWxsPSIjMDAwMDAwIiBmb250LWZhbWlseT0ic2Fucy1zZXJpZiIgZm9udC1zaXplPSIxNCIgbGVuZ3RoQWRqdXN0PSJzcGFjaW5nIiB0ZXh0TGVuZ3RoPSIxMjAiIHg9IjEwNCIgeT0iMTMxLjE1NjMiPmxhc3RfbmFtZTogU3RyaW5nPC90ZXh0PjxlbGxpcHNlIGN4PSI5NSIgY3k9IjE0MS44OTg0IiBmaWxsPSJub25lIiByeD0iMyIgcnk9IjMiIHN0eWxlPSJzdHJva2U6IzAzODA0ODtzdHJva2Utd2lkdGg6MS4wOyIvPjx0ZXh0IGZpbGw9IiMwMDAwMDAiIGZvbnQtZmFtaWx5PSJzYW5zLXNlcmlmIiBmb250LXNpemU9IjE0IiBsZW5ndGhBZGp1c3Q9InNwYWNpbmciIHRleHRMZW5ndGg9IjE0MSIgeD0iMTA0IiB5PSIxNDYuMTQwNiI+cGhvbmVfbnVtYmVyOiBTdHJpbmc8L3RleHQ+PGVsbGlwc2UgY3g9Ijk1IiBjeT0iMTU2Ljg4MjgiIGZpbGw9Im5vbmUiIHJ4PSIzIiByeT0iMyIgc3R5bGU9InN0cm9rZTojMDM4MDQ4O3N0cm9rZS13aWR0aDoxLjA7Ii8+PHRleHQgZmlsbD0iIzAwMDAwMCIgZm9udC1mYW1pbHk9InNhbnMtc2VyaWYiIGZvbnQtc2l6ZT0iMTQiIGxlbmd0aEFkanVzdD0ic3BhY2luZyIgdGV4dExlbmd0aD0iMTg5IiB4PSIxMDQiIHk9IjE2MS4xMjUiPnByb2ZpbGVfcGljdHVyZV91cmw6IFN0cmluZzwvdGV4dD48ZWxsaXBzZSBjeD0iOTUiIGN5PSIxNzEuODY3MiIgZmlsbD0ibm9uZSIgcng9IjMiIHJ5PSIzIiBzdHlsZT0ic3Ryb2tlOiMwMzgwNDg7c3Ryb2tlLXdpZHRoOjEuMDsiLz48dGV4dCBmaWxsPSIjMDAwMDAwIiBmb250LWZhbWlseT0ic2Fucy1zZXJpZiIgZm9udC1zaXplPSIxNCIgbGVuZ3RoQWRqdXN0PSJzcGFjaW5nIiB0ZXh0TGVuZ3RoPSIxNDEiIHg9IjEwNCIgeT0iMTc2LjEwOTQiPmNyZWF0ZWRfYXQ6IERhdGVUaW1lPC90ZXh0PjxlbGxpcHNlIGN4PSI5NSIgY3k9IjE4Ni44NTE2IiBmaWxsPSJub25lIiByeD0iMyIgcnk9IjMiIHN0eWxlPSJzdHJva2U6IzAzODA0ODtzdHJva2Utd2lkdGg6MS4wOyIvPjx0ZXh0IGZpbGw9IiMwMDAwMDAiIGZvbnQtZmFtaWx5PSJzYW5zLXNlcmlmIiBmb250LXNpemU9IjE0IiBsZW5ndGhBZGp1c3Q9InNwYWNpbmciIHRleHRMZW5ndGg9IjE0MSIgeD0iMTA0IiB5PSIxOTEuMDkzOCI+dXBkYXRlZF9hdDogRGF0ZVRpbWU8L3RleHQ+PGVsbGlwc2UgY3g9Ijk1IiBjeT0iMjAxLjgzNTkiIGZpbGw9Im5vbmUiIHJ4PSIzIiByeT0iMyIgc3R5bGU9InN0cm9rZTojMDM4MDQ4O3N0cm9rZS13aWR0aDoxLjA7Ii8+PHRleHQgZmlsbD0iIzAwMDAwMCIgZm9udC1mYW1pbHk9InNhbnMtc2VyaWYiIGZvbnQtc2l6ZT0iMTQiIGxlbmd0aEFkanVzdD0ic3BhY2luZyIgdGV4dExlbmd0aD0iMTQwIiB4PSIxMDQiIHk9IjIwNi4wNzgxIj5pc192ZXJpZmllZDogQm9vbGVhbjwvdGV4dD48bGluZSBzdHlsZT0ic3Ryb2tlOiMxODE4MTg7c3Ryb2tlLXdpZHRoOjAuNTsiIHgxPSI4NSIgeDI9IjI5OCIgeTE9IjIxMS44MjgxIiB5Mj0iMjExLjgyODEiLz48L2c+PCEtLWNsYXNzIFRva2Vucy0tPjxnIGlkPSJlbGVtX1Rva2VucyI+PHJlY3QgY29kZUxpbmU9IjE1IiBmaWxsPSIjRjFGMUYxIiBoZWlnaHQ9IjEwNy45Mzc1IiBpZD0iVG9rZW5zIiByeD0iMi41IiByeT0iMi41IiBzdHlsZT0ic3Ryb2tlOiMxODE4MTg7c3Ryb2tlLXdpZHRoOjAuNTsiIHdpZHRoPSIxNjciIHg9IjciIHk9IjI5NSIvPjxlbGxpcHNlIGN4PSI2NS4yNSIgY3k9IjMxMSIgZmlsbD0iI0FERDFCMiIgcng9IjExIiByeT0iMTEiIHN0eWxlPSJzdHJva2U6IzE4MTgxODtzdHJva2Utd2lkdGg6MS4wOyIvPjxwYXRoIGQ9Ik02Mi44NzUsMzE1LjI1IEw2Mi44NzUsMzE3IEw2Ny44MTI1LDMxNyBMNjcuODEyNSwzMTUuMjUgTDYyLjg3NSwzMTUuMjUgWiBNNjMuNTYyNSwzMTUuOTM3NSBRNjMuNTYyNSwzMTUuOTM3NSA2My41NjI1LDMwNi43NSBMNjEuODEyNSwzMDYuNzUgUTYxLjgxMjUsMzA2Ljc1IDYxLjgxMjUsMzE1LjkzNzUgTDYzLjU2MjUsMzE1LjkzNzUgWiBNNjcuMTI1LDMxNS45Mzc1IEw2OC44NzUsMzE1LjkzNzUgUTY4Ljg3NSwzMTUuOTM3NSA2OC44NzUsMzEzLjEyNSBMNjcuMTI1LDMxMy4xMjUgUTY3LjEyNSwzMTMuMTI1IDY3LjEyNSwzMTUuOTM3NSBaIE02Ny4xMjUsMzA2Ljc1IFE2Ny4xMjUsMzA2Ljc1IDY3LjEyNSwzMDkuNTYyNSBMNjguODc1LDMwOS41NjI1IFE2OC44NzUsMzA5LjU2MjUgNjguODc1LDMwNi43NSBMNjcuMTI1LDMwNi43NSBaIE02Mi44NzUsMzA3LjQzNzUgTDY3LjgxMjUsMzA3LjQzNzUgTDY3LjgxMjUsMzA1LjY4NzUgTDYyLjg3NSwzMDUuNjg3NSBMNjIuODc1LDMwNy40Mzc1IFogIiBmaWxsPSIjMDAwMDAwIi8+PHRleHQgZmlsbD0iIzAwMDAwMCIgZm9udC1mYW1pbHk9InNhbnMtc2VyaWYiIGZvbnQtc2l6ZT0iMTQiIGxlbmd0aEFkanVzdD0ic3BhY2luZyIgdGV4dExlbmd0aD0iNDIiIHg9Ijg1Ljc1IiB5PSIzMTYuNzQyMiI+VG9rZW5zPC90ZXh0PjxsaW5lIHN0eWxlPSJzdHJva2U6IzE4MTgxODtzdHJva2Utd2lkdGg6MC41OyIgeDE9IjgiIHgyPSIxNzMiIHkxPSIzMjciIHkyPSIzMjciLz48ZWxsaXBzZSBjeD0iMTgiIGN5PSIzMzkuOTkyMiIgZmlsbD0ibm9uZSIgcng9IjMiIHJ5PSIzIiBzdHlsZT0ic3Ryb2tlOiMwMzgwNDg7c3Ryb2tlLXdpZHRoOjEuMDsiLz48dGV4dCBmaWxsPSIjMDAwMDAwIiBmb250LWZhbWlseT0ic2Fucy1zZXJpZiIgZm9udC1zaXplPSIxNCIgbGVuZ3RoQWRqdXN0PSJzcGFjaW5nIiB0ZXh0TGVuZ3RoPSI1NiIgeD0iMjciIHk9IjM0NC4yMzQ0Ij5pZDogVVVJRDwvdGV4dD48ZWxsaXBzZSBjeD0iMTgiIGN5PSIzNTQuOTc2NiIgZmlsbD0ibm9uZSIgcng9IjMiIHJ5PSIzIiBzdHlsZT0ic3Ryb2tlOiMwMzgwNDg7c3Ryb2tlLXdpZHRoOjEuMDsiLz48dGV4dCBmaWxsPSIjMDAwMDAwIiBmb250LWZhbWlseT0ic2Fucy1zZXJpZiIgZm9udC1zaXplPSIxNCIgbGVuZ3RoQWRqdXN0PSJzcGFjaW5nIiB0ZXh0TGVuZ3RoPSI5MSIgeD0iMjciIHk9IjM1OS4yMTg4Ij51c2VyX2lkOiBVVUlEPC90ZXh0PjxlbGxpcHNlIGN4PSIxOCIgY3k9IjM2OS45NjA5IiBmaWxsPSJub25lIiByeD0iMyIgcnk9IjMiIHN0eWxlPSJzdHJva2U6IzAzODA0ODtzdHJva2Utd2lkdGg6MS4wOyIvPjx0ZXh0IGZpbGw9IiMwMDAwMDAiIGZvbnQtZmFtaWx5PSJzYW5zLXNlcmlmIiBmb250LXNpemU9IjE0IiBsZW5ndGhBZGp1c3Q9InNwYWNpbmciIHRleHRMZW5ndGg9IjkxIiB4PSIyNyIgeT0iMzc0LjIwMzEiPnRva2VuOiBTdHJpbmc8L3RleHQ+PGVsbGlwc2UgY3g9IjE4IiBjeT0iMzg0Ljk0NTMiIGZpbGw9Im5vbmUiIHJ4PSIzIiByeT0iMyIgc3R5bGU9InN0cm9rZTojMDM4MDQ4O3N0cm9rZS13aWR0aDoxLjA7Ii8+PHRleHQgZmlsbD0iIzAwMDAwMCIgZm9udC1mYW1pbHk9InNhbnMtc2VyaWYiIGZvbnQtc2l6ZT0iMTQiIGxlbmd0aEFkanVzdD0ic3BhY2luZyIgdGV4dExlbmd0aD0iMTQxIiB4PSIyNyIgeT0iMzg5LjE4NzUiPmV4cGlyZXNfYXQ6IERhdGVUaW1lPC90ZXh0PjxsaW5lIHN0eWxlPSJzdHJva2U6IzE4MTgxODtzdHJva2Utd2lkdGg6MC41OyIgeDE9IjgiIHgyPSIxNzMiIHkxPSIzOTQuOTM3NSIgeTI9IjM5NC45Mzc1Ii8+PC9nPjwhLS1jbGFzcyBQYXNzd29yZFJlc2V0cy0tPjxnIGlkPSJlbGVtX1Bhc3N3b3JkUmVzZXRzIj48cmVjdCBjb2RlTGluZT0iMjIiIGZpbGw9IiNGMUYxRjEiIGhlaWdodD0iMTA3LjkzNzUiIGlkPSJQYXNzd29yZFJlc2V0cyIgcng9IjIuNSIgcnk9IjIuNSIgc3R5bGU9InN0cm9rZTojMTgxODE4O3N0cm9rZS13aWR0aDowLjU7IiB3aWR0aD0iMTY3IiB4PSIyMDkiIHk9IjI5NSIvPjxlbGxpcHNlIGN4PSIyNDAuMiIgY3k9IjMxMSIgZmlsbD0iI0FERDFCMiIgcng9IjExIiByeT0iMTEiIHN0eWxlPSJzdHJva2U6IzE4MTgxODtzdHJva2Utd2lkdGg6MS4wOyIvPjxwYXRoIGQ9Ik0yMzcuODI1LDMxNS4yNSBMMjM3LjgyNSwzMTcgTDI0Mi43NjI1LDMxNyBMMjQyLjc2MjUsMzE1LjI1IEwyMzcuODI1LDMxNS4yNSBaIE0yMzguNTEyNSwzMTUuOTM3NSBRMjM4LjUxMjUsMzE1LjkzNzUgMjM4LjUxMjUsMzA2Ljc1IEwyMzYuNzYyNSwzMDYuNzUgUTIzNi43NjI1LDMwNi43NSAyMzYuNzYyNSwzMTUuOTM3NSBMMjM4LjUxMjUsMzE1LjkzNzUgWiBNMjQyLjA3NSwzMTUuOTM3NSBMMjQzLjgyNSwzMTUuOTM3NSBRMjQzLjgyNSwzMTUuOTM3NSAyNDMuODI1LDMxMy4xMjUgTDI0Mi4wNzUsMzEzLjEyNSBRMjQyLjA3NSwzMTMuMTI1IDI0Mi4wNzUsMzE1LjkzNzUgWiBNMjQyLjA3NSwzMDYuNzUgUTI0Mi4wNzUsMzA2Ljc1IDI0Mi4wNzUsMzA5LjU2MjUgTDI0My44MjUsMzA5LjU2MjUgUTI0My44MjUsMzA5LjU2MjUgMjQzLjgyNSwzMDYuNzUgTDI0Mi4wNzUsMzA2Ljc1IFogTTIzNy44MjUsMzA3LjQzNzUgTDI0Mi43NjI1LDMwNy40Mzc1IEwyNDIuNzYyNSwzMDUuNjg3NSBMMjM3LjgyNSwzMDUuNjg3NSBMMjM3LjgyNSwzMDcuNDM3NSBaICIgZmlsbD0iIzAwMDAwMCIvPjx0ZXh0IGZpbGw9IiMwMDAwMDAiIGZvbnQtZmFtaWx5PSJzYW5zLXNlcmlmIiBmb250LXNpemU9IjE0IiBsZW5ndGhBZGp1c3Q9InNwYWNpbmciIHRleHRMZW5ndGg9Ijk5IiB4PSIyNTcuOCIgeT0iMzE2Ljc0MjIiPlBhc3N3b3JkUmVzZXRzPC90ZXh0PjxsaW5lIHN0eWxlPSJzdHJva2U6IzE4MTgxODtzdHJva2Utd2lkdGg6MC41OyIgeDE9IjIxMCIgeDI9IjM3NSIgeTE9IjMyNyIgeTI9IjMyNyIvPjxlbGxpcHNlIGN4PSIyMjAiIGN5PSIzMzkuOTkyMiIgZmlsbD0ibm9uZSIgcng9IjMiIHJ5PSIzIiBzdHlsZT0ic3Ryb2tlOiMwMzgwNDg7c3Ryb2tlLXdpZHRoOjEuMDsiLz48dGV4dCBmaWxsPSIjMDAwMDAwIiBmb250LWZhbWlseT0ic2Fucy1zZXJpZiIgZm9udC1zaXplPSIxNCIgbGVuZ3RoQWRqdXN0PSJzcGFjaW5nIiB0ZXh0TGVuZ3RoPSI1NiIgeD0iMjI5IiB5PSIzNDQuMjM0NCI+aWQ6IFVVSUQ8L3RleHQ+PGVsbGlwc2UgY3g9IjIyMCIgY3k9IjM1NC45NzY2IiBmaWxsPSJub25lIiByeD0iMyIgcnk9IjMiIHN0eWxlPSJzdHJva2U6IzAzODA0ODtzdHJva2Utd2lkdGg6MS4wOyIvPjx0ZXh0IGZpbGw9IiMwMDAwMDAiIGZvbnQtZmFtaWx5PSJzYW5zLXNlcmlmIiBmb250LXNpemU9IjE0IiBsZW5ndGhBZGp1c3Q9InNwYWNpbmciIHRleHRMZW5ndGg9IjkxIiB4PSIyMjkiIHk9IjM1OS4yMTg4Ij51c2VyX2lkOiBVVUlEPC90ZXh0PjxlbGxpcHNlIGN4PSIyMjAiIGN5PSIzNjkuOTYwOSIgZmlsbD0ibm9uZSIgcng9IjMiIHJ5PSIzIiBzdHlsZT0ic3Ryb2tlOiMwMzgwNDg7c3Ryb2tlLXdpZHRoOjEuMDsiLz48dGV4dCBmaWxsPSIjMDAwMDAwIiBmb250LWZhbWlseT0ic2Fucy1zZXJpZiIgZm9udC1zaXplPSIxNCIgbGVuZ3RoQWRqdXN0PSJzcGFjaW5nIiB0ZXh0TGVuZ3RoPSI5MSIgeD0iMjI5IiB5PSIzNzQuMjAzMSI+dG9rZW46IFN0cmluZzwvdGV4dD48ZWxsaXBzZSBjeD0iMjIwIiBjeT0iMzg0Ljk0NTMiIGZpbGw9Im5vbmUiIHJ4PSIzIiByeT0iMyIgc3R5bGU9InN0cm9rZTojMDM4MDQ4O3N0cm9rZS13aWR0aDoxLjA7Ii8+PHRleHQgZmlsbD0iIzAwMDAwMCIgZm9udC1mYW1pbHk9InNhbnMtc2VyaWYiIGZvbnQtc2l6ZT0iMTQiIGxlbmd0aEFkanVzdD0ic3BhY2luZyIgdGV4dExlbmd0aD0iMTQxIiB4PSIyMjkiIHk9IjM4OS4xODc1Ij5leHBpcmVzX2F0OiBEYXRlVGltZTwvdGV4dD48bGluZSBzdHlsZT0ic3Ryb2tlOiMxODE4MTg7c3Ryb2tlLXdpZHRoOjAuNTsiIHgxPSIyMTAiIHgyPSIzNzUiIHkxPSIzOTQuOTM3NSIgeTI9IjM5NC45Mzc1Ii8+PC9nPjwhLS1saW5rIFVzZXJzIHRvIFRva2Vucy0tPjxnIGlkPSJsaW5rX1VzZXJzX1Rva2VucyI+PHBhdGggY29kZUxpbmU9IjI5IiBkPSJNMTQ1LjczLDIyMC4zMiBDMTM0LjU2LDI0Ni4xNCAxMjUuNDYxOCwyNjcuMTczIDExNS44ODE4LDI4OS4zMjMgIiBmaWxsPSJub25lIiBpZD0iVXNlcnMtdG8tVG9rZW5zIiBzdHlsZT0ic3Ryb2tlOiMxODE4MTg7c3Ryb2tlLXdpZHRoOjEuMDsiLz48cG9seWdvbiBmaWxsPSIjMTgxODE4IiBwb2ludHM9IjExMy41LDI5NC44MywxMjAuNzQ0LDI4OC4xNTc0LDExNS40ODQ4LDI5MC4yNDA4LDExMy40MDE0LDI4NC45ODE2LDExMy41LDI5NC44MyIgc3R5bGU9InN0cm9rZTojMTgxODE4O3N0cm9rZS13aWR0aDoxLjA7Ii8+PHRleHQgZmlsbD0iIzAwMDAwMCIgZm9udC1mYW1pbHk9InNhbnMtc2VyaWYiIGZvbnQtc2l6ZT0iMTMiIGxlbmd0aEFkanVzdD0ic3BhY2luZyIgdGV4dExlbmd0aD0iNDkiIHg9IjEzMy41IiB5PSIyNjMuMjg5MSI+UG9zcyYjMjMyO2RlPC90ZXh0Pjx0ZXh0IGZpbGw9IiMwMDAwMDAiIGZvbnQtZmFtaWx5PSJzYW5zLXNlcmlmIiBmb250LXNpemU9IjEzIiBsZW5ndGhBZGp1c3Q9InNwYWNpbmciIHRleHRMZW5ndGg9IjciIHg9IjEzNS40MTk3IiB5PSIyNDAuMjU5MiI+MTwvdGV4dD48dGV4dCBmaWxsPSIjMDAwMDAwIiBmb250LWZhbWlseT0ic2Fucy1zZXJpZiIgZm9udC1zaXplPSIxMyIgbGVuZ3RoQWRqdXN0PSJzcGFjaW5nIiB0ZXh0TGVuZ3RoPSIyNSIgeD0iOTAuMDQyMiIgeT0iMjg1LjI3OTkiPjAuLio8L3RleHQ+PC9nPjwhLS1saW5rIFVzZXJzIHRvIFBhc3N3b3JkUmVzZXRzLS0+PGcgaWQ9ImxpbmtfVXNlcnNfUGFzc3dvcmRSZXNldHMiPjxwYXRoIGNvZGVMaW5lPSIzMCIgZD0iTTIzNy4yNywyMjAuMzIgQzI0OC40NCwyNDYuMTQgMjU3LjUzODIsMjY3LjE3MyAyNjcuMTE4MiwyODkuMzIzICIgZmlsbD0ibm9uZSIgaWQ9IlVzZXJzLXRvLVBhc3N3b3JkUmVzZXRzIiBzdHlsZT0ic3Ryb2tlOiMxODE4MTg7c3Ryb2tlLXdpZHRoOjEuMDsiLz48cG9seWdvbiBmaWxsPSIjMTgxODE4IiBwb2ludHM9IjI2OS41LDI5NC44MywyNjkuNTk4NiwyODQuOTgxNiwyNjcuNTE1MiwyOTAuMjQwOCwyNjIuMjU2LDI4OC4xNTc0LDI2OS41LDI5NC44MyIgc3R5bGU9InN0cm9rZTojMTgxODE4O3N0cm9rZS13aWR0aDoxLjA7Ii8+PHRleHQgZmlsbD0iIzAwMDAwMCIgZm9udC1mYW1pbHk9InNhbnMtc2VyaWYiIGZvbnQtc2l6ZT0iMTMiIGxlbmd0aEFkanVzdD0ic3BhY2luZyIgdGV4dExlbmd0aD0iNDkiIHg9IjI1NC41IiB5PSIyNjMuMjg5MSI+UG9zcyYjMjMyO2RlPC90ZXh0Pjx0ZXh0IGZpbGw9IiMwMDAwMDAiIGZvbnQtZmFtaWx5PSJzYW5zLXNlcmlmIiBmb250LXNpemU9IjEzIiBsZW5ndGhBZGp1c3Q9InNwYWNpbmciIHRleHRMZW5ndGg9IjciIHg9IjIzMy4xMSIgeT0iMjQwLjI1OTIiPjE8L3RleHQ+PHRleHQgZmlsbD0iIzAwMDAwMCIgZm9udC1mYW1pbHk9InNhbnMtc2VyaWYiIGZvbnQtc2l6ZT0iMTMiIGxlbmd0aEFkanVzdD0ic3BhY2luZyIgdGV4dExlbmd0aD0iMjUiIHg9IjIzOS4yODU5IiB5PSIyODUuMjc5OSI+MC4uKjwvdGV4dD48L2c+PCEtLVNSQz1baFA0ekppR200OE54ZDZBSzRoR2hRNURHZTZ0ZUxpa2NqYXB5R2FPYVRaSFowbkJZRmpvM1ktN21jcTFBa2w0dEpwRGxkZmxVZ2JBajRBTWRXa1lLTktMclZSTVJRV29NLXVna2V4Ml9kUzJPbkd6MWRFY2lUbEU2WDF4cFR5a1lxTld4QjZaVXpIVUVOVjBtRldxdGEwTU5xNzhGQ3Q4SmF5MGFNTFhmMTNSMjZIaWhza05nbzBDY2RhUXRvYmRERk9IUkhaeG1DY0lfclhWRkhUNnkxdDBDVF8waDJRR1NaOWMzRTBkZEZsMHVpYTJOLXh4ZHhaeTNFcTBIX3ROLW52VUx2b0xqRFhUS2Rjc3Q5LU5ONkhOalctaGhZeUV3eDlVaDdfYVJdLS0+PC9nPjwvc3ZnPg==;" vertex="1" parent="1">
            <mxGeometry x="160" y="910" width="383" height="409" as="geometry" />
          </mxCell>
        </UserObject>
        <UserObject label="" plantUmlData="{&#xa;  &quot;data&quot;: &quot;@startuml\npackage \&quot;Frontend\&quot; {\n  [Application Web] as WebApp\n  [Application Mobile] as MobileApp\n}\n\npackage \&quot;Backend\&quot; {\n  [API Gateway] as API\n  [Service Utilisateurs] as UserService\n  [Base de Données] as DB\n  [Cache] as Cache\n  [Service d&#39;Email] as EmailService\n  [Service de SMS] as SMSService\n}\n\npackage \&quot;Authentification\&quot; {\n  [JWT] as JWT\n  [OAuth2] as OAuth2\n}\n\npackage \&quot;Sécurité\&quot; {\n  [bcrypt] as bcrypt\n  [CORS] as CORS\n  [HTTPS] as HTTPS\n}\n\npackage \&quot;Monitoring\&quot; {\n  [Prometheus] as Prometheus\n  [Grafana] as Grafana\n}\n\npackage \&quot;Logging\&quot; {\n  [ELK Stack] as ELK\n}\n\nWebApp --&gt; API : Requêtes HTTP/HTTPS\nMobileApp --&gt; API : Requêtes HTTP/HTTPS\n\nAPI --&gt; UserService : Appels internes\nUserService --&gt; DB : Lecture/Écriture des données\nUserService --&gt; Cache : Cache des données fréquentes\nUserService --&gt; EmailService : Envoi d&#39;emails\nUserService --&gt; SMSService : Envoi de SMS\n\nUserService --&gt; JWT : Génération/Validation de tokens\nUserService --&gt; OAuth2 : Intégration avec des tiers (Google, Facebook)\n\nUserService --&gt; bcrypt : Hachage des mots de passe\nAPI --&gt; CORS : Gestion des requêtes cross-origin\nAPI --&gt; HTTPS : Chiffrement des communications\n\nAPI --&gt; Prometheus : Métriques de performance\nPrometheus --&gt; Grafana : Visualisation des métriques\nAPI --&gt; ELK : Logs et analyse\n\n@enduml&quot;,&#xa;  &quot;format&quot;: &quot;svg&quot;&#xa;}" id="FsvDCoTqgSAetUVpVhgL-4">
          <mxCell style="shape=image;noLabel=1;verticalAlign=top;aspect=fixed;imageAspect=0;image=data:image/svg+xml,PD94bWwgdmVyc2lvbj0iMS4wIiBlbmNvZGluZz0idXMtYXNjaWkiIHN0YW5kYWxvbmU9Im5vIj8+PHN2ZyB4bWxucz0iaHR0cDovL3d3dy53My5vcmcvMjAwMC9zdmciIHhtbG5zOnhsaW5rPSJodHRwOi8vd3d3LnczLm9yZy8xOTk5L3hsaW5rIiBjb250ZW50U3R5bGVUeXBlPSJ0ZXh0L2NzcyIgaGVpZ2h0PSI1MjhweCIgcHJlc2VydmVBc3BlY3RSYXRpbz0ibm9uZSIgc3R5bGU9IndpZHRoOjIyOTZweDtoZWlnaHQ6NTI4cHg7YmFja2dyb3VuZDojRkZGRkZGOyIgdmVyc2lvbj0iMS4xIiB2aWV3Qm94PSIwIDAgMjI5NiA1MjgiIHdpZHRoPSIyMjk2cHgiIHpvb21BbmRQYW49Im1hZ25pZnkiPjxkZWZzLz48Zz48IS0tY2x1c3RlciBGcm9udGVuZC0tPjxnIGlkPSJjbHVzdGVyX0Zyb250ZW5kIj48cGF0aCBkPSJNNTA1LjUsNiBMNTYyLjUsNiBBMy43NSwzLjc1IDAgMCAxIDU2NSw4LjUgTDU3MiwyNi45ODQ0IEw4NzkuNSwyNi45ODQ0IEEyLjUsMi41IDAgMCAxIDg4MiwyOS40ODQ0IEw4ODIsOTcuNSBBMi41LDIuNSAwIDAgMSA4NzkuNSwxMDAgTDUwNS41LDEwMCBBMi41LDIuNSAwIDAgMSA1MDMsOTcuNSBMNTAzLDguNSBBMi41LDIuNSAwIDAgMSA1MDUuNSw2ICIgZmlsbD0ibm9uZSIgc3R5bGU9InN0cm9rZTojMDAwMDAwO3N0cm9rZS13aWR0aDoxLjU7Ii8+PGxpbmUgc3R5bGU9InN0cm9rZTojMDAwMDAwO3N0cm9rZS13aWR0aDoxLjU7IiB4MT0iNTAzIiB4Mj0iNTcyIiB5MT0iMjYuOTg0NCIgeTI9IjI2Ljk4NDQiLz48dGV4dCBmaWxsPSIjMDAwMDAwIiBmb250LWZhbWlseT0ic2Fucy1zZXJpZiIgZm9udC1zaXplPSIxNCIgZm9udC13ZWlnaHQ9ImJvbGQiIGxlbmd0aEFkanVzdD0ic3BhY2luZyIgdGV4dExlbmd0aD0iNTYiIHg9IjUwNyIgeT0iMjEuMjM0NCI+RnJvbnRlbmQ8L3RleHQ+PC9nPjwhLS1jbHVzdGVyIEJhY2tlbmQtLT48ZyBpZD0iY2x1c3Rlcl9CYWNrZW5kIj48cGF0aCBkPSJNOC41LDE0NyBMNTguNSwxNDcgQTMuNzUsMy43NSAwIDAgMSA2MSwxNDkuNSBMNjgsMTY3Ljk4NDQgTDc2MS41LDE2Ny45ODQ0IEEyLjUsMi41IDAgMCAxIDc2NCwxNzAuNDg0NCBMNzY0LDUxOC41IEEyLjUsMi41IDAgMCAxIDc2MS41LDUyMSBMOC41LDUyMSBBMi41LDIuNSAwIDAgMSA2LDUxOC41IEw2LDE0OS41IEEyLjUsMi41IDAgMCAxIDguNSwxNDcgIiBmaWxsPSJub25lIiBzdHlsZT0ic3Ryb2tlOiMwMDAwMDA7c3Ryb2tlLXdpZHRoOjEuNTsiLz48bGluZSBzdHlsZT0ic3Ryb2tlOiMwMDAwMDA7c3Ryb2tlLXdpZHRoOjEuNTsiIHgxPSI2IiB4Mj0iNjgiIHkxPSIxNjcuOTg0NCIgeTI9IjE2Ny45ODQ0Ii8+PHRleHQgZmlsbD0iIzAwMDAwMCIgZm9udC1mYW1pbHk9InNhbnMtc2VyaWYiIGZvbnQtc2l6ZT0iMTQiIGZvbnQtd2VpZ2h0PSJib2xkIiBsZW5ndGhBZGp1c3Q9InNwYWNpbmciIHRleHRMZW5ndGg9IjQ5IiB4PSIxMCIgeT0iMTYyLjIzNDQiPkJhY2tlbmQ8L3RleHQ+PC9nPjwhLS1jbHVzdGVyIEF1dGhlbnRpZmljYXRpb24tLT48ZyBpZD0iY2x1c3Rlcl9BdXRoZW50aWZpY2F0aW9uIj48cGF0aCBkPSJNODM5LjUsNDI3IEw5NTIuNSw0MjcgQTMuNzUsMy43NSAwIDAgMSA5NTUsNDI5LjUgTDk2Miw0NDcuOTg0NCBMMTA0NS41LDQ0Ny45ODQ0IEEyLjUsMi41IDAgMCAxIDEwNDgsNDUwLjQ4NDQgTDEwNDgsNTE4LjUgQTIuNSwyLjUgMCAwIDEgMTA0NS41LDUyMSBMODM5LjUsNTIxIEEyLjUsMi41IDAgMCAxIDgzNyw1MTguNSBMODM3LDQyOS41IEEyLjUsMi41IDAgMCAxIDgzOS41LDQyNyAiIGZpbGw9Im5vbmUiIHN0eWxlPSJzdHJva2U6IzAwMDAwMDtzdHJva2Utd2lkdGg6MS41OyIvPjxsaW5lIHN0eWxlPSJzdHJva2U6IzAwMDAwMDtzdHJva2Utd2lkdGg6MS41OyIgeDE9IjgzNyIgeDI9Ijk2MiIgeTE9IjQ0Ny45ODQ0IiB5Mj0iNDQ3Ljk4NDQiLz48dGV4dCBmaWxsPSIjMDAwMDAwIiBmb250LWZhbWlseT0ic2Fucy1zZXJpZiIgZm9udC1zaXplPSIxNCIgZm9udC13ZWlnaHQ9ImJvbGQiIGxlbmd0aEFkanVzdD0ic3BhY2luZyIgdGV4dExlbmd0aD0iMTEyIiB4PSI4NDEiIHk9IjQ0Mi4yMzQ0Ij5BdXRoZW50aWZpY2F0aW9uPC90ZXh0PjwvZz48IS0tY2x1c3RlciBTP2N1cml0Py0tPjxnIGlkPSJjbHVzdGVyX1MmIzIzMztjdXJpdCYjMjMzOyI+PHBhdGggZD0iTTEzODcuNSw0MjcgTDE0NDQuNSw0MjcgQTMuNzUsMy43NSAwIDAgMSAxNDQ3LDQyOS41IEwxNDU0LDQ0Ny45ODQ0IEwxNzA5LjUsNDQ3Ljk4NDQgQTIuNSwyLjUgMCAwIDEgMTcxMiw0NTAuNDg0NCBMMTcxMiw1MTguNSBBMi41LDIuNSAwIDAgMSAxNzA5LjUsNTIxIEwxMzg3LjUsNTIxIEEyLjUsMi41IDAgMCAxIDEzODUsNTE4LjUgTDEzODUsNDI5LjUgQTIuNSwyLjUgMCAwIDEgMTM4Ny41LDQyNyAiIGZpbGw9Im5vbmUiIHN0eWxlPSJzdHJva2U6IzAwMDAwMDtzdHJva2Utd2lkdGg6MS41OyIvPjxsaW5lIHN0eWxlPSJzdHJva2U6IzAwMDAwMDtzdHJva2Utd2lkdGg6MS41OyIgeDE9IjEzODUiIHgyPSIxNDU0IiB5MT0iNDQ3Ljk4NDQiIHkyPSI0NDcuOTg0NCIvPjx0ZXh0IGZpbGw9IiMwMDAwMDAiIGZvbnQtZmFtaWx5PSJzYW5zLXNlcmlmIiBmb250LXNpemU9IjE0IiBmb250LXdlaWdodD0iYm9sZCIgbGVuZ3RoQWRqdXN0PSJzcGFjaW5nIiB0ZXh0TGVuZ3RoPSI1NiIgeD0iMTM4OSIgeT0iNDQyLjIzNDQiPlMmIzIzMztjdXJpdCYjMjMzOzwvdGV4dD48L2c+PCEtLWNsdXN0ZXIgTW9uaXRvcmluZy0tPjxnIGlkPSJjbHVzdGVyX01vbml0b3JpbmciPjxwYXRoIGQ9Ik0xODgxLjUsMjg2IEwxOTUyLjUsMjg2IEEzLjc1LDMuNzUgMCAwIDEgMTk1NSwyODguNSBMMTk2MiwzMDYuOTg0NCBMMjEyNi41LDMwNi45ODQ0IEEyLjUsMi41IDAgMCAxIDIxMjksMzA5LjQ4NDQgTDIxMjksNTE4LjUgQTIuNSwyLjUgMCAwIDEgMjEyNi41LDUyMSBMMTg4MS41LDUyMSBBMi41LDIuNSAwIDAgMSAxODc5LDUxOC41IEwxODc5LDI4OC41IEEyLjUsMi41IDAgMCAxIDE4ODEuNSwyODYgIiBmaWxsPSJub25lIiBzdHlsZT0ic3Ryb2tlOiMwMDAwMDA7c3Ryb2tlLXdpZHRoOjEuNTsiLz48bGluZSBzdHlsZT0ic3Ryb2tlOiMwMDAwMDA7c3Ryb2tlLXdpZHRoOjEuNTsiIHgxPSIxODc5IiB4Mj0iMTk2MiIgeTE9IjMwNi45ODQ0IiB5Mj0iMzA2Ljk4NDQiLz48dGV4dCBmaWxsPSIjMDAwMDAwIiBmb250LWZhbWlseT0ic2Fucy1zZXJpZiIgZm9udC1zaXplPSIxNCIgZm9udC13ZWlnaHQ9ImJvbGQiIGxlbmd0aEFkanVzdD0ic3BhY2luZyIgdGV4dExlbmd0aD0iNzAiIHg9IjE4ODMiIHk9IjMwMS4yMzQ0Ij5Nb25pdG9yaW5nPC90ZXh0PjwvZz48IS0tY2x1c3RlciBMb2dnaW5nLS0+PGcgaWQ9ImNsdXN0ZXJfTG9nZ2luZyI+PHBhdGggZD0iTTIxNTUuNSwyODYgTDIyMDUuNSwyODYgQTMuNzUsMy43NSAwIDAgMSAyMjA4LDI4OC41IEwyMjE1LDMwNi45ODQ0IEwyMjg2LjUsMzA2Ljk4NDQgQTIuNSwyLjUgMCAwIDEgMjI4OSwzMDkuNDg0NCBMMjI4OSwzNzcuNSBBMi41LDIuNSAwIDAgMSAyMjg2LjUsMzgwIEwyMTU1LjUsMzgwIEEyLjUsMi41IDAgMCAxIDIxNTMsMzc3LjUgTDIxNTMsMjg4LjUgQTIuNSwyLjUgMCAwIDEgMjE1NS41LDI4NiAiIGZpbGw9Im5vbmUiIHN0eWxlPSJzdHJva2U6IzAwMDAwMDtzdHJva2Utd2lkdGg6MS41OyIvPjxsaW5lIHN0eWxlPSJzdHJva2U6IzAwMDAwMDtzdHJva2Utd2lkdGg6MS41OyIgeDE9IjIxNTMiIHgyPSIyMjE1IiB5MT0iMzA2Ljk4NDQiIHkyPSIzMDYuOTg0NCIvPjx0ZXh0IGZpbGw9IiMwMDAwMDAiIGZvbnQtZmFtaWx5PSJzYW5zLXNlcmlmIiBmb250LXNpemU9IjE0IiBmb250LXdlaWdodD0iYm9sZCIgbGVuZ3RoQWRqdXN0PSJzcGFjaW5nIiB0ZXh0TGVuZ3RoPSI0OSIgeD0iMjE1NyIgeT0iMzAxLjIzNDQiPkxvZ2dpbmc8L3RleHQ+PC9nPjwhLS1lbnRpdHkgV2ViQXBwLS0+PGcgaWQ9ImVsZW1fV2ViQXBwIj48cmVjdCBmaWxsPSIjRjFGMUYxIiBoZWlnaHQ9IjQ0Ljk4NDQiIHJ4PSIyLjUiIHJ5PSIyLjUiIHN0eWxlPSJzdHJva2U6IzE4MTgxODtzdHJva2Utd2lkdGg6MC41OyIgd2lkdGg9IjE0NSIgeD0iNTE5LjUiIHk9IjM5Ii8+PHJlY3QgZmlsbD0iI0YxRjFGMSIgaGVpZ2h0PSIxMCIgc3R5bGU9InN0cm9rZTojMTgxODE4O3N0cm9rZS13aWR0aDowLjU7IiB3aWR0aD0iMTUiIHg9IjY0NC41IiB5PSI0NCIvPjxyZWN0IGZpbGw9IiNGMUYxRjEiIGhlaWdodD0iMiIgc3R5bGU9InN0cm9rZTojMTgxODE4O3N0cm9rZS13aWR0aDowLjU7IiB3aWR0aD0iNCIgeD0iNjQyLjUiIHk9IjQ2Ii8+PHJlY3QgZmlsbD0iI0YxRjFGMSIgaGVpZ2h0PSIyIiBzdHlsZT0ic3Ryb2tlOiMxODE4MTg7c3Ryb2tlLXdpZHRoOjAuNTsiIHdpZHRoPSI0IiB4PSI2NDIuNSIgeT0iNTAiLz48dGV4dCBmaWxsPSIjMDAwMDAwIiBmb250LWZhbWlseT0ic2Fucy1zZXJpZiIgZm9udC1zaXplPSIxNCIgbGVuZ3RoQWRqdXN0PSJzcGFjaW5nIiB0ZXh0TGVuZ3RoPSIxMDUiIHg9IjUzNC41IiB5PSI3Mi4yMzQ0Ij5BcHBsaWNhdGlvbiBXZWI8L3RleHQ+PC9nPjwhLS1lbnRpdHkgTW9iaWxlQXBwLS0+PGcgaWQ9ImVsZW1fTW9iaWxlQXBwIj48cmVjdCBmaWxsPSIjRjFGMUYxIiBoZWlnaHQ9IjQ0Ljk4NDQiIHJ4PSIyLjUiIHJ5PSIyLjUiIHN0eWxlPSJzdHJva2U6IzE4MTgxODtzdHJva2Utd2lkdGg6MC41OyIgd2lkdGg9IjE2NiIgeD0iNzAwIiB5PSIzOSIvPjxyZWN0IGZpbGw9IiNGMUYxRjEiIGhlaWdodD0iMTAiIHN0eWxlPSJzdHJva2U6IzE4MTgxODtzdHJva2Utd2lkdGg6MC41OyIgd2lkdGg9IjE1IiB4PSI4NDYiIHk9IjQ0Ii8+PHJlY3QgZmlsbD0iI0YxRjFGMSIgaGVpZ2h0PSIyIiBzdHlsZT0ic3Ryb2tlOiMxODE4MTg7c3Ryb2tlLXdpZHRoOjAuNTsiIHdpZHRoPSI0IiB4PSI4NDQiIHk9IjQ2Ii8+PHJlY3QgZmlsbD0iI0YxRjFGMSIgaGVpZ2h0PSIyIiBzdHlsZT0ic3Ryb2tlOiMxODE4MTg7c3Ryb2tlLXdpZHRoOjAuNTsiIHdpZHRoPSI0IiB4PSI4NDQiIHk9IjUwIi8+PHRleHQgZmlsbD0iIzAwMDAwMCIgZm9udC1mYW1pbHk9InNhbnMtc2VyaWYiIGZvbnQtc2l6ZT0iMTQiIGxlbmd0aEFkanVzdD0ic3BhY2luZyIgdGV4dExlbmd0aD0iMTI2IiB4PSI3MTUiIHk9IjcyLjIzNDQiPkFwcGxpY2F0aW9uIE1vYmlsZTwvdGV4dD48L2c+PCEtLWVudGl0eSBBUEktLT48ZyBpZD0iZWxlbV9BUEkiPjxyZWN0IGZpbGw9IiNGMUYxRjEiIGhlaWdodD0iNDQuOTg0NCIgcng9IjIuNSIgcnk9IjIuNSIgc3R5bGU9InN0cm9rZTojMTgxODE4O3N0cm9rZS13aWR0aDowLjU7IiB3aWR0aD0iMTE4IiB4PSI2MzAiIHk9IjE4MCIvPjxyZWN0IGZpbGw9IiNGMUYxRjEiIGhlaWdodD0iMTAiIHN0eWxlPSJzdHJva2U6IzE4MTgxODtzdHJva2Utd2lkdGg6MC41OyIgd2lkdGg9IjE1IiB4PSI3MjgiIHk9IjE4NSIvPjxyZWN0IGZpbGw9IiNGMUYxRjEiIGhlaWdodD0iMiIgc3R5bGU9InN0cm9rZTojMTgxODE4O3N0cm9rZS13aWR0aDowLjU7IiB3aWR0aD0iNCIgeD0iNzI2IiB5PSIxODciLz48cmVjdCBmaWxsPSIjRjFGMUYxIiBoZWlnaHQ9IjIiIHN0eWxlPSJzdHJva2U6IzE4MTgxODtzdHJva2Utd2lkdGg6MC41OyIgd2lkdGg9IjQiIHg9IjcyNiIgeT0iMTkxIi8+PHRleHQgZmlsbD0iIzAwMDAwMCIgZm9udC1mYW1pbHk9InNhbnMtc2VyaWYiIGZvbnQtc2l6ZT0iMTQiIGxlbmd0aEFkanVzdD0ic3BhY2luZyIgdGV4dExlbmd0aD0iNzgiIHg9IjY0NSIgeT0iMjEzLjIzNDQiPkFQSSBHYXRld2F5PC90ZXh0PjwvZz48IS0tZW50aXR5IFVzZXJTZXJ2aWNlLS0+PGcgaWQ9ImVsZW1fVXNlclNlcnZpY2UiPjxyZWN0IGZpbGw9IiNGMUYxRjEiIGhlaWdodD0iNDQuOTg0NCIgcng9IjIuNSIgcnk9IjIuNSIgc3R5bGU9InN0cm9rZTojMTgxODE4O3N0cm9rZS13aWR0aDowLjU7IiB3aWR0aD0iMTgwIiB4PSI1NjEiIHk9IjMxOSIvPjxyZWN0IGZpbGw9IiNGMUYxRjEiIGhlaWdodD0iMTAiIHN0eWxlPSJzdHJva2U6IzE4MTgxODtzdHJva2Utd2lkdGg6MC41OyIgd2lkdGg9IjE1IiB4PSI3MjEiIHk9IjMyNCIvPjxyZWN0IGZpbGw9IiNGMUYxRjEiIGhlaWdodD0iMiIgc3R5bGU9InN0cm9rZTojMTgxODE4O3N0cm9rZS13aWR0aDowLjU7IiB3aWR0aD0iNCIgeD0iNzE5IiB5PSIzMjYiLz48cmVjdCBmaWxsPSIjRjFGMUYxIiBoZWlnaHQ9IjIiIHN0eWxlPSJzdHJva2U6IzE4MTgxODtzdHJva2Utd2lkdGg6MC41OyIgd2lkdGg9IjQiIHg9IjcxOSIgeT0iMzMwIi8+PHRleHQgZmlsbD0iIzAwMDAwMCIgZm9udC1mYW1pbHk9InNhbnMtc2VyaWYiIGZvbnQtc2l6ZT0iMTQiIGxlbmd0aEFkanVzdD0ic3BhY2luZyIgdGV4dExlbmd0aD0iMTQwIiB4PSI1NzYiIHk9IjM1Mi4yMzQ0Ij5TZXJ2aWNlIFV0aWxpc2F0ZXVyczwvdGV4dD48L2c+PCEtLWVudGl0eSBEQi0tPjxnIGlkPSJlbGVtX0RCIj48cmVjdCBmaWxsPSIjRjFGMUYxIiBoZWlnaHQ9IjQ0Ljk4NDQiIHJ4PSIyLjUiIHJ5PSIyLjUiIHN0eWxlPSJzdHJva2U6IzE4MTgxODtzdHJva2Utd2lkdGg6MC41OyIgd2lkdGg9IjE0NSIgeD0iMjIuNSIgeT0iNDYwIi8+PHJlY3QgZmlsbD0iI0YxRjFGMSIgaGVpZ2h0PSIxMCIgc3R5bGU9InN0cm9rZTojMTgxODE4O3N0cm9rZS13aWR0aDowLjU7IiB3aWR0aD0iMTUiIHg9IjE0Ny41IiB5PSI0NjUiLz48cmVjdCBmaWxsPSIjRjFGMUYxIiBoZWlnaHQ9IjIiIHN0eWxlPSJzdHJva2U6IzE4MTgxODtzdHJva2Utd2lkdGg6MC41OyIgd2lkdGg9IjQiIHg9IjE0NS41IiB5PSI0NjciLz48cmVjdCBmaWxsPSIjRjFGMUYxIiBoZWlnaHQ9IjIiIHN0eWxlPSJzdHJva2U6IzE4MTgxODtzdHJva2Utd2lkdGg6MC41OyIgd2lkdGg9IjQiIHg9IjE0NS41IiB5PSI0NzEiLz48dGV4dCBmaWxsPSIjMDAwMDAwIiBmb250LWZhbWlseT0ic2Fucy1zZXJpZiIgZm9udC1zaXplPSIxNCIgbGVuZ3RoQWRqdXN0PSJzcGFjaW5nIiB0ZXh0TGVuZ3RoPSIxMDUiIHg9IjM3LjUiIHk9IjQ5My4yMzQ0Ij5CYXNlIGRlIERvbm4mIzIzMztlczwvdGV4dD48L2c+PCEtLWVudGl0eSBDYWNoZS0tPjxnIGlkPSJlbGVtX0NhY2hlIj48cmVjdCBmaWxsPSIjRjFGMUYxIiBoZWlnaHQ9IjQ0Ljk4NDQiIHJ4PSIyLjUiIHJ5PSIyLjUiIHN0eWxlPSJzdHJva2U6IzE4MTgxODtzdHJva2Utd2lkdGg6MC41OyIgd2lkdGg9Ijc1IiB4PSIyNTQuNSIgeT0iNDYwIi8+PHJlY3QgZmlsbD0iI0YxRjFGMSIgaGVpZ2h0PSIxMCIgc3R5bGU9InN0cm9rZTojMTgxODE4O3N0cm9rZS13aWR0aDowLjU7IiB3aWR0aD0iMTUiIHg9IjMwOS41IiB5PSI0NjUiLz48cmVjdCBmaWxsPSIjRjFGMUYxIiBoZWlnaHQ9IjIiIHN0eWxlPSJzdHJva2U6IzE4MTgxODtzdHJva2Utd2lkdGg6MC41OyIgd2lkdGg9IjQiIHg9IjMwNy41IiB5PSI0NjciLz48cmVjdCBmaWxsPSIjRjFGMUYxIiBoZWlnaHQ9IjIiIHN0eWxlPSJzdHJva2U6IzE4MTgxODtzdHJva2Utd2lkdGg6MC41OyIgd2lkdGg9IjQiIHg9IjMwNy41IiB5PSI0NzEiLz48dGV4dCBmaWxsPSIjMDAwMDAwIiBmb250LWZhbWlseT0ic2Fucy1zZXJpZiIgZm9udC1zaXplPSIxNCIgbGVuZ3RoQWRqdXN0PSJzcGFjaW5nIiB0ZXh0TGVuZ3RoPSIzNSIgeD0iMjY5LjUiIHk9IjQ5My4yMzQ0Ij5DYWNoZTwvdGV4dD48L2c+PCEtLWVudGl0eSBFbWFpbFNlcnZpY2UtLT48ZyBpZD0iZWxlbV9FbWFpbFNlcnZpY2UiPjxyZWN0IGZpbGw9IiNGMUYxRjEiIGhlaWdodD0iNDQuOTg0NCIgcng9IjIuNSIgcnk9IjIuNSIgc3R5bGU9InN0cm9rZTojMTgxODE4O3N0cm9rZS13aWR0aDowLjU7IiB3aWR0aD0iMTQ2IiB4PSI0MjEiIHk9IjQ2MCIvPjxyZWN0IGZpbGw9IiNGMUYxRjEiIGhlaWdodD0iMTAiIHN0eWxlPSJzdHJva2U6IzE4MTgxODtzdHJva2Utd2lkdGg6MC41OyIgd2lkdGg9IjE1IiB4PSI1NDciIHk9IjQ2NSIvPjxyZWN0IGZpbGw9IiNGMUYxRjEiIGhlaWdodD0iMiIgc3R5bGU9InN0cm9rZTojMTgxODE4O3N0cm9rZS13aWR0aDowLjU7IiB3aWR0aD0iNCIgeD0iNTQ1IiB5PSI0NjciLz48cmVjdCBmaWxsPSIjRjFGMUYxIiBoZWlnaHQ9IjIiIHN0eWxlPSJzdHJva2U6IzE4MTgxODtzdHJva2Utd2lkdGg6MC41OyIgd2lkdGg9IjQiIHg9IjU0NSIgeT0iNDcxIi8+PHRleHQgZmlsbD0iIzAwMDAwMCIgZm9udC1mYW1pbHk9InNhbnMtc2VyaWYiIGZvbnQtc2l6ZT0iMTQiIGxlbmd0aEFkanVzdD0ic3BhY2luZyIgdGV4dExlbmd0aD0iMTA2IiB4PSI0MzYiIHk9IjQ5My4yMzQ0Ij5TZXJ2aWNlIGQnRW1haWw8L3RleHQ+PC9nPjwhLS1lbnRpdHkgU01TU2VydmljZS0tPjxnIGlkPSJlbGVtX1NNU1NlcnZpY2UiPjxyZWN0IGZpbGw9IiNGMUYxRjEiIGhlaWdodD0iNDQuOTg0NCIgcng9IjIuNSIgcnk9IjIuNSIgc3R5bGU9InN0cm9rZTojMTgxODE4O3N0cm9rZS13aWR0aDowLjU7IiB3aWR0aD0iMTM4IiB4PSI2MDIiIHk9IjQ2MCIvPjxyZWN0IGZpbGw9IiNGMUYxRjEiIGhlaWdodD0iMTAiIHN0eWxlPSJzdHJva2U6IzE4MTgxODtzdHJva2Utd2lkdGg6MC41OyIgd2lkdGg9IjE1IiB4PSI3MjAiIHk9IjQ2NSIvPjxyZWN0IGZpbGw9IiNGMUYxRjEiIGhlaWdodD0iMiIgc3R5bGU9InN0cm9rZTojMTgxODE4O3N0cm9rZS13aWR0aDowLjU7IiB3aWR0aD0iNCIgeD0iNzE4IiB5PSI0NjciLz48cmVjdCBmaWxsPSIjRjFGMUYxIiBoZWlnaHQ9IjIiIHN0eWxlPSJzdHJva2U6IzE4MTgxODtzdHJva2Utd2lkdGg6MC41OyIgd2lkdGg9IjQiIHg9IjcxOCIgeT0iNDcxIi8+PHRleHQgZmlsbD0iIzAwMDAwMCIgZm9udC1mYW1pbHk9InNhbnMtc2VyaWYiIGZvbnQtc2l6ZT0iMTQiIGxlbmd0aEFkanVzdD0ic3BhY2luZyIgdGV4dExlbmd0aD0iOTgiIHg9IjYxNyIgeT0iNDkzLjIzNDQiPlNlcnZpY2UgZGUgU01TPC90ZXh0PjwvZz48IS0tZW50aXR5IEpXVC0tPjxnIGlkPSJlbGVtX0pXVCI+PHJlY3QgZmlsbD0iI0YxRjFGMSIgaGVpZ2h0PSI0NC45ODQ0IiByeD0iMi41IiByeT0iMi41IiBzdHlsZT0ic3Ryb2tlOiMxODE4MTg7c3Ryb2tlLXdpZHRoOjAuNTsiIHdpZHRoPSI2MiIgeD0iODUzIiB5PSI0NjAiLz48cmVjdCBmaWxsPSIjRjFGMUYxIiBoZWlnaHQ9IjEwIiBzdHlsZT0ic3Ryb2tlOiMxODE4MTg7c3Ryb2tlLXdpZHRoOjAuNTsiIHdpZHRoPSIxNSIgeD0iODk1IiB5PSI0NjUiLz48cmVjdCBmaWxsPSIjRjFGMUYxIiBoZWlnaHQ9IjIiIHN0eWxlPSJzdHJva2U6IzE4MTgxODtzdHJva2Utd2lkdGg6MC41OyIgd2lkdGg9IjQiIHg9Ijg5MyIgeT0iNDY3Ii8+PHJlY3QgZmlsbD0iI0YxRjFGMSIgaGVpZ2h0PSIyIiBzdHlsZT0ic3Ryb2tlOiMxODE4MTg7c3Ryb2tlLXdpZHRoOjAuNTsiIHdpZHRoPSI0IiB4PSI4OTMiIHk9IjQ3MSIvPjx0ZXh0IGZpbGw9IiMwMDAwMDAiIGZvbnQtZmFtaWx5PSJzYW5zLXNlcmlmIiBmb250LXNpemU9IjE0IiBsZW5ndGhBZGp1c3Q9InNwYWNpbmciIHRleHRMZW5ndGg9IjIyIiB4PSI4NjgiIHk9IjQ5My4yMzQ0Ij5KV1Q8L3RleHQ+PC9nPjwhLS1lbnRpdHkgT0F1dGgyLS0+PGcgaWQ9ImVsZW1fT0F1dGgyIj48cmVjdCBmaWxsPSIjRjFGMUYxIiBoZWlnaHQ9IjQ0Ljk4NDQiIHJ4PSIyLjUiIHJ5PSIyLjUiIHN0eWxlPSJzdHJva2U6IzE4MTgxODtzdHJva2Utd2lkdGg6MC41OyIgd2lkdGg9IjgyIiB4PSI5NTAiIHk9IjQ2MCIvPjxyZWN0IGZpbGw9IiNGMUYxRjEiIGhlaWdodD0iMTAiIHN0eWxlPSJzdHJva2U6IzE4MTgxODtzdHJva2Utd2lkdGg6MC41OyIgd2lkdGg9IjE1IiB4PSIxMDEyIiB5PSI0NjUiLz48cmVjdCBmaWxsPSIjRjFGMUYxIiBoZWlnaHQ9IjIiIHN0eWxlPSJzdHJva2U6IzE4MTgxODtzdHJva2Utd2lkdGg6MC41OyIgd2lkdGg9IjQiIHg9IjEwMTAiIHk9IjQ2NyIvPjxyZWN0IGZpbGw9IiNGMUYxRjEiIGhlaWdodD0iMiIgc3R5bGU9InN0cm9rZTojMTgxODE4O3N0cm9rZS13aWR0aDowLjU7IiB3aWR0aD0iNCIgeD0iMTAxMCIgeT0iNDcxIi8+PHRleHQgZmlsbD0iIzAwMDAwMCIgZm9udC1mYW1pbHk9InNhbnMtc2VyaWYiIGZvbnQtc2l6ZT0iMTQiIGxlbmd0aEFkanVzdD0ic3BhY2luZyIgdGV4dExlbmd0aD0iNDIiIHg9Ijk2NSIgeT0iNDkzLjIzNDQiPk9BdXRoMjwvdGV4dD48L2c+PCEtLWVudGl0eSBiY3J5cHQtLT48ZyBpZD0iZWxlbV9iY3J5cHQiPjxyZWN0IGZpbGw9IiNGMUYxRjEiIGhlaWdodD0iNDQuOTg0NCIgcng9IjIuNSIgcnk9IjIuNSIgc3R5bGU9InN0cm9rZTojMTgxODE4O3N0cm9rZS13aWR0aDowLjU7IiB3aWR0aD0iODIiIHg9IjE0MDEiIHk9IjQ2MCIvPjxyZWN0IGZpbGw9IiNGMUYxRjEiIGhlaWdodD0iMTAiIHN0eWxlPSJzdHJva2U6IzE4MTgxODtzdHJva2Utd2lkdGg6MC41OyIgd2lkdGg9IjE1IiB4PSIxNDYzIiB5PSI0NjUiLz48cmVjdCBmaWxsPSIjRjFGMUYxIiBoZWlnaHQ9IjIiIHN0eWxlPSJzdHJva2U6IzE4MTgxODtzdHJva2Utd2lkdGg6MC41OyIgd2lkdGg9IjQiIHg9IjE0NjEiIHk9IjQ2NyIvPjxyZWN0IGZpbGw9IiNGMUYxRjEiIGhlaWdodD0iMiIgc3R5bGU9InN0cm9rZTojMTgxODE4O3N0cm9rZS13aWR0aDowLjU7IiB3aWR0aD0iNCIgeD0iMTQ2MSIgeT0iNDcxIi8+PHRleHQgZmlsbD0iIzAwMDAwMCIgZm9udC1mYW1pbHk9InNhbnMtc2VyaWYiIGZvbnQtc2l6ZT0iMTQiIGxlbmd0aEFkanVzdD0ic3BhY2luZyIgdGV4dExlbmd0aD0iNDIiIHg9IjE0MTYiIHk9IjQ5My4yMzQ0Ij5iY3J5cHQ8L3RleHQ+PC9nPjwhLS1lbnRpdHkgQ09SUy0tPjxnIGlkPSJlbGVtX0NPUlMiPjxyZWN0IGZpbGw9IiNGMUYxRjEiIGhlaWdodD0iNDQuOTg0NCIgcng9IjIuNSIgcnk9IjIuNSIgc3R5bGU9InN0cm9rZTojMTgxODE4O3N0cm9rZS13aWR0aDowLjU7IiB3aWR0aD0iNjgiIHg9IjE1MTgiIHk9IjQ2MCIvPjxyZWN0IGZpbGw9IiNGMUYxRjEiIGhlaWdodD0iMTAiIHN0eWxlPSJzdHJva2U6IzE4MTgxODtzdHJva2Utd2lkdGg6MC41OyIgd2lkdGg9IjE1IiB4PSIxNTY2IiB5PSI0NjUiLz48cmVjdCBmaWxsPSIjRjFGMUYxIiBoZWlnaHQ9IjIiIHN0eWxlPSJzdHJva2U6IzE4MTgxODtzdHJva2Utd2lkdGg6MC41OyIgd2lkdGg9IjQiIHg9IjE1NjQiIHk9IjQ2NyIvPjxyZWN0IGZpbGw9IiNGMUYxRjEiIGhlaWdodD0iMiIgc3R5bGU9InN0cm9rZTojMTgxODE4O3N0cm9rZS13aWR0aDowLjU7IiB3aWR0aD0iNCIgeD0iMTU2NCIgeT0iNDcxIi8+PHRleHQgZmlsbD0iIzAwMDAwMCIgZm9udC1mYW1pbHk9InNhbnMtc2VyaWYiIGZvbnQtc2l6ZT0iMTQiIGxlbmd0aEFkanVzdD0ic3BhY2luZyIgdGV4dExlbmd0aD0iMjgiIHg9IjE1MzMiIHk9IjQ5My4yMzQ0Ij5DT1JTPC90ZXh0PjwvZz48IS0tZW50aXR5IEhUVFBTLS0+PGcgaWQ9ImVsZW1fSFRUUFMiPjxyZWN0IGZpbGw9IiNGMUYxRjEiIGhlaWdodD0iNDQuOTg0NCIgcng9IjIuNSIgcnk9IjIuNSIgc3R5bGU9InN0cm9rZTojMTgxODE4O3N0cm9rZS13aWR0aDowLjU7IiB3aWR0aD0iNzUiIHg9IjE2MjEuNSIgeT0iNDYwIi8+PHJlY3QgZmlsbD0iI0YxRjFGMSIgaGVpZ2h0PSIxMCIgc3R5bGU9InN0cm9rZTojMTgxODE4O3N0cm9rZS13aWR0aDowLjU7IiB3aWR0aD0iMTUiIHg9IjE2NzYuNSIgeT0iNDY1Ii8+PHJlY3QgZmlsbD0iI0YxRjFGMSIgaGVpZ2h0PSIyIiBzdHlsZT0ic3Ryb2tlOiMxODE4MTg7c3Ryb2tlLXdpZHRoOjAuNTsiIHdpZHRoPSI0IiB4PSIxNjc0LjUiIHk9IjQ2NyIvPjxyZWN0IGZpbGw9IiNGMUYxRjEiIGhlaWdodD0iMiIgc3R5bGU9InN0cm9rZTojMTgxODE4O3N0cm9rZS13aWR0aDowLjU7IiB3aWR0aD0iNCIgeD0iMTY3NC41IiB5PSI0NzEiLz48dGV4dCBmaWxsPSIjMDAwMDAwIiBmb250LWZhbWlseT0ic2Fucy1zZXJpZiIgZm9udC1zaXplPSIxNCIgbGVuZ3RoQWRqdXN0PSJzcGFjaW5nIiB0ZXh0TGVuZ3RoPSIzNSIgeD0iMTYzNi41IiB5PSI0OTMuMjM0NCI+SFRUUFM8L3RleHQ+PC9nPjwhLS1lbnRpdHkgUHJvbWV0aGV1cy0tPjxnIGlkPSJlbGVtX1Byb21ldGhldXMiPjxyZWN0IGZpbGw9IiNGMUYxRjEiIGhlaWdodD0iNDQuOTg0NCIgcng9IjIuNSIgcnk9IjIuNSIgc3R5bGU9InN0cm9rZTojMTgxODE4O3N0cm9rZS13aWR0aDowLjU7IiB3aWR0aD0iMTExIiB4PSIxODk2LjUiIHk9IjMxOSIvPjxyZWN0IGZpbGw9IiNGMUYxRjEiIGhlaWdodD0iMTAiIHN0eWxlPSJzdHJva2U6IzE4MTgxODtzdHJva2Utd2lkdGg6MC41OyIgd2lkdGg9IjE1IiB4PSIxOTg3LjUiIHk9IjMyNCIvPjxyZWN0IGZpbGw9IiNGMUYxRjEiIGhlaWdodD0iMiIgc3R5bGU9InN0cm9rZTojMTgxODE4O3N0cm9rZS13aWR0aDowLjU7IiB3aWR0aD0iNCIgeD0iMTk4NS41IiB5PSIzMjYiLz48cmVjdCBmaWxsPSIjRjFGMUYxIiBoZWlnaHQ9IjIiIHN0eWxlPSJzdHJva2U6IzE4MTgxODtzdHJva2Utd2lkdGg6MC41OyIgd2lkdGg9IjQiIHg9IjE5ODUuNSIgeT0iMzMwIi8+PHRleHQgZmlsbD0iIzAwMDAwMCIgZm9udC1mYW1pbHk9InNhbnMtc2VyaWYiIGZvbnQtc2l6ZT0iMTQiIGxlbmd0aEFkanVzdD0ic3BhY2luZyIgdGV4dExlbmd0aD0iNzEiIHg9IjE5MTEuNSIgeT0iMzUyLjIzNDQiPlByb21ldGhldXM8L3RleHQ+PC9nPjwhLS1lbnRpdHkgR3JhZmFuYS0tPjxnIGlkPSJlbGVtX0dyYWZhbmEiPjxyZWN0IGZpbGw9IiNGMUYxRjEiIGhlaWdodD0iNDQuOTg0NCIgcng9IjIuNSIgcnk9IjIuNSIgc3R5bGU9InN0cm9rZTojMTgxODE4O3N0cm9rZS13aWR0aDowLjU7IiB3aWR0aD0iODkiIHg9IjE4OTQuNSIgeT0iNDYwIi8+PHJlY3QgZmlsbD0iI0YxRjFGMSIgaGVpZ2h0PSIxMCIgc3R5bGU9InN0cm9rZTojMTgxODE4O3N0cm9rZS13aWR0aDowLjU7IiB3aWR0aD0iMTUiIHg9IjE5NjMuNSIgeT0iNDY1Ii8+PHJlY3QgZmlsbD0iI0YxRjFGMSIgaGVpZ2h0PSIyIiBzdHlsZT0ic3Ryb2tlOiMxODE4MTg7c3Ryb2tlLXdpZHRoOjAuNTsiIHdpZHRoPSI0IiB4PSIxOTYxLjUiIHk9IjQ2NyIvPjxyZWN0IGZpbGw9IiNGMUYxRjEiIGhlaWdodD0iMiIgc3R5bGU9InN0cm9rZTojMTgxODE4O3N0cm9rZS13aWR0aDowLjU7IiB3aWR0aD0iNCIgeD0iMTk2MS41IiB5PSI0NzEiLz48dGV4dCBmaWxsPSIjMDAwMDAwIiBmb250LWZhbWlseT0ic2Fucy1zZXJpZiIgZm9udC1zaXplPSIxNCIgbGVuZ3RoQWRqdXN0PSJzcGFjaW5nIiB0ZXh0TGVuZ3RoPSI0OSIgeD0iMTkwOS41IiB5PSI0OTMuMjM0NCI+R3JhZmFuYTwvdGV4dD48L2c+PCEtLWVudGl0eSBFTEstLT48ZyBpZD0iZWxlbV9FTEsiPjxyZWN0IGZpbGw9IiNGMUYxRjEiIGhlaWdodD0iNDQuOTg0NCIgcng9IjIuNSIgcnk9IjIuNSIgc3R5bGU9InN0cm9rZTojMTgxODE4O3N0cm9rZS13aWR0aDowLjU7IiB3aWR0aD0iMTAzIiB4PSIyMTY5LjUiIHk9IjMxOSIvPjxyZWN0IGZpbGw9IiNGMUYxRjEiIGhlaWdodD0iMTAiIHN0eWxlPSJzdHJva2U6IzE4MTgxODtzdHJva2Utd2lkdGg6MC41OyIgd2lkdGg9IjE1IiB4PSIyMjUyLjUiIHk9IjMyNCIvPjxyZWN0IGZpbGw9IiNGMUYxRjEiIGhlaWdodD0iMiIgc3R5bGU9InN0cm9rZTojMTgxODE4O3N0cm9rZS13aWR0aDowLjU7IiB3aWR0aD0iNCIgeD0iMjI1MC41IiB5PSIzMjYiLz48cmVjdCBmaWxsPSIjRjFGMUYxIiBoZWlnaHQ9IjIiIHN0eWxlPSJzdHJva2U6IzE4MTgxODtzdHJva2Utd2lkdGg6MC41OyIgd2lkdGg9IjQiIHg9IjIyNTAuNSIgeT0iMzMwIi8+PHRleHQgZmlsbD0iIzAwMDAwMCIgZm9udC1mYW1pbHk9InNhbnMtc2VyaWYiIGZvbnQtc2l6ZT0iMTQiIGxlbmd0aEFkanVzdD0ic3BhY2luZyIgdGV4dExlbmd0aD0iNjMiIHg9IjIxODQuNSIgeT0iMzUyLjIzNDQiPkVMSyBTdGFjazwvdGV4dD48L2c+PCEtLWxpbmsgV2ViQXBwIHRvIEFQSS0tPjxnIGlkPSJsaW5rX1dlYkFwcF9BUEkiPjxwYXRoIGQ9Ik01OTAuNCw4NC4xNyBDNTkwLjMxLDk4LjMzIDU5Mi4wNywxMTYuNzggNjAwLDEzMSBDNjExLjMzLDE1MS4zMiA2MjYuMTE4MywxNjQuNTY1OSA2NDQuMTY4MywxNzYuNTI1OSAiIGZpbGw9Im5vbmUiIGlkPSJXZWJBcHAtdG8tQVBJIiBzdHlsZT0ic3Ryb2tlOiMxODE4MTg7c3Ryb2tlLXdpZHRoOjEuMDsiLz48cG9seWdvbiBmaWxsPSIjMTgxODE4IiBwb2ludHM9IjY0OS4xNywxNzkuODQsNjQzLjg3NjksMTcxLjUzNDQsNjQ1LjAwMTksMTc3LjA3ODIsNjM5LjQ1ODEsMTc4LjIwMzMsNjQ5LjE3LDE3OS44NCIgc3R5bGU9InN0cm9rZTojMTgxODE4O3N0cm9rZS13aWR0aDoxLjA7Ii8+PHRleHQgZmlsbD0iIzAwMDAwMCIgZm9udC1mYW1pbHk9InNhbnMtc2VyaWYiIGZvbnQtc2l6ZT0iMTMiIGxlbmd0aEFkanVzdD0ic3BhY2luZyIgdGV4dExlbmd0aD0iMTI4IiB4PSI2MDEiIHk9IjEyOS4yODkxIj5SZXF1JiMyMzQ7dGVzIEhUVFAvSFRUUFM8L3RleHQ+PC9nPjwhLS1saW5rIE1vYmlsZUFwcCB0byBBUEktLT48ZyBpZD0ibGlua19Nb2JpbGVBcHBfQVBJIj48cGF0aCBkPSJNNzY4Ljk2LDg0LjE5IEM3NjAuMTUsOTcuNzEgNzQ4LjUyLDExNS40NCA3MzgsMTMxIEM3MjYuOSwxNDcuNDMgNzE3LjU1NDEsMTYwLjg5NjkgNzA3LjgyNDEsMTc0Ljc3NjkgIiBmaWxsPSJub25lIiBpZD0iTW9iaWxlQXBwLXRvLUFQSSIgc3R5bGU9InN0cm9rZTojMTgxODE4O3N0cm9rZS13aWR0aDoxLjA7Ii8+PHBvbHlnb24gZmlsbD0iIzE4MTgxOCIgcG9pbnRzPSI3MDQuMzgsMTc5LjY5LDcxMi44MjE1LDE3NC42MTY1LDcwNy4yNTAxLDE3NS41OTU4LDcwNi4yNzA4LDE3MC4wMjQzLDcwNC4zOCwxNzkuNjkiIHN0eWxlPSJzdHJva2U6IzE4MTgxODtzdHJva2Utd2lkdGg6MS4wOyIvPjx0ZXh0IGZpbGw9IiMwMDAwMDAiIGZvbnQtZmFtaWx5PSJzYW5zLXNlcmlmIiBmb250LXNpemU9IjEzIiBsZW5ndGhBZGp1c3Q9InNwYWNpbmciIHRleHRMZW5ndGg9IjEyOCIgeD0iNzQ4IiB5PSIxMjkuMjg5MSI+UmVxdSYjMjM0O3RlcyBIVFRQL0hUVFBTPC90ZXh0PjwvZz48IS0tbGluayBBUEkgdG8gVXNlclNlcnZpY2UtLT48ZyBpZD0ibGlua19BUElfVXNlclNlcnZpY2UiPjxwYXRoIGQ9Ik02ODIuOTgsMjI1LjIxIEM2NzUuODYsMjUwLjg2IDY2NS43MDUsMjg3LjQ5ODcgNjU4LjU5NSwzMTMuMTA4NyAiIGZpbGw9Im5vbmUiIGlkPSJBUEktdG8tVXNlclNlcnZpY2UiIHN0eWxlPSJzdHJva2U6IzE4MTgxODtzdHJva2Utd2lkdGg6MS4wOyIvPjxwb2x5Z29uIGZpbGw9IiMxODE4MTgiIHBvaW50cz0iNjU2Ljk5LDMxOC44OSw2NjMuMjUxOCwzMTEuMjg4LDY1OC4zMjc1LDMxNC4wNzIyLDY1NS41NDMzLDMwOS4xNDgsNjU2Ljk5LDMxOC44OSIgc3R5bGU9InN0cm9rZTojMTgxODE4O3N0cm9rZS13aWR0aDoxLjA7Ii8+PHRleHQgZmlsbD0iIzAwMDAwMCIgZm9udC1mYW1pbHk9InNhbnMtc2VyaWYiIGZvbnQtc2l6ZT0iMTMiIGxlbmd0aEFkanVzdD0ic3BhY2luZyIgdGV4dExlbmd0aD0iMTAyIiB4PSI2NzUiIHk9IjI2OC4yODkxIj5BcHBlbHMgaW50ZXJuZXM8L3RleHQ+PC9nPjwhLS1saW5rIFVzZXJTZXJ2aWNlIHRvIERCLS0+PGcgaWQ9ImxpbmtfVXNlclNlcnZpY2VfREIiPjxwYXRoIGQ9Ik01NjAuOTIsMzQ2LjAyIEM0MTcuNzUsMzUyLjQzIDE1MC45OSwzNjcuOTkgMTE4LDM5NiBDOTkuNzIsNDExLjUyIDk1LjQxMDQsNDMzLjg4NDQgOTQuNjUwNCw0NTMuNjY0NCAiIGZpbGw9Im5vbmUiIGlkPSJVc2VyU2VydmljZS10by1EQiIgc3R5bGU9InN0cm9rZTojMTgxODE4O3N0cm9rZS13aWR0aDoxLjA7Ii8+PHBvbHlnb24gZmlsbD0iIzE4MTgxOCIgcG9pbnRzPSI5NC40Miw0NTkuNjYsOTguNzYyNiw0NTAuODIwMiw5NC42MTIsNDU0LjY2MzcsOTAuNzY4NSw0NTAuNTEzMSw5NC40Miw0NTkuNjYiIHN0eWxlPSJzdHJva2U6IzE4MTgxODtzdHJva2Utd2lkdGg6MS4wOyIvPjx0ZXh0IGZpbGw9IiMwMDAwMDAiIGZvbnQtZmFtaWx5PSJzYW5zLXNlcmlmIiBmb250LXNpemU9IjEzIiBsZW5ndGhBZGp1c3Q9InNwYWNpbmciIHRleHRMZW5ndGg9IjE5MyIgeD0iMTE5IiB5PSI0MDkuMjg5MSI+TGVjdHVyZS8mIzIwMTtjcml0dXJlIGRlcyBkb25uJiMyMzM7ZXM8L3RleHQ+PC9nPjwhLS1saW5rIFVzZXJTZXJ2aWNlIHRvIENhY2hlLS0+PGcgaWQ9ImxpbmtfVXNlclNlcnZpY2VfQ2FjaGUiPjxwYXRoIGQ9Ik01NjAuNzIsMzQ4Ljg4IEM0ODAuNiwzNTYuMTIgMzcwLjk3LDM3MC40IDMzNiwzOTYgQzMxNC44NSw0MTEuNDggMzA0LjgwNzQsNDM0LjM4MTEgMjk4Ljg3NzQsNDU0LjIzMTEgIiBmaWxsPSJub25lIiBpZD0iVXNlclNlcnZpY2UtdG8tQ2FjaGUiIHN0eWxlPSJzdHJva2U6IzE4MTgxODtzdHJva2Utd2lkdGg6MS4wOyIvPjxwb2x5Z29uIGZpbGw9IiMxODE4MTgiIHBvaW50cz0iMjk3LjE2LDQ1OS45OCwzMDMuNTY4OCw0NTIuNTAxNSwyOTguNTkxMiw0NTUuMTg5MiwyOTUuOTAzNSw0NTAuMjExNiwyOTcuMTYsNDU5Ljk4IiBzdHlsZT0ic3Ryb2tlOiMxODE4MTg7c3Ryb2tlLXdpZHRoOjEuMDsiLz48dGV4dCBmaWxsPSIjMDAwMDAwIiBmb250LWZhbWlseT0ic2Fucy1zZXJpZiIgZm9udC1zaXplPSIxMyIgbGVuZ3RoQWRqdXN0PSJzcGFjaW5nIiB0ZXh0TGVuZ3RoPSIxOTQiIHg9IjMzNyIgeT0iNDA5LjI4OTEiPkNhY2hlIGRlcyBkb25uJiMyMzM7ZXMgZnImIzIzMztxdWVudGVzPC90ZXh0PjwvZz48IS0tbGluayBVc2VyU2VydmljZSB0byBFbWFpbFNlcnZpY2UtLT48ZyBpZD0ibGlua19Vc2VyU2VydmljZV9FbWFpbFNlcnZpY2UiPjxwYXRoIGQ9Ik02MDEuNzksMzY0LjEgQzU4NS41MywzNzIuNjIgNTY4LjAzLDM4My40MSA1NTQsMzk2IEM1MzMuNDksNDE0LjQxIDUxOS4xNTk1LDQzNS44OTIxIDUwOC40ODk1LDQ1NC41NDIxICIgZmlsbD0ibm9uZSIgaWQ9IlVzZXJTZXJ2aWNlLXRvLUVtYWlsU2VydmljZSIgc3R5bGU9InN0cm9rZTojMTgxODE4O3N0cm9rZS13aWR0aDoxLjA7Ii8+PHBvbHlnb24gZmlsbD0iIzE4MTgxOCIgcG9pbnRzPSI1MDUuNTEsNDU5Ljc1LDUxMy40NTEzLDQ1My45MjQ1LDUwNy45OTI5LDQ1NS40MTAxLDUwNi41MDc0LDQ0OS45NTE4LDUwNS41MSw0NTkuNzUiIHN0eWxlPSJzdHJva2U6IzE4MTgxODtzdHJva2Utd2lkdGg6MS4wOyIvPjx0ZXh0IGZpbGw9IiMwMDAwMDAiIGZvbnQtZmFtaWx5PSJzYW5zLXNlcmlmIiBmb250LXNpemU9IjEzIiBsZW5ndGhBZGp1c3Q9InNwYWNpbmciIHRleHRMZW5ndGg9IjkzIiB4PSI1NTUiIHk9IjQwOS4yODkxIj5FbnZvaSBkJ2VtYWlsczwvdGV4dD48L2c+PCEtLWxpbmsgVXNlclNlcnZpY2UgdG8gU01TU2VydmljZS0tPjxnIGlkPSJsaW5rX1VzZXJTZXJ2aWNlX1NNU1NlcnZpY2UiPjxwYXRoIGQ9Ik02NTMuNywzNjQuMTEgQzY1NS40MywzNzcuNjEgNjU3Ljc1LDM5NS4zMyA2NjAsNDExIEM2NjIuMzYsNDI3LjQzIDY2NC4zMTIyLDQ0MC4wNTUzIDY2Ni41NDIyLDQ1My45OTUzICIgZmlsbD0ibm9uZSIgaWQ9IlVzZXJTZXJ2aWNlLXRvLVNNU1NlcnZpY2UiIHN0eWxlPSJzdHJva2U6IzE4MTgxODtzdHJva2Utd2lkdGg6MS4wOyIvPjxwb2x5Z29uIGZpbGw9IiMxODE4MTgiIHBvaW50cz0iNjY3LjQ5LDQ1OS45Miw2NzAuMDE4MSw0NTAuNDAxMSw2NjYuNzAwMiw0NTQuOTgyOCw2NjIuMTE4Niw0NTEuNjY0OCw2NjcuNDksNDU5LjkyIiBzdHlsZT0ic3Ryb2tlOiMxODE4MTg7c3Ryb2tlLXdpZHRoOjEuMDsiLz48dGV4dCBmaWxsPSIjMDAwMDAwIiBmb250LWZhbWlseT0ic2Fucy1zZXJpZiIgZm9udC1zaXplPSIxMyIgbGVuZ3RoQWRqdXN0PSJzcGFjaW5nIiB0ZXh0TGVuZ3RoPSI4MyIgeD0iNjYxIiB5PSI0MDkuMjg5MSI+RW52b2kgZGUgU01TPC90ZXh0PjwvZz48IS0tbGluayBVc2VyU2VydmljZSB0byBKV1QtLT48ZyBpZD0ibGlua19Vc2VyU2VydmljZV9KV1QiPjxwYXRoIGQ9Ik02OTEuODYsMzY0LjA0IEM3MDkuNTcsMzczLjU4IDczMC40NiwzODUuMDggNzQ5LDM5NiBDNzg1LjIyLDQxNy4zMyA4MjAuODI0Myw0NDAuMDcyNCA4NDcuOTY0Myw0NTcuNzcyNCAiIGZpbGw9Im5vbmUiIGlkPSJVc2VyU2VydmljZS10by1KV1QiIHN0eWxlPSJzdHJva2U6IzE4MTgxODtzdHJva2Utd2lkdGg6MS4wOyIvPjxwb2x5Z29uIGZpbGw9IiMxODE4MTgiIHBvaW50cz0iODUyLjk5LDQ2MS4wNSw4NDcuNjM2Niw0NTIuNzgzMSw4NDguODAxOSw0NTguMzE4Nyw4NDMuMjY2NCw0NTkuNDg0LDg1Mi45OSw0NjEuMDUiIHN0eWxlPSJzdHJva2U6IzE4MTgxODtzdHJva2Utd2lkdGg6MS4wOyIvPjx0ZXh0IGZpbGw9IiMwMDAwMDAiIGZvbnQtZmFtaWx5PSJzYW5zLXNlcmlmIiBmb250LXNpemU9IjEzIiBsZW5ndGhBZGp1c3Q9InNwYWNpbmciIHRleHRMZW5ndGg9IjIxMCIgeD0iNzcyIiB5PSI0MDkuMjg5MSI+RyYjMjMzO24mIzIzMztyYXRpb24vVmFsaWRhdGlvbiBkZSB0b2tlbnM8L3RleHQ+PC9nPjwhLS1saW5rIFVzZXJTZXJ2aWNlIHRvIE9BdXRoMi0tPjxnIGlkPSJsaW5rX1VzZXJTZXJ2aWNlX09BdXRoMiI+PHBhdGggZD0iTTc0MS4zMSwzNDMuOTMgQzgzMC45NiwzNDcuNDkgOTU5LjQ1LDM1OS4xIDk5MSwzOTYgQzEwMDUuODUsNDEzLjM3IDEwMDQuMjk1Miw0MzQuOTY5MSA5OTkuNTI1Miw0NTQuMDQ5MSAiIGZpbGw9Im5vbmUiIGlkPSJVc2VyU2VydmljZS10by1PQXV0aDIiIHN0eWxlPSJzdHJva2U6IzE4MTgxODtzdHJva2Utd2lkdGg6MS4wOyIvPjxwb2x5Z29uIGZpbGw9IiMxODE4MTgiIHBvaW50cz0iOTk4LjA3LDQ1OS44NywxMDA0LjEzMzQsNDUyLjEwODksOTk5LjI4MjcsNDU1LjAxOTMsOTk2LjM3MjMsNDUwLjE2ODYsOTk4LjA3LDQ1OS44NyIgc3R5bGU9InN0cm9rZTojMTgxODE4O3N0cm9rZS13aWR0aDoxLjA7Ii8+PHRleHQgZmlsbD0iIzAwMDAwMCIgZm9udC1mYW1pbHk9InNhbnMtc2VyaWYiIGZvbnQtc2l6ZT0iMTMiIGxlbmd0aEFkanVzdD0ic3BhY2luZyIgdGV4dExlbmd0aD0iMzA1IiB4PSI5OTkiIHk9IjQwOS4yODkxIj5JbnQmIzIzMztncmF0aW9uIGF2ZWMgZGVzIHRpZXJzIChHb29nbGUsIEZhY2Vib29rKTwvdGV4dD48L2c+PCEtLWxpbmsgVXNlclNlcnZpY2UgdG8gYmNyeXB0LS0+PGcgaWQ9ImxpbmtfVXNlclNlcnZpY2VfYmNyeXB0Ij48cGF0aCBkPSJNNzQxLjIxLDM0NC4yMyBDODk3LjAzLDM0OC4xNSAxMjA5LjgyLDM2MC4zMSAxMzEzLDM5NiBDMTM1My4zNyw0MDkuOTYgMTM4OC43NTE5LDQzNS43MTc0IDE0MTMuMjUxOSw0NTYuMTQ3NCAiIGZpbGw9Im5vbmUiIGlkPSJVc2VyU2VydmljZS10by1iY3J5cHQiIHN0eWxlPSJzdHJva2U6IzE4MTgxODtzdHJva2Utd2lkdGg6MS4wOyIvPjxwb2x5Z29uIGZpbGw9IiMxODE4MTgiIHBvaW50cz0iMTQxNy44Niw0NTkuOTksMTQxMy41MDk2LDQ1MS4xNTQxLDE0MTQuMDE5OSw0NTYuNzg3OCwxNDA4LjM4NjEsNDU3LjI5ODIsMTQxNy44Niw0NTkuOTkiIHN0eWxlPSJzdHJva2U6IzE4MTgxODtzdHJva2Utd2lkdGg6MS4wOyIvPjx0ZXh0IGZpbGw9IiMwMDAwMDAiIGZvbnQtZmFtaWx5PSJzYW5zLXNlcmlmIiBmb250LXNpemU9IjEzIiBsZW5ndGhBZGp1c3Q9InNwYWNpbmciIHRleHRMZW5ndGg9IjE3MyIgeD0iMTM0NCIgeT0iNDA5LjI4OTEiPkhhY2hhZ2UgZGVzIG1vdHMgZGUgcGFzc2U8L3RleHQ+PC9nPjwhLS1saW5rIEFQSSB0byBDT1JTLS0+PGcgaWQ9ImxpbmtfQVBJX0NPUlMiPjxwYXRoIGQ9Ik03NDguNDQsMjIzLjUzIEM4NjcuOTYsMjYyLjgyIDExNDYuNjEsMzQ5LjU0IDEzODgsMzg4IEMxNDAzLjE3LDM5MC40MiAxNTEzLjkzLDM4Ni41IDE1MjYsMzk2IEMxNTQ1LjE0LDQxMS4wNiAxNTUwLjE3NTUsNDMzLjgyMzYgMTU1MS41MjU1LDQ1My44MDM2ICIgZmlsbD0ibm9uZSIgaWQ9IkFQSS10by1DT1JTIiBzdHlsZT0ic3Ryb2tlOiMxODE4MTg7c3Ryb2tlLXdpZHRoOjEuMDsiLz48cG9seWdvbiBmaWxsPSIjMTgxODE4IiBwb2ludHM9IjE1NTEuOTMsNDU5Ljc5LDE1NTUuMzE0Miw0NTAuNTQwOCwxNTUxLjU5MjksNDU0LjgwMTQsMTU0Ny4zMzI0LDQ1MS4wODAxLDE1NTEuOTMsNDU5Ljc5IiBzdHlsZT0ic3Ryb2tlOiMxODE4MTg7c3Ryb2tlLXdpZHRoOjEuMDsiLz48dGV4dCBmaWxsPSIjMDAwMDAwIiBmb250LWZhbWlseT0ic2Fucy1zZXJpZiIgZm9udC1zaXplPSIxMyIgbGVuZ3RoQWRqdXN0PSJzcGFjaW5nIiB0ZXh0TGVuZ3RoPSIyMjYiIHg9IjEzODkiIHk9IjM0Ny4yODkxIj5HZXN0aW9uIGRlcyByZXF1JiMyMzQ7dGVzIGNyb3NzLW9yaWdpbjwvdGV4dD48L2c+PCEtLWxpbmsgQVBJIHRvIEhUVFBTLS0+PGcgaWQ9ImxpbmtfQVBJX0hUVFBTIj48cGF0aCBkPSJNNzQ4LjM0LDIwNC4xNSBDOTQzLjI1LDIwNi44NCAxNTU1LjEzLDIxOS44NyAxNjIwLDI3OCBDMTY3Mi4xMSwzMjQuNjkgMTY2OC4yODU3LDQxMS45NDUzIDE2NjMuMDg1Nyw0NTQuMDM1MyAiIGZpbGw9Im5vbmUiIGlkPSJBUEktdG8tSFRUUFMiIHN0eWxlPSJzdHJva2U6IzE4MTgxODtzdHJva2Utd2lkdGg6MS4wOyIvPjxwb2x5Z29uIGZpbGw9IiMxODE4MTgiIHBvaW50cz0iMTY2Mi4zNSw0NTkuOTksMTY2Ny40MjMzLDQ1MS41NDg0LDE2NjIuOTYzMSw0NTUuMDI3NywxNjU5LjQ4MzcsNDUwLjU2NzUsMTY2Mi4zNSw0NTkuOTkiIHN0eWxlPSJzdHJva2U6IzE4MTgxODtzdHJva2Utd2lkdGg6MS4wOyIvPjx0ZXh0IGZpbGw9IiMwMDAwMDAiIGZvbnQtZmFtaWx5PSJzYW5zLXNlcmlmIiBmb250LXNpemU9IjEzIiBsZW5ndGhBZGp1c3Q9InNwYWNpbmciIHRleHRMZW5ndGg9IjIwMCIgeD0iMTY2NSIgeT0iMzQ3LjI4OTEiPkNoaWZmcmVtZW50IGRlcyBjb21tdW5pY2F0aW9uczwvdGV4dD48L2c+PCEtLWxpbmsgQVBJIHRvIFByb21ldGhldXMtLT48ZyBpZD0ibGlua19BUElfUHJvbWV0aGV1cyI+PHBhdGggZD0iTTc0OC4wNCwyMDUuMDUgQzkwMi4zMiwyMDkuNDQgMTMzMC4xMywyMjMuNjkgMTY4NSwyNTUgQzE3NjcuMSwyNjIuMjQgMTc5Mi42MiwyNDcuMDYgMTg2OSwyNzggQzE4OTIuMDcsMjg3LjM1IDE5MDkuOTI3LDMwMC43Njk4IDE5MjUuNTk3LDMxNC44NDk4ICIgZmlsbD0ibm9uZSIgaWQ9IkFQSS10by1Qcm9tZXRoZXVzIiBzdHlsZT0ic3Ryb2tlOiMxODE4MTg7c3Ryb2tlLXdpZHRoOjEuMDsiLz48cG9seWdvbiBmaWxsPSIjMTgxODE4IiBwb2ludHM9IjE5MzAuMDYsMzE4Ljg2LDE5MjYuMDM4OSwzMDkuODY5NCwxOTI2LjM0MDgsMzE1LjUxODIsMTkyMC42OTIsMzE1LjgyMDEsMTkzMC4wNiwzMTguODYiIHN0eWxlPSJzdHJva2U6IzE4MTgxODtzdHJva2Utd2lkdGg6MS4wOyIvPjx0ZXh0IGZpbGw9IiMwMDAwMDAiIGZvbnQtZmFtaWx5PSJzYW5zLXNlcmlmIiBmb250LXNpemU9IjEzIiBsZW5ndGhBZGp1c3Q9InNwYWNpbmciIHRleHRMZW5ndGg9IjE2NCIgeD0iMTg0NCIgeT0iMjY4LjI4OTEiPk0mIzIzMzt0cmlxdWVzIGRlIHBlcmZvcm1hbmNlPC90ZXh0PjwvZz48IS0tbGluayBQcm9tZXRoZXVzIHRvIEdyYWZhbmEtLT48ZyBpZD0ibGlua19Qcm9tZXRoZXVzX0dyYWZhbmEiPjxwYXRoIGQ9Ik0xOTQ5Ljk3LDM2NC4yMiBDMTk0Ny41MywzOTAuMzMgMTk0NC4wMDc1LDQyNy45MTYgMTk0MS41Nzc1LDQ1My45NTYgIiBmaWxsPSJub25lIiBpZD0iUHJvbWV0aGV1cy10by1HcmFmYW5hIiBzdHlsZT0ic3Ryb2tlOiMxODE4MTg7c3Ryb2tlLXdpZHRoOjEuMDsiLz48cG9seWdvbiBmaWxsPSIjMTgxODE4IiBwb2ludHM9IjE5NDEuMDIsNDU5LjkzLDE5NDUuODM4OSw0NTEuMzQwNiwxOTQxLjQ4NDYsNDU0Ljk1MTYsMTkzNy44NzM1LDQ1MC41OTczLDE5NDEuMDIsNDU5LjkzIiBzdHlsZT0ic3Ryb2tlOiMxODE4MTg7c3Ryb2tlLXdpZHRoOjEuMDsiLz48dGV4dCBmaWxsPSIjMDAwMDAwIiBmb250LWZhbWlseT0ic2Fucy1zZXJpZiIgZm9udC1zaXplPSIxMyIgbGVuZ3RoQWRqdXN0PSJzcGFjaW5nIiB0ZXh0TGVuZ3RoPSIxODEiIHg9IjE5NDciIHk9IjQwOS4yODkxIj5WaXN1YWxpc2F0aW9uIGRlcyBtJiMyMzM7dHJpcXVlczwvdGV4dD48L2c+PCEtLWxpbmsgQVBJIHRvIEVMSy0tPjxnIGlkPSJsaW5rX0FQSV9FTEsiPjxwYXRoIGQ9Ik03NDguMSwyMDQuNSBDOTcxLjczLDIwOC41IDE3NjYuMDUsMjI0LjU3IDIwMTcsMjU1IEMyMDY3LjQ1LDI2MS4xMiAyMDgyLjE5LDI1OC4yMyAyMTI5LDI3OCBDMjE1My4xOSwyODguMjIgMjE3Mi45MDMsMzAxLjUzNzUgMjE5MC41MTMsMzE1LjIyNzUgIiBmaWxsPSJub25lIiBpZD0iQVBJLXRvLUVMSyIgc3R5bGU9InN0cm9rZTojMTgxODE4O3N0cm9rZS13aWR0aDoxLjA7Ii8+PHBvbHlnb24gZmlsbD0iIzE4MTgxOCIgcG9pbnRzPSIyMTk1LjI1LDMxOC45MSwyMTkwLjU5OTUsMzEwLjIyODIsMjE5MS4zMDI1LDMxNS44NDEyLDIxODUuNjg5NSwzMTYuNTQ0MiwyMTk1LjI1LDMxOC45MSIgc3R5bGU9InN0cm9rZTojMTgxODE4O3N0cm9rZS13aWR0aDoxLjA7Ii8+PHRleHQgZmlsbD0iIzAwMDAwMCIgZm9udC1mYW1pbHk9InNhbnMtc2VyaWYiIGZvbnQtc2l6ZT0iMTMiIGxlbmd0aEFkanVzdD0ic3BhY2luZyIgdGV4dExlbmd0aD0iMTAzIiB4PSIyMTA3IiB5PSIyNjguMjg5MSI+TG9ncyBldCBhbmFseXNlPC90ZXh0PjwvZz48IS0tU1JDPVtYTEhCUmppbTREdGg1OERpc1c4cjM3SlBITzZ1VGZtcURjQjQtSW9BQmNYdzkxRUhJOE1hTjFYNTN6MlpnRFZHbkpmM29mOVM1LVlBZXZkdFhsRHZMMmRhWXlXR0Jnd2lxSHhyelc5LTkwMVZCeWlvTHI5dVBKR3l1LU9SMkNTZGtWLUVCaXI2dkhXMHFNSkNwb0dmWnZhZFAwbUloc3ZXQlpuLTV1VjBlTXpzaHo3a2JLSHV6MmZOWmtBTFRJNy13RDJzR1NQRFg0Rk84YW9EcmFzRDRKRVRTRVlwYUJqT0h4MjZNUlRsUGVMR1VHVzZRdjJubW8yaWItaTBlVkM4NjNQb01WYVRRZ19JamxNc2VvX0YzdTU1OXRfVUNVbjN5NEpwOUNVd2dNTGJiTV9nYmhzSHpiM3cwOHpjUUVOa0ZiUjIxWmtrN252TXFIRWlhdkhCZXZLdExrY2lKUmNvZmEwZ2pPaEp3Snl2RUJTWTVMZzRJNmtWUDVrT0JFakpwSFF0aUZPS1l3RFJ0Mzhzd1cxNmVxLXlGVlc4el9YUURSeXpua2g2aVNIRTNGeTM5WG5acDYzTFgyS2N2V3VLZ1Q5Z1RDYW1va1pmWDQwQmJCd29FNnYtSUhlZ01SSDYxempNNzZVUzgwb1luTkM4WFRHc3pNajV3X3E3UklXUE9pX3F0WVpJNUJCeDdEc2hmeVM2UklMZEs5OENPVVBESkpOT2VBZG5heVpMRGh1aU9kYjNKLVZ5WVlXaWVqdmVLYjhNZ0kzc0E0REpOZzVyeTdQa0o5UlpVeFdJNFpWNmxCbXhCbzFBWlg5VHFxSHVfcW1sWjdUeVVJY1Ntc3V4QjRLazViclJkMEZSaExEUXV6bzhINFpRd0hYWGxKcGpkS2ZKWW1LRER6MmFBT2ZBanVfOHpWbGxYS2dhUExEeGdzV1ppSElxZ1I2NXFGR2ExcDFjakk4Y29mRG9iR1hfWnNFMUhQVWFrdUdMSlJlbmNHRnFHQ0p5dUYwRl0tLT48L2c+PC9zdmc+;" vertex="1" parent="1">
            <mxGeometry x="-790" y="1510" width="2296" height="528" as="geometry" />
          </mxCell>
        </UserObject>
      </root>
    </mxGraphModel>
  </diagram>
</mxfile>
